M48
;DRILL file {kicad (2014-11-21 BZR 5297)-product} date So 01 Feb 2015 20:06:09 CET
;FORMAT={-:-/ absolute / metric / decimal}
FMAT,2
METRIC,TZ
T1C0.300
T2C1.016
%
G90
G05
M71
T1
X198.7Y-80.4
X198.9Y-66.5
X199.9Y-70.1
X200.3Y-76.1
X201.2Y-80.4
X202.8Y-67.2
X203.1Y-69.9
X203.993Y-82.146
X204.8Y-80.1
X204.9Y-75.9
X205.Y-76.8
X205.4Y-72.
X205.8Y-76.4
X206.3Y-80.7
X206.7Y-72.1
X207.1Y-83.4
X207.4Y-68.5
X207.8Y-80.9
X208.1Y-67.4
X213.7Y-65.8
X215.6Y-70.9
T2
X199.75Y-86.53
X199.75Y-89.07
X202.29Y-86.53
X202.29Y-89.07
X204.83Y-86.53
X204.83Y-89.07
X207.37Y-86.53
X207.37Y-89.07
X209.91Y-86.53
X209.91Y-89.07
X212.45Y-86.53
X212.45Y-89.07
X216.8Y-76.45
X216.8Y-78.99
X216.8Y-81.53
X216.8Y-84.07
X216.8Y-86.61
X216.8Y-89.15
T0
M30
