%FSLAX46Y46*%
G04 Gerber Fmt 4.6, Leading zero omitted, Abs format (unit mm)*
G04 Created by KiCad (PCBNEW (2014-08-05 BZR 5054)-product) date Di 03 Feb 2015 10:04:48 CET*
%MOMM*%
G01*
G04 APERTURE LIST*
%ADD10C,0.100000*%
%ADD11R,1.727200X1.727200*%
%ADD12O,1.727200X1.727200*%
%ADD13R,0.800000X0.750000*%
%ADD14R,0.600000X0.500000*%
%ADD15R,0.900000X2.500000*%
%ADD16R,1.000000X1.000000*%
%ADD17R,2.200000X1.050000*%
%ADD18R,0.900000X0.500000*%
%ADD19R,0.500000X0.900000*%
%ADD20R,2.032000X1.727200*%
%ADD21O,2.032000X1.727200*%
%ADD22R,1.000000X2.500000*%
%ADD23C,0.600000*%
%ADD24C,0.508000*%
%ADD25C,0.254000*%
%ADD26C,0.304800*%
%ADD27C,1.057585*%
G04 APERTURE END LIST*
D10*
D11*
X212450000Y-86530000D03*
D12*
X212450000Y-89070000D03*
X209910000Y-86530000D03*
X209910000Y-89070000D03*
X207370000Y-86530000D03*
X207370000Y-89070000D03*
X204830000Y-86530000D03*
X204830000Y-89070000D03*
X202290000Y-86530000D03*
X202290000Y-89070000D03*
X199750000Y-86530000D03*
X199750000Y-89070000D03*
D13*
X204150000Y-83200000D03*
X205650000Y-83200000D03*
D14*
X209550000Y-76300000D03*
X210650000Y-76300000D03*
D15*
X214285000Y-74040000D03*
X213015000Y-74040000D03*
X211745000Y-74040000D03*
X210475000Y-74040000D03*
X209205000Y-74040000D03*
X207935000Y-74040000D03*
X206665000Y-74040000D03*
X205395000Y-74040000D03*
X204125000Y-74040000D03*
X202855000Y-74040000D03*
X201585000Y-74040000D03*
X200315000Y-74040000D03*
X214285000Y-58560000D03*
X213015000Y-58560000D03*
D16*
X208400000Y-54800000D03*
X205400000Y-54800000D03*
D17*
X206900000Y-53325000D03*
X206900000Y-56275000D03*
D18*
X210000000Y-83250000D03*
X210000000Y-81750000D03*
X202600000Y-83250000D03*
X202600000Y-81750000D03*
X212200000Y-81750000D03*
X212200000Y-83250000D03*
X200400000Y-81750000D03*
X200400000Y-83250000D03*
D19*
X202150000Y-77400000D03*
X203650000Y-77400000D03*
D20*
X216800000Y-89150000D03*
D21*
X216800000Y-86610000D03*
X216800000Y-84070000D03*
X216800000Y-81530000D03*
X216800000Y-78990000D03*
X216800000Y-76450000D03*
D22*
X209700000Y-78500000D03*
X212700000Y-78500000D03*
D23*
X202800000Y-67200000D03*
X200300000Y-76100000D03*
X213700000Y-65800000D03*
X207800000Y-80900000D03*
X215600000Y-70900000D03*
X208100000Y-67400000D03*
X199900000Y-70100000D03*
X198700000Y-80400000D03*
X205800000Y-76400000D03*
X203993366Y-82146442D03*
X204800000Y-80100000D03*
X204900000Y-75900000D03*
X207400000Y-68500000D03*
X198900000Y-66500000D03*
X207100000Y-83400000D03*
X206700000Y-72100000D03*
X203100000Y-69900000D03*
X205400000Y-72000000D03*
X206300000Y-80700000D03*
X201200000Y-80400000D03*
X205000000Y-76800000D03*
D24*
X205650000Y-83200000D02*
X205650000Y-85410000D01*
X205650000Y-85410000D02*
X204830000Y-86230000D01*
X204830000Y-86230000D02*
X204830000Y-86530000D01*
X205650000Y-83200000D02*
X205650000Y-82317000D01*
X205650000Y-82317000D02*
X204733000Y-81400000D01*
X204733000Y-81400000D02*
X204100000Y-81400000D01*
X204100000Y-81400000D02*
X200300000Y-77600000D01*
X200300000Y-77600000D02*
X200300000Y-76100000D01*
D25*
X205650000Y-83200000D02*
X205650000Y-82571000D01*
D24*
X201585000Y-74040000D02*
X201585000Y-69215000D01*
X202800000Y-68000000D02*
X202800000Y-67200000D01*
X201585000Y-69215000D02*
X202800000Y-68000000D01*
X200315000Y-74040000D02*
X200315000Y-76085000D01*
X200315000Y-76085000D02*
X200300000Y-76100000D01*
D26*
X216800000Y-76450000D02*
X216800000Y-67500000D01*
X215100000Y-65800000D02*
X213700000Y-65800000D01*
X216800000Y-67500000D02*
X215100000Y-65800000D01*
X205800000Y-83450000D02*
X205800000Y-85560000D01*
X205800000Y-85560000D02*
X204830000Y-86530000D01*
D24*
X214285000Y-74040000D02*
X214390000Y-74040000D01*
X214390000Y-74040000D02*
X216800000Y-76450000D01*
X210650000Y-76300000D02*
X211500000Y-76300000D01*
X211500000Y-76300000D02*
X212700000Y-77500000D01*
X212700000Y-77500000D02*
X212700000Y-78500000D01*
D26*
X211500000Y-76300000D02*
X212700000Y-77500000D01*
X212700000Y-78500000D02*
X212700000Y-77500000D01*
X214285000Y-75915000D02*
X214285000Y-74040000D01*
X212700000Y-77500000D02*
X214285000Y-75915000D01*
X201585000Y-74040000D02*
X200315000Y-74040000D01*
D25*
X207500000Y-79900000D02*
X207800000Y-80200000D01*
X205200000Y-80800000D02*
X206100000Y-79900000D01*
X204521067Y-80800000D02*
X205200000Y-80800000D01*
X202150000Y-78428933D02*
X204521067Y-80800000D01*
X202150000Y-77400000D02*
X202150000Y-78428933D01*
X206100000Y-79900000D02*
X207500000Y-79900000D01*
X208100000Y-78500000D02*
X209700000Y-78500000D01*
X207800000Y-78800000D02*
X208100000Y-78500000D01*
X207800000Y-80900000D02*
X207800000Y-80200000D01*
X207800000Y-80200000D02*
X207800000Y-78800000D01*
D24*
X209550000Y-76300000D02*
X209550000Y-78350000D01*
X209550000Y-78350000D02*
X209700000Y-78500000D01*
X209205000Y-74040000D02*
X209205000Y-75955000D01*
X209205000Y-75955000D02*
X209550000Y-76300000D01*
X208100000Y-67400000D02*
X208500000Y-67800000D01*
X208500000Y-67800000D02*
X208500000Y-70500000D01*
X208500000Y-70500000D02*
X209205000Y-71205000D01*
X209205000Y-71205000D02*
X209205000Y-74040000D01*
D26*
X209700000Y-78500000D02*
X209700000Y-76450000D01*
X209700000Y-76450000D02*
X209550000Y-76300000D01*
X209550000Y-76300000D02*
X209550000Y-76250000D01*
X209550000Y-76250000D02*
X209205000Y-75905000D01*
X209205000Y-75905000D02*
X209205000Y-74040000D01*
X209205000Y-74040000D02*
X209205000Y-71205000D01*
X209205000Y-71205000D02*
X208900000Y-70900000D01*
X208900000Y-70900000D02*
X215600000Y-70900000D01*
X208500000Y-70500000D02*
X208900000Y-70900000D01*
X208500000Y-67800000D02*
X208500000Y-70500000D01*
X209910000Y-86530000D02*
X209910000Y-85310000D01*
X209910000Y-85310000D02*
X209000000Y-84400000D01*
X209000000Y-84400000D02*
X209000000Y-82900000D01*
X209000000Y-82900000D02*
X209400000Y-82500000D01*
D24*
X198800000Y-71200000D02*
X199900000Y-70100000D01*
X198800000Y-80300000D02*
X198800000Y-71200000D01*
X198700000Y-80400000D02*
X198800000Y-80300000D01*
D26*
X216800000Y-81530000D02*
X214470000Y-81530000D01*
X213500000Y-82500000D02*
X209400000Y-82500000D01*
X214470000Y-81530000D02*
X213500000Y-82500000D01*
D25*
X205800000Y-76400000D02*
X205800000Y-78000000D01*
X203596924Y-81750000D02*
X203993366Y-82146442D01*
X202600000Y-81750000D02*
X203596924Y-81750000D01*
X205800000Y-78000000D02*
X204800000Y-79000000D01*
X204800000Y-79000000D02*
X204800000Y-80100000D01*
X204900000Y-75900000D02*
X204125000Y-75125000D01*
X204125000Y-75125000D02*
X204125000Y-74040000D01*
D26*
X203650000Y-77400000D02*
X203650000Y-77050000D01*
X203650000Y-77050000D02*
X204125000Y-76575000D01*
X204125000Y-76575000D02*
X204125000Y-74040000D01*
D25*
X210000000Y-81750000D02*
X208750000Y-81750000D01*
X207400000Y-67900000D02*
X207400000Y-68500000D01*
X206000000Y-66500000D02*
X207400000Y-67900000D01*
X198900000Y-66500000D02*
X206000000Y-66500000D01*
X208750000Y-81750000D02*
X207100000Y-83400000D01*
D26*
X206665000Y-74040000D02*
X206665000Y-72135000D01*
X206665000Y-72135000D02*
X206700000Y-72100000D01*
X207935000Y-74040000D02*
X207935000Y-71935000D01*
X204400000Y-71200000D02*
X203100000Y-69900000D01*
X207200000Y-71200000D02*
X204400000Y-71200000D01*
X207935000Y-71935000D02*
X207200000Y-71200000D01*
X205395000Y-74040000D02*
X205395000Y-72005000D01*
X205395000Y-72005000D02*
X205400000Y-72000000D01*
D25*
X212200000Y-81750000D02*
X212200000Y-81700000D01*
X212200000Y-81700000D02*
X211400000Y-80900000D01*
X211400000Y-80900000D02*
X208800000Y-80900000D01*
X208800000Y-80900000D02*
X207800000Y-81900000D01*
X207800000Y-81900000D02*
X207500000Y-81900000D01*
X207500000Y-81900000D02*
X206300000Y-80700000D01*
X200400000Y-81750000D02*
X200400000Y-81200000D01*
X200400000Y-81200000D02*
X201200000Y-80400000D01*
X200400000Y-81750000D02*
X200750000Y-81750000D01*
X203100000Y-78300000D02*
X202900000Y-78100000D01*
X202900000Y-78100000D02*
X202900000Y-76200000D01*
X202900000Y-76200000D02*
X202855000Y-76155000D01*
X202855000Y-76155000D02*
X202855000Y-74040000D01*
X204500000Y-78100000D02*
X204300000Y-78300000D01*
X204500000Y-77300000D02*
X204500000Y-78100000D01*
X205000000Y-76800000D02*
X204500000Y-77300000D01*
X204300000Y-78300000D02*
X203100000Y-78300000D01*
D27*
X208400000Y-54800000D02*
X213500000Y-54800000D01*
X214285000Y-55585000D02*
X214285000Y-58560000D01*
X213500000Y-54800000D02*
X214285000Y-55585000D01*
D26*
X210000000Y-83250000D02*
X210000000Y-84080000D01*
X210000000Y-84080000D02*
X212450000Y-86530000D01*
D25*
X212450000Y-89070000D02*
X212830000Y-89070000D01*
X212830000Y-89070000D02*
X213800000Y-88100000D01*
X213800000Y-88100000D02*
X213800000Y-85100000D01*
X213800000Y-85100000D02*
X212200000Y-83500000D01*
X212200000Y-83500000D02*
X212200000Y-83250000D01*
D26*
X212200000Y-83250000D02*
X212250000Y-83250000D01*
D25*
X202600000Y-83250000D02*
X203850000Y-83250000D01*
D26*
X199750000Y-86530000D02*
X199750000Y-86100000D01*
X199750000Y-86100000D02*
X202600000Y-83250000D01*
D25*
X199750000Y-89070000D02*
X199750000Y-88850000D01*
X199750000Y-88850000D02*
X198500000Y-87600000D01*
X198500000Y-87600000D02*
X198500000Y-85600000D01*
X198500000Y-85600000D02*
X200400000Y-83700000D01*
X200400000Y-83700000D02*
X200400000Y-83250000D01*
D26*
X200400000Y-83700000D02*
X200400000Y-83250000D01*
D25*
G36*
X218023000Y-91023000D02*
X207243000Y-91023000D01*
X207243000Y-90404464D01*
X207243000Y-89197000D01*
X207243000Y-88943000D01*
X207243000Y-87864464D01*
X207243000Y-87735536D01*
X207243000Y-86657000D01*
X207243000Y-86403000D01*
X207243000Y-85195536D01*
X207010973Y-85075037D01*
X206734022Y-85173036D01*
X206481512Y-85323183D01*
X206263146Y-85519707D01*
X206100000Y-85738078D01*
X205936854Y-85519707D01*
X205718488Y-85323183D01*
X205523000Y-85206942D01*
X205523000Y-84051250D01*
X205523000Y-83327000D01*
X205503000Y-83327000D01*
X205503000Y-83073000D01*
X205523000Y-83073000D01*
X205523000Y-82348750D01*
X205364250Y-82190000D01*
X205187458Y-82190000D01*
X205064777Y-82214403D01*
X204949215Y-82262270D01*
X204845211Y-82331763D01*
X204756763Y-82420211D01*
X204741978Y-82442338D01*
X204674551Y-82414409D01*
X204670273Y-82413558D01*
X204686537Y-82377029D01*
X204718124Y-82238000D01*
X204720398Y-82075156D01*
X204692705Y-81935299D01*
X204638375Y-81803485D01*
X204559477Y-81684733D01*
X204459016Y-81583568D01*
X204340818Y-81503843D01*
X204209386Y-81448594D01*
X204069726Y-81419926D01*
X204050187Y-81419789D01*
X203988661Y-81358263D01*
X203949131Y-81325793D01*
X203909916Y-81292887D01*
X203907361Y-81291482D01*
X203905112Y-81289635D01*
X203860010Y-81265451D01*
X203815168Y-81240799D01*
X203812393Y-81239919D01*
X203809824Y-81238541D01*
X203760879Y-81223577D01*
X203712107Y-81208106D01*
X203709209Y-81207781D01*
X203706426Y-81206930D01*
X203655563Y-81201763D01*
X203604659Y-81196054D01*
X203598958Y-81196014D01*
X203598858Y-81196004D01*
X203598764Y-81196012D01*
X203596924Y-81196000D01*
X203349869Y-81196000D01*
X203322197Y-81168327D01*
X203252260Y-81121597D01*
X203174551Y-81089409D01*
X203092056Y-81073000D01*
X203007944Y-81073000D01*
X202107944Y-81073000D01*
X202025449Y-81089409D01*
X201947739Y-81121598D01*
X201927032Y-81135434D01*
X201927032Y-80328714D01*
X201899339Y-80188857D01*
X201845009Y-80057043D01*
X201766111Y-79938291D01*
X201665650Y-79837126D01*
X201547452Y-79757401D01*
X201458000Y-79719798D01*
X201458000Y-75766250D01*
X201458000Y-74167000D01*
X201458000Y-73913000D01*
X201458000Y-72313750D01*
X201299250Y-72155000D01*
X201197542Y-72155000D01*
X201072458Y-72155000D01*
X200950000Y-72179358D01*
X200827542Y-72155000D01*
X200702458Y-72155000D01*
X200627032Y-72155000D01*
X200627032Y-70028714D01*
X200599339Y-69888857D01*
X200545009Y-69757043D01*
X200466111Y-69638291D01*
X200365650Y-69537126D01*
X200247452Y-69457401D01*
X200116020Y-69402152D01*
X199976360Y-69373484D01*
X199833791Y-69372489D01*
X199693744Y-69399204D01*
X199561554Y-69452612D01*
X199442255Y-69530680D01*
X199340391Y-69630432D01*
X199259842Y-69748070D01*
X199238083Y-69798836D01*
X198318460Y-70718460D01*
X198278545Y-70767053D01*
X198238098Y-70815257D01*
X198236371Y-70818397D01*
X198234100Y-70821163D01*
X198204381Y-70876587D01*
X198174069Y-70931726D01*
X198172986Y-70935138D01*
X198171294Y-70938295D01*
X198152906Y-70998436D01*
X198133881Y-71058412D01*
X198133481Y-71061972D01*
X198132435Y-71065396D01*
X198126080Y-71127957D01*
X198119066Y-71190492D01*
X198119017Y-71197490D01*
X198119004Y-71197623D01*
X198119015Y-71197746D01*
X198119000Y-71200000D01*
X198119000Y-79961672D01*
X198059842Y-80048070D01*
X198003677Y-80179113D01*
X197974035Y-80318570D01*
X197972044Y-80461128D01*
X197997781Y-80601358D01*
X198050265Y-80733918D01*
X198127498Y-80853760D01*
X198226537Y-80956317D01*
X198343610Y-81037685D01*
X198474258Y-81094764D01*
X198613504Y-81125379D01*
X198756045Y-81128365D01*
X198896451Y-81103608D01*
X199029374Y-81052050D01*
X199149752Y-80975656D01*
X199252999Y-80877336D01*
X199335182Y-80760833D01*
X199393171Y-80630587D01*
X199394199Y-80626058D01*
X199395618Y-80623412D01*
X199425931Y-80568274D01*
X199427013Y-80564861D01*
X199428706Y-80561705D01*
X199447080Y-80501604D01*
X199466119Y-80441588D01*
X199466518Y-80438022D01*
X199467564Y-80434604D01*
X199473914Y-80372087D01*
X199480934Y-80309508D01*
X199480982Y-80302510D01*
X199480996Y-80302378D01*
X199480984Y-80302254D01*
X199481000Y-80300000D01*
X199481000Y-75797127D01*
X199564215Y-75852730D01*
X199679777Y-75900597D01*
X199802458Y-75925000D01*
X199927542Y-75925000D01*
X200029250Y-75925000D01*
X200188000Y-75766250D01*
X200188000Y-74167000D01*
X200168000Y-74167000D01*
X200168000Y-73913000D01*
X200188000Y-73913000D01*
X200188000Y-72313750D01*
X200029250Y-72155000D01*
X199927542Y-72155000D01*
X199802458Y-72155000D01*
X199679777Y-72179403D01*
X199564215Y-72227270D01*
X199481000Y-72282872D01*
X199481000Y-71482080D01*
X200199406Y-70763673D01*
X200229374Y-70752050D01*
X200349752Y-70675656D01*
X200452999Y-70577336D01*
X200535182Y-70460833D01*
X200593171Y-70330587D01*
X200624758Y-70191558D01*
X200627032Y-70028714D01*
X200627032Y-72155000D01*
X200600750Y-72155000D01*
X200442000Y-72313750D01*
X200442000Y-73913000D01*
X200658750Y-73913000D01*
X201241250Y-73913000D01*
X201458000Y-73913000D01*
X201458000Y-74167000D01*
X201241250Y-74167000D01*
X200658750Y-74167000D01*
X200442000Y-74167000D01*
X200442000Y-75766250D01*
X200600750Y-75925000D01*
X200702458Y-75925000D01*
X200827542Y-75925000D01*
X200950000Y-75900641D01*
X201072458Y-75925000D01*
X201197542Y-75925000D01*
X201299250Y-75925000D01*
X201458000Y-75766250D01*
X201458000Y-79719798D01*
X201416020Y-79702152D01*
X201276360Y-79673484D01*
X201133791Y-79672489D01*
X200993744Y-79699204D01*
X200861554Y-79752612D01*
X200742255Y-79830680D01*
X200640391Y-79930432D01*
X200559842Y-80048070D01*
X200503677Y-80179113D01*
X200474035Y-80318570D01*
X200473696Y-80342829D01*
X200008263Y-80808263D01*
X199975793Y-80847792D01*
X199942887Y-80887008D01*
X199941482Y-80889562D01*
X199939635Y-80891812D01*
X199915451Y-80936913D01*
X199890799Y-80981756D01*
X199889919Y-80984530D01*
X199888541Y-80987100D01*
X199873577Y-81036044D01*
X199858750Y-81082785D01*
X199825449Y-81089409D01*
X199747739Y-81121598D01*
X199677803Y-81168328D01*
X199618327Y-81227803D01*
X199571597Y-81297740D01*
X199539409Y-81375449D01*
X199523000Y-81457944D01*
X199523000Y-81542056D01*
X199523000Y-82042056D01*
X199539409Y-82124551D01*
X199571598Y-82202261D01*
X199618328Y-82272197D01*
X199677803Y-82331673D01*
X199747740Y-82378403D01*
X199825449Y-82410591D01*
X199907944Y-82427000D01*
X199992056Y-82427000D01*
X200892056Y-82427000D01*
X200974551Y-82410591D01*
X201052261Y-82378402D01*
X201122197Y-82331672D01*
X201181673Y-82272197D01*
X201228403Y-82202260D01*
X201260591Y-82124551D01*
X201277000Y-82042056D01*
X201277000Y-81957944D01*
X201277000Y-81912066D01*
X201292685Y-81861397D01*
X201303986Y-81753868D01*
X201294187Y-81646191D01*
X201277000Y-81587793D01*
X201277000Y-81457944D01*
X201260591Y-81375449D01*
X201228402Y-81297739D01*
X201181672Y-81227803D01*
X201168671Y-81214802D01*
X201255128Y-81128345D01*
X201256045Y-81128365D01*
X201396451Y-81103608D01*
X201529374Y-81052050D01*
X201649752Y-80975656D01*
X201752999Y-80877336D01*
X201835182Y-80760833D01*
X201893171Y-80630587D01*
X201924758Y-80491558D01*
X201927032Y-80328714D01*
X201927032Y-81135434D01*
X201877803Y-81168328D01*
X201818327Y-81227803D01*
X201771597Y-81297740D01*
X201739409Y-81375449D01*
X201723000Y-81457944D01*
X201723000Y-81542056D01*
X201723000Y-82042056D01*
X201739409Y-82124551D01*
X201771598Y-82202261D01*
X201818328Y-82272197D01*
X201877803Y-82331673D01*
X201947740Y-82378403D01*
X202025449Y-82410591D01*
X202107944Y-82427000D01*
X202192056Y-82427000D01*
X203092056Y-82427000D01*
X203174551Y-82410591D01*
X203252261Y-82378402D01*
X203292593Y-82351452D01*
X203343631Y-82480360D01*
X203404069Y-82574141D01*
X203371597Y-82622740D01*
X203343775Y-82689906D01*
X203322197Y-82668327D01*
X203252260Y-82621597D01*
X203174551Y-82589409D01*
X203092056Y-82573000D01*
X203007944Y-82573000D01*
X202107944Y-82573000D01*
X202025449Y-82589409D01*
X201947739Y-82621598D01*
X201877803Y-82668328D01*
X201818327Y-82727803D01*
X201771597Y-82797740D01*
X201739409Y-82875449D01*
X201723000Y-82957944D01*
X201723000Y-83042056D01*
X201723000Y-83307604D01*
X199789382Y-85241221D01*
X199774265Y-85239526D01*
X199756245Y-85239400D01*
X199743755Y-85239400D01*
X199633237Y-85250236D01*
X200678271Y-84205202D01*
X200717258Y-84184821D01*
X200805385Y-84113965D01*
X200878071Y-84027342D01*
X200932547Y-83928250D01*
X200935697Y-83918319D01*
X200974551Y-83910591D01*
X201052261Y-83878402D01*
X201122197Y-83831672D01*
X201181673Y-83772197D01*
X201228403Y-83702260D01*
X201260591Y-83624551D01*
X201277000Y-83542056D01*
X201277000Y-83457944D01*
X201277000Y-82957944D01*
X201260591Y-82875449D01*
X201228402Y-82797739D01*
X201181672Y-82727803D01*
X201122197Y-82668327D01*
X201052260Y-82621597D01*
X200974551Y-82589409D01*
X200892056Y-82573000D01*
X200807944Y-82573000D01*
X199907944Y-82573000D01*
X199825449Y-82589409D01*
X199747739Y-82621598D01*
X199677803Y-82668328D01*
X199618327Y-82727803D01*
X199571597Y-82797740D01*
X199539409Y-82875449D01*
X199523000Y-82957944D01*
X199523000Y-83042056D01*
X199523000Y-83542056D01*
X199539409Y-83624551D01*
X199571598Y-83702261D01*
X199588688Y-83727837D01*
X198108263Y-85208263D01*
X198075793Y-85247792D01*
X198042887Y-85287008D01*
X198041482Y-85289562D01*
X198039635Y-85291812D01*
X198015451Y-85336913D01*
X197990799Y-85381756D01*
X197989919Y-85384530D01*
X197988541Y-85387100D01*
X197973577Y-85436044D01*
X197958106Y-85484817D01*
X197957781Y-85487714D01*
X197956930Y-85490498D01*
X197951763Y-85541360D01*
X197946054Y-85592265D01*
X197946014Y-85597965D01*
X197946004Y-85598066D01*
X197946012Y-85598159D01*
X197946000Y-85600000D01*
X197946000Y-87600000D01*
X197950997Y-87650963D01*
X197955454Y-87701909D01*
X197956266Y-87704706D01*
X197956551Y-87707606D01*
X197971350Y-87756623D01*
X197985619Y-87805738D01*
X197986958Y-87808321D01*
X197987801Y-87811113D01*
X198011820Y-87856287D01*
X198035376Y-87901730D01*
X198037195Y-87904009D01*
X198038562Y-87906579D01*
X198070877Y-87946202D01*
X198102832Y-87986230D01*
X198106831Y-87990285D01*
X198106898Y-87990367D01*
X198106973Y-87990429D01*
X198108263Y-87991737D01*
X198600463Y-88483937D01*
X198553998Y-88569872D01*
X198479515Y-88810489D01*
X198453186Y-89060990D01*
X198476015Y-89311834D01*
X198547132Y-89553467D01*
X198663827Y-89776685D01*
X198821657Y-89972986D01*
X199014609Y-90134891D01*
X199235334Y-90256236D01*
X199475424Y-90332397D01*
X199725735Y-90360474D01*
X199743755Y-90360600D01*
X199756245Y-90360600D01*
X200006924Y-90336021D01*
X200248054Y-90263219D01*
X200470452Y-90144968D01*
X200665646Y-89985772D01*
X200826201Y-89791694D01*
X200946002Y-89570128D01*
X201020485Y-89329511D01*
X201020677Y-89327676D01*
X201087132Y-89553467D01*
X201203827Y-89776685D01*
X201361657Y-89972986D01*
X201554609Y-90134891D01*
X201775334Y-90256236D01*
X202015424Y-90332397D01*
X202265735Y-90360474D01*
X202283755Y-90360600D01*
X202296245Y-90360600D01*
X202546924Y-90336021D01*
X202788054Y-90263219D01*
X203010452Y-90144968D01*
X203205646Y-89985772D01*
X203366201Y-89791694D01*
X203448902Y-89638741D01*
X203547316Y-89844944D01*
X203723146Y-90080293D01*
X203941512Y-90276817D01*
X204194022Y-90426964D01*
X204470973Y-90524963D01*
X204703000Y-90404464D01*
X204703000Y-89197000D01*
X204683000Y-89197000D01*
X204683000Y-88943000D01*
X204703000Y-88943000D01*
X204703000Y-87864464D01*
X204703000Y-87735536D01*
X204703000Y-86657000D01*
X204683000Y-86657000D01*
X204683000Y-86403000D01*
X204703000Y-86403000D01*
X204703000Y-85195536D01*
X204470973Y-85075037D01*
X204194022Y-85173036D01*
X203941512Y-85323183D01*
X203723146Y-85519707D01*
X203547316Y-85755056D01*
X203448608Y-85961872D01*
X203376173Y-85823315D01*
X203218343Y-85627014D01*
X203025391Y-85465109D01*
X202804666Y-85343764D01*
X202564576Y-85267603D01*
X202314265Y-85239526D01*
X202296245Y-85239400D01*
X202283755Y-85239400D01*
X202033076Y-85263979D01*
X201791946Y-85336781D01*
X201569548Y-85455032D01*
X201374354Y-85614228D01*
X201213799Y-85808306D01*
X201093998Y-86029872D01*
X201019515Y-86270489D01*
X201019322Y-86272323D01*
X200952868Y-86046533D01*
X200839574Y-85829821D01*
X202742395Y-83927000D01*
X203092056Y-83927000D01*
X203174551Y-83910591D01*
X203252261Y-83878402D01*
X203322197Y-83831672D01*
X203349869Y-83804000D01*
X203389464Y-83804000D01*
X203418328Y-83847197D01*
X203477803Y-83906673D01*
X203547740Y-83953403D01*
X203625449Y-83985591D01*
X203707944Y-84002000D01*
X203792056Y-84002000D01*
X204592056Y-84002000D01*
X204674551Y-83985591D01*
X204741977Y-83957661D01*
X204756763Y-83979789D01*
X204845211Y-84068237D01*
X204949215Y-84137730D01*
X205064777Y-84185597D01*
X205187458Y-84210000D01*
X205364250Y-84210000D01*
X205523000Y-84051250D01*
X205523000Y-85206942D01*
X205465978Y-85173036D01*
X205189027Y-85075037D01*
X204957000Y-85195536D01*
X204957000Y-86403000D01*
X206036183Y-86403000D01*
X206163817Y-86403000D01*
X207243000Y-86403000D01*
X207243000Y-86657000D01*
X206163817Y-86657000D01*
X206036183Y-86657000D01*
X204957000Y-86657000D01*
X204957000Y-87735536D01*
X204957000Y-87864464D01*
X204957000Y-88943000D01*
X206036183Y-88943000D01*
X206163817Y-88943000D01*
X207243000Y-88943000D01*
X207243000Y-89197000D01*
X206163817Y-89197000D01*
X206036183Y-89197000D01*
X204957000Y-89197000D01*
X204957000Y-90404464D01*
X205189027Y-90524963D01*
X205465978Y-90426964D01*
X205718488Y-90276817D01*
X205936854Y-90080293D01*
X206100000Y-89861921D01*
X206263146Y-90080293D01*
X206481512Y-90276817D01*
X206734022Y-90426964D01*
X207010973Y-90524963D01*
X207243000Y-90404464D01*
X207243000Y-91023000D01*
X197477000Y-91023000D01*
X197477000Y-91000000D01*
X197477000Y-90800000D01*
X197477000Y-51477000D01*
X218023000Y-51477000D01*
X218023000Y-75409033D01*
X217951729Y-75331514D01*
X217714321Y-75158046D01*
X217447633Y-75034227D01*
X217161914Y-74964815D01*
X216927000Y-75109075D01*
X216927000Y-76323000D01*
X216947000Y-76323000D01*
X216947000Y-76577000D01*
X216927000Y-76577000D01*
X216927000Y-77649075D01*
X216927000Y-77790925D01*
X216927000Y-78863000D01*
X216947000Y-78863000D01*
X216947000Y-79117000D01*
X216927000Y-79117000D01*
X216927000Y-79137000D01*
X216673000Y-79137000D01*
X216673000Y-79117000D01*
X216673000Y-78863000D01*
X216673000Y-77790925D01*
X216673000Y-77649075D01*
X216673000Y-76577000D01*
X216673000Y-76323000D01*
X216673000Y-75109075D01*
X216438086Y-74964815D01*
X216152367Y-75034227D01*
X215885679Y-75158046D01*
X215648271Y-75331514D01*
X215449267Y-75547965D01*
X215370000Y-75678104D01*
X215370000Y-75352542D01*
X215370000Y-74325750D01*
X215370000Y-73754250D01*
X215370000Y-72727458D01*
X215345597Y-72604777D01*
X215297730Y-72489215D01*
X215228237Y-72385211D01*
X215139789Y-72296763D01*
X215035785Y-72227270D01*
X214920223Y-72179403D01*
X214797542Y-72155000D01*
X214672458Y-72155000D01*
X214570750Y-72155000D01*
X214412000Y-72313750D01*
X214412000Y-73913000D01*
X215211250Y-73913000D01*
X215370000Y-73754250D01*
X215370000Y-74325750D01*
X215211250Y-74167000D01*
X214412000Y-74167000D01*
X214412000Y-75766250D01*
X214570750Y-75925000D01*
X214672458Y-75925000D01*
X214797542Y-75925000D01*
X214920223Y-75900597D01*
X215035785Y-75852730D01*
X215139789Y-75783237D01*
X215228237Y-75694789D01*
X215297730Y-75590785D01*
X215345597Y-75475223D01*
X215370000Y-75352542D01*
X215370000Y-75678104D01*
X215296314Y-75799081D01*
X215195291Y-76075211D01*
X215192642Y-76090974D01*
X215313783Y-76323000D01*
X216673000Y-76323000D01*
X216673000Y-76577000D01*
X215313783Y-76577000D01*
X215192642Y-76809026D01*
X215195291Y-76824789D01*
X215296314Y-77100919D01*
X215449267Y-77352035D01*
X215648271Y-77568486D01*
X215855632Y-77720000D01*
X215648271Y-77871514D01*
X215449267Y-78087965D01*
X215296314Y-78339081D01*
X215195291Y-78615211D01*
X215192642Y-78630974D01*
X215313783Y-78863000D01*
X216673000Y-78863000D01*
X216673000Y-79117000D01*
X215313783Y-79117000D01*
X215192642Y-79349026D01*
X215195291Y-79364789D01*
X215296314Y-79640919D01*
X215449267Y-79892035D01*
X215648271Y-80108486D01*
X215885679Y-80281954D01*
X216081198Y-80372730D01*
X215926411Y-80455032D01*
X215731217Y-80614228D01*
X215570662Y-80808306D01*
X215493723Y-80950600D01*
X214470000Y-80950600D01*
X214416762Y-80955820D01*
X214363418Y-80960487D01*
X214360488Y-80961338D01*
X214357461Y-80961635D01*
X214306288Y-80977084D01*
X214254829Y-80992035D01*
X214252121Y-80993438D01*
X214249208Y-80994318D01*
X214201974Y-81019432D01*
X214154436Y-81044074D01*
X214152055Y-81045974D01*
X214149365Y-81047405D01*
X214107910Y-81081214D01*
X214066062Y-81114622D01*
X214061816Y-81118808D01*
X214061735Y-81118875D01*
X214061672Y-81118950D01*
X214060302Y-81120302D01*
X213835000Y-81345604D01*
X213835000Y-79812542D01*
X213835000Y-79687458D01*
X213835000Y-78785750D01*
X213835000Y-78214250D01*
X213835000Y-77312542D01*
X213835000Y-77187458D01*
X213810597Y-77064777D01*
X213762730Y-76949215D01*
X213693237Y-76845211D01*
X213604789Y-76756763D01*
X213500785Y-76687270D01*
X213385223Y-76639403D01*
X213262542Y-76615000D01*
X212985750Y-76615000D01*
X212827000Y-76773750D01*
X212827000Y-78373000D01*
X213676250Y-78373000D01*
X213835000Y-78214250D01*
X213835000Y-78785750D01*
X213676250Y-78627000D01*
X212827000Y-78627000D01*
X212827000Y-80226250D01*
X212985750Y-80385000D01*
X213262542Y-80385000D01*
X213385223Y-80360597D01*
X213500785Y-80312730D01*
X213604789Y-80243237D01*
X213693237Y-80154789D01*
X213762730Y-80050785D01*
X213810597Y-79935223D01*
X213835000Y-79812542D01*
X213835000Y-81345604D01*
X213260004Y-81920600D01*
X213077000Y-81920600D01*
X213077000Y-81457944D01*
X213060591Y-81375449D01*
X213028402Y-81297739D01*
X212981672Y-81227803D01*
X212922197Y-81168327D01*
X212852260Y-81121597D01*
X212774551Y-81089409D01*
X212692056Y-81073000D01*
X212607944Y-81073000D01*
X212573000Y-81073000D01*
X212573000Y-80226250D01*
X212573000Y-78627000D01*
X212573000Y-78373000D01*
X212573000Y-76773750D01*
X212414250Y-76615000D01*
X212137458Y-76615000D01*
X212014777Y-76639403D01*
X211899215Y-76687270D01*
X211795211Y-76756763D01*
X211706763Y-76845211D01*
X211637270Y-76949215D01*
X211589403Y-77064777D01*
X211585000Y-77086912D01*
X211585000Y-76612542D01*
X211585000Y-76583750D01*
X211426250Y-76425000D01*
X210777000Y-76425000D01*
X210777000Y-77026250D01*
X210935750Y-77185000D01*
X211012542Y-77185000D01*
X211135223Y-77160597D01*
X211250785Y-77112730D01*
X211354789Y-77043237D01*
X211443237Y-76954789D01*
X211512730Y-76850785D01*
X211560597Y-76735223D01*
X211585000Y-76612542D01*
X211585000Y-77086912D01*
X211565000Y-77187458D01*
X211565000Y-77312542D01*
X211565000Y-78214250D01*
X211723750Y-78373000D01*
X212573000Y-78373000D01*
X212573000Y-78627000D01*
X211723750Y-78627000D01*
X211565000Y-78785750D01*
X211565000Y-79687458D01*
X211565000Y-79812542D01*
X211589403Y-79935223D01*
X211637270Y-80050785D01*
X211706763Y-80154789D01*
X211795211Y-80243237D01*
X211899215Y-80312730D01*
X212014777Y-80360597D01*
X212137458Y-80385000D01*
X212414250Y-80385000D01*
X212573000Y-80226250D01*
X212573000Y-81073000D01*
X212356474Y-81073000D01*
X211791737Y-80508263D01*
X211752207Y-80475793D01*
X211712992Y-80442887D01*
X211710437Y-80441482D01*
X211708188Y-80439635D01*
X211663086Y-80415451D01*
X211618244Y-80390799D01*
X211615469Y-80389919D01*
X211612900Y-80388541D01*
X211563955Y-80373577D01*
X211515183Y-80358106D01*
X211512285Y-80357781D01*
X211509502Y-80356930D01*
X211458639Y-80351763D01*
X211407735Y-80346054D01*
X211402034Y-80346014D01*
X211401934Y-80346004D01*
X211401840Y-80346012D01*
X211400000Y-80346000D01*
X208800000Y-80346000D01*
X208749131Y-80350987D01*
X208698091Y-80355453D01*
X208695288Y-80356267D01*
X208692394Y-80356551D01*
X208643450Y-80371327D01*
X208594263Y-80385618D01*
X208591676Y-80386958D01*
X208588887Y-80387801D01*
X208543729Y-80411811D01*
X208498270Y-80435376D01*
X208495990Y-80437195D01*
X208493421Y-80438562D01*
X208453804Y-80470872D01*
X208413771Y-80502831D01*
X208410883Y-80505679D01*
X208366111Y-80438291D01*
X208354000Y-80426095D01*
X208354000Y-80200000D01*
X208354000Y-79054000D01*
X208773000Y-79054000D01*
X208773000Y-79792056D01*
X208789409Y-79874551D01*
X208821598Y-79952261D01*
X208868328Y-80022197D01*
X208927803Y-80081673D01*
X208997740Y-80128403D01*
X209075449Y-80160591D01*
X209157944Y-80177000D01*
X209242056Y-80177000D01*
X210242056Y-80177000D01*
X210324551Y-80160591D01*
X210402261Y-80128402D01*
X210472197Y-80081672D01*
X210531673Y-80022197D01*
X210578403Y-79952260D01*
X210610591Y-79874551D01*
X210627000Y-79792056D01*
X210627000Y-79707944D01*
X210627000Y-77207944D01*
X210610591Y-77125449D01*
X210578402Y-77047739D01*
X210531672Y-76977803D01*
X210523000Y-76969130D01*
X210523000Y-76425000D01*
X210503000Y-76425000D01*
X210503000Y-76175000D01*
X210523000Y-76175000D01*
X210523000Y-76153000D01*
X210777000Y-76153000D01*
X210777000Y-76175000D01*
X211426250Y-76175000D01*
X211585000Y-76016250D01*
X211585000Y-75987458D01*
X211560597Y-75864777D01*
X211512730Y-75749215D01*
X211491204Y-75717000D01*
X212237056Y-75717000D01*
X212319551Y-75700591D01*
X212379999Y-75675552D01*
X212440449Y-75700591D01*
X212522944Y-75717000D01*
X212607056Y-75717000D01*
X213363974Y-75717000D01*
X213430211Y-75783237D01*
X213534215Y-75852730D01*
X213649777Y-75900597D01*
X213772458Y-75925000D01*
X213897542Y-75925000D01*
X213999250Y-75925000D01*
X214158000Y-75766250D01*
X214158000Y-74167000D01*
X214138000Y-74167000D01*
X214138000Y-73913000D01*
X214158000Y-73913000D01*
X214158000Y-72313750D01*
X213999250Y-72155000D01*
X213897542Y-72155000D01*
X213772458Y-72155000D01*
X213649777Y-72179403D01*
X213534215Y-72227270D01*
X213430211Y-72296763D01*
X213363974Y-72363000D01*
X212522944Y-72363000D01*
X212440449Y-72379409D01*
X212380000Y-72404447D01*
X212319551Y-72379409D01*
X212237056Y-72363000D01*
X212152944Y-72363000D01*
X211252944Y-72363000D01*
X211170449Y-72379409D01*
X211110000Y-72404447D01*
X211049551Y-72379409D01*
X210967056Y-72363000D01*
X210882944Y-72363000D01*
X209982944Y-72363000D01*
X209900449Y-72379409D01*
X209886000Y-72385394D01*
X209886000Y-71479400D01*
X215159749Y-71479400D01*
X215243610Y-71537685D01*
X215374258Y-71594764D01*
X215513504Y-71625379D01*
X215656045Y-71628365D01*
X215796451Y-71603608D01*
X215929374Y-71552050D01*
X216049752Y-71475656D01*
X216152999Y-71377336D01*
X216235182Y-71260833D01*
X216293171Y-71130587D01*
X216324758Y-70991558D01*
X216327032Y-70828714D01*
X216299339Y-70688857D01*
X216245009Y-70557043D01*
X216166111Y-70438291D01*
X216065650Y-70337126D01*
X215947452Y-70257401D01*
X215816020Y-70202152D01*
X215676360Y-70173484D01*
X215533791Y-70172489D01*
X215393744Y-70199204D01*
X215261554Y-70252612D01*
X215240792Y-70266198D01*
X215240792Y-58560000D01*
X215240792Y-55585000D01*
X215232179Y-55497164D01*
X215224482Y-55409181D01*
X215223079Y-55404353D01*
X215222589Y-55399352D01*
X215197077Y-55314852D01*
X215172440Y-55230050D01*
X215170126Y-55225586D01*
X215168674Y-55220776D01*
X215127250Y-55142869D01*
X215086595Y-55064438D01*
X215083456Y-55060505D01*
X215081099Y-55056073D01*
X215025343Y-54987708D01*
X214970218Y-54918655D01*
X214963319Y-54911660D01*
X214963202Y-54911516D01*
X214963068Y-54911405D01*
X214960847Y-54909153D01*
X214175847Y-54124153D01*
X214107638Y-54068126D01*
X214039991Y-54011363D01*
X214035585Y-54008940D01*
X214031703Y-54005752D01*
X213953898Y-53964033D01*
X213876527Y-53921498D01*
X213871737Y-53919978D01*
X213867307Y-53917603D01*
X213782891Y-53891794D01*
X213698720Y-53865094D01*
X213693721Y-53864533D01*
X213688919Y-53863065D01*
X213601133Y-53854148D01*
X213513345Y-53844301D01*
X213503518Y-53844232D01*
X213503336Y-53844214D01*
X213503166Y-53844230D01*
X213500000Y-53844208D01*
X208800000Y-53844208D01*
X208800000Y-53450000D01*
X208635000Y-53450000D01*
X208635000Y-53039250D01*
X208635000Y-52737458D01*
X208610597Y-52614777D01*
X208562730Y-52499215D01*
X208493237Y-52395211D01*
X208404789Y-52306763D01*
X208300785Y-52237270D01*
X208185223Y-52189403D01*
X208062542Y-52165000D01*
X207937458Y-52165000D01*
X207185750Y-52165000D01*
X207027000Y-52323750D01*
X207027000Y-53198000D01*
X208476250Y-53198000D01*
X208635000Y-53039250D01*
X208635000Y-53450000D01*
X206773000Y-53450000D01*
X206773000Y-53198000D01*
X206773000Y-52323750D01*
X206614250Y-52165000D01*
X205862542Y-52165000D01*
X205737458Y-52165000D01*
X205614777Y-52189403D01*
X205499215Y-52237270D01*
X205395211Y-52306763D01*
X205306763Y-52395211D01*
X205237270Y-52499215D01*
X205189403Y-52614777D01*
X205165000Y-52737458D01*
X205165000Y-53039250D01*
X205323750Y-53198000D01*
X206773000Y-53198000D01*
X206773000Y-53450000D01*
X205450000Y-53450000D01*
X205450000Y-53452000D01*
X205323750Y-53452000D01*
X205165000Y-53610750D01*
X205165000Y-53715750D01*
X205114250Y-53665000D01*
X204962542Y-53665000D01*
X204837458Y-53665000D01*
X204714777Y-53689403D01*
X204599215Y-53737270D01*
X204495211Y-53806763D01*
X204406763Y-53895211D01*
X204337270Y-53999215D01*
X204289403Y-54114777D01*
X204265000Y-54237458D01*
X204265000Y-54514250D01*
X204423750Y-54673000D01*
X205273000Y-54673000D01*
X205273000Y-54653000D01*
X205450000Y-54653000D01*
X205450000Y-54947000D01*
X205273000Y-54947000D01*
X205273000Y-54927000D01*
X204423750Y-54927000D01*
X204265000Y-55085750D01*
X204265000Y-55362542D01*
X204289403Y-55485223D01*
X204337270Y-55600785D01*
X204406763Y-55704789D01*
X204495211Y-55793237D01*
X204599215Y-55862730D01*
X204714777Y-55910597D01*
X204837458Y-55935000D01*
X204962542Y-55935000D01*
X205114250Y-55935000D01*
X205165000Y-55884250D01*
X205165000Y-55989250D01*
X205323750Y-56148000D01*
X206773000Y-56148000D01*
X206773000Y-56128000D01*
X207027000Y-56128000D01*
X207027000Y-56148000D01*
X208476250Y-56148000D01*
X208574250Y-56050000D01*
X208800000Y-56050000D01*
X208800000Y-55755792D01*
X213104098Y-55755792D01*
X213329208Y-55980902D01*
X213329208Y-56883000D01*
X212522944Y-56883000D01*
X212440449Y-56899409D01*
X212362739Y-56931598D01*
X212292803Y-56978328D01*
X212233327Y-57037803D01*
X212186597Y-57107740D01*
X212154409Y-57185449D01*
X212138000Y-57267944D01*
X212138000Y-57352056D01*
X212138000Y-59852056D01*
X212154409Y-59934551D01*
X212186598Y-60012261D01*
X212233328Y-60082197D01*
X212292803Y-60141673D01*
X212362740Y-60188403D01*
X212440449Y-60220591D01*
X212522944Y-60237000D01*
X212607056Y-60237000D01*
X213507056Y-60237000D01*
X213589551Y-60220591D01*
X213649999Y-60195552D01*
X213710449Y-60220591D01*
X213792944Y-60237000D01*
X213877056Y-60237000D01*
X214777056Y-60237000D01*
X214859551Y-60220591D01*
X214937261Y-60188402D01*
X215007197Y-60141672D01*
X215066673Y-60082197D01*
X215113403Y-60012260D01*
X215145591Y-59934551D01*
X215162000Y-59852056D01*
X215162000Y-59767944D01*
X215162000Y-58939259D01*
X215163502Y-58936527D01*
X215219906Y-58758720D01*
X215240699Y-58573345D01*
X215240792Y-58560000D01*
X215240792Y-70266198D01*
X215157658Y-70320600D01*
X209283679Y-70320600D01*
X209181000Y-70217920D01*
X209181000Y-67800000D01*
X209174864Y-67737432D01*
X209169379Y-67674729D01*
X209168379Y-67671287D01*
X209168030Y-67667726D01*
X209149842Y-67607484D01*
X209132298Y-67547098D01*
X209130652Y-67543922D01*
X209129616Y-67540491D01*
X209100087Y-67484957D01*
X209071135Y-67429100D01*
X209068898Y-67426297D01*
X209067219Y-67423140D01*
X209027484Y-67374420D01*
X208988216Y-67325230D01*
X208983304Y-67320250D01*
X208983218Y-67320144D01*
X208983119Y-67320062D01*
X208981539Y-67318460D01*
X208762458Y-67099379D01*
X208745009Y-67057043D01*
X208666111Y-66938291D01*
X208635000Y-66906961D01*
X208635000Y-56862542D01*
X208635000Y-56560750D01*
X208476250Y-56402000D01*
X207027000Y-56402000D01*
X207027000Y-57276250D01*
X207185750Y-57435000D01*
X207937458Y-57435000D01*
X208062542Y-57435000D01*
X208185223Y-57410597D01*
X208300785Y-57362730D01*
X208404789Y-57293237D01*
X208493237Y-57204789D01*
X208562730Y-57100785D01*
X208610597Y-56985223D01*
X208635000Y-56862542D01*
X208635000Y-66906961D01*
X208565650Y-66837126D01*
X208447452Y-66757401D01*
X208316020Y-66702152D01*
X208176360Y-66673484D01*
X208033791Y-66672489D01*
X207893744Y-66699204D01*
X207761554Y-66752612D01*
X207642255Y-66830680D01*
X207540391Y-66930432D01*
X207459842Y-67048070D01*
X207421350Y-67137876D01*
X206773000Y-66489526D01*
X206773000Y-57276250D01*
X206773000Y-56402000D01*
X205323750Y-56402000D01*
X205165000Y-56560750D01*
X205165000Y-56862542D01*
X205189403Y-56985223D01*
X205237270Y-57100785D01*
X205306763Y-57204789D01*
X205395211Y-57293237D01*
X205499215Y-57362730D01*
X205614777Y-57410597D01*
X205737458Y-57435000D01*
X205862542Y-57435000D01*
X206614250Y-57435000D01*
X206773000Y-57276250D01*
X206773000Y-66489526D01*
X206391737Y-66108263D01*
X206352207Y-66075793D01*
X206312992Y-66042887D01*
X206310437Y-66041482D01*
X206308188Y-66039635D01*
X206263086Y-66015451D01*
X206218244Y-65990799D01*
X206215469Y-65989919D01*
X206212900Y-65988541D01*
X206163955Y-65973577D01*
X206115183Y-65958106D01*
X206112285Y-65957781D01*
X206109502Y-65956930D01*
X206058639Y-65951763D01*
X206007735Y-65946054D01*
X206002034Y-65946014D01*
X206001934Y-65946004D01*
X206001840Y-65946012D01*
X206000000Y-65946000D01*
X199374462Y-65946000D01*
X199365650Y-65937126D01*
X199247452Y-65857401D01*
X199116020Y-65802152D01*
X198976360Y-65773484D01*
X198833791Y-65772489D01*
X198693744Y-65799204D01*
X198561554Y-65852612D01*
X198442255Y-65930680D01*
X198340391Y-66030432D01*
X198259842Y-66148070D01*
X198203677Y-66279113D01*
X198174035Y-66418570D01*
X198172044Y-66561128D01*
X198197781Y-66701358D01*
X198250265Y-66833918D01*
X198327498Y-66953760D01*
X198426537Y-67056317D01*
X198543610Y-67137685D01*
X198674258Y-67194764D01*
X198813504Y-67225379D01*
X198956045Y-67228365D01*
X199096451Y-67203608D01*
X199229374Y-67152050D01*
X199349752Y-67075656D01*
X199372493Y-67054000D01*
X205770526Y-67054000D01*
X206802417Y-68085891D01*
X206759842Y-68148070D01*
X206703677Y-68279113D01*
X206674035Y-68418570D01*
X206672044Y-68561128D01*
X206697781Y-68701358D01*
X206750265Y-68833918D01*
X206827498Y-68953760D01*
X206926537Y-69056317D01*
X207043610Y-69137685D01*
X207174258Y-69194764D01*
X207313504Y-69225379D01*
X207456045Y-69228365D01*
X207596451Y-69203608D01*
X207729374Y-69152050D01*
X207819000Y-69095171D01*
X207819000Y-70500000D01*
X207825135Y-70562572D01*
X207830621Y-70625270D01*
X207831620Y-70628710D01*
X207831970Y-70632274D01*
X207850161Y-70692527D01*
X207867702Y-70752902D01*
X207869347Y-70756077D01*
X207870384Y-70759509D01*
X207899922Y-70815063D01*
X207928865Y-70870899D01*
X207931100Y-70873699D01*
X207932781Y-70876860D01*
X207972533Y-70925601D01*
X208011784Y-70974770D01*
X208016698Y-70979754D01*
X208016782Y-70979856D01*
X208016876Y-70979934D01*
X208018460Y-70981540D01*
X208524000Y-71487079D01*
X208524000Y-72385393D01*
X208514400Y-72381417D01*
X208514400Y-71935000D01*
X208509179Y-71881757D01*
X208504513Y-71828419D01*
X208503661Y-71825489D01*
X208503365Y-71822461D01*
X208487907Y-71771263D01*
X208472965Y-71719830D01*
X208471562Y-71717124D01*
X208470682Y-71714208D01*
X208445557Y-71666955D01*
X208420926Y-71619436D01*
X208419025Y-71617054D01*
X208417595Y-71614365D01*
X208383810Y-71572941D01*
X208350379Y-71531062D01*
X208346190Y-71526814D01*
X208346125Y-71526735D01*
X208346050Y-71526673D01*
X208344698Y-71525302D01*
X207609698Y-70790302D01*
X207568327Y-70756320D01*
X207527342Y-70721929D01*
X207524670Y-70720460D01*
X207522318Y-70718528D01*
X207475164Y-70693244D01*
X207428250Y-70667453D01*
X207425346Y-70666531D01*
X207422661Y-70665092D01*
X207371488Y-70649446D01*
X207320464Y-70633261D01*
X207317434Y-70632921D01*
X207314523Y-70632031D01*
X207261341Y-70626629D01*
X207208090Y-70620656D01*
X207202127Y-70620614D01*
X207202022Y-70620604D01*
X207201923Y-70620613D01*
X207200000Y-70620600D01*
X204639995Y-70620600D01*
X203821827Y-69802432D01*
X203799339Y-69688857D01*
X203745009Y-69557043D01*
X203666111Y-69438291D01*
X203565650Y-69337126D01*
X203447452Y-69257401D01*
X203316020Y-69202152D01*
X203176360Y-69173484D01*
X203033791Y-69172489D01*
X202893744Y-69199204D01*
X202761554Y-69252612D01*
X202642255Y-69330680D01*
X202540391Y-69430432D01*
X202459842Y-69548070D01*
X202403677Y-69679113D01*
X202374035Y-69818570D01*
X202372044Y-69961128D01*
X202397781Y-70101358D01*
X202450265Y-70233918D01*
X202527498Y-70353760D01*
X202626537Y-70456317D01*
X202743610Y-70537685D01*
X202874258Y-70594764D01*
X203003863Y-70623259D01*
X203990303Y-71609698D01*
X204031625Y-71643640D01*
X204072658Y-71678071D01*
X204075332Y-71679541D01*
X204077683Y-71681472D01*
X204124814Y-71706744D01*
X204171750Y-71732547D01*
X204174653Y-71733468D01*
X204177339Y-71734908D01*
X204228553Y-71750566D01*
X204279536Y-71766739D01*
X204282560Y-71767078D01*
X204285477Y-71767970D01*
X204338708Y-71773376D01*
X204391910Y-71779344D01*
X204397872Y-71779385D01*
X204397978Y-71779396D01*
X204398076Y-71779386D01*
X204400000Y-71779400D01*
X204703615Y-71779400D01*
X204674035Y-71918570D01*
X204672044Y-72061128D01*
X204697781Y-72201358D01*
X204750265Y-72333918D01*
X204788192Y-72392770D01*
X204760000Y-72404447D01*
X204699551Y-72379409D01*
X204617056Y-72363000D01*
X204532944Y-72363000D01*
X203632944Y-72363000D01*
X203550449Y-72379409D01*
X203490000Y-72404447D01*
X203429551Y-72379409D01*
X203347056Y-72363000D01*
X203262944Y-72363000D01*
X202506026Y-72363000D01*
X202439789Y-72296763D01*
X202335785Y-72227270D01*
X202220223Y-72179403D01*
X202097542Y-72155000D01*
X201972458Y-72155000D01*
X201870750Y-72155000D01*
X201712000Y-72313750D01*
X201712000Y-73913000D01*
X201732000Y-73913000D01*
X201732000Y-74167000D01*
X201712000Y-74167000D01*
X201712000Y-75766250D01*
X201870750Y-75925000D01*
X201972458Y-75925000D01*
X202097542Y-75925000D01*
X202220223Y-75900597D01*
X202301000Y-75867138D01*
X202301000Y-76155000D01*
X202305997Y-76205963D01*
X202310454Y-76256909D01*
X202311266Y-76259706D01*
X202311551Y-76262606D01*
X202326350Y-76311623D01*
X202340619Y-76360738D01*
X202341958Y-76363321D01*
X202342801Y-76366113D01*
X202346000Y-76372129D01*
X202346000Y-76523000D01*
X201857944Y-76523000D01*
X201775449Y-76539409D01*
X201697739Y-76571598D01*
X201627803Y-76618328D01*
X201568327Y-76677803D01*
X201521597Y-76747740D01*
X201489409Y-76825449D01*
X201473000Y-76907944D01*
X201473000Y-76992056D01*
X201473000Y-77892056D01*
X201489409Y-77974551D01*
X201521598Y-78052261D01*
X201568328Y-78122197D01*
X201596000Y-78149869D01*
X201596000Y-78428933D01*
X201600997Y-78479896D01*
X201605454Y-78530842D01*
X201606266Y-78533639D01*
X201606551Y-78536539D01*
X201621350Y-78585556D01*
X201635619Y-78634671D01*
X201636958Y-78637254D01*
X201637801Y-78640046D01*
X201661820Y-78685220D01*
X201685376Y-78730663D01*
X201687195Y-78732942D01*
X201688562Y-78735512D01*
X201720877Y-78775135D01*
X201752832Y-78815163D01*
X201756831Y-78819218D01*
X201756898Y-78819300D01*
X201756973Y-78819362D01*
X201758263Y-78820670D01*
X204129330Y-81191737D01*
X204168859Y-81224206D01*
X204208075Y-81257113D01*
X204210629Y-81258517D01*
X204212879Y-81260365D01*
X204257980Y-81284548D01*
X204302823Y-81309201D01*
X204305597Y-81310080D01*
X204308167Y-81311459D01*
X204357111Y-81326422D01*
X204405884Y-81341894D01*
X204408781Y-81342218D01*
X204411565Y-81343070D01*
X204462427Y-81348236D01*
X204513332Y-81353946D01*
X204519032Y-81353985D01*
X204519133Y-81353996D01*
X204519226Y-81353987D01*
X204521067Y-81354000D01*
X205200000Y-81354000D01*
X205250963Y-81349002D01*
X205301909Y-81344546D01*
X205304706Y-81343733D01*
X205307606Y-81343449D01*
X205356623Y-81328649D01*
X205405738Y-81314381D01*
X205408321Y-81313041D01*
X205411113Y-81312199D01*
X205456287Y-81288179D01*
X205501730Y-81264624D01*
X205504009Y-81262804D01*
X205506579Y-81261438D01*
X205546202Y-81229122D01*
X205586230Y-81197168D01*
X205590285Y-81193168D01*
X205590367Y-81193102D01*
X205590429Y-81193026D01*
X205591737Y-81191737D01*
X205689176Y-81094297D01*
X205727498Y-81153760D01*
X205826537Y-81256317D01*
X205943610Y-81337685D01*
X206074258Y-81394764D01*
X206213504Y-81425379D01*
X206242512Y-81425986D01*
X207108263Y-82291737D01*
X207147792Y-82324206D01*
X207187008Y-82357113D01*
X207189562Y-82358517D01*
X207191812Y-82360365D01*
X207236913Y-82384548D01*
X207281756Y-82409201D01*
X207284530Y-82410080D01*
X207287100Y-82411459D01*
X207300860Y-82415665D01*
X207043965Y-82672560D01*
X207033791Y-82672489D01*
X206893744Y-82699204D01*
X206761554Y-82752612D01*
X206685000Y-82802708D01*
X206685000Y-82762458D01*
X206660597Y-82639777D01*
X206612730Y-82524215D01*
X206543237Y-82420211D01*
X206454789Y-82331763D01*
X206350785Y-82262270D01*
X206235223Y-82214403D01*
X206112542Y-82190000D01*
X205935750Y-82190000D01*
X205777000Y-82348750D01*
X205777000Y-83073000D01*
X205797000Y-83073000D01*
X205797000Y-83327000D01*
X205777000Y-83327000D01*
X205777000Y-84051250D01*
X205935750Y-84210000D01*
X206112542Y-84210000D01*
X206235223Y-84185597D01*
X206350785Y-84137730D01*
X206454789Y-84068237D01*
X206543237Y-83979789D01*
X206586572Y-83914932D01*
X206626537Y-83956317D01*
X206743610Y-84037685D01*
X206874258Y-84094764D01*
X207013504Y-84125379D01*
X207156045Y-84128365D01*
X207296451Y-84103608D01*
X207429374Y-84052050D01*
X207549752Y-83975656D01*
X207652999Y-83877336D01*
X207735182Y-83760833D01*
X207793171Y-83630587D01*
X207824758Y-83491558D01*
X207825223Y-83458250D01*
X208424331Y-82859142D01*
X208420656Y-82891910D01*
X208420614Y-82897872D01*
X208420604Y-82897978D01*
X208420613Y-82898076D01*
X208420600Y-82900000D01*
X208420600Y-84400000D01*
X208425820Y-84453242D01*
X208430487Y-84506581D01*
X208431338Y-84509510D01*
X208431635Y-84512539D01*
X208447092Y-84563736D01*
X208462035Y-84615170D01*
X208463437Y-84617875D01*
X208464318Y-84620792D01*
X208489442Y-84668044D01*
X208514074Y-84715564D01*
X208515974Y-84717945D01*
X208517405Y-84720635D01*
X208551189Y-84762058D01*
X208584621Y-84803938D01*
X208588809Y-84808185D01*
X208588875Y-84808265D01*
X208588949Y-84808326D01*
X208590302Y-84809698D01*
X209219637Y-85439033D01*
X209189548Y-85455032D01*
X208994354Y-85614228D01*
X208833799Y-85808306D01*
X208751097Y-85961258D01*
X208652684Y-85755056D01*
X208476854Y-85519707D01*
X208258488Y-85323183D01*
X208005978Y-85173036D01*
X207729027Y-85075037D01*
X207497000Y-85195536D01*
X207497000Y-86403000D01*
X207517000Y-86403000D01*
X207517000Y-86657000D01*
X207497000Y-86657000D01*
X207497000Y-87735536D01*
X207497000Y-87864464D01*
X207497000Y-88943000D01*
X207517000Y-88943000D01*
X207517000Y-89197000D01*
X207497000Y-89197000D01*
X207497000Y-90404464D01*
X207729027Y-90524963D01*
X208005978Y-90426964D01*
X208258488Y-90276817D01*
X208476854Y-90080293D01*
X208652684Y-89844944D01*
X208751391Y-89638127D01*
X208823827Y-89776685D01*
X208981657Y-89972986D01*
X209174609Y-90134891D01*
X209395334Y-90256236D01*
X209635424Y-90332397D01*
X209885735Y-90360474D01*
X209903755Y-90360600D01*
X209916245Y-90360600D01*
X210166924Y-90336021D01*
X210408054Y-90263219D01*
X210630452Y-90144968D01*
X210825646Y-89985772D01*
X210986201Y-89791694D01*
X211106002Y-89570128D01*
X211180485Y-89329511D01*
X211180677Y-89327676D01*
X211247132Y-89553467D01*
X211363827Y-89776685D01*
X211521657Y-89972986D01*
X211714609Y-90134891D01*
X211935334Y-90256236D01*
X212175424Y-90332397D01*
X212425735Y-90360474D01*
X212443755Y-90360600D01*
X212456245Y-90360600D01*
X212706924Y-90336021D01*
X212948054Y-90263219D01*
X213170452Y-90144968D01*
X213365646Y-89985772D01*
X213526201Y-89791694D01*
X213646002Y-89570128D01*
X213720485Y-89329511D01*
X213746814Y-89079010D01*
X213734939Y-88948534D01*
X214191737Y-88491737D01*
X214224206Y-88452207D01*
X214257113Y-88412992D01*
X214258517Y-88410437D01*
X214260365Y-88408188D01*
X214284548Y-88363086D01*
X214309201Y-88318244D01*
X214310080Y-88315469D01*
X214311459Y-88312900D01*
X214326422Y-88263955D01*
X214341894Y-88215183D01*
X214342218Y-88212285D01*
X214343070Y-88209502D01*
X214348236Y-88158639D01*
X214353946Y-88107735D01*
X214353985Y-88102034D01*
X214353996Y-88101934D01*
X214353987Y-88101840D01*
X214354000Y-88100000D01*
X214354000Y-85100000D01*
X214349012Y-85049131D01*
X214344547Y-84998091D01*
X214343732Y-84995288D01*
X214343449Y-84992394D01*
X214328672Y-84943450D01*
X214314382Y-84894263D01*
X214313041Y-84891676D01*
X214312199Y-84888887D01*
X214288188Y-84843729D01*
X214264624Y-84798270D01*
X214262804Y-84795990D01*
X214261438Y-84793421D01*
X214229127Y-84753804D01*
X214197169Y-84713771D01*
X214193168Y-84709714D01*
X214193102Y-84709633D01*
X214193026Y-84709570D01*
X214191737Y-84708263D01*
X213068460Y-83584986D01*
X213077000Y-83542056D01*
X213077000Y-83457944D01*
X213077000Y-83079400D01*
X213500000Y-83079400D01*
X213553242Y-83074179D01*
X213606581Y-83069513D01*
X213609510Y-83068661D01*
X213612539Y-83068365D01*
X213663736Y-83052907D01*
X213715170Y-83037965D01*
X213717875Y-83036562D01*
X213720792Y-83035682D01*
X213768044Y-83010557D01*
X213815564Y-82985926D01*
X213817945Y-82984025D01*
X213820635Y-82982595D01*
X213862058Y-82948810D01*
X213903938Y-82915379D01*
X213908185Y-82911190D01*
X213908265Y-82911125D01*
X213908326Y-82911050D01*
X213909698Y-82909698D01*
X214709996Y-82109400D01*
X215494147Y-82109400D01*
X215560690Y-82236685D01*
X215718520Y-82432986D01*
X215911472Y-82594891D01*
X216132197Y-82716236D01*
X216372287Y-82792397D01*
X216435615Y-82799500D01*
X216389939Y-82803979D01*
X216148809Y-82876781D01*
X215926411Y-82995032D01*
X215731217Y-83154228D01*
X215570662Y-83348306D01*
X215450861Y-83569872D01*
X215376378Y-83810489D01*
X215350049Y-84060990D01*
X215372878Y-84311834D01*
X215443995Y-84553467D01*
X215560690Y-84776685D01*
X215718520Y-84972986D01*
X215911472Y-85134891D01*
X216132197Y-85256236D01*
X216372287Y-85332397D01*
X216435615Y-85339500D01*
X216389939Y-85343979D01*
X216148809Y-85416781D01*
X215926411Y-85535032D01*
X215731217Y-85694228D01*
X215570662Y-85888306D01*
X215450861Y-86109872D01*
X215376378Y-86350489D01*
X215350049Y-86600990D01*
X215372878Y-86851834D01*
X215443995Y-87093467D01*
X215560690Y-87316685D01*
X215718520Y-87512986D01*
X215911472Y-87674891D01*
X216132197Y-87796236D01*
X216331315Y-87859400D01*
X215741944Y-87859400D01*
X215659449Y-87875809D01*
X215581739Y-87907998D01*
X215511803Y-87954728D01*
X215452327Y-88014203D01*
X215405597Y-88084140D01*
X215373409Y-88161849D01*
X215357000Y-88244344D01*
X215357000Y-88328456D01*
X215357000Y-90055656D01*
X215373409Y-90138151D01*
X215405598Y-90215861D01*
X215452328Y-90285797D01*
X215511803Y-90345273D01*
X215581740Y-90392003D01*
X215659449Y-90424191D01*
X215741944Y-90440600D01*
X215826056Y-90440600D01*
X217858056Y-90440600D01*
X217940551Y-90424191D01*
X218018261Y-90392002D01*
X218023000Y-90388835D01*
X218023000Y-90800000D01*
X218023000Y-91000000D01*
X218023000Y-91023000D01*
X218023000Y-91023000D01*
G37*
X218023000Y-91023000D02*
X207243000Y-91023000D01*
X207243000Y-90404464D01*
X207243000Y-89197000D01*
X207243000Y-88943000D01*
X207243000Y-87864464D01*
X207243000Y-87735536D01*
X207243000Y-86657000D01*
X207243000Y-86403000D01*
X207243000Y-85195536D01*
X207010973Y-85075037D01*
X206734022Y-85173036D01*
X206481512Y-85323183D01*
X206263146Y-85519707D01*
X206100000Y-85738078D01*
X205936854Y-85519707D01*
X205718488Y-85323183D01*
X205523000Y-85206942D01*
X205523000Y-84051250D01*
X205523000Y-83327000D01*
X205503000Y-83327000D01*
X205503000Y-83073000D01*
X205523000Y-83073000D01*
X205523000Y-82348750D01*
X205364250Y-82190000D01*
X205187458Y-82190000D01*
X205064777Y-82214403D01*
X204949215Y-82262270D01*
X204845211Y-82331763D01*
X204756763Y-82420211D01*
X204741978Y-82442338D01*
X204674551Y-82414409D01*
X204670273Y-82413558D01*
X204686537Y-82377029D01*
X204718124Y-82238000D01*
X204720398Y-82075156D01*
X204692705Y-81935299D01*
X204638375Y-81803485D01*
X204559477Y-81684733D01*
X204459016Y-81583568D01*
X204340818Y-81503843D01*
X204209386Y-81448594D01*
X204069726Y-81419926D01*
X204050187Y-81419789D01*
X203988661Y-81358263D01*
X203949131Y-81325793D01*
X203909916Y-81292887D01*
X203907361Y-81291482D01*
X203905112Y-81289635D01*
X203860010Y-81265451D01*
X203815168Y-81240799D01*
X203812393Y-81239919D01*
X203809824Y-81238541D01*
X203760879Y-81223577D01*
X203712107Y-81208106D01*
X203709209Y-81207781D01*
X203706426Y-81206930D01*
X203655563Y-81201763D01*
X203604659Y-81196054D01*
X203598958Y-81196014D01*
X203598858Y-81196004D01*
X203598764Y-81196012D01*
X203596924Y-81196000D01*
X203349869Y-81196000D01*
X203322197Y-81168327D01*
X203252260Y-81121597D01*
X203174551Y-81089409D01*
X203092056Y-81073000D01*
X203007944Y-81073000D01*
X202107944Y-81073000D01*
X202025449Y-81089409D01*
X201947739Y-81121598D01*
X201927032Y-81135434D01*
X201927032Y-80328714D01*
X201899339Y-80188857D01*
X201845009Y-80057043D01*
X201766111Y-79938291D01*
X201665650Y-79837126D01*
X201547452Y-79757401D01*
X201458000Y-79719798D01*
X201458000Y-75766250D01*
X201458000Y-74167000D01*
X201458000Y-73913000D01*
X201458000Y-72313750D01*
X201299250Y-72155000D01*
X201197542Y-72155000D01*
X201072458Y-72155000D01*
X200950000Y-72179358D01*
X200827542Y-72155000D01*
X200702458Y-72155000D01*
X200627032Y-72155000D01*
X200627032Y-70028714D01*
X200599339Y-69888857D01*
X200545009Y-69757043D01*
X200466111Y-69638291D01*
X200365650Y-69537126D01*
X200247452Y-69457401D01*
X200116020Y-69402152D01*
X199976360Y-69373484D01*
X199833791Y-69372489D01*
X199693744Y-69399204D01*
X199561554Y-69452612D01*
X199442255Y-69530680D01*
X199340391Y-69630432D01*
X199259842Y-69748070D01*
X199238083Y-69798836D01*
X198318460Y-70718460D01*
X198278545Y-70767053D01*
X198238098Y-70815257D01*
X198236371Y-70818397D01*
X198234100Y-70821163D01*
X198204381Y-70876587D01*
X198174069Y-70931726D01*
X198172986Y-70935138D01*
X198171294Y-70938295D01*
X198152906Y-70998436D01*
X198133881Y-71058412D01*
X198133481Y-71061972D01*
X198132435Y-71065396D01*
X198126080Y-71127957D01*
X198119066Y-71190492D01*
X198119017Y-71197490D01*
X198119004Y-71197623D01*
X198119015Y-71197746D01*
X198119000Y-71200000D01*
X198119000Y-79961672D01*
X198059842Y-80048070D01*
X198003677Y-80179113D01*
X197974035Y-80318570D01*
X197972044Y-80461128D01*
X197997781Y-80601358D01*
X198050265Y-80733918D01*
X198127498Y-80853760D01*
X198226537Y-80956317D01*
X198343610Y-81037685D01*
X198474258Y-81094764D01*
X198613504Y-81125379D01*
X198756045Y-81128365D01*
X198896451Y-81103608D01*
X199029374Y-81052050D01*
X199149752Y-80975656D01*
X199252999Y-80877336D01*
X199335182Y-80760833D01*
X199393171Y-80630587D01*
X199394199Y-80626058D01*
X199395618Y-80623412D01*
X199425931Y-80568274D01*
X199427013Y-80564861D01*
X199428706Y-80561705D01*
X199447080Y-80501604D01*
X199466119Y-80441588D01*
X199466518Y-80438022D01*
X199467564Y-80434604D01*
X199473914Y-80372087D01*
X199480934Y-80309508D01*
X199480982Y-80302510D01*
X199480996Y-80302378D01*
X199480984Y-80302254D01*
X199481000Y-80300000D01*
X199481000Y-75797127D01*
X199564215Y-75852730D01*
X199679777Y-75900597D01*
X199802458Y-75925000D01*
X199927542Y-75925000D01*
X200029250Y-75925000D01*
X200188000Y-75766250D01*
X200188000Y-74167000D01*
X200168000Y-74167000D01*
X200168000Y-73913000D01*
X200188000Y-73913000D01*
X200188000Y-72313750D01*
X200029250Y-72155000D01*
X199927542Y-72155000D01*
X199802458Y-72155000D01*
X199679777Y-72179403D01*
X199564215Y-72227270D01*
X199481000Y-72282872D01*
X199481000Y-71482080D01*
X200199406Y-70763673D01*
X200229374Y-70752050D01*
X200349752Y-70675656D01*
X200452999Y-70577336D01*
X200535182Y-70460833D01*
X200593171Y-70330587D01*
X200624758Y-70191558D01*
X200627032Y-70028714D01*
X200627032Y-72155000D01*
X200600750Y-72155000D01*
X200442000Y-72313750D01*
X200442000Y-73913000D01*
X200658750Y-73913000D01*
X201241250Y-73913000D01*
X201458000Y-73913000D01*
X201458000Y-74167000D01*
X201241250Y-74167000D01*
X200658750Y-74167000D01*
X200442000Y-74167000D01*
X200442000Y-75766250D01*
X200600750Y-75925000D01*
X200702458Y-75925000D01*
X200827542Y-75925000D01*
X200950000Y-75900641D01*
X201072458Y-75925000D01*
X201197542Y-75925000D01*
X201299250Y-75925000D01*
X201458000Y-75766250D01*
X201458000Y-79719798D01*
X201416020Y-79702152D01*
X201276360Y-79673484D01*
X201133791Y-79672489D01*
X200993744Y-79699204D01*
X200861554Y-79752612D01*
X200742255Y-79830680D01*
X200640391Y-79930432D01*
X200559842Y-80048070D01*
X200503677Y-80179113D01*
X200474035Y-80318570D01*
X200473696Y-80342829D01*
X200008263Y-80808263D01*
X199975793Y-80847792D01*
X199942887Y-80887008D01*
X199941482Y-80889562D01*
X199939635Y-80891812D01*
X199915451Y-80936913D01*
X199890799Y-80981756D01*
X199889919Y-80984530D01*
X199888541Y-80987100D01*
X199873577Y-81036044D01*
X199858750Y-81082785D01*
X199825449Y-81089409D01*
X199747739Y-81121598D01*
X199677803Y-81168328D01*
X199618327Y-81227803D01*
X199571597Y-81297740D01*
X199539409Y-81375449D01*
X199523000Y-81457944D01*
X199523000Y-81542056D01*
X199523000Y-82042056D01*
X199539409Y-82124551D01*
X199571598Y-82202261D01*
X199618328Y-82272197D01*
X199677803Y-82331673D01*
X199747740Y-82378403D01*
X199825449Y-82410591D01*
X199907944Y-82427000D01*
X199992056Y-82427000D01*
X200892056Y-82427000D01*
X200974551Y-82410591D01*
X201052261Y-82378402D01*
X201122197Y-82331672D01*
X201181673Y-82272197D01*
X201228403Y-82202260D01*
X201260591Y-82124551D01*
X201277000Y-82042056D01*
X201277000Y-81957944D01*
X201277000Y-81912066D01*
X201292685Y-81861397D01*
X201303986Y-81753868D01*
X201294187Y-81646191D01*
X201277000Y-81587793D01*
X201277000Y-81457944D01*
X201260591Y-81375449D01*
X201228402Y-81297739D01*
X201181672Y-81227803D01*
X201168671Y-81214802D01*
X201255128Y-81128345D01*
X201256045Y-81128365D01*
X201396451Y-81103608D01*
X201529374Y-81052050D01*
X201649752Y-80975656D01*
X201752999Y-80877336D01*
X201835182Y-80760833D01*
X201893171Y-80630587D01*
X201924758Y-80491558D01*
X201927032Y-80328714D01*
X201927032Y-81135434D01*
X201877803Y-81168328D01*
X201818327Y-81227803D01*
X201771597Y-81297740D01*
X201739409Y-81375449D01*
X201723000Y-81457944D01*
X201723000Y-81542056D01*
X201723000Y-82042056D01*
X201739409Y-82124551D01*
X201771598Y-82202261D01*
X201818328Y-82272197D01*
X201877803Y-82331673D01*
X201947740Y-82378403D01*
X202025449Y-82410591D01*
X202107944Y-82427000D01*
X202192056Y-82427000D01*
X203092056Y-82427000D01*
X203174551Y-82410591D01*
X203252261Y-82378402D01*
X203292593Y-82351452D01*
X203343631Y-82480360D01*
X203404069Y-82574141D01*
X203371597Y-82622740D01*
X203343775Y-82689906D01*
X203322197Y-82668327D01*
X203252260Y-82621597D01*
X203174551Y-82589409D01*
X203092056Y-82573000D01*
X203007944Y-82573000D01*
X202107944Y-82573000D01*
X202025449Y-82589409D01*
X201947739Y-82621598D01*
X201877803Y-82668328D01*
X201818327Y-82727803D01*
X201771597Y-82797740D01*
X201739409Y-82875449D01*
X201723000Y-82957944D01*
X201723000Y-83042056D01*
X201723000Y-83307604D01*
X199789382Y-85241221D01*
X199774265Y-85239526D01*
X199756245Y-85239400D01*
X199743755Y-85239400D01*
X199633237Y-85250236D01*
X200678271Y-84205202D01*
X200717258Y-84184821D01*
X200805385Y-84113965D01*
X200878071Y-84027342D01*
X200932547Y-83928250D01*
X200935697Y-83918319D01*
X200974551Y-83910591D01*
X201052261Y-83878402D01*
X201122197Y-83831672D01*
X201181673Y-83772197D01*
X201228403Y-83702260D01*
X201260591Y-83624551D01*
X201277000Y-83542056D01*
X201277000Y-83457944D01*
X201277000Y-82957944D01*
X201260591Y-82875449D01*
X201228402Y-82797739D01*
X201181672Y-82727803D01*
X201122197Y-82668327D01*
X201052260Y-82621597D01*
X200974551Y-82589409D01*
X200892056Y-82573000D01*
X200807944Y-82573000D01*
X199907944Y-82573000D01*
X199825449Y-82589409D01*
X199747739Y-82621598D01*
X199677803Y-82668328D01*
X199618327Y-82727803D01*
X199571597Y-82797740D01*
X199539409Y-82875449D01*
X199523000Y-82957944D01*
X199523000Y-83042056D01*
X199523000Y-83542056D01*
X199539409Y-83624551D01*
X199571598Y-83702261D01*
X199588688Y-83727837D01*
X198108263Y-85208263D01*
X198075793Y-85247792D01*
X198042887Y-85287008D01*
X198041482Y-85289562D01*
X198039635Y-85291812D01*
X198015451Y-85336913D01*
X197990799Y-85381756D01*
X197989919Y-85384530D01*
X197988541Y-85387100D01*
X197973577Y-85436044D01*
X197958106Y-85484817D01*
X197957781Y-85487714D01*
X197956930Y-85490498D01*
X197951763Y-85541360D01*
X197946054Y-85592265D01*
X197946014Y-85597965D01*
X197946004Y-85598066D01*
X197946012Y-85598159D01*
X197946000Y-85600000D01*
X197946000Y-87600000D01*
X197950997Y-87650963D01*
X197955454Y-87701909D01*
X197956266Y-87704706D01*
X197956551Y-87707606D01*
X197971350Y-87756623D01*
X197985619Y-87805738D01*
X197986958Y-87808321D01*
X197987801Y-87811113D01*
X198011820Y-87856287D01*
X198035376Y-87901730D01*
X198037195Y-87904009D01*
X198038562Y-87906579D01*
X198070877Y-87946202D01*
X198102832Y-87986230D01*
X198106831Y-87990285D01*
X198106898Y-87990367D01*
X198106973Y-87990429D01*
X198108263Y-87991737D01*
X198600463Y-88483937D01*
X198553998Y-88569872D01*
X198479515Y-88810489D01*
X198453186Y-89060990D01*
X198476015Y-89311834D01*
X198547132Y-89553467D01*
X198663827Y-89776685D01*
X198821657Y-89972986D01*
X199014609Y-90134891D01*
X199235334Y-90256236D01*
X199475424Y-90332397D01*
X199725735Y-90360474D01*
X199743755Y-90360600D01*
X199756245Y-90360600D01*
X200006924Y-90336021D01*
X200248054Y-90263219D01*
X200470452Y-90144968D01*
X200665646Y-89985772D01*
X200826201Y-89791694D01*
X200946002Y-89570128D01*
X201020485Y-89329511D01*
X201020677Y-89327676D01*
X201087132Y-89553467D01*
X201203827Y-89776685D01*
X201361657Y-89972986D01*
X201554609Y-90134891D01*
X201775334Y-90256236D01*
X202015424Y-90332397D01*
X202265735Y-90360474D01*
X202283755Y-90360600D01*
X202296245Y-90360600D01*
X202546924Y-90336021D01*
X202788054Y-90263219D01*
X203010452Y-90144968D01*
X203205646Y-89985772D01*
X203366201Y-89791694D01*
X203448902Y-89638741D01*
X203547316Y-89844944D01*
X203723146Y-90080293D01*
X203941512Y-90276817D01*
X204194022Y-90426964D01*
X204470973Y-90524963D01*
X204703000Y-90404464D01*
X204703000Y-89197000D01*
X204683000Y-89197000D01*
X204683000Y-88943000D01*
X204703000Y-88943000D01*
X204703000Y-87864464D01*
X204703000Y-87735536D01*
X204703000Y-86657000D01*
X204683000Y-86657000D01*
X204683000Y-86403000D01*
X204703000Y-86403000D01*
X204703000Y-85195536D01*
X204470973Y-85075037D01*
X204194022Y-85173036D01*
X203941512Y-85323183D01*
X203723146Y-85519707D01*
X203547316Y-85755056D01*
X203448608Y-85961872D01*
X203376173Y-85823315D01*
X203218343Y-85627014D01*
X203025391Y-85465109D01*
X202804666Y-85343764D01*
X202564576Y-85267603D01*
X202314265Y-85239526D01*
X202296245Y-85239400D01*
X202283755Y-85239400D01*
X202033076Y-85263979D01*
X201791946Y-85336781D01*
X201569548Y-85455032D01*
X201374354Y-85614228D01*
X201213799Y-85808306D01*
X201093998Y-86029872D01*
X201019515Y-86270489D01*
X201019322Y-86272323D01*
X200952868Y-86046533D01*
X200839574Y-85829821D01*
X202742395Y-83927000D01*
X203092056Y-83927000D01*
X203174551Y-83910591D01*
X203252261Y-83878402D01*
X203322197Y-83831672D01*
X203349869Y-83804000D01*
X203389464Y-83804000D01*
X203418328Y-83847197D01*
X203477803Y-83906673D01*
X203547740Y-83953403D01*
X203625449Y-83985591D01*
X203707944Y-84002000D01*
X203792056Y-84002000D01*
X204592056Y-84002000D01*
X204674551Y-83985591D01*
X204741977Y-83957661D01*
X204756763Y-83979789D01*
X204845211Y-84068237D01*
X204949215Y-84137730D01*
X205064777Y-84185597D01*
X205187458Y-84210000D01*
X205364250Y-84210000D01*
X205523000Y-84051250D01*
X205523000Y-85206942D01*
X205465978Y-85173036D01*
X205189027Y-85075037D01*
X204957000Y-85195536D01*
X204957000Y-86403000D01*
X206036183Y-86403000D01*
X206163817Y-86403000D01*
X207243000Y-86403000D01*
X207243000Y-86657000D01*
X206163817Y-86657000D01*
X206036183Y-86657000D01*
X204957000Y-86657000D01*
X204957000Y-87735536D01*
X204957000Y-87864464D01*
X204957000Y-88943000D01*
X206036183Y-88943000D01*
X206163817Y-88943000D01*
X207243000Y-88943000D01*
X207243000Y-89197000D01*
X206163817Y-89197000D01*
X206036183Y-89197000D01*
X204957000Y-89197000D01*
X204957000Y-90404464D01*
X205189027Y-90524963D01*
X205465978Y-90426964D01*
X205718488Y-90276817D01*
X205936854Y-90080293D01*
X206100000Y-89861921D01*
X206263146Y-90080293D01*
X206481512Y-90276817D01*
X206734022Y-90426964D01*
X207010973Y-90524963D01*
X207243000Y-90404464D01*
X207243000Y-91023000D01*
X197477000Y-91023000D01*
X197477000Y-91000000D01*
X197477000Y-90800000D01*
X197477000Y-51477000D01*
X218023000Y-51477000D01*
X218023000Y-75409033D01*
X217951729Y-75331514D01*
X217714321Y-75158046D01*
X217447633Y-75034227D01*
X217161914Y-74964815D01*
X216927000Y-75109075D01*
X216927000Y-76323000D01*
X216947000Y-76323000D01*
X216947000Y-76577000D01*
X216927000Y-76577000D01*
X216927000Y-77649075D01*
X216927000Y-77790925D01*
X216927000Y-78863000D01*
X216947000Y-78863000D01*
X216947000Y-79117000D01*
X216927000Y-79117000D01*
X216927000Y-79137000D01*
X216673000Y-79137000D01*
X216673000Y-79117000D01*
X216673000Y-78863000D01*
X216673000Y-77790925D01*
X216673000Y-77649075D01*
X216673000Y-76577000D01*
X216673000Y-76323000D01*
X216673000Y-75109075D01*
X216438086Y-74964815D01*
X216152367Y-75034227D01*
X215885679Y-75158046D01*
X215648271Y-75331514D01*
X215449267Y-75547965D01*
X215370000Y-75678104D01*
X215370000Y-75352542D01*
X215370000Y-74325750D01*
X215370000Y-73754250D01*
X215370000Y-72727458D01*
X215345597Y-72604777D01*
X215297730Y-72489215D01*
X215228237Y-72385211D01*
X215139789Y-72296763D01*
X215035785Y-72227270D01*
X214920223Y-72179403D01*
X214797542Y-72155000D01*
X214672458Y-72155000D01*
X214570750Y-72155000D01*
X214412000Y-72313750D01*
X214412000Y-73913000D01*
X215211250Y-73913000D01*
X215370000Y-73754250D01*
X215370000Y-74325750D01*
X215211250Y-74167000D01*
X214412000Y-74167000D01*
X214412000Y-75766250D01*
X214570750Y-75925000D01*
X214672458Y-75925000D01*
X214797542Y-75925000D01*
X214920223Y-75900597D01*
X215035785Y-75852730D01*
X215139789Y-75783237D01*
X215228237Y-75694789D01*
X215297730Y-75590785D01*
X215345597Y-75475223D01*
X215370000Y-75352542D01*
X215370000Y-75678104D01*
X215296314Y-75799081D01*
X215195291Y-76075211D01*
X215192642Y-76090974D01*
X215313783Y-76323000D01*
X216673000Y-76323000D01*
X216673000Y-76577000D01*
X215313783Y-76577000D01*
X215192642Y-76809026D01*
X215195291Y-76824789D01*
X215296314Y-77100919D01*
X215449267Y-77352035D01*
X215648271Y-77568486D01*
X215855632Y-77720000D01*
X215648271Y-77871514D01*
X215449267Y-78087965D01*
X215296314Y-78339081D01*
X215195291Y-78615211D01*
X215192642Y-78630974D01*
X215313783Y-78863000D01*
X216673000Y-78863000D01*
X216673000Y-79117000D01*
X215313783Y-79117000D01*
X215192642Y-79349026D01*
X215195291Y-79364789D01*
X215296314Y-79640919D01*
X215449267Y-79892035D01*
X215648271Y-80108486D01*
X215885679Y-80281954D01*
X216081198Y-80372730D01*
X215926411Y-80455032D01*
X215731217Y-80614228D01*
X215570662Y-80808306D01*
X215493723Y-80950600D01*
X214470000Y-80950600D01*
X214416762Y-80955820D01*
X214363418Y-80960487D01*
X214360488Y-80961338D01*
X214357461Y-80961635D01*
X214306288Y-80977084D01*
X214254829Y-80992035D01*
X214252121Y-80993438D01*
X214249208Y-80994318D01*
X214201974Y-81019432D01*
X214154436Y-81044074D01*
X214152055Y-81045974D01*
X214149365Y-81047405D01*
X214107910Y-81081214D01*
X214066062Y-81114622D01*
X214061816Y-81118808D01*
X214061735Y-81118875D01*
X214061672Y-81118950D01*
X214060302Y-81120302D01*
X213835000Y-81345604D01*
X213835000Y-79812542D01*
X213835000Y-79687458D01*
X213835000Y-78785750D01*
X213835000Y-78214250D01*
X213835000Y-77312542D01*
X213835000Y-77187458D01*
X213810597Y-77064777D01*
X213762730Y-76949215D01*
X213693237Y-76845211D01*
X213604789Y-76756763D01*
X213500785Y-76687270D01*
X213385223Y-76639403D01*
X213262542Y-76615000D01*
X212985750Y-76615000D01*
X212827000Y-76773750D01*
X212827000Y-78373000D01*
X213676250Y-78373000D01*
X213835000Y-78214250D01*
X213835000Y-78785750D01*
X213676250Y-78627000D01*
X212827000Y-78627000D01*
X212827000Y-80226250D01*
X212985750Y-80385000D01*
X213262542Y-80385000D01*
X213385223Y-80360597D01*
X213500785Y-80312730D01*
X213604789Y-80243237D01*
X213693237Y-80154789D01*
X213762730Y-80050785D01*
X213810597Y-79935223D01*
X213835000Y-79812542D01*
X213835000Y-81345604D01*
X213260004Y-81920600D01*
X213077000Y-81920600D01*
X213077000Y-81457944D01*
X213060591Y-81375449D01*
X213028402Y-81297739D01*
X212981672Y-81227803D01*
X212922197Y-81168327D01*
X212852260Y-81121597D01*
X212774551Y-81089409D01*
X212692056Y-81073000D01*
X212607944Y-81073000D01*
X212573000Y-81073000D01*
X212573000Y-80226250D01*
X212573000Y-78627000D01*
X212573000Y-78373000D01*
X212573000Y-76773750D01*
X212414250Y-76615000D01*
X212137458Y-76615000D01*
X212014777Y-76639403D01*
X211899215Y-76687270D01*
X211795211Y-76756763D01*
X211706763Y-76845211D01*
X211637270Y-76949215D01*
X211589403Y-77064777D01*
X211585000Y-77086912D01*
X211585000Y-76612542D01*
X211585000Y-76583750D01*
X211426250Y-76425000D01*
X210777000Y-76425000D01*
X210777000Y-77026250D01*
X210935750Y-77185000D01*
X211012542Y-77185000D01*
X211135223Y-77160597D01*
X211250785Y-77112730D01*
X211354789Y-77043237D01*
X211443237Y-76954789D01*
X211512730Y-76850785D01*
X211560597Y-76735223D01*
X211585000Y-76612542D01*
X211585000Y-77086912D01*
X211565000Y-77187458D01*
X211565000Y-77312542D01*
X211565000Y-78214250D01*
X211723750Y-78373000D01*
X212573000Y-78373000D01*
X212573000Y-78627000D01*
X211723750Y-78627000D01*
X211565000Y-78785750D01*
X211565000Y-79687458D01*
X211565000Y-79812542D01*
X211589403Y-79935223D01*
X211637270Y-80050785D01*
X211706763Y-80154789D01*
X211795211Y-80243237D01*
X211899215Y-80312730D01*
X212014777Y-80360597D01*
X212137458Y-80385000D01*
X212414250Y-80385000D01*
X212573000Y-80226250D01*
X212573000Y-81073000D01*
X212356474Y-81073000D01*
X211791737Y-80508263D01*
X211752207Y-80475793D01*
X211712992Y-80442887D01*
X211710437Y-80441482D01*
X211708188Y-80439635D01*
X211663086Y-80415451D01*
X211618244Y-80390799D01*
X211615469Y-80389919D01*
X211612900Y-80388541D01*
X211563955Y-80373577D01*
X211515183Y-80358106D01*
X211512285Y-80357781D01*
X211509502Y-80356930D01*
X211458639Y-80351763D01*
X211407735Y-80346054D01*
X211402034Y-80346014D01*
X211401934Y-80346004D01*
X211401840Y-80346012D01*
X211400000Y-80346000D01*
X208800000Y-80346000D01*
X208749131Y-80350987D01*
X208698091Y-80355453D01*
X208695288Y-80356267D01*
X208692394Y-80356551D01*
X208643450Y-80371327D01*
X208594263Y-80385618D01*
X208591676Y-80386958D01*
X208588887Y-80387801D01*
X208543729Y-80411811D01*
X208498270Y-80435376D01*
X208495990Y-80437195D01*
X208493421Y-80438562D01*
X208453804Y-80470872D01*
X208413771Y-80502831D01*
X208410883Y-80505679D01*
X208366111Y-80438291D01*
X208354000Y-80426095D01*
X208354000Y-80200000D01*
X208354000Y-79054000D01*
X208773000Y-79054000D01*
X208773000Y-79792056D01*
X208789409Y-79874551D01*
X208821598Y-79952261D01*
X208868328Y-80022197D01*
X208927803Y-80081673D01*
X208997740Y-80128403D01*
X209075449Y-80160591D01*
X209157944Y-80177000D01*
X209242056Y-80177000D01*
X210242056Y-80177000D01*
X210324551Y-80160591D01*
X210402261Y-80128402D01*
X210472197Y-80081672D01*
X210531673Y-80022197D01*
X210578403Y-79952260D01*
X210610591Y-79874551D01*
X210627000Y-79792056D01*
X210627000Y-79707944D01*
X210627000Y-77207944D01*
X210610591Y-77125449D01*
X210578402Y-77047739D01*
X210531672Y-76977803D01*
X210523000Y-76969130D01*
X210523000Y-76425000D01*
X210503000Y-76425000D01*
X210503000Y-76175000D01*
X210523000Y-76175000D01*
X210523000Y-76153000D01*
X210777000Y-76153000D01*
X210777000Y-76175000D01*
X211426250Y-76175000D01*
X211585000Y-76016250D01*
X211585000Y-75987458D01*
X211560597Y-75864777D01*
X211512730Y-75749215D01*
X211491204Y-75717000D01*
X212237056Y-75717000D01*
X212319551Y-75700591D01*
X212379999Y-75675552D01*
X212440449Y-75700591D01*
X212522944Y-75717000D01*
X212607056Y-75717000D01*
X213363974Y-75717000D01*
X213430211Y-75783237D01*
X213534215Y-75852730D01*
X213649777Y-75900597D01*
X213772458Y-75925000D01*
X213897542Y-75925000D01*
X213999250Y-75925000D01*
X214158000Y-75766250D01*
X214158000Y-74167000D01*
X214138000Y-74167000D01*
X214138000Y-73913000D01*
X214158000Y-73913000D01*
X214158000Y-72313750D01*
X213999250Y-72155000D01*
X213897542Y-72155000D01*
X213772458Y-72155000D01*
X213649777Y-72179403D01*
X213534215Y-72227270D01*
X213430211Y-72296763D01*
X213363974Y-72363000D01*
X212522944Y-72363000D01*
X212440449Y-72379409D01*
X212380000Y-72404447D01*
X212319551Y-72379409D01*
X212237056Y-72363000D01*
X212152944Y-72363000D01*
X211252944Y-72363000D01*
X211170449Y-72379409D01*
X211110000Y-72404447D01*
X211049551Y-72379409D01*
X210967056Y-72363000D01*
X210882944Y-72363000D01*
X209982944Y-72363000D01*
X209900449Y-72379409D01*
X209886000Y-72385394D01*
X209886000Y-71479400D01*
X215159749Y-71479400D01*
X215243610Y-71537685D01*
X215374258Y-71594764D01*
X215513504Y-71625379D01*
X215656045Y-71628365D01*
X215796451Y-71603608D01*
X215929374Y-71552050D01*
X216049752Y-71475656D01*
X216152999Y-71377336D01*
X216235182Y-71260833D01*
X216293171Y-71130587D01*
X216324758Y-70991558D01*
X216327032Y-70828714D01*
X216299339Y-70688857D01*
X216245009Y-70557043D01*
X216166111Y-70438291D01*
X216065650Y-70337126D01*
X215947452Y-70257401D01*
X215816020Y-70202152D01*
X215676360Y-70173484D01*
X215533791Y-70172489D01*
X215393744Y-70199204D01*
X215261554Y-70252612D01*
X215240792Y-70266198D01*
X215240792Y-58560000D01*
X215240792Y-55585000D01*
X215232179Y-55497164D01*
X215224482Y-55409181D01*
X215223079Y-55404353D01*
X215222589Y-55399352D01*
X215197077Y-55314852D01*
X215172440Y-55230050D01*
X215170126Y-55225586D01*
X215168674Y-55220776D01*
X215127250Y-55142869D01*
X215086595Y-55064438D01*
X215083456Y-55060505D01*
X215081099Y-55056073D01*
X215025343Y-54987708D01*
X214970218Y-54918655D01*
X214963319Y-54911660D01*
X214963202Y-54911516D01*
X214963068Y-54911405D01*
X214960847Y-54909153D01*
X214175847Y-54124153D01*
X214107638Y-54068126D01*
X214039991Y-54011363D01*
X214035585Y-54008940D01*
X214031703Y-54005752D01*
X213953898Y-53964033D01*
X213876527Y-53921498D01*
X213871737Y-53919978D01*
X213867307Y-53917603D01*
X213782891Y-53891794D01*
X213698720Y-53865094D01*
X213693721Y-53864533D01*
X213688919Y-53863065D01*
X213601133Y-53854148D01*
X213513345Y-53844301D01*
X213503518Y-53844232D01*
X213503336Y-53844214D01*
X213503166Y-53844230D01*
X213500000Y-53844208D01*
X208800000Y-53844208D01*
X208800000Y-53450000D01*
X208635000Y-53450000D01*
X208635000Y-53039250D01*
X208635000Y-52737458D01*
X208610597Y-52614777D01*
X208562730Y-52499215D01*
X208493237Y-52395211D01*
X208404789Y-52306763D01*
X208300785Y-52237270D01*
X208185223Y-52189403D01*
X208062542Y-52165000D01*
X207937458Y-52165000D01*
X207185750Y-52165000D01*
X207027000Y-52323750D01*
X207027000Y-53198000D01*
X208476250Y-53198000D01*
X208635000Y-53039250D01*
X208635000Y-53450000D01*
X206773000Y-53450000D01*
X206773000Y-53198000D01*
X206773000Y-52323750D01*
X206614250Y-52165000D01*
X205862542Y-52165000D01*
X205737458Y-52165000D01*
X205614777Y-52189403D01*
X205499215Y-52237270D01*
X205395211Y-52306763D01*
X205306763Y-52395211D01*
X205237270Y-52499215D01*
X205189403Y-52614777D01*
X205165000Y-52737458D01*
X205165000Y-53039250D01*
X205323750Y-53198000D01*
X206773000Y-53198000D01*
X206773000Y-53450000D01*
X205450000Y-53450000D01*
X205450000Y-53452000D01*
X205323750Y-53452000D01*
X205165000Y-53610750D01*
X205165000Y-53715750D01*
X205114250Y-53665000D01*
X204962542Y-53665000D01*
X204837458Y-53665000D01*
X204714777Y-53689403D01*
X204599215Y-53737270D01*
X204495211Y-53806763D01*
X204406763Y-53895211D01*
X204337270Y-53999215D01*
X204289403Y-54114777D01*
X204265000Y-54237458D01*
X204265000Y-54514250D01*
X204423750Y-54673000D01*
X205273000Y-54673000D01*
X205273000Y-54653000D01*
X205450000Y-54653000D01*
X205450000Y-54947000D01*
X205273000Y-54947000D01*
X205273000Y-54927000D01*
X204423750Y-54927000D01*
X204265000Y-55085750D01*
X204265000Y-55362542D01*
X204289403Y-55485223D01*
X204337270Y-55600785D01*
X204406763Y-55704789D01*
X204495211Y-55793237D01*
X204599215Y-55862730D01*
X204714777Y-55910597D01*
X204837458Y-55935000D01*
X204962542Y-55935000D01*
X205114250Y-55935000D01*
X205165000Y-55884250D01*
X205165000Y-55989250D01*
X205323750Y-56148000D01*
X206773000Y-56148000D01*
X206773000Y-56128000D01*
X207027000Y-56128000D01*
X207027000Y-56148000D01*
X208476250Y-56148000D01*
X208574250Y-56050000D01*
X208800000Y-56050000D01*
X208800000Y-55755792D01*
X213104098Y-55755792D01*
X213329208Y-55980902D01*
X213329208Y-56883000D01*
X212522944Y-56883000D01*
X212440449Y-56899409D01*
X212362739Y-56931598D01*
X212292803Y-56978328D01*
X212233327Y-57037803D01*
X212186597Y-57107740D01*
X212154409Y-57185449D01*
X212138000Y-57267944D01*
X212138000Y-57352056D01*
X212138000Y-59852056D01*
X212154409Y-59934551D01*
X212186598Y-60012261D01*
X212233328Y-60082197D01*
X212292803Y-60141673D01*
X212362740Y-60188403D01*
X212440449Y-60220591D01*
X212522944Y-60237000D01*
X212607056Y-60237000D01*
X213507056Y-60237000D01*
X213589551Y-60220591D01*
X213649999Y-60195552D01*
X213710449Y-60220591D01*
X213792944Y-60237000D01*
X213877056Y-60237000D01*
X214777056Y-60237000D01*
X214859551Y-60220591D01*
X214937261Y-60188402D01*
X215007197Y-60141672D01*
X215066673Y-60082197D01*
X215113403Y-60012260D01*
X215145591Y-59934551D01*
X215162000Y-59852056D01*
X215162000Y-59767944D01*
X215162000Y-58939259D01*
X215163502Y-58936527D01*
X215219906Y-58758720D01*
X215240699Y-58573345D01*
X215240792Y-58560000D01*
X215240792Y-70266198D01*
X215157658Y-70320600D01*
X209283679Y-70320600D01*
X209181000Y-70217920D01*
X209181000Y-67800000D01*
X209174864Y-67737432D01*
X209169379Y-67674729D01*
X209168379Y-67671287D01*
X209168030Y-67667726D01*
X209149842Y-67607484D01*
X209132298Y-67547098D01*
X209130652Y-67543922D01*
X209129616Y-67540491D01*
X209100087Y-67484957D01*
X209071135Y-67429100D01*
X209068898Y-67426297D01*
X209067219Y-67423140D01*
X209027484Y-67374420D01*
X208988216Y-67325230D01*
X208983304Y-67320250D01*
X208983218Y-67320144D01*
X208983119Y-67320062D01*
X208981539Y-67318460D01*
X208762458Y-67099379D01*
X208745009Y-67057043D01*
X208666111Y-66938291D01*
X208635000Y-66906961D01*
X208635000Y-56862542D01*
X208635000Y-56560750D01*
X208476250Y-56402000D01*
X207027000Y-56402000D01*
X207027000Y-57276250D01*
X207185750Y-57435000D01*
X207937458Y-57435000D01*
X208062542Y-57435000D01*
X208185223Y-57410597D01*
X208300785Y-57362730D01*
X208404789Y-57293237D01*
X208493237Y-57204789D01*
X208562730Y-57100785D01*
X208610597Y-56985223D01*
X208635000Y-56862542D01*
X208635000Y-66906961D01*
X208565650Y-66837126D01*
X208447452Y-66757401D01*
X208316020Y-66702152D01*
X208176360Y-66673484D01*
X208033791Y-66672489D01*
X207893744Y-66699204D01*
X207761554Y-66752612D01*
X207642255Y-66830680D01*
X207540391Y-66930432D01*
X207459842Y-67048070D01*
X207421350Y-67137876D01*
X206773000Y-66489526D01*
X206773000Y-57276250D01*
X206773000Y-56402000D01*
X205323750Y-56402000D01*
X205165000Y-56560750D01*
X205165000Y-56862542D01*
X205189403Y-56985223D01*
X205237270Y-57100785D01*
X205306763Y-57204789D01*
X205395211Y-57293237D01*
X205499215Y-57362730D01*
X205614777Y-57410597D01*
X205737458Y-57435000D01*
X205862542Y-57435000D01*
X206614250Y-57435000D01*
X206773000Y-57276250D01*
X206773000Y-66489526D01*
X206391737Y-66108263D01*
X206352207Y-66075793D01*
X206312992Y-66042887D01*
X206310437Y-66041482D01*
X206308188Y-66039635D01*
X206263086Y-66015451D01*
X206218244Y-65990799D01*
X206215469Y-65989919D01*
X206212900Y-65988541D01*
X206163955Y-65973577D01*
X206115183Y-65958106D01*
X206112285Y-65957781D01*
X206109502Y-65956930D01*
X206058639Y-65951763D01*
X206007735Y-65946054D01*
X206002034Y-65946014D01*
X206001934Y-65946004D01*
X206001840Y-65946012D01*
X206000000Y-65946000D01*
X199374462Y-65946000D01*
X199365650Y-65937126D01*
X199247452Y-65857401D01*
X199116020Y-65802152D01*
X198976360Y-65773484D01*
X198833791Y-65772489D01*
X198693744Y-65799204D01*
X198561554Y-65852612D01*
X198442255Y-65930680D01*
X198340391Y-66030432D01*
X198259842Y-66148070D01*
X198203677Y-66279113D01*
X198174035Y-66418570D01*
X198172044Y-66561128D01*
X198197781Y-66701358D01*
X198250265Y-66833918D01*
X198327498Y-66953760D01*
X198426537Y-67056317D01*
X198543610Y-67137685D01*
X198674258Y-67194764D01*
X198813504Y-67225379D01*
X198956045Y-67228365D01*
X199096451Y-67203608D01*
X199229374Y-67152050D01*
X199349752Y-67075656D01*
X199372493Y-67054000D01*
X205770526Y-67054000D01*
X206802417Y-68085891D01*
X206759842Y-68148070D01*
X206703677Y-68279113D01*
X206674035Y-68418570D01*
X206672044Y-68561128D01*
X206697781Y-68701358D01*
X206750265Y-68833918D01*
X206827498Y-68953760D01*
X206926537Y-69056317D01*
X207043610Y-69137685D01*
X207174258Y-69194764D01*
X207313504Y-69225379D01*
X207456045Y-69228365D01*
X207596451Y-69203608D01*
X207729374Y-69152050D01*
X207819000Y-69095171D01*
X207819000Y-70500000D01*
X207825135Y-70562572D01*
X207830621Y-70625270D01*
X207831620Y-70628710D01*
X207831970Y-70632274D01*
X207850161Y-70692527D01*
X207867702Y-70752902D01*
X207869347Y-70756077D01*
X207870384Y-70759509D01*
X207899922Y-70815063D01*
X207928865Y-70870899D01*
X207931100Y-70873699D01*
X207932781Y-70876860D01*
X207972533Y-70925601D01*
X208011784Y-70974770D01*
X208016698Y-70979754D01*
X208016782Y-70979856D01*
X208016876Y-70979934D01*
X208018460Y-70981540D01*
X208524000Y-71487079D01*
X208524000Y-72385393D01*
X208514400Y-72381417D01*
X208514400Y-71935000D01*
X208509179Y-71881757D01*
X208504513Y-71828419D01*
X208503661Y-71825489D01*
X208503365Y-71822461D01*
X208487907Y-71771263D01*
X208472965Y-71719830D01*
X208471562Y-71717124D01*
X208470682Y-71714208D01*
X208445557Y-71666955D01*
X208420926Y-71619436D01*
X208419025Y-71617054D01*
X208417595Y-71614365D01*
X208383810Y-71572941D01*
X208350379Y-71531062D01*
X208346190Y-71526814D01*
X208346125Y-71526735D01*
X208346050Y-71526673D01*
X208344698Y-71525302D01*
X207609698Y-70790302D01*
X207568327Y-70756320D01*
X207527342Y-70721929D01*
X207524670Y-70720460D01*
X207522318Y-70718528D01*
X207475164Y-70693244D01*
X207428250Y-70667453D01*
X207425346Y-70666531D01*
X207422661Y-70665092D01*
X207371488Y-70649446D01*
X207320464Y-70633261D01*
X207317434Y-70632921D01*
X207314523Y-70632031D01*
X207261341Y-70626629D01*
X207208090Y-70620656D01*
X207202127Y-70620614D01*
X207202022Y-70620604D01*
X207201923Y-70620613D01*
X207200000Y-70620600D01*
X204639995Y-70620600D01*
X203821827Y-69802432D01*
X203799339Y-69688857D01*
X203745009Y-69557043D01*
X203666111Y-69438291D01*
X203565650Y-69337126D01*
X203447452Y-69257401D01*
X203316020Y-69202152D01*
X203176360Y-69173484D01*
X203033791Y-69172489D01*
X202893744Y-69199204D01*
X202761554Y-69252612D01*
X202642255Y-69330680D01*
X202540391Y-69430432D01*
X202459842Y-69548070D01*
X202403677Y-69679113D01*
X202374035Y-69818570D01*
X202372044Y-69961128D01*
X202397781Y-70101358D01*
X202450265Y-70233918D01*
X202527498Y-70353760D01*
X202626537Y-70456317D01*
X202743610Y-70537685D01*
X202874258Y-70594764D01*
X203003863Y-70623259D01*
X203990303Y-71609698D01*
X204031625Y-71643640D01*
X204072658Y-71678071D01*
X204075332Y-71679541D01*
X204077683Y-71681472D01*
X204124814Y-71706744D01*
X204171750Y-71732547D01*
X204174653Y-71733468D01*
X204177339Y-71734908D01*
X204228553Y-71750566D01*
X204279536Y-71766739D01*
X204282560Y-71767078D01*
X204285477Y-71767970D01*
X204338708Y-71773376D01*
X204391910Y-71779344D01*
X204397872Y-71779385D01*
X204397978Y-71779396D01*
X204398076Y-71779386D01*
X204400000Y-71779400D01*
X204703615Y-71779400D01*
X204674035Y-71918570D01*
X204672044Y-72061128D01*
X204697781Y-72201358D01*
X204750265Y-72333918D01*
X204788192Y-72392770D01*
X204760000Y-72404447D01*
X204699551Y-72379409D01*
X204617056Y-72363000D01*
X204532944Y-72363000D01*
X203632944Y-72363000D01*
X203550449Y-72379409D01*
X203490000Y-72404447D01*
X203429551Y-72379409D01*
X203347056Y-72363000D01*
X203262944Y-72363000D01*
X202506026Y-72363000D01*
X202439789Y-72296763D01*
X202335785Y-72227270D01*
X202220223Y-72179403D01*
X202097542Y-72155000D01*
X201972458Y-72155000D01*
X201870750Y-72155000D01*
X201712000Y-72313750D01*
X201712000Y-73913000D01*
X201732000Y-73913000D01*
X201732000Y-74167000D01*
X201712000Y-74167000D01*
X201712000Y-75766250D01*
X201870750Y-75925000D01*
X201972458Y-75925000D01*
X202097542Y-75925000D01*
X202220223Y-75900597D01*
X202301000Y-75867138D01*
X202301000Y-76155000D01*
X202305997Y-76205963D01*
X202310454Y-76256909D01*
X202311266Y-76259706D01*
X202311551Y-76262606D01*
X202326350Y-76311623D01*
X202340619Y-76360738D01*
X202341958Y-76363321D01*
X202342801Y-76366113D01*
X202346000Y-76372129D01*
X202346000Y-76523000D01*
X201857944Y-76523000D01*
X201775449Y-76539409D01*
X201697739Y-76571598D01*
X201627803Y-76618328D01*
X201568327Y-76677803D01*
X201521597Y-76747740D01*
X201489409Y-76825449D01*
X201473000Y-76907944D01*
X201473000Y-76992056D01*
X201473000Y-77892056D01*
X201489409Y-77974551D01*
X201521598Y-78052261D01*
X201568328Y-78122197D01*
X201596000Y-78149869D01*
X201596000Y-78428933D01*
X201600997Y-78479896D01*
X201605454Y-78530842D01*
X201606266Y-78533639D01*
X201606551Y-78536539D01*
X201621350Y-78585556D01*
X201635619Y-78634671D01*
X201636958Y-78637254D01*
X201637801Y-78640046D01*
X201661820Y-78685220D01*
X201685376Y-78730663D01*
X201687195Y-78732942D01*
X201688562Y-78735512D01*
X201720877Y-78775135D01*
X201752832Y-78815163D01*
X201756831Y-78819218D01*
X201756898Y-78819300D01*
X201756973Y-78819362D01*
X201758263Y-78820670D01*
X204129330Y-81191737D01*
X204168859Y-81224206D01*
X204208075Y-81257113D01*
X204210629Y-81258517D01*
X204212879Y-81260365D01*
X204257980Y-81284548D01*
X204302823Y-81309201D01*
X204305597Y-81310080D01*
X204308167Y-81311459D01*
X204357111Y-81326422D01*
X204405884Y-81341894D01*
X204408781Y-81342218D01*
X204411565Y-81343070D01*
X204462427Y-81348236D01*
X204513332Y-81353946D01*
X204519032Y-81353985D01*
X204519133Y-81353996D01*
X204519226Y-81353987D01*
X204521067Y-81354000D01*
X205200000Y-81354000D01*
X205250963Y-81349002D01*
X205301909Y-81344546D01*
X205304706Y-81343733D01*
X205307606Y-81343449D01*
X205356623Y-81328649D01*
X205405738Y-81314381D01*
X205408321Y-81313041D01*
X205411113Y-81312199D01*
X205456287Y-81288179D01*
X205501730Y-81264624D01*
X205504009Y-81262804D01*
X205506579Y-81261438D01*
X205546202Y-81229122D01*
X205586230Y-81197168D01*
X205590285Y-81193168D01*
X205590367Y-81193102D01*
X205590429Y-81193026D01*
X205591737Y-81191737D01*
X205689176Y-81094297D01*
X205727498Y-81153760D01*
X205826537Y-81256317D01*
X205943610Y-81337685D01*
X206074258Y-81394764D01*
X206213504Y-81425379D01*
X206242512Y-81425986D01*
X207108263Y-82291737D01*
X207147792Y-82324206D01*
X207187008Y-82357113D01*
X207189562Y-82358517D01*
X207191812Y-82360365D01*
X207236913Y-82384548D01*
X207281756Y-82409201D01*
X207284530Y-82410080D01*
X207287100Y-82411459D01*
X207300860Y-82415665D01*
X207043965Y-82672560D01*
X207033791Y-82672489D01*
X206893744Y-82699204D01*
X206761554Y-82752612D01*
X206685000Y-82802708D01*
X206685000Y-82762458D01*
X206660597Y-82639777D01*
X206612730Y-82524215D01*
X206543237Y-82420211D01*
X206454789Y-82331763D01*
X206350785Y-82262270D01*
X206235223Y-82214403D01*
X206112542Y-82190000D01*
X205935750Y-82190000D01*
X205777000Y-82348750D01*
X205777000Y-83073000D01*
X205797000Y-83073000D01*
X205797000Y-83327000D01*
X205777000Y-83327000D01*
X205777000Y-84051250D01*
X205935750Y-84210000D01*
X206112542Y-84210000D01*
X206235223Y-84185597D01*
X206350785Y-84137730D01*
X206454789Y-84068237D01*
X206543237Y-83979789D01*
X206586572Y-83914932D01*
X206626537Y-83956317D01*
X206743610Y-84037685D01*
X206874258Y-84094764D01*
X207013504Y-84125379D01*
X207156045Y-84128365D01*
X207296451Y-84103608D01*
X207429374Y-84052050D01*
X207549752Y-83975656D01*
X207652999Y-83877336D01*
X207735182Y-83760833D01*
X207793171Y-83630587D01*
X207824758Y-83491558D01*
X207825223Y-83458250D01*
X208424331Y-82859142D01*
X208420656Y-82891910D01*
X208420614Y-82897872D01*
X208420604Y-82897978D01*
X208420613Y-82898076D01*
X208420600Y-82900000D01*
X208420600Y-84400000D01*
X208425820Y-84453242D01*
X208430487Y-84506581D01*
X208431338Y-84509510D01*
X208431635Y-84512539D01*
X208447092Y-84563736D01*
X208462035Y-84615170D01*
X208463437Y-84617875D01*
X208464318Y-84620792D01*
X208489442Y-84668044D01*
X208514074Y-84715564D01*
X208515974Y-84717945D01*
X208517405Y-84720635D01*
X208551189Y-84762058D01*
X208584621Y-84803938D01*
X208588809Y-84808185D01*
X208588875Y-84808265D01*
X208588949Y-84808326D01*
X208590302Y-84809698D01*
X209219637Y-85439033D01*
X209189548Y-85455032D01*
X208994354Y-85614228D01*
X208833799Y-85808306D01*
X208751097Y-85961258D01*
X208652684Y-85755056D01*
X208476854Y-85519707D01*
X208258488Y-85323183D01*
X208005978Y-85173036D01*
X207729027Y-85075037D01*
X207497000Y-85195536D01*
X207497000Y-86403000D01*
X207517000Y-86403000D01*
X207517000Y-86657000D01*
X207497000Y-86657000D01*
X207497000Y-87735536D01*
X207497000Y-87864464D01*
X207497000Y-88943000D01*
X207517000Y-88943000D01*
X207517000Y-89197000D01*
X207497000Y-89197000D01*
X207497000Y-90404464D01*
X207729027Y-90524963D01*
X208005978Y-90426964D01*
X208258488Y-90276817D01*
X208476854Y-90080293D01*
X208652684Y-89844944D01*
X208751391Y-89638127D01*
X208823827Y-89776685D01*
X208981657Y-89972986D01*
X209174609Y-90134891D01*
X209395334Y-90256236D01*
X209635424Y-90332397D01*
X209885735Y-90360474D01*
X209903755Y-90360600D01*
X209916245Y-90360600D01*
X210166924Y-90336021D01*
X210408054Y-90263219D01*
X210630452Y-90144968D01*
X210825646Y-89985772D01*
X210986201Y-89791694D01*
X211106002Y-89570128D01*
X211180485Y-89329511D01*
X211180677Y-89327676D01*
X211247132Y-89553467D01*
X211363827Y-89776685D01*
X211521657Y-89972986D01*
X211714609Y-90134891D01*
X211935334Y-90256236D01*
X212175424Y-90332397D01*
X212425735Y-90360474D01*
X212443755Y-90360600D01*
X212456245Y-90360600D01*
X212706924Y-90336021D01*
X212948054Y-90263219D01*
X213170452Y-90144968D01*
X213365646Y-89985772D01*
X213526201Y-89791694D01*
X213646002Y-89570128D01*
X213720485Y-89329511D01*
X213746814Y-89079010D01*
X213734939Y-88948534D01*
X214191737Y-88491737D01*
X214224206Y-88452207D01*
X214257113Y-88412992D01*
X214258517Y-88410437D01*
X214260365Y-88408188D01*
X214284548Y-88363086D01*
X214309201Y-88318244D01*
X214310080Y-88315469D01*
X214311459Y-88312900D01*
X214326422Y-88263955D01*
X214341894Y-88215183D01*
X214342218Y-88212285D01*
X214343070Y-88209502D01*
X214348236Y-88158639D01*
X214353946Y-88107735D01*
X214353985Y-88102034D01*
X214353996Y-88101934D01*
X214353987Y-88101840D01*
X214354000Y-88100000D01*
X214354000Y-85100000D01*
X214349012Y-85049131D01*
X214344547Y-84998091D01*
X214343732Y-84995288D01*
X214343449Y-84992394D01*
X214328672Y-84943450D01*
X214314382Y-84894263D01*
X214313041Y-84891676D01*
X214312199Y-84888887D01*
X214288188Y-84843729D01*
X214264624Y-84798270D01*
X214262804Y-84795990D01*
X214261438Y-84793421D01*
X214229127Y-84753804D01*
X214197169Y-84713771D01*
X214193168Y-84709714D01*
X214193102Y-84709633D01*
X214193026Y-84709570D01*
X214191737Y-84708263D01*
X213068460Y-83584986D01*
X213077000Y-83542056D01*
X213077000Y-83457944D01*
X213077000Y-83079400D01*
X213500000Y-83079400D01*
X213553242Y-83074179D01*
X213606581Y-83069513D01*
X213609510Y-83068661D01*
X213612539Y-83068365D01*
X213663736Y-83052907D01*
X213715170Y-83037965D01*
X213717875Y-83036562D01*
X213720792Y-83035682D01*
X213768044Y-83010557D01*
X213815564Y-82985926D01*
X213817945Y-82984025D01*
X213820635Y-82982595D01*
X213862058Y-82948810D01*
X213903938Y-82915379D01*
X213908185Y-82911190D01*
X213908265Y-82911125D01*
X213908326Y-82911050D01*
X213909698Y-82909698D01*
X214709996Y-82109400D01*
X215494147Y-82109400D01*
X215560690Y-82236685D01*
X215718520Y-82432986D01*
X215911472Y-82594891D01*
X216132197Y-82716236D01*
X216372287Y-82792397D01*
X216435615Y-82799500D01*
X216389939Y-82803979D01*
X216148809Y-82876781D01*
X215926411Y-82995032D01*
X215731217Y-83154228D01*
X215570662Y-83348306D01*
X215450861Y-83569872D01*
X215376378Y-83810489D01*
X215350049Y-84060990D01*
X215372878Y-84311834D01*
X215443995Y-84553467D01*
X215560690Y-84776685D01*
X215718520Y-84972986D01*
X215911472Y-85134891D01*
X216132197Y-85256236D01*
X216372287Y-85332397D01*
X216435615Y-85339500D01*
X216389939Y-85343979D01*
X216148809Y-85416781D01*
X215926411Y-85535032D01*
X215731217Y-85694228D01*
X215570662Y-85888306D01*
X215450861Y-86109872D01*
X215376378Y-86350489D01*
X215350049Y-86600990D01*
X215372878Y-86851834D01*
X215443995Y-87093467D01*
X215560690Y-87316685D01*
X215718520Y-87512986D01*
X215911472Y-87674891D01*
X216132197Y-87796236D01*
X216331315Y-87859400D01*
X215741944Y-87859400D01*
X215659449Y-87875809D01*
X215581739Y-87907998D01*
X215511803Y-87954728D01*
X215452327Y-88014203D01*
X215405597Y-88084140D01*
X215373409Y-88161849D01*
X215357000Y-88244344D01*
X215357000Y-88328456D01*
X215357000Y-90055656D01*
X215373409Y-90138151D01*
X215405598Y-90215861D01*
X215452328Y-90285797D01*
X215511803Y-90345273D01*
X215581740Y-90392003D01*
X215659449Y-90424191D01*
X215741944Y-90440600D01*
X215826056Y-90440600D01*
X217858056Y-90440600D01*
X217940551Y-90424191D01*
X218018261Y-90392002D01*
X218023000Y-90388835D01*
X218023000Y-90800000D01*
X218023000Y-91000000D01*
X218023000Y-91023000D01*
M02*
