%FSLAX45Y45*%
G04 Gerber Fmt 4.5, Leading zero omitted, Abs format (unit mm)*
G04 Created by KiCad (PCBNEW (2014-11-21 BZR 5297)-product) date Do 05 Feb 2015 11:43:24 CET*
%MOMM*%
G01*
G04 APERTURE LIST*
%ADD10C,0.127000*%
%ADD11C,0.100000*%
%ADD12C,0.200000*%
%ADD13C,0.300000*%
G04 APERTURE END LIST*
D10*
D11*
X21850000Y-9080000D02*
X21850000Y-9150000D01*
X19700000Y-9080000D02*
X19700000Y-9160000D01*
X21850000Y-5100000D02*
X21850000Y-9100000D01*
X19700000Y-5100000D02*
X21850000Y-5100000D01*
X19700000Y-9100000D02*
X19700000Y-5100000D01*
X21890000Y-9150000D02*
X19690000Y-9150000D01*
D12*
X19755000Y-7645000D02*
X19785000Y-7675000D01*
X19785000Y-7645000D02*
X19755000Y-7675000D01*
X19765000Y-6935000D02*
X19795000Y-6965000D01*
X19795000Y-6935000D02*
X19765000Y-6965000D01*
X19785000Y-5185000D02*
X19815000Y-5215000D01*
X19815000Y-5185000D02*
X19785000Y-5215000D01*
X19855000Y-8025000D02*
X19885000Y-8055000D01*
X19885000Y-8025000D02*
X19855000Y-8055000D01*
X19875000Y-6635000D02*
X19905000Y-6665000D01*
X19905000Y-6635000D02*
X19875000Y-6665000D01*
X19975000Y-6995000D02*
X20005000Y-7025000D01*
X20005000Y-6995000D02*
X19975000Y-7025000D01*
X20015000Y-7625000D02*
X20045000Y-7655000D01*
X20045000Y-7625000D02*
X20015000Y-7655000D01*
X20055000Y-8025000D02*
X20085000Y-8055000D01*
X20085000Y-8025000D02*
X20055000Y-8055000D01*
X20165000Y-8075000D02*
X20195000Y-8105000D01*
X20195000Y-8075000D02*
X20165000Y-8105000D01*
X20285000Y-6725000D02*
X20315000Y-6755000D01*
X20315000Y-6725000D02*
X20285000Y-6755000D01*
X20295000Y-6975000D02*
X20325000Y-7005000D01*
X20325000Y-6975000D02*
X20295000Y-7005000D01*
X20335000Y-7895000D02*
X20365000Y-7925000D01*
X20365000Y-7895000D02*
X20335000Y-7925000D01*
X20405000Y-5755000D02*
X20435000Y-5785000D01*
X20435000Y-5755000D02*
X20405000Y-5785000D01*
X20425000Y-5255000D02*
X20455000Y-5285000D01*
X20455000Y-5255000D02*
X20425000Y-5285000D01*
X20505000Y-7175000D02*
X20535000Y-7205000D01*
X20535000Y-7175000D02*
X20505000Y-7205000D01*
X20515000Y-5165000D02*
X20545000Y-5195000D01*
X20545000Y-5165000D02*
X20515000Y-5195000D01*
X20545000Y-7665000D02*
X20575000Y-7695000D01*
X20575000Y-7665000D02*
X20545000Y-7695000D01*
X20575000Y-8105000D02*
X20605000Y-8135000D01*
X20605000Y-8105000D02*
X20575000Y-8135000D01*
X20635000Y-7615000D02*
X20665000Y-7645000D01*
X20665000Y-7615000D02*
X20635000Y-7645000D01*
X20645000Y-7165000D02*
X20675000Y-7195000D01*
X20675000Y-7165000D02*
X20645000Y-7195000D01*
X20675000Y-5165000D02*
X20705000Y-5195000D01*
X20705000Y-5165000D02*
X20675000Y-5195000D01*
X20675000Y-5755000D02*
X20705000Y-5785000D01*
X20705000Y-5755000D02*
X20675000Y-5785000D01*
X20705000Y-8315000D02*
X20735000Y-8345000D01*
X20735000Y-8315000D02*
X20705000Y-8345000D01*
X20725000Y-6765000D02*
X20755000Y-6795000D01*
X20755000Y-6765000D02*
X20725000Y-6795000D01*
X20735000Y-6075000D02*
X20765000Y-6105000D01*
X20765000Y-6075000D02*
X20735000Y-6105000D01*
X20745000Y-6625000D02*
X20775000Y-6655000D01*
X20775000Y-6625000D02*
X20745000Y-6655000D01*
X20755000Y-8075000D02*
X20785000Y-8105000D01*
X20785000Y-8075000D02*
X20755000Y-8105000D01*
X20775000Y-7605000D02*
X20805000Y-7635000D01*
X20805000Y-7605000D02*
X20775000Y-7635000D01*
X20805000Y-5165000D02*
X20835000Y-5195000D01*
X20835000Y-5165000D02*
X20805000Y-5195000D01*
X20845000Y-5755000D02*
X20875000Y-5785000D01*
X20875000Y-5755000D02*
X20845000Y-5785000D01*
X20895000Y-5265000D02*
X20925000Y-5295000D01*
X20925000Y-5265000D02*
X20895000Y-5295000D01*
X20905000Y-5615000D02*
X20935000Y-5645000D01*
X20935000Y-5615000D02*
X20905000Y-5645000D01*
X21015000Y-5315000D02*
X21045000Y-5345000D01*
X21045000Y-5315000D02*
X21015000Y-5345000D01*
X21035000Y-5615000D02*
X21065000Y-5645000D01*
X21065000Y-5615000D02*
X21035000Y-5645000D01*
X21145000Y-5315000D02*
X21175000Y-5345000D01*
X21175000Y-5315000D02*
X21145000Y-5345000D01*
X21165000Y-5615000D02*
X21195000Y-5645000D01*
X21195000Y-5615000D02*
X21165000Y-5645000D01*
X21275000Y-5315000D02*
X21305000Y-5345000D01*
X21305000Y-5315000D02*
X21275000Y-5345000D01*
X21355000Y-6565000D02*
X21385000Y-6595000D01*
X21385000Y-6565000D02*
X21355000Y-6595000D01*
X21375000Y-6075000D02*
X21405000Y-6105000D01*
X21405000Y-6075000D02*
X21375000Y-6105000D01*
X21405000Y-5315000D02*
X21435000Y-5345000D01*
X21435000Y-5315000D02*
X21405000Y-5345000D01*
X21505000Y-5415000D02*
X21535000Y-5445000D01*
X21535000Y-5415000D02*
X21505000Y-5445000D01*
X21505000Y-6055000D02*
X21535000Y-6085000D01*
X21535000Y-6055000D02*
X21505000Y-6085000D01*
X21545000Y-7075000D02*
X21575000Y-7105000D01*
X21575000Y-7075000D02*
X21545000Y-7105000D01*
X21565000Y-5545000D02*
X21595000Y-5575000D01*
X21595000Y-5545000D02*
X21565000Y-5575000D01*
X21565000Y-5675000D02*
X21595000Y-5705000D01*
X21595000Y-5675000D02*
X21565000Y-5705000D01*
X21565000Y-5805000D02*
X21595000Y-5835000D01*
X21595000Y-5805000D02*
X21565000Y-5835000D01*
X21565000Y-5935000D02*
X21595000Y-5965000D01*
X21595000Y-5935000D02*
X21565000Y-5965000D01*
X21735000Y-5185000D02*
X21765000Y-5215000D01*
X21765000Y-5185000D02*
X21735000Y-5215000D01*
X21735000Y-5685000D02*
X21765000Y-5715000D01*
X21765000Y-5685000D02*
X21735000Y-5715000D01*
X21735000Y-6185000D02*
X21765000Y-6215000D01*
X21765000Y-6185000D02*
X21735000Y-6215000D01*
X21735000Y-6685000D02*
X21765000Y-6715000D01*
X21765000Y-6685000D02*
X21735000Y-6715000D01*
X20025800Y-8653000D02*
G75*
G03X20025800Y-8653000I-50800J0D01*
G01*
X20025800Y-8907000D02*
G75*
G03X20025800Y-8907000I-50800J0D01*
G01*
X20279800Y-8653000D02*
G75*
G03X20279800Y-8653000I-50800J0D01*
G01*
X20279800Y-8907000D02*
G75*
G03X20279800Y-8907000I-50800J0D01*
G01*
X20533800Y-8653000D02*
G75*
G03X20533800Y-8653000I-50800J0D01*
G01*
X20533800Y-8907000D02*
G75*
G03X20533800Y-8907000I-50800J0D01*
G01*
X20787800Y-8653000D02*
G75*
G03X20787800Y-8653000I-50800J0D01*
G01*
X20787800Y-8907000D02*
G75*
G03X20787800Y-8907000I-50800J0D01*
G01*
X21041800Y-8653000D02*
G75*
G03X21041800Y-8653000I-50800J0D01*
G01*
X21041800Y-8907000D02*
G75*
G03X21041800Y-8907000I-50800J0D01*
G01*
X21295800Y-8653000D02*
G75*
G03X21295800Y-8653000I-50800J0D01*
G01*
X21295800Y-8907000D02*
G75*
G03X21295800Y-8907000I-50800J0D01*
G01*
X21730800Y-7645000D02*
G75*
G03X21730800Y-7645000I-50800J0D01*
G01*
X21730800Y-7899000D02*
G75*
G03X21730800Y-7899000I-50800J0D01*
G01*
X21730800Y-8153000D02*
G75*
G03X21730800Y-8153000I-50800J0D01*
G01*
X21730800Y-8407000D02*
G75*
G03X21730800Y-8407000I-50800J0D01*
G01*
X21730800Y-8661000D02*
G75*
G03X21730800Y-8661000I-50800J0D01*
G01*
X21730800Y-8915000D02*
G75*
G03X21730800Y-8915000I-50800J0D01*
G01*
D13*
X19956429Y-9630714D02*
X19956429Y-9330714D01*
X20027857Y-9330714D01*
X20070714Y-9345000D01*
X20099286Y-9373572D01*
X20113571Y-9402143D01*
X20127857Y-9459286D01*
X20127857Y-9502143D01*
X20113571Y-9559286D01*
X20099286Y-9587857D01*
X20070714Y-9616429D01*
X20027857Y-9630714D01*
X19956429Y-9630714D01*
X20256429Y-9630714D02*
X20256429Y-9430714D01*
X20256429Y-9487857D02*
X20270714Y-9459286D01*
X20285000Y-9445000D01*
X20313571Y-9430714D01*
X20342143Y-9430714D01*
X20442143Y-9630714D02*
X20442143Y-9430714D01*
X20442143Y-9330714D02*
X20427857Y-9345000D01*
X20442143Y-9359286D01*
X20456429Y-9345000D01*
X20442143Y-9330714D01*
X20442143Y-9359286D01*
X20627857Y-9630714D02*
X20599286Y-9616429D01*
X20585000Y-9587857D01*
X20585000Y-9330714D01*
X20785000Y-9630714D02*
X20756429Y-9616429D01*
X20742143Y-9587857D01*
X20742143Y-9330714D01*
X21127857Y-9630714D02*
X21127857Y-9330714D01*
X21227857Y-9545000D01*
X21327857Y-9330714D01*
X21327857Y-9630714D01*
X21599286Y-9630714D02*
X21599286Y-9473572D01*
X21585000Y-9445000D01*
X21556429Y-9430714D01*
X21499286Y-9430714D01*
X21470714Y-9445000D01*
X21599286Y-9616429D02*
X21570714Y-9630714D01*
X21499286Y-9630714D01*
X21470714Y-9616429D01*
X21456429Y-9587857D01*
X21456429Y-9559286D01*
X21470714Y-9530714D01*
X21499286Y-9516429D01*
X21570714Y-9516429D01*
X21599286Y-9502143D01*
X21742143Y-9430714D02*
X21742143Y-9730714D01*
X21742143Y-9445000D02*
X21770714Y-9430714D01*
X21827857Y-9430714D01*
X21856429Y-9445000D01*
X21870714Y-9459286D01*
X21885000Y-9487857D01*
X21885000Y-9573572D01*
X21870714Y-9602143D01*
X21856429Y-9616429D01*
X21827857Y-9630714D01*
X21770714Y-9630714D01*
X21742143Y-9616429D01*
X22013571Y-9602143D02*
X22027857Y-9616429D01*
X22013571Y-9630714D01*
X21999286Y-9616429D01*
X22013571Y-9602143D01*
X22013571Y-9630714D01*
X22013571Y-9445000D02*
X22027857Y-9459286D01*
X22013571Y-9473572D01*
X21999286Y-9459286D01*
X22013571Y-9445000D01*
X22013571Y-9473572D01*
X19655000Y-10110000D02*
X19685000Y-10140000D01*
X19685000Y-10110000D02*
X19655000Y-10140000D01*
X20013571Y-9960714D02*
X20042143Y-9960714D01*
X20070714Y-9975000D01*
X20085000Y-9989286D01*
X20099286Y-10017857D01*
X20113571Y-10075000D01*
X20113571Y-10146429D01*
X20099286Y-10203572D01*
X20085000Y-10232143D01*
X20070714Y-10246429D01*
X20042143Y-10260714D01*
X20013571Y-10260714D01*
X19985000Y-10246429D01*
X19970714Y-10232143D01*
X19956429Y-10203572D01*
X19942143Y-10146429D01*
X19942143Y-10075000D01*
X19956429Y-10017857D01*
X19970714Y-9989286D01*
X19985000Y-9975000D01*
X20013571Y-9960714D01*
X20242143Y-10232143D02*
X20256429Y-10246429D01*
X20242143Y-10260714D01*
X20227857Y-10246429D01*
X20242143Y-10232143D01*
X20242143Y-10260714D01*
X20356428Y-9960714D02*
X20542143Y-9960714D01*
X20442143Y-10075000D01*
X20485000Y-10075000D01*
X20513571Y-10089286D01*
X20527857Y-10103572D01*
X20542143Y-10132143D01*
X20542143Y-10203572D01*
X20527857Y-10232143D01*
X20513571Y-10246429D01*
X20485000Y-10260714D01*
X20399286Y-10260714D01*
X20370714Y-10246429D01*
X20356428Y-10232143D01*
X20727857Y-9960714D02*
X20756429Y-9960714D01*
X20785000Y-9975000D01*
X20799286Y-9989286D01*
X20813571Y-10017857D01*
X20827857Y-10075000D01*
X20827857Y-10146429D01*
X20813571Y-10203572D01*
X20799286Y-10232143D01*
X20785000Y-10246429D01*
X20756429Y-10260714D01*
X20727857Y-10260714D01*
X20699286Y-10246429D01*
X20685000Y-10232143D01*
X20670714Y-10203572D01*
X20656429Y-10146429D01*
X20656429Y-10075000D01*
X20670714Y-10017857D01*
X20685000Y-9989286D01*
X20699286Y-9975000D01*
X20727857Y-9960714D01*
X20956429Y-10260714D02*
X20956429Y-10060714D01*
X20956429Y-10089286D02*
X20970714Y-10075000D01*
X20999286Y-10060714D01*
X21042143Y-10060714D01*
X21070714Y-10075000D01*
X21085000Y-10103572D01*
X21085000Y-10260714D01*
X21085000Y-10103572D02*
X21099286Y-10075000D01*
X21127857Y-10060714D01*
X21170714Y-10060714D01*
X21199286Y-10075000D01*
X21213571Y-10103572D01*
X21213571Y-10260714D01*
X21356429Y-10260714D02*
X21356429Y-10060714D01*
X21356429Y-10089286D02*
X21370714Y-10075000D01*
X21399286Y-10060714D01*
X21442143Y-10060714D01*
X21470714Y-10075000D01*
X21485000Y-10103572D01*
X21485000Y-10260714D01*
X21485000Y-10103572D02*
X21499286Y-10075000D01*
X21527857Y-10060714D01*
X21570714Y-10060714D01*
X21599286Y-10075000D01*
X21613571Y-10103572D01*
X21613571Y-10260714D01*
X22199286Y-9946429D02*
X21942143Y-10332143D01*
X22585000Y-9960714D02*
X22613571Y-9960714D01*
X22642143Y-9975000D01*
X22656428Y-9989286D01*
X22670714Y-10017857D01*
X22685000Y-10075000D01*
X22685000Y-10146429D01*
X22670714Y-10203572D01*
X22656428Y-10232143D01*
X22642143Y-10246429D01*
X22613571Y-10260714D01*
X22585000Y-10260714D01*
X22556428Y-10246429D01*
X22542143Y-10232143D01*
X22527857Y-10203572D01*
X22513571Y-10146429D01*
X22513571Y-10075000D01*
X22527857Y-10017857D01*
X22542143Y-9989286D01*
X22556428Y-9975000D01*
X22585000Y-9960714D01*
X22813571Y-10232143D02*
X22827857Y-10246429D01*
X22813571Y-10260714D01*
X22799286Y-10246429D01*
X22813571Y-10232143D01*
X22813571Y-10260714D01*
X23013571Y-9960714D02*
X23042143Y-9960714D01*
X23070714Y-9975000D01*
X23085000Y-9989286D01*
X23099285Y-10017857D01*
X23113571Y-10075000D01*
X23113571Y-10146429D01*
X23099285Y-10203572D01*
X23085000Y-10232143D01*
X23070714Y-10246429D01*
X23042143Y-10260714D01*
X23013571Y-10260714D01*
X22985000Y-10246429D01*
X22970714Y-10232143D01*
X22956428Y-10203572D01*
X22942143Y-10146429D01*
X22942143Y-10075000D01*
X22956428Y-10017857D01*
X22970714Y-9989286D01*
X22985000Y-9975000D01*
X23013571Y-9960714D01*
X23399285Y-10260714D02*
X23227857Y-10260714D01*
X23313571Y-10260714D02*
X23313571Y-9960714D01*
X23285000Y-10003572D01*
X23256428Y-10032143D01*
X23227857Y-10046429D01*
X23513571Y-9989286D02*
X23527857Y-9975000D01*
X23556428Y-9960714D01*
X23627857Y-9960714D01*
X23656428Y-9975000D01*
X23670714Y-9989286D01*
X23685000Y-10017857D01*
X23685000Y-10046429D01*
X23670714Y-10089286D01*
X23499285Y-10260714D01*
X23685000Y-10260714D01*
X23799286Y-9960714D02*
X23799286Y-10017857D01*
X23913571Y-9960714D02*
X23913571Y-10017857D01*
X24356428Y-10375000D02*
X24342143Y-10360714D01*
X24313571Y-10317857D01*
X24299285Y-10289286D01*
X24285000Y-10246429D01*
X24270714Y-10175000D01*
X24270714Y-10117857D01*
X24285000Y-10046429D01*
X24299285Y-10003572D01*
X24313571Y-9975000D01*
X24342143Y-9932143D01*
X24356428Y-9917857D01*
X24613571Y-9960714D02*
X24470714Y-9960714D01*
X24456428Y-10103572D01*
X24470714Y-10089286D01*
X24499285Y-10075000D01*
X24570714Y-10075000D01*
X24599285Y-10089286D01*
X24613571Y-10103572D01*
X24627857Y-10132143D01*
X24627857Y-10203572D01*
X24613571Y-10232143D01*
X24599285Y-10246429D01*
X24570714Y-10260714D01*
X24499285Y-10260714D01*
X24470714Y-10246429D01*
X24456428Y-10232143D01*
X24913571Y-10260714D02*
X24742143Y-10260714D01*
X24827857Y-10260714D02*
X24827857Y-9960714D01*
X24799285Y-10003572D01*
X24770714Y-10032143D01*
X24742143Y-10046429D01*
X25270714Y-10260714D02*
X25270714Y-9960714D01*
X25399285Y-10260714D02*
X25399285Y-10103572D01*
X25385000Y-10075000D01*
X25356428Y-10060714D01*
X25313571Y-10060714D01*
X25285000Y-10075000D01*
X25270714Y-10089286D01*
X25585000Y-10260714D02*
X25556428Y-10246429D01*
X25542143Y-10232143D01*
X25527857Y-10203572D01*
X25527857Y-10117857D01*
X25542143Y-10089286D01*
X25556428Y-10075000D01*
X25585000Y-10060714D01*
X25627857Y-10060714D01*
X25656428Y-10075000D01*
X25670714Y-10089286D01*
X25685000Y-10117857D01*
X25685000Y-10203572D01*
X25670714Y-10232143D01*
X25656428Y-10246429D01*
X25627857Y-10260714D01*
X25585000Y-10260714D01*
X25856428Y-10260714D02*
X25827857Y-10246429D01*
X25813571Y-10217857D01*
X25813571Y-9960714D01*
X26085000Y-10246429D02*
X26056428Y-10260714D01*
X25999286Y-10260714D01*
X25970714Y-10246429D01*
X25956428Y-10217857D01*
X25956428Y-10103572D01*
X25970714Y-10075000D01*
X25999286Y-10060714D01*
X26056428Y-10060714D01*
X26085000Y-10075000D01*
X26099286Y-10103572D01*
X26099286Y-10132143D01*
X25956428Y-10160714D01*
X26213571Y-10246429D02*
X26242143Y-10260714D01*
X26299286Y-10260714D01*
X26327857Y-10246429D01*
X26342143Y-10217857D01*
X26342143Y-10203572D01*
X26327857Y-10175000D01*
X26299286Y-10160714D01*
X26256428Y-10160714D01*
X26227857Y-10146429D01*
X26213571Y-10117857D01*
X26213571Y-10103572D01*
X26227857Y-10075000D01*
X26256428Y-10060714D01*
X26299286Y-10060714D01*
X26327857Y-10075000D01*
X26442143Y-10375000D02*
X26456428Y-10360714D01*
X26485000Y-10317857D01*
X26499286Y-10289286D01*
X26513571Y-10246429D01*
X26527857Y-10175000D01*
X26527857Y-10117857D01*
X26513571Y-10046429D01*
X26499286Y-10003572D01*
X26485000Y-9975000D01*
X26456428Y-9932143D01*
X26442143Y-9917857D01*
X19685000Y-10521000D02*
G75*
G03X19685000Y-10521000I-50800J0D01*
G01*
X20113571Y-10656714D02*
X19942143Y-10656714D01*
X20027857Y-10656714D02*
X20027857Y-10356714D01*
X19999286Y-10399572D01*
X19970714Y-10428143D01*
X19942143Y-10442429D01*
X20242143Y-10628143D02*
X20256429Y-10642429D01*
X20242143Y-10656714D01*
X20227857Y-10642429D01*
X20242143Y-10628143D01*
X20242143Y-10656714D01*
X20442143Y-10356714D02*
X20470714Y-10356714D01*
X20499286Y-10371000D01*
X20513571Y-10385286D01*
X20527857Y-10413857D01*
X20542143Y-10471000D01*
X20542143Y-10542429D01*
X20527857Y-10599572D01*
X20513571Y-10628143D01*
X20499286Y-10642429D01*
X20470714Y-10656714D01*
X20442143Y-10656714D01*
X20413571Y-10642429D01*
X20399286Y-10628143D01*
X20385000Y-10599572D01*
X20370714Y-10542429D01*
X20370714Y-10471000D01*
X20385000Y-10413857D01*
X20399286Y-10385286D01*
X20413571Y-10371000D01*
X20442143Y-10356714D01*
X20656429Y-10385286D02*
X20670714Y-10371000D01*
X20699286Y-10356714D01*
X20770714Y-10356714D01*
X20799286Y-10371000D01*
X20813571Y-10385286D01*
X20827857Y-10413857D01*
X20827857Y-10442429D01*
X20813571Y-10485286D01*
X20642143Y-10656714D01*
X20827857Y-10656714D01*
X20956429Y-10656714D02*
X20956429Y-10456714D01*
X20956429Y-10485286D02*
X20970714Y-10471000D01*
X20999286Y-10456714D01*
X21042143Y-10456714D01*
X21070714Y-10471000D01*
X21085000Y-10499572D01*
X21085000Y-10656714D01*
X21085000Y-10499572D02*
X21099286Y-10471000D01*
X21127857Y-10456714D01*
X21170714Y-10456714D01*
X21199286Y-10471000D01*
X21213571Y-10499572D01*
X21213571Y-10656714D01*
X21356429Y-10656714D02*
X21356429Y-10456714D01*
X21356429Y-10485286D02*
X21370714Y-10471000D01*
X21399286Y-10456714D01*
X21442143Y-10456714D01*
X21470714Y-10471000D01*
X21485000Y-10499572D01*
X21485000Y-10656714D01*
X21485000Y-10499572D02*
X21499286Y-10471000D01*
X21527857Y-10456714D01*
X21570714Y-10456714D01*
X21599286Y-10471000D01*
X21613571Y-10499572D01*
X21613571Y-10656714D01*
X22199286Y-10342429D02*
X21942143Y-10728143D01*
X22585000Y-10356714D02*
X22613571Y-10356714D01*
X22642143Y-10371000D01*
X22656428Y-10385286D01*
X22670714Y-10413857D01*
X22685000Y-10471000D01*
X22685000Y-10542429D01*
X22670714Y-10599572D01*
X22656428Y-10628143D01*
X22642143Y-10642429D01*
X22613571Y-10656714D01*
X22585000Y-10656714D01*
X22556428Y-10642429D01*
X22542143Y-10628143D01*
X22527857Y-10599572D01*
X22513571Y-10542429D01*
X22513571Y-10471000D01*
X22527857Y-10413857D01*
X22542143Y-10385286D01*
X22556428Y-10371000D01*
X22585000Y-10356714D01*
X22813571Y-10628143D02*
X22827857Y-10642429D01*
X22813571Y-10656714D01*
X22799286Y-10642429D01*
X22813571Y-10628143D01*
X22813571Y-10656714D01*
X23013571Y-10356714D02*
X23042143Y-10356714D01*
X23070714Y-10371000D01*
X23085000Y-10385286D01*
X23099285Y-10413857D01*
X23113571Y-10471000D01*
X23113571Y-10542429D01*
X23099285Y-10599572D01*
X23085000Y-10628143D01*
X23070714Y-10642429D01*
X23042143Y-10656714D01*
X23013571Y-10656714D01*
X22985000Y-10642429D01*
X22970714Y-10628143D01*
X22956428Y-10599572D01*
X22942143Y-10542429D01*
X22942143Y-10471000D01*
X22956428Y-10413857D01*
X22970714Y-10385286D01*
X22985000Y-10371000D01*
X23013571Y-10356714D01*
X23370714Y-10456714D02*
X23370714Y-10656714D01*
X23299285Y-10342429D02*
X23227857Y-10556714D01*
X23413571Y-10556714D01*
X23585000Y-10356714D02*
X23613571Y-10356714D01*
X23642143Y-10371000D01*
X23656428Y-10385286D01*
X23670714Y-10413857D01*
X23685000Y-10471000D01*
X23685000Y-10542429D01*
X23670714Y-10599572D01*
X23656428Y-10628143D01*
X23642143Y-10642429D01*
X23613571Y-10656714D01*
X23585000Y-10656714D01*
X23556428Y-10642429D01*
X23542143Y-10628143D01*
X23527857Y-10599572D01*
X23513571Y-10542429D01*
X23513571Y-10471000D01*
X23527857Y-10413857D01*
X23542143Y-10385286D01*
X23556428Y-10371000D01*
X23585000Y-10356714D01*
X23799286Y-10356714D02*
X23799286Y-10413857D01*
X23913571Y-10356714D02*
X23913571Y-10413857D01*
X24356428Y-10771000D02*
X24342143Y-10756714D01*
X24313571Y-10713857D01*
X24299285Y-10685286D01*
X24285000Y-10642429D01*
X24270714Y-10571000D01*
X24270714Y-10513857D01*
X24285000Y-10442429D01*
X24299285Y-10399572D01*
X24313571Y-10371000D01*
X24342143Y-10328143D01*
X24356428Y-10313857D01*
X24627857Y-10656714D02*
X24456428Y-10656714D01*
X24542143Y-10656714D02*
X24542143Y-10356714D01*
X24513571Y-10399572D01*
X24485000Y-10428143D01*
X24456428Y-10442429D01*
X24799285Y-10485286D02*
X24770714Y-10471000D01*
X24756428Y-10456714D01*
X24742143Y-10428143D01*
X24742143Y-10413857D01*
X24756428Y-10385286D01*
X24770714Y-10371000D01*
X24799285Y-10356714D01*
X24856428Y-10356714D01*
X24885000Y-10371000D01*
X24899285Y-10385286D01*
X24913571Y-10413857D01*
X24913571Y-10428143D01*
X24899285Y-10456714D01*
X24885000Y-10471000D01*
X24856428Y-10485286D01*
X24799285Y-10485286D01*
X24770714Y-10499572D01*
X24756428Y-10513857D01*
X24742143Y-10542429D01*
X24742143Y-10599572D01*
X24756428Y-10628143D01*
X24770714Y-10642429D01*
X24799285Y-10656714D01*
X24856428Y-10656714D01*
X24885000Y-10642429D01*
X24899285Y-10628143D01*
X24913571Y-10599572D01*
X24913571Y-10542429D01*
X24899285Y-10513857D01*
X24885000Y-10499572D01*
X24856428Y-10485286D01*
X25270714Y-10656714D02*
X25270714Y-10356714D01*
X25399285Y-10656714D02*
X25399285Y-10499572D01*
X25385000Y-10471000D01*
X25356428Y-10456714D01*
X25313571Y-10456714D01*
X25285000Y-10471000D01*
X25270714Y-10485286D01*
X25585000Y-10656714D02*
X25556428Y-10642429D01*
X25542143Y-10628143D01*
X25527857Y-10599572D01*
X25527857Y-10513857D01*
X25542143Y-10485286D01*
X25556428Y-10471000D01*
X25585000Y-10456714D01*
X25627857Y-10456714D01*
X25656428Y-10471000D01*
X25670714Y-10485286D01*
X25685000Y-10513857D01*
X25685000Y-10599572D01*
X25670714Y-10628143D01*
X25656428Y-10642429D01*
X25627857Y-10656714D01*
X25585000Y-10656714D01*
X25856428Y-10656714D02*
X25827857Y-10642429D01*
X25813571Y-10613857D01*
X25813571Y-10356714D01*
X26085000Y-10642429D02*
X26056428Y-10656714D01*
X25999286Y-10656714D01*
X25970714Y-10642429D01*
X25956428Y-10613857D01*
X25956428Y-10499572D01*
X25970714Y-10471000D01*
X25999286Y-10456714D01*
X26056428Y-10456714D01*
X26085000Y-10471000D01*
X26099286Y-10499572D01*
X26099286Y-10528143D01*
X25956428Y-10556714D01*
X26213571Y-10642429D02*
X26242143Y-10656714D01*
X26299286Y-10656714D01*
X26327857Y-10642429D01*
X26342143Y-10613857D01*
X26342143Y-10599572D01*
X26327857Y-10571000D01*
X26299286Y-10556714D01*
X26256428Y-10556714D01*
X26227857Y-10542429D01*
X26213571Y-10513857D01*
X26213571Y-10499572D01*
X26227857Y-10471000D01*
X26256428Y-10456714D01*
X26299286Y-10456714D01*
X26327857Y-10471000D01*
X26442143Y-10771000D02*
X26456428Y-10756714D01*
X26485000Y-10713857D01*
X26499286Y-10685286D01*
X26513571Y-10642429D01*
X26527857Y-10571000D01*
X26527857Y-10513857D01*
X26513571Y-10442429D01*
X26499286Y-10399572D01*
X26485000Y-10371000D01*
X26456428Y-10328143D01*
X26442143Y-10313857D01*
M02*
