G04 #@! TF.FileFunction,Legend,Top*
%FSLAX46Y46*%
G04 Gerber Fmt 4.6, Leading zero omitted, Abs format (unit mm)*
G04 Created by KiCad (PCBNEW (2014-11-21 BZR 5297)-product) date So 01 Feb 2015 20:06:03 CET*
%MOMM*%
G01*
G04 APERTURE LIST*
%ADD10C,0.100000*%
%ADD11C,0.300000*%
%ADD12C,0.150000*%
%ADD13R,1.927200X1.927200*%
%ADD14O,1.927200X1.927200*%
%ADD15R,0.700000X0.800000*%
%ADD16R,1.800000X1.200000*%
%ADD17R,0.800000X0.700000*%
%ADD18R,1.200000X1.450000*%
%ADD19R,1.000100X1.000100*%
%ADD20R,0.997560X0.997560*%
%ADD21R,1.800000X0.750000*%
%ADD22R,0.750000X1.800000*%
%ADD23R,0.700000X1.100000*%
%ADD24R,1.100000X0.700000*%
%ADD25R,0.962000X0.708000*%
%ADD26R,0.500000X2.200000*%
%ADD27R,2.232000X1.927200*%
%ADD28O,2.232000X1.927200*%
G04 APERTURE END LIST*
D10*
D11*
X216750000Y-73814285D02*
X216678571Y-73928571D01*
X216678571Y-74100000D01*
X216750000Y-74271428D01*
X216892857Y-74385714D01*
X217035714Y-74442857D01*
X217321429Y-74500000D01*
X217535714Y-74500000D01*
X217821429Y-74442857D01*
X217964286Y-74385714D01*
X218107143Y-74271428D01*
X218178571Y-74100000D01*
X218178571Y-73985714D01*
X218107143Y-73814285D01*
X218035714Y-73757142D01*
X217535714Y-73757142D01*
X217535714Y-73985714D01*
X218178571Y-73242857D02*
X216678571Y-73242857D01*
X218178571Y-72557142D01*
X216678571Y-72557142D01*
X218178571Y-71985714D02*
X216678571Y-71985714D01*
X216678571Y-71699999D01*
X216750000Y-71528571D01*
X216892857Y-71414285D01*
X217035714Y-71357142D01*
X217321429Y-71299999D01*
X217535714Y-71299999D01*
X217821429Y-71357142D01*
X217964286Y-71414285D01*
X218107143Y-71528571D01*
X218178571Y-71699999D01*
X218178571Y-71985714D01*
X214785715Y-84578571D02*
X214785715Y-85578571D01*
X214428572Y-84007143D02*
X214071429Y-85078571D01*
X215000001Y-85078571D01*
X214100001Y-89278571D02*
X215028572Y-89278571D01*
X214528572Y-89850000D01*
X214742858Y-89850000D01*
X214885715Y-89921429D01*
X214957144Y-89992857D01*
X215028572Y-90135714D01*
X215028572Y-90492857D01*
X214957144Y-90635714D01*
X214885715Y-90707143D01*
X214742858Y-90778571D01*
X214314286Y-90778571D01*
X214171429Y-90707143D01*
X214100001Y-90635714D01*
X197571429Y-84221429D02*
X197642858Y-84150000D01*
X197785715Y-84078571D01*
X198142858Y-84078571D01*
X198285715Y-84150000D01*
X198357144Y-84221429D01*
X198428572Y-84364286D01*
X198428572Y-84507143D01*
X198357144Y-84721429D01*
X197500001Y-85578571D01*
X198428572Y-85578571D01*
X198328572Y-90778571D02*
X197471429Y-90778571D01*
X197900001Y-90778571D02*
X197900001Y-89278571D01*
X197757144Y-89492857D01*
X197614286Y-89635714D01*
X197471429Y-89707143D01*
X202085714Y-52578571D02*
X202371428Y-52578571D01*
X202514286Y-52650000D01*
X202657143Y-52792857D01*
X202728571Y-53078571D01*
X202728571Y-53578571D01*
X202657143Y-53864286D01*
X202514286Y-54007143D01*
X202371428Y-54078571D01*
X202085714Y-54078571D01*
X201942857Y-54007143D01*
X201800000Y-53864286D01*
X201728571Y-53578571D01*
X201728571Y-53078571D01*
X201800000Y-52792857D01*
X201942857Y-52650000D01*
X202085714Y-52578571D01*
X203371429Y-53078571D02*
X203371429Y-54578571D01*
X203371429Y-53150000D02*
X203514286Y-53078571D01*
X203800000Y-53078571D01*
X203942857Y-53150000D01*
X204014286Y-53221429D01*
X204085715Y-53364286D01*
X204085715Y-53792857D01*
X204014286Y-53935714D01*
X203942857Y-54007143D01*
X203800000Y-54078571D01*
X203514286Y-54078571D01*
X203371429Y-54007143D01*
X205300000Y-54007143D02*
X205157143Y-54078571D01*
X204871429Y-54078571D01*
X204728572Y-54007143D01*
X204657143Y-53864286D01*
X204657143Y-53292857D01*
X204728572Y-53150000D01*
X204871429Y-53078571D01*
X205157143Y-53078571D01*
X205300000Y-53150000D01*
X205371429Y-53292857D01*
X205371429Y-53435714D01*
X204657143Y-53578571D01*
X206014286Y-53078571D02*
X206014286Y-54078571D01*
X206014286Y-53221429D02*
X206085714Y-53150000D01*
X206228572Y-53078571D01*
X206442857Y-53078571D01*
X206585714Y-53150000D01*
X206657143Y-53292857D01*
X206657143Y-54078571D01*
X208085715Y-54078571D02*
X207371429Y-54078571D01*
X207371429Y-52578571D01*
X209442858Y-54078571D02*
X208942858Y-53364286D01*
X208585715Y-54078571D02*
X208585715Y-52578571D01*
X209157143Y-52578571D01*
X209300001Y-52650000D01*
X209371429Y-52721429D01*
X209442858Y-52864286D01*
X209442858Y-53078571D01*
X209371429Y-53221429D01*
X209300001Y-53292857D01*
X209157143Y-53364286D01*
X208585715Y-53364286D01*
X210014286Y-54007143D02*
X210228572Y-54078571D01*
X210585715Y-54078571D01*
X210728572Y-54007143D01*
X210800001Y-53935714D01*
X210871429Y-53792857D01*
X210871429Y-53650000D01*
X210800001Y-53507143D01*
X210728572Y-53435714D01*
X210585715Y-53364286D01*
X210300001Y-53292857D01*
X210157143Y-53221429D01*
X210085715Y-53150000D01*
X210014286Y-53007143D01*
X210014286Y-52864286D01*
X210085715Y-52721429D01*
X210157143Y-52650000D01*
X210300001Y-52578571D01*
X210657143Y-52578571D01*
X210871429Y-52650000D01*
X200371430Y-56478571D02*
X200371430Y-55478571D01*
X200371430Y-55621429D02*
X200442858Y-55550000D01*
X200585716Y-55478571D01*
X200800001Y-55478571D01*
X200942858Y-55550000D01*
X201014287Y-55692857D01*
X201014287Y-56478571D01*
X201014287Y-55692857D02*
X201085716Y-55550000D01*
X201228573Y-55478571D01*
X201442858Y-55478571D01*
X201585716Y-55550000D01*
X201657144Y-55692857D01*
X201657144Y-56478571D01*
X202371430Y-56478571D02*
X202371430Y-55478571D01*
X202371430Y-54978571D02*
X202300001Y-55050000D01*
X202371430Y-55121429D01*
X202442858Y-55050000D01*
X202371430Y-54978571D01*
X202371430Y-55121429D01*
X202871430Y-55478571D02*
X203442859Y-55478571D01*
X203085716Y-54978571D02*
X203085716Y-56264286D01*
X203157144Y-56407143D01*
X203300002Y-56478571D01*
X203442859Y-56478571D01*
X205014287Y-56407143D02*
X205228573Y-56478571D01*
X205585716Y-56478571D01*
X205728573Y-56407143D01*
X205800002Y-56335714D01*
X205871430Y-56192857D01*
X205871430Y-56050000D01*
X205800002Y-55907143D01*
X205728573Y-55835714D01*
X205585716Y-55764286D01*
X205300002Y-55692857D01*
X205157144Y-55621429D01*
X205085716Y-55550000D01*
X205014287Y-55407143D01*
X205014287Y-55264286D01*
X205085716Y-55121429D01*
X205157144Y-55050000D01*
X205300002Y-54978571D01*
X205657144Y-54978571D01*
X205871430Y-55050000D01*
X206514287Y-56478571D02*
X206514287Y-54978571D01*
X207871430Y-55478571D02*
X207871430Y-56478571D01*
X207514287Y-54907143D02*
X207157144Y-55978571D01*
X208085716Y-55978571D01*
X209300001Y-55478571D02*
X209300001Y-56478571D01*
X208942858Y-54907143D02*
X208585715Y-55978571D01*
X209514287Y-55978571D01*
X209942858Y-54978571D02*
X210871429Y-54978571D01*
X210371429Y-55550000D01*
X210585715Y-55550000D01*
X210728572Y-55621429D01*
X210800001Y-55692857D01*
X210871429Y-55835714D01*
X210871429Y-56192857D01*
X210800001Y-56335714D01*
X210728572Y-56407143D01*
X210585715Y-56478571D01*
X210157143Y-56478571D01*
X210014286Y-56407143D01*
X209942858Y-56335714D01*
X211442857Y-55121429D02*
X211514286Y-55050000D01*
X211657143Y-54978571D01*
X212014286Y-54978571D01*
X212157143Y-55050000D01*
X212228572Y-55121429D01*
X212300000Y-55264286D01*
X212300000Y-55407143D01*
X212228572Y-55621429D01*
X211371429Y-56478571D01*
X212300000Y-56478571D01*
D12*
X201225000Y-62850000D02*
X201225000Y-63350000D01*
X202175000Y-63350000D02*
X202175000Y-62850000D01*
X198475000Y-61100000D02*
X198475000Y-63100000D01*
X200525000Y-63100000D02*
X200525000Y-61100000D01*
X204450000Y-67875000D02*
X204950000Y-67875000D01*
X204950000Y-66925000D02*
X204450000Y-66925000D01*
X204300000Y-62350000D02*
X205300000Y-62350000D01*
X205300000Y-60650000D02*
X204300000Y-60650000D01*
X199150000Y-74275000D02*
X199650000Y-74275000D01*
X199650000Y-73325000D02*
X199150000Y-73325000D01*
X207125000Y-63050000D02*
X207125000Y-63550000D01*
X208075000Y-63550000D02*
X208075000Y-63050000D01*
X214875000Y-73650000D02*
X214875000Y-73150000D01*
X213925000Y-73150000D02*
X213925000Y-73650000D01*
X215425000Y-73150000D02*
X215425000Y-73650000D01*
X216375000Y-73650000D02*
X216375000Y-73150000D01*
X199150000Y-72875000D02*
X199650000Y-72875000D01*
X199650000Y-71925000D02*
X199150000Y-71925000D01*
X213250000Y-82925000D02*
X212750000Y-82925000D01*
X212750000Y-83875000D02*
X213250000Y-83875000D01*
X201699160Y-66149760D02*
X201650900Y-66149760D01*
X199700180Y-66850800D02*
X199700180Y-66149760D01*
X199700180Y-66149760D02*
X199949100Y-66149760D01*
X201699160Y-66149760D02*
X201899820Y-66149760D01*
X201899820Y-66149760D02*
X201899820Y-66850800D01*
X210850420Y-65250420D02*
X211749580Y-65250420D01*
X211749580Y-65250420D02*
X211749580Y-64851640D01*
X210850420Y-64851640D02*
X211749580Y-64851640D01*
X210850420Y-65250420D02*
X210850420Y-64851640D01*
X210850420Y-66548360D02*
X211749580Y-66548360D01*
X211749580Y-66548360D02*
X211749580Y-66149580D01*
X210850420Y-66149580D02*
X211749580Y-66149580D01*
X210850420Y-66548360D02*
X210850420Y-66149580D01*
X210850420Y-65700000D02*
X211000280Y-65700000D01*
X211000280Y-65700000D02*
X211000280Y-65400280D01*
X210850420Y-65400280D02*
X211000280Y-65400280D01*
X210850420Y-65700000D02*
X210850420Y-65400280D01*
X211599720Y-65700000D02*
X211749580Y-65700000D01*
X211749580Y-65700000D02*
X211749580Y-65400280D01*
X211599720Y-65400280D02*
X211749580Y-65400280D01*
X211599720Y-65700000D02*
X211599720Y-65400280D01*
X211150140Y-65700000D02*
X211449860Y-65700000D01*
X211449860Y-65700000D02*
X211449860Y-65400280D01*
X211150140Y-65400280D02*
X211449860Y-65400280D01*
X211150140Y-65700000D02*
X211150140Y-65400280D01*
X210901220Y-65250420D02*
X210901220Y-66149580D01*
X211698780Y-65250420D02*
X211698780Y-66149580D01*
X209050420Y-65250420D02*
X209949580Y-65250420D01*
X209949580Y-65250420D02*
X209949580Y-64851640D01*
X209050420Y-64851640D02*
X209949580Y-64851640D01*
X209050420Y-65250420D02*
X209050420Y-64851640D01*
X209050420Y-66548360D02*
X209949580Y-66548360D01*
X209949580Y-66548360D02*
X209949580Y-66149580D01*
X209050420Y-66149580D02*
X209949580Y-66149580D01*
X209050420Y-66548360D02*
X209050420Y-66149580D01*
X209050420Y-65700000D02*
X209200280Y-65700000D01*
X209200280Y-65700000D02*
X209200280Y-65400280D01*
X209050420Y-65400280D02*
X209200280Y-65400280D01*
X209050420Y-65700000D02*
X209050420Y-65400280D01*
X209799720Y-65700000D02*
X209949580Y-65700000D01*
X209949580Y-65700000D02*
X209949580Y-65400280D01*
X209799720Y-65400280D02*
X209949580Y-65400280D01*
X209799720Y-65700000D02*
X209799720Y-65400280D01*
X209350140Y-65700000D02*
X209649860Y-65700000D01*
X209649860Y-65700000D02*
X209649860Y-65400280D01*
X209350140Y-65400280D02*
X209649860Y-65400280D01*
X209350140Y-65700000D02*
X209350140Y-65400280D01*
X209101220Y-65250420D02*
X209101220Y-66149580D01*
X209898780Y-65250420D02*
X209898780Y-66149580D01*
X211125000Y-77925000D02*
X211125000Y-77600000D01*
X203875000Y-77925000D02*
X203875000Y-77600000D01*
X203875000Y-70675000D02*
X203875000Y-71000000D01*
X211125000Y-70675000D02*
X211125000Y-71000000D01*
X211125000Y-77925000D02*
X210800000Y-77925000D01*
X211125000Y-70675000D02*
X210800000Y-70675000D01*
X203875000Y-70675000D02*
X204200000Y-70675000D01*
X203875000Y-77925000D02*
X204200000Y-77925000D01*
X211125000Y-77600000D02*
X212550000Y-77600000D01*
X213400000Y-82375000D02*
X212400000Y-82375000D01*
X212400000Y-81025000D02*
X213400000Y-81025000D01*
X213400000Y-80575000D02*
X212400000Y-80575000D01*
X212400000Y-79225000D02*
X213400000Y-79225000D01*
X209200000Y-82675000D02*
X208200000Y-82675000D01*
X208200000Y-81325000D02*
X209200000Y-81325000D01*
X210925000Y-63000000D02*
X210925000Y-62000000D01*
X212275000Y-62000000D02*
X212275000Y-63000000D01*
X208825000Y-63000000D02*
X208825000Y-62000000D01*
X210175000Y-62000000D02*
X210175000Y-63000000D01*
X205389000Y-66324000D02*
X203611000Y-66324000D01*
X203611000Y-66324000D02*
X203611000Y-63276000D01*
X203611000Y-63276000D02*
X205389000Y-63276000D01*
X205389000Y-63276000D02*
X205389000Y-66324000D01*
X212100000Y-68750000D02*
X215300000Y-68750000D01*
X215300000Y-68750000D02*
X215300000Y-67450000D01*
X215300000Y-67450000D02*
X212100000Y-67450000D01*
X212100000Y-67450000D02*
X212100000Y-68750000D01*
X215530000Y-87880000D02*
X215530000Y-75180000D01*
X215530000Y-75180000D02*
X218070000Y-75180000D01*
X218070000Y-75180000D02*
X218070000Y-87880000D01*
X215530000Y-90420000D02*
X215530000Y-87880000D01*
X215530000Y-87880000D02*
X218070000Y-87880000D01*
X215530000Y-90420000D02*
X218070000Y-90420000D01*
X218070000Y-90420000D02*
X218070000Y-87880000D01*
X202057143Y-60666666D02*
X202104762Y-60714285D01*
X202152381Y-60857142D01*
X202152381Y-60952380D01*
X202104762Y-61095238D01*
X202009524Y-61190476D01*
X201914286Y-61238095D01*
X201723810Y-61285714D01*
X201580952Y-61285714D01*
X201390476Y-61238095D01*
X201295238Y-61190476D01*
X201200000Y-61095238D01*
X201152381Y-60952380D01*
X201152381Y-60857142D01*
X201200000Y-60714285D01*
X201247619Y-60666666D01*
X202152381Y-59714285D02*
X202152381Y-60285714D01*
X202152381Y-60000000D02*
X201152381Y-60000000D01*
X201295238Y-60095238D01*
X201390476Y-60190476D01*
X201438095Y-60285714D01*
X199333334Y-59257143D02*
X199285715Y-59304762D01*
X199142858Y-59352381D01*
X199047620Y-59352381D01*
X198904762Y-59304762D01*
X198809524Y-59209524D01*
X198761905Y-59114286D01*
X198714286Y-58923810D01*
X198714286Y-58780952D01*
X198761905Y-58590476D01*
X198809524Y-58495238D01*
X198904762Y-58400000D01*
X199047620Y-58352381D01*
X199142858Y-58352381D01*
X199285715Y-58400000D01*
X199333334Y-58447619D01*
X199714286Y-58447619D02*
X199761905Y-58400000D01*
X199857143Y-58352381D01*
X200095239Y-58352381D01*
X200190477Y-58400000D01*
X200238096Y-58447619D01*
X200285715Y-58542857D01*
X200285715Y-58638095D01*
X200238096Y-58780952D01*
X199666667Y-59352381D01*
X200285715Y-59352381D01*
X206733334Y-68057143D02*
X206685715Y-68104762D01*
X206542858Y-68152381D01*
X206447620Y-68152381D01*
X206304762Y-68104762D01*
X206209524Y-68009524D01*
X206161905Y-67914286D01*
X206114286Y-67723810D01*
X206114286Y-67580952D01*
X206161905Y-67390476D01*
X206209524Y-67295238D01*
X206304762Y-67200000D01*
X206447620Y-67152381D01*
X206542858Y-67152381D01*
X206685715Y-67200000D01*
X206733334Y-67247619D01*
X207066667Y-67152381D02*
X207685715Y-67152381D01*
X207352381Y-67533333D01*
X207495239Y-67533333D01*
X207590477Y-67580952D01*
X207638096Y-67628571D01*
X207685715Y-67723810D01*
X207685715Y-67961905D01*
X207638096Y-68057143D01*
X207590477Y-68104762D01*
X207495239Y-68152381D01*
X207209524Y-68152381D01*
X207114286Y-68104762D01*
X207066667Y-68057143D01*
X203733334Y-60057143D02*
X203685715Y-60104762D01*
X203542858Y-60152381D01*
X203447620Y-60152381D01*
X203304762Y-60104762D01*
X203209524Y-60009524D01*
X203161905Y-59914286D01*
X203114286Y-59723810D01*
X203114286Y-59580952D01*
X203161905Y-59390476D01*
X203209524Y-59295238D01*
X203304762Y-59200000D01*
X203447620Y-59152381D01*
X203542858Y-59152381D01*
X203685715Y-59200000D01*
X203733334Y-59247619D01*
X204590477Y-59485714D02*
X204590477Y-60152381D01*
X204352381Y-59104762D02*
X204114286Y-59819048D01*
X204733334Y-59819048D01*
X198433334Y-75557143D02*
X198385715Y-75604762D01*
X198242858Y-75652381D01*
X198147620Y-75652381D01*
X198004762Y-75604762D01*
X197909524Y-75509524D01*
X197861905Y-75414286D01*
X197814286Y-75223810D01*
X197814286Y-75080952D01*
X197861905Y-74890476D01*
X197909524Y-74795238D01*
X198004762Y-74700000D01*
X198147620Y-74652381D01*
X198242858Y-74652381D01*
X198385715Y-74700000D01*
X198433334Y-74747619D01*
X199338096Y-74652381D02*
X198861905Y-74652381D01*
X198814286Y-75128571D01*
X198861905Y-75080952D01*
X198957143Y-75033333D01*
X199195239Y-75033333D01*
X199290477Y-75080952D01*
X199338096Y-75128571D01*
X199385715Y-75223810D01*
X199385715Y-75461905D01*
X199338096Y-75557143D01*
X199290477Y-75604762D01*
X199195239Y-75652381D01*
X198957143Y-75652381D01*
X198861905Y-75604762D01*
X198814286Y-75557143D01*
X207857143Y-61066666D02*
X207904762Y-61114285D01*
X207952381Y-61257142D01*
X207952381Y-61352380D01*
X207904762Y-61495238D01*
X207809524Y-61590476D01*
X207714286Y-61638095D01*
X207523810Y-61685714D01*
X207380952Y-61685714D01*
X207190476Y-61638095D01*
X207095238Y-61590476D01*
X207000000Y-61495238D01*
X206952381Y-61352380D01*
X206952381Y-61257142D01*
X207000000Y-61114285D01*
X207047619Y-61066666D01*
X206952381Y-60209523D02*
X206952381Y-60400000D01*
X207000000Y-60495238D01*
X207047619Y-60542857D01*
X207190476Y-60638095D01*
X207380952Y-60685714D01*
X207761905Y-60685714D01*
X207857143Y-60638095D01*
X207904762Y-60590476D01*
X207952381Y-60495238D01*
X207952381Y-60304761D01*
X207904762Y-60209523D01*
X207857143Y-60161904D01*
X207761905Y-60114285D01*
X207523810Y-60114285D01*
X207428571Y-60161904D01*
X207380952Y-60209523D01*
X207333333Y-60304761D01*
X207333333Y-60495238D01*
X207380952Y-60590476D01*
X207428571Y-60638095D01*
X207523810Y-60685714D01*
X217157143Y-70166666D02*
X217204762Y-70214285D01*
X217252381Y-70357142D01*
X217252381Y-70452380D01*
X217204762Y-70595238D01*
X217109524Y-70690476D01*
X217014286Y-70738095D01*
X216823810Y-70785714D01*
X216680952Y-70785714D01*
X216490476Y-70738095D01*
X216395238Y-70690476D01*
X216300000Y-70595238D01*
X216252381Y-70452380D01*
X216252381Y-70357142D01*
X216300000Y-70214285D01*
X216347619Y-70166666D01*
X216252381Y-69833333D02*
X216252381Y-69166666D01*
X217252381Y-69595238D01*
X214257143Y-71166666D02*
X214304762Y-71214285D01*
X214352381Y-71357142D01*
X214352381Y-71452380D01*
X214304762Y-71595238D01*
X214209524Y-71690476D01*
X214114286Y-71738095D01*
X213923810Y-71785714D01*
X213780952Y-71785714D01*
X213590476Y-71738095D01*
X213495238Y-71690476D01*
X213400000Y-71595238D01*
X213352381Y-71452380D01*
X213352381Y-71357142D01*
X213400000Y-71214285D01*
X213447619Y-71166666D01*
X214352381Y-70690476D02*
X214352381Y-70500000D01*
X214304762Y-70404761D01*
X214257143Y-70357142D01*
X214114286Y-70261904D01*
X213923810Y-70214285D01*
X213542857Y-70214285D01*
X213447619Y-70261904D01*
X213400000Y-70309523D01*
X213352381Y-70404761D01*
X213352381Y-70595238D01*
X213400000Y-70690476D01*
X213447619Y-70738095D01*
X213542857Y-70785714D01*
X213780952Y-70785714D01*
X213876190Y-70738095D01*
X213923810Y-70690476D01*
X213971429Y-70595238D01*
X213971429Y-70404761D01*
X213923810Y-70309523D01*
X213876190Y-70261904D01*
X213780952Y-70214285D01*
X198857143Y-71357143D02*
X198809524Y-71404762D01*
X198666667Y-71452381D01*
X198571429Y-71452381D01*
X198428571Y-71404762D01*
X198333333Y-71309524D01*
X198285714Y-71214286D01*
X198238095Y-71023810D01*
X198238095Y-70880952D01*
X198285714Y-70690476D01*
X198333333Y-70595238D01*
X198428571Y-70500000D01*
X198571429Y-70452381D01*
X198666667Y-70452381D01*
X198809524Y-70500000D01*
X198857143Y-70547619D01*
X199809524Y-71452381D02*
X199238095Y-71452381D01*
X199523809Y-71452381D02*
X199523809Y-70452381D01*
X199428571Y-70595238D01*
X199333333Y-70690476D01*
X199238095Y-70738095D01*
X200428571Y-70452381D02*
X200523810Y-70452381D01*
X200619048Y-70500000D01*
X200666667Y-70547619D01*
X200714286Y-70642857D01*
X200761905Y-70833333D01*
X200761905Y-71071429D01*
X200714286Y-71261905D01*
X200666667Y-71357143D01*
X200619048Y-71404762D01*
X200523810Y-71452381D01*
X200428571Y-71452381D01*
X200333333Y-71404762D01*
X200285714Y-71357143D01*
X200238095Y-71261905D01*
X200190476Y-71071429D01*
X200190476Y-70833333D01*
X200238095Y-70642857D01*
X200285714Y-70547619D01*
X200333333Y-70500000D01*
X200428571Y-70452381D01*
X209857143Y-84757143D02*
X209809524Y-84804762D01*
X209666667Y-84852381D01*
X209571429Y-84852381D01*
X209428571Y-84804762D01*
X209333333Y-84709524D01*
X209285714Y-84614286D01*
X209238095Y-84423810D01*
X209238095Y-84280952D01*
X209285714Y-84090476D01*
X209333333Y-83995238D01*
X209428571Y-83900000D01*
X209571429Y-83852381D01*
X209666667Y-83852381D01*
X209809524Y-83900000D01*
X209857143Y-83947619D01*
X210809524Y-84852381D02*
X210238095Y-84852381D01*
X210523809Y-84852381D02*
X210523809Y-83852381D01*
X210428571Y-83995238D01*
X210333333Y-84090476D01*
X210238095Y-84138095D01*
X211142857Y-83852381D02*
X211761905Y-83852381D01*
X211428571Y-84233333D01*
X211571429Y-84233333D01*
X211666667Y-84280952D01*
X211714286Y-84328571D01*
X211761905Y-84423810D01*
X211761905Y-84661905D01*
X211714286Y-84757143D01*
X211666667Y-84804762D01*
X211571429Y-84852381D01*
X211285714Y-84852381D01*
X211190476Y-84804762D01*
X211142857Y-84757143D01*
X198952381Y-68838095D02*
X197952381Y-68838095D01*
X197952381Y-68600000D01*
X198000000Y-68457142D01*
X198095238Y-68361904D01*
X198190476Y-68314285D01*
X198380952Y-68266666D01*
X198523810Y-68266666D01*
X198714286Y-68314285D01*
X198809524Y-68361904D01*
X198904762Y-68457142D01*
X198952381Y-68600000D01*
X198952381Y-68838095D01*
X198952381Y-67314285D02*
X198952381Y-67885714D01*
X198952381Y-67600000D02*
X197952381Y-67600000D01*
X198095238Y-67695238D01*
X198190476Y-67790476D01*
X198238095Y-67885714D01*
X213052381Y-66138095D02*
X212052381Y-66138095D01*
X212052381Y-65900000D01*
X212100000Y-65757142D01*
X212195238Y-65661904D01*
X212290476Y-65614285D01*
X212480952Y-65566666D01*
X212623810Y-65566666D01*
X212814286Y-65614285D01*
X212909524Y-65661904D01*
X213004762Y-65757142D01*
X213052381Y-65900000D01*
X213052381Y-66138095D01*
X212147619Y-65185714D02*
X212100000Y-65138095D01*
X212052381Y-65042857D01*
X212052381Y-64804761D01*
X212100000Y-64709523D01*
X212147619Y-64661904D01*
X212242857Y-64614285D01*
X212338095Y-64614285D01*
X212480952Y-64661904D01*
X213052381Y-65233333D01*
X213052381Y-64614285D01*
X208761905Y-68552381D02*
X208761905Y-67552381D01*
X209000000Y-67552381D01*
X209142858Y-67600000D01*
X209238096Y-67695238D01*
X209285715Y-67790476D01*
X209333334Y-67980952D01*
X209333334Y-68123810D01*
X209285715Y-68314286D01*
X209238096Y-68409524D01*
X209142858Y-68504762D01*
X209000000Y-68552381D01*
X208761905Y-68552381D01*
X209666667Y-67552381D02*
X210285715Y-67552381D01*
X209952381Y-67933333D01*
X210095239Y-67933333D01*
X210190477Y-67980952D01*
X210238096Y-68028571D01*
X210285715Y-68123810D01*
X210285715Y-68361905D01*
X210238096Y-68457143D01*
X210190477Y-68504762D01*
X210095239Y-68552381D01*
X209809524Y-68552381D01*
X209714286Y-68504762D01*
X209666667Y-68457143D01*
X206623810Y-76052381D02*
X206623810Y-75052381D01*
X207671429Y-75957143D02*
X207623810Y-76004762D01*
X207480953Y-76052381D01*
X207385715Y-76052381D01*
X207242857Y-76004762D01*
X207147619Y-75909524D01*
X207100000Y-75814286D01*
X207052381Y-75623810D01*
X207052381Y-75480952D01*
X207100000Y-75290476D01*
X207147619Y-75195238D01*
X207242857Y-75100000D01*
X207385715Y-75052381D01*
X207480953Y-75052381D01*
X207623810Y-75100000D01*
X207671429Y-75147619D01*
X208623810Y-76052381D02*
X208052381Y-76052381D01*
X208338095Y-76052381D02*
X208338095Y-75052381D01*
X208242857Y-75195238D01*
X208147619Y-75290476D01*
X208052381Y-75338095D01*
X211452381Y-81966666D02*
X210976190Y-82300000D01*
X211452381Y-82538095D02*
X210452381Y-82538095D01*
X210452381Y-82157142D01*
X210500000Y-82061904D01*
X210547619Y-82014285D01*
X210642857Y-81966666D01*
X210785714Y-81966666D01*
X210880952Y-82014285D01*
X210928571Y-82061904D01*
X210976190Y-82157142D01*
X210976190Y-82538095D01*
X210452381Y-81061904D02*
X210452381Y-81538095D01*
X210928571Y-81585714D01*
X210880952Y-81538095D01*
X210833333Y-81442857D01*
X210833333Y-81204761D01*
X210880952Y-81109523D01*
X210928571Y-81061904D01*
X211023810Y-81014285D01*
X211261905Y-81014285D01*
X211357143Y-81061904D01*
X211404762Y-81109523D01*
X211452381Y-81204761D01*
X211452381Y-81442857D01*
X211404762Y-81538095D01*
X211357143Y-81585714D01*
X214033334Y-78852381D02*
X213700000Y-78376190D01*
X213461905Y-78852381D02*
X213461905Y-77852381D01*
X213842858Y-77852381D01*
X213938096Y-77900000D01*
X213985715Y-77947619D01*
X214033334Y-78042857D01*
X214033334Y-78185714D01*
X213985715Y-78280952D01*
X213938096Y-78328571D01*
X213842858Y-78376190D01*
X213461905Y-78376190D01*
X214890477Y-77852381D02*
X214700000Y-77852381D01*
X214604762Y-77900000D01*
X214557143Y-77947619D01*
X214461905Y-78090476D01*
X214414286Y-78280952D01*
X214414286Y-78661905D01*
X214461905Y-78757143D01*
X214509524Y-78804762D01*
X214604762Y-78852381D01*
X214795239Y-78852381D01*
X214890477Y-78804762D01*
X214938096Y-78757143D01*
X214985715Y-78661905D01*
X214985715Y-78423810D01*
X214938096Y-78328571D01*
X214890477Y-78280952D01*
X214795239Y-78233333D01*
X214604762Y-78233333D01*
X214509524Y-78280952D01*
X214461905Y-78328571D01*
X214414286Y-78423810D01*
X205333334Y-82652381D02*
X205000000Y-82176190D01*
X204761905Y-82652381D02*
X204761905Y-81652381D01*
X205142858Y-81652381D01*
X205238096Y-81700000D01*
X205285715Y-81747619D01*
X205333334Y-81842857D01*
X205333334Y-81985714D01*
X205285715Y-82080952D01*
X205238096Y-82128571D01*
X205142858Y-82176190D01*
X204761905Y-82176190D01*
X205904762Y-82080952D02*
X205809524Y-82033333D01*
X205761905Y-81985714D01*
X205714286Y-81890476D01*
X205714286Y-81842857D01*
X205761905Y-81747619D01*
X205809524Y-81700000D01*
X205904762Y-81652381D01*
X206095239Y-81652381D01*
X206190477Y-81700000D01*
X206238096Y-81747619D01*
X206285715Y-81842857D01*
X206285715Y-81890476D01*
X206238096Y-81985714D01*
X206190477Y-82033333D01*
X206095239Y-82080952D01*
X205904762Y-82080952D01*
X205809524Y-82128571D01*
X205761905Y-82176190D01*
X205714286Y-82271429D01*
X205714286Y-82461905D01*
X205761905Y-82557143D01*
X205809524Y-82604762D01*
X205904762Y-82652381D01*
X206095239Y-82652381D01*
X206190477Y-82604762D01*
X206238096Y-82557143D01*
X206285715Y-82461905D01*
X206285715Y-82271429D01*
X206238096Y-82176190D01*
X206190477Y-82128571D01*
X206095239Y-82080952D01*
X212052381Y-60266666D02*
X211576190Y-60600000D01*
X212052381Y-60838095D02*
X211052381Y-60838095D01*
X211052381Y-60457142D01*
X211100000Y-60361904D01*
X211147619Y-60314285D01*
X211242857Y-60266666D01*
X211385714Y-60266666D01*
X211480952Y-60314285D01*
X211528571Y-60361904D01*
X211576190Y-60457142D01*
X211576190Y-60838095D01*
X212052381Y-59790476D02*
X212052381Y-59600000D01*
X212004762Y-59504761D01*
X211957143Y-59457142D01*
X211814286Y-59361904D01*
X211623810Y-59314285D01*
X211242857Y-59314285D01*
X211147619Y-59361904D01*
X211100000Y-59409523D01*
X211052381Y-59504761D01*
X211052381Y-59695238D01*
X211100000Y-59790476D01*
X211147619Y-59838095D01*
X211242857Y-59885714D01*
X211480952Y-59885714D01*
X211576190Y-59838095D01*
X211623810Y-59790476D01*
X211671429Y-59695238D01*
X211671429Y-59504761D01*
X211623810Y-59409523D01*
X211576190Y-59361904D01*
X211480952Y-59314285D01*
X209952381Y-60342857D02*
X209476190Y-60676191D01*
X209952381Y-60914286D02*
X208952381Y-60914286D01*
X208952381Y-60533333D01*
X209000000Y-60438095D01*
X209047619Y-60390476D01*
X209142857Y-60342857D01*
X209285714Y-60342857D01*
X209380952Y-60390476D01*
X209428571Y-60438095D01*
X209476190Y-60533333D01*
X209476190Y-60914286D01*
X209952381Y-59390476D02*
X209952381Y-59961905D01*
X209952381Y-59676191D02*
X208952381Y-59676191D01*
X209095238Y-59771429D01*
X209190476Y-59866667D01*
X209238095Y-59961905D01*
X208952381Y-58771429D02*
X208952381Y-58676190D01*
X209000000Y-58580952D01*
X209047619Y-58533333D01*
X209142857Y-58485714D01*
X209333333Y-58438095D01*
X209571429Y-58438095D01*
X209761905Y-58485714D01*
X209857143Y-58533333D01*
X209904762Y-58580952D01*
X209952381Y-58676190D01*
X209952381Y-58771429D01*
X209904762Y-58866667D01*
X209857143Y-58914286D01*
X209761905Y-58961905D01*
X209571429Y-59009524D01*
X209333333Y-59009524D01*
X209142857Y-58961905D01*
X209047619Y-58914286D01*
X209000000Y-58866667D01*
X208952381Y-58771429D01*
X206752381Y-66461905D02*
X207561905Y-66461905D01*
X207657143Y-66414286D01*
X207704762Y-66366667D01*
X207752381Y-66271429D01*
X207752381Y-66080952D01*
X207704762Y-65985714D01*
X207657143Y-65938095D01*
X207561905Y-65890476D01*
X206752381Y-65890476D01*
X207752381Y-64890476D02*
X207752381Y-65461905D01*
X207752381Y-65176191D02*
X206752381Y-65176191D01*
X206895238Y-65271429D01*
X206990476Y-65366667D01*
X207038095Y-65461905D01*
X215123809Y-65976190D02*
X215123809Y-66452381D01*
X214790476Y-65452381D02*
X215123809Y-65976190D01*
X215457143Y-65452381D01*
X216314286Y-66452381D02*
X215742857Y-66452381D01*
X216028571Y-66452381D02*
X216028571Y-65452381D01*
X215933333Y-65595238D01*
X215838095Y-65690476D01*
X215742857Y-65738095D01*
%LPC*%
D13*
X212450000Y-86530000D03*
D14*
X212450000Y-89070000D03*
X209910000Y-86530000D03*
X209910000Y-89070000D03*
X207370000Y-86530000D03*
X207370000Y-89070000D03*
X204830000Y-86530000D03*
X204830000Y-89070000D03*
X202290000Y-86530000D03*
X202290000Y-89070000D03*
X199750000Y-86530000D03*
X199750000Y-89070000D03*
D15*
X201700000Y-63650000D03*
X201700000Y-62550000D03*
D16*
X199500000Y-63600000D03*
X199500000Y-60600000D03*
D17*
X205250000Y-67400000D03*
X204150000Y-67400000D03*
D18*
X205800000Y-61500000D03*
X203800000Y-61500000D03*
D17*
X199950000Y-73800000D03*
X198850000Y-73800000D03*
D15*
X207600000Y-63850000D03*
X207600000Y-62750000D03*
X214400000Y-72850000D03*
X214400000Y-73950000D03*
X215900000Y-73950000D03*
X215900000Y-72850000D03*
D17*
X199950000Y-72400000D03*
X198850000Y-72400000D03*
X212450000Y-83400000D03*
X213550000Y-83400000D03*
D19*
X200098960Y-67800760D03*
X201501040Y-67800760D03*
X200800000Y-65801780D03*
D20*
X211300000Y-66449300D03*
X211300000Y-64950700D03*
X209500000Y-66449300D03*
X209500000Y-64950700D03*
D21*
X211750000Y-77100000D03*
X211750000Y-76300000D03*
X211750000Y-75500000D03*
X211750000Y-74700000D03*
X211750000Y-73900000D03*
X211750000Y-73100000D03*
X211750000Y-72300000D03*
X211750000Y-71500000D03*
D22*
X210300000Y-70050000D03*
X209500000Y-70050000D03*
X208700000Y-70050000D03*
X207900000Y-70050000D03*
X207100000Y-70050000D03*
X206300000Y-70050000D03*
X205500000Y-70050000D03*
X204700000Y-70050000D03*
D21*
X203250000Y-71500000D03*
X203250000Y-72300000D03*
X203250000Y-73100000D03*
X203250000Y-73900000D03*
X203250000Y-74700000D03*
X203250000Y-75500000D03*
X203250000Y-76300000D03*
X203250000Y-77100000D03*
D22*
X204700000Y-78550000D03*
X205500000Y-78550000D03*
X206300000Y-78550000D03*
X207100000Y-78550000D03*
X207900000Y-78550000D03*
X208700000Y-78550000D03*
X209500000Y-78550000D03*
X210300000Y-78550000D03*
D23*
X212150000Y-81700000D03*
X213650000Y-81700000D03*
X212150000Y-79900000D03*
X213650000Y-79900000D03*
X207950000Y-82000000D03*
X209450000Y-82000000D03*
D24*
X211600000Y-61750000D03*
X211600000Y-63250000D03*
X209500000Y-61750000D03*
X209500000Y-63250000D03*
D25*
X203230000Y-63847500D03*
X203230000Y-65752500D03*
X205770000Y-63847500D03*
X203230000Y-64800000D03*
X205770000Y-65752500D03*
D26*
X214650000Y-68100000D03*
X213700000Y-68100000D03*
X212750000Y-68100000D03*
D27*
X216800000Y-89150000D03*
D28*
X216800000Y-86610000D03*
X216800000Y-84070000D03*
X216800000Y-81530000D03*
X216800000Y-78990000D03*
X216800000Y-76450000D03*
M02*
