G04 #@! TF.FileFunction,Copper,L1,Top,Signal*
%FSLAX46Y46*%
G04 Gerber Fmt 4.6, Leading zero omitted, Abs format (unit mm)*
G04 Created by KiCad (PCBNEW (2014-11-21 BZR 5297)-product) date So 01 Feb 2015 20:06:03 CET*
%MOMM*%
G01*
G04 APERTURE LIST*
%ADD10C,0.100000*%
%ADD11R,1.727200X1.727200*%
%ADD12O,1.727200X1.727200*%
%ADD13R,0.500000X0.600000*%
%ADD14R,1.600000X1.000000*%
%ADD15R,0.600000X0.500000*%
%ADD16R,1.000000X1.250000*%
%ADD17R,0.800100X0.800100*%
%ADD18R,0.797560X0.797560*%
%ADD19R,1.600000X0.550000*%
%ADD20R,0.550000X1.600000*%
%ADD21R,0.500000X0.900000*%
%ADD22R,0.900000X0.500000*%
%ADD23R,0.762000X0.508000*%
%ADD24R,0.300000X2.000000*%
%ADD25R,2.032000X1.727200*%
%ADD26O,2.032000X1.727200*%
%ADD27C,0.600000*%
%ADD28C,0.304800*%
%ADD29C,0.508000*%
%ADD30C,0.254000*%
%ADD31C,1.057585*%
G04 APERTURE END LIST*
D10*
D11*
X212450000Y-86530000D03*
D12*
X212450000Y-89070000D03*
X209910000Y-86530000D03*
X209910000Y-89070000D03*
X207370000Y-86530000D03*
X207370000Y-89070000D03*
X204830000Y-86530000D03*
X204830000Y-89070000D03*
X202290000Y-86530000D03*
X202290000Y-89070000D03*
X199750000Y-86530000D03*
X199750000Y-89070000D03*
D13*
X201700000Y-63650000D03*
X201700000Y-62550000D03*
D14*
X199500000Y-63600000D03*
X199500000Y-60600000D03*
D15*
X205250000Y-67400000D03*
X204150000Y-67400000D03*
D16*
X205800000Y-61500000D03*
X203800000Y-61500000D03*
D15*
X199950000Y-73800000D03*
X198850000Y-73800000D03*
D13*
X207600000Y-63850000D03*
X207600000Y-62750000D03*
X214400000Y-72850000D03*
X214400000Y-73950000D03*
X215900000Y-73950000D03*
X215900000Y-72850000D03*
D15*
X199950000Y-72400000D03*
X198850000Y-72400000D03*
X212450000Y-83400000D03*
X213550000Y-83400000D03*
D17*
X200098960Y-67800760D03*
X201501040Y-67800760D03*
X200800000Y-65801780D03*
D18*
X211300000Y-66449300D03*
X211300000Y-64950700D03*
X209500000Y-66449300D03*
X209500000Y-64950700D03*
D19*
X211750000Y-77100000D03*
X211750000Y-76300000D03*
X211750000Y-75500000D03*
X211750000Y-74700000D03*
X211750000Y-73900000D03*
X211750000Y-73100000D03*
X211750000Y-72300000D03*
X211750000Y-71500000D03*
D20*
X210300000Y-70050000D03*
X209500000Y-70050000D03*
X208700000Y-70050000D03*
X207900000Y-70050000D03*
X207100000Y-70050000D03*
X206300000Y-70050000D03*
X205500000Y-70050000D03*
X204700000Y-70050000D03*
D19*
X203250000Y-71500000D03*
X203250000Y-72300000D03*
X203250000Y-73100000D03*
X203250000Y-73900000D03*
X203250000Y-74700000D03*
X203250000Y-75500000D03*
X203250000Y-76300000D03*
X203250000Y-77100000D03*
D20*
X204700000Y-78550000D03*
X205500000Y-78550000D03*
X206300000Y-78550000D03*
X207100000Y-78550000D03*
X207900000Y-78550000D03*
X208700000Y-78550000D03*
X209500000Y-78550000D03*
X210300000Y-78550000D03*
D21*
X212150000Y-81700000D03*
X213650000Y-81700000D03*
X212150000Y-79900000D03*
X213650000Y-79900000D03*
X207950000Y-82000000D03*
X209450000Y-82000000D03*
D22*
X211600000Y-61750000D03*
X211600000Y-63250000D03*
X209500000Y-61750000D03*
X209500000Y-63250000D03*
D23*
X203230000Y-63847500D03*
X203230000Y-65752500D03*
X205770000Y-63847500D03*
X203230000Y-64800000D03*
X205770000Y-65752500D03*
D24*
X214650000Y-68100000D03*
X213700000Y-68100000D03*
X212750000Y-68100000D03*
D25*
X216800000Y-89150000D03*
D26*
X216800000Y-86610000D03*
X216800000Y-84070000D03*
X216800000Y-81530000D03*
X216800000Y-78990000D03*
X216800000Y-76450000D03*
D27*
X213700000Y-65800000D03*
X200300000Y-76100000D03*
X202800000Y-67200000D03*
X208100000Y-67400000D03*
X215600000Y-70900000D03*
X207800000Y-80900000D03*
X198700000Y-80400000D03*
X199900000Y-70100000D03*
X204800000Y-80100000D03*
X203993366Y-82146442D03*
X205800000Y-76400000D03*
X204900000Y-75900000D03*
X207100000Y-83400000D03*
X198900000Y-66500000D03*
X207400000Y-68500000D03*
X206700000Y-72100000D03*
X203100000Y-69900000D03*
X205400000Y-72000000D03*
X206300000Y-80700000D03*
X201200000Y-80400000D03*
X205000000Y-76800000D03*
D28*
X201650000Y-63600000D02*
X201700000Y-63650000D01*
X203032500Y-63650000D02*
X203230000Y-63847500D01*
X202200000Y-63650000D02*
X203032500Y-63650000D01*
X201700000Y-63650000D02*
X202200000Y-63650000D01*
X202200000Y-65400000D02*
X202552500Y-65752500D01*
X202552500Y-65752500D02*
X203230000Y-65752500D01*
D29*
X200800000Y-65801780D02*
X200601780Y-65801780D01*
X201650000Y-63600000D02*
X201700000Y-63650000D01*
X199500000Y-63600000D02*
X201650000Y-63600000D01*
X203032500Y-63650000D02*
X203230000Y-63847500D01*
X201700000Y-63650000D02*
X203032500Y-63650000D01*
X202552500Y-65752500D02*
X203230000Y-65752500D01*
X202200000Y-65400000D02*
X202552500Y-65752500D01*
X202200000Y-63650000D02*
X202200000Y-65400000D01*
X203180720Y-65801780D02*
X203230000Y-65752500D01*
X200800000Y-65801780D02*
X203180720Y-65801780D01*
D28*
X201700000Y-61400000D02*
X200900000Y-60600000D01*
X200900000Y-60600000D02*
X199500000Y-60600000D01*
X201700000Y-62550000D02*
X201700000Y-61400000D01*
X202100000Y-61500000D02*
X203800000Y-61500000D01*
X201700000Y-61900000D02*
X202100000Y-61500000D01*
X201700000Y-62550000D02*
X201700000Y-61900000D01*
X204400000Y-67150000D02*
X204150000Y-67400000D01*
X204400000Y-65200000D02*
X204400000Y-67150000D01*
X204000000Y-64800000D02*
X204400000Y-65200000D01*
X203230000Y-64800000D02*
X204000000Y-64800000D01*
X211800000Y-73950000D02*
X211750000Y-73900000D01*
X214400000Y-73950000D02*
X211800000Y-73950000D01*
X198850000Y-74550000D02*
X198850000Y-73800000D01*
X199000000Y-74700000D02*
X198850000Y-74550000D01*
X203250000Y-74700000D02*
X199000000Y-74700000D01*
X198850000Y-72400000D02*
X198850000Y-73800000D01*
D30*
X209500000Y-61750000D02*
X211600000Y-61750000D01*
X209500000Y-60700000D02*
X208700000Y-59900000D01*
X208700000Y-59900000D02*
X205400000Y-59900000D01*
X205400000Y-59900000D02*
X203800000Y-61500000D01*
X209500000Y-61750000D02*
X209500000Y-60700000D01*
X213700000Y-65800000D02*
X213700000Y-68100000D01*
X213700000Y-62900000D02*
X213700000Y-65800000D01*
X212550000Y-61750000D02*
X213700000Y-62900000D01*
X211600000Y-61750000D02*
X212550000Y-61750000D01*
X208900000Y-74700000D02*
X209700000Y-73900000D01*
X209700000Y-73900000D02*
X211750000Y-73900000D01*
X203250000Y-74700000D02*
X208900000Y-74700000D01*
X204830000Y-89070000D02*
X204830000Y-86530000D01*
D31*
X207370000Y-89070000D02*
X207370000Y-86530000D01*
X204830000Y-86530000D02*
X204830000Y-89070000D01*
X207370000Y-86530000D02*
X204830000Y-86530000D01*
X204830000Y-89070000D02*
X207370000Y-89070000D01*
D28*
X214800000Y-73950000D02*
X215900000Y-72850000D01*
X214400000Y-73950000D02*
X214800000Y-73950000D01*
D29*
X216800000Y-76450000D02*
X216800000Y-78990000D01*
D28*
X207600000Y-62400000D02*
X208250000Y-61750000D01*
X208250000Y-61750000D02*
X209500000Y-61750000D01*
X207600000Y-62750000D02*
X207600000Y-62400000D01*
X203800000Y-62500000D02*
X204400000Y-63100000D01*
X204400000Y-63100000D02*
X204400000Y-65200000D01*
X203800000Y-61500000D02*
X203800000Y-62500000D01*
D29*
X200300000Y-76100000D02*
X198850000Y-74650000D01*
X198850000Y-74650000D02*
X198850000Y-73800000D01*
X202800000Y-67200000D02*
X203000000Y-67400000D01*
X203000000Y-67400000D02*
X204150000Y-67400000D01*
D28*
X205770000Y-66880000D02*
X205250000Y-67400000D01*
X205770000Y-65752500D02*
X205770000Y-66880000D01*
X207697500Y-63847500D02*
X207700000Y-63850000D01*
X205770000Y-63847500D02*
X207697500Y-63847500D01*
X205770000Y-61530000D02*
X205800000Y-61500000D01*
X213100000Y-73100000D02*
X211750000Y-73100000D01*
X213350000Y-72850000D02*
X213100000Y-73100000D01*
X214400000Y-72850000D02*
X213350000Y-72850000D01*
X203150000Y-72400000D02*
X203250000Y-72300000D01*
X199950000Y-72400000D02*
X203150000Y-72400000D01*
X214600000Y-75250000D02*
X215900000Y-73950000D01*
X211750000Y-74700000D02*
X213300000Y-74700000D01*
X213850000Y-75250000D02*
X213300000Y-74700000D01*
X213850000Y-75250000D02*
X214600000Y-75250000D01*
X207600000Y-67000000D02*
X207600000Y-63850000D01*
X206200000Y-68400000D02*
X207600000Y-67000000D01*
X203100000Y-68400000D02*
X206200000Y-68400000D01*
X201400000Y-70100000D02*
X203100000Y-68400000D01*
X201400000Y-70800000D02*
X201400000Y-70100000D01*
X199950000Y-72250000D02*
X201400000Y-70800000D01*
X199950000Y-72400000D02*
X199950000Y-72250000D01*
X215000000Y-71700000D02*
X214400000Y-72300000D01*
X215600000Y-71700000D02*
X215000000Y-71700000D01*
X214400000Y-72300000D02*
X214400000Y-72850000D01*
X216500000Y-71700000D02*
X215600000Y-71700000D01*
X217000000Y-72200000D02*
X216500000Y-71700000D01*
X217000000Y-73700000D02*
X217000000Y-72200000D01*
X216750000Y-73950000D02*
X217000000Y-73700000D01*
X215900000Y-73950000D02*
X216750000Y-73950000D01*
X215600000Y-70900000D02*
X215600000Y-71700000D01*
X207700000Y-67000000D02*
X208100000Y-67400000D01*
X207600000Y-67000000D02*
X207700000Y-67000000D01*
D29*
X207597500Y-63847500D02*
X207600000Y-63850000D01*
X205770000Y-63847500D02*
X207597500Y-63847500D01*
X207600000Y-66900000D02*
X208100000Y-67400000D01*
X207600000Y-63850000D02*
X207600000Y-66900000D01*
X205770000Y-61530000D02*
X205800000Y-61500000D01*
X205770000Y-63847500D02*
X205770000Y-61530000D01*
D30*
X207950000Y-82000000D02*
X207950000Y-81550000D01*
X207950000Y-81050000D02*
X207800000Y-80900000D01*
X207950000Y-82000000D02*
X207950000Y-81050000D01*
D28*
X203150000Y-73800000D02*
X203250000Y-73900000D01*
X199950000Y-73800000D02*
X203150000Y-73800000D01*
X211100000Y-83400000D02*
X212450000Y-83400000D01*
X209700000Y-82000000D02*
X211100000Y-83400000D01*
X209450000Y-82000000D02*
X209700000Y-82000000D01*
X207900000Y-80000000D02*
X207900000Y-78550000D01*
X209450000Y-81550000D02*
X207900000Y-80000000D01*
X209450000Y-82000000D02*
X209450000Y-81550000D01*
X216800000Y-89150000D02*
X215950000Y-89150000D01*
X213550000Y-84350000D02*
X213550000Y-83400000D01*
X214200000Y-85000000D02*
X213550000Y-84350000D01*
X214200000Y-88400000D02*
X214200000Y-85000000D01*
X214950000Y-89150000D02*
X214200000Y-88400000D01*
X216800000Y-89150000D02*
X214950000Y-89150000D01*
D31*
X209910000Y-89070000D02*
X209910000Y-86530000D01*
X202290000Y-86530000D02*
X202290000Y-89070000D01*
X204200000Y-84500000D02*
X207880000Y-84500000D01*
X207880000Y-84500000D02*
X209910000Y-86530000D01*
X202290000Y-86410000D02*
X204200000Y-84500000D01*
X202290000Y-86530000D02*
X202290000Y-86410000D01*
D29*
X198700000Y-82500000D02*
X198700000Y-80400000D01*
X199900000Y-70100000D02*
X200098960Y-69901040D01*
X200098960Y-69901040D02*
X200098960Y-67800760D01*
X202290000Y-86090000D02*
X198700000Y-82500000D01*
X202290000Y-86530000D02*
X202290000Y-86090000D01*
D28*
X210300000Y-68300000D02*
X211300000Y-67300000D01*
X211300000Y-67300000D02*
X211300000Y-66449300D01*
X210300000Y-70050000D02*
X210300000Y-68300000D01*
X211300000Y-63550000D02*
X211600000Y-63250000D01*
X211300000Y-64950700D02*
X211300000Y-63550000D01*
X209500000Y-66449300D02*
X209500000Y-70050000D01*
X209500000Y-64950700D02*
X209500000Y-63250000D01*
D30*
X204800000Y-80100000D02*
X204800000Y-81339808D01*
X204800000Y-81339808D02*
X203993366Y-82146442D01*
X210000000Y-76600000D02*
X206000000Y-76600000D01*
X206000000Y-76600000D02*
X205800000Y-76400000D01*
X210500000Y-77100000D02*
X210000000Y-76600000D01*
X211750000Y-77100000D02*
X210500000Y-77100000D01*
X210800000Y-76300000D02*
X210400000Y-75900000D01*
X210400000Y-75900000D02*
X206500000Y-75900000D01*
X206500000Y-75900000D02*
X206300000Y-75700000D01*
X206300000Y-75700000D02*
X205100000Y-75700000D01*
X205100000Y-75700000D02*
X204900000Y-75900000D01*
X211750000Y-76300000D02*
X210800000Y-76300000D01*
D28*
X213100000Y-72300000D02*
X214650000Y-70750000D01*
X214650000Y-70750000D02*
X214650000Y-68100000D01*
X211750000Y-72300000D02*
X213100000Y-72300000D01*
X212750000Y-70500000D02*
X211750000Y-71500000D01*
X212750000Y-68100000D02*
X212750000Y-70500000D01*
X207100000Y-68400000D02*
X207200000Y-68300000D01*
X207200000Y-68300000D02*
X207800000Y-68300000D01*
X207800000Y-68300000D02*
X207900000Y-68400000D01*
X207900000Y-68400000D02*
X207900000Y-70050000D01*
X207100000Y-70050000D02*
X207100000Y-68400000D01*
D30*
X207100000Y-83400000D02*
X203000000Y-83400000D01*
X203000000Y-83400000D02*
X199700000Y-80100000D01*
X199700000Y-80100000D02*
X199700000Y-77000000D01*
X199700000Y-77000000D02*
X198000000Y-75300000D01*
X198000000Y-75300000D02*
X198000000Y-70700000D01*
X198000000Y-70700000D02*
X198900000Y-69800000D01*
X198900000Y-69800000D02*
X198900000Y-66500000D01*
X207400000Y-68500000D02*
X207600000Y-68300000D01*
X207600000Y-68300000D02*
X207800000Y-68300000D01*
D28*
X206700000Y-72100000D02*
X206000000Y-71400000D01*
X206000000Y-71400000D02*
X205700000Y-71400000D01*
X205700000Y-71400000D02*
X205500000Y-71200000D01*
X205500000Y-71200000D02*
X205500000Y-70050000D01*
X203100000Y-69900000D02*
X203250000Y-70050000D01*
X203250000Y-70050000D02*
X204700000Y-70050000D01*
X205400000Y-72000000D02*
X204900000Y-71500000D01*
X204900000Y-71500000D02*
X203250000Y-71500000D01*
D30*
X206300000Y-80700000D02*
X206300000Y-78550000D01*
X201200000Y-80400000D02*
X203600000Y-82800000D01*
X205700000Y-82800000D02*
X207100000Y-81400000D01*
X207100000Y-81400000D02*
X207100000Y-78550000D01*
X203600000Y-82800000D02*
X205700000Y-82800000D01*
D28*
X208700000Y-79900000D02*
X209600000Y-80800000D01*
X209600000Y-80800000D02*
X211250000Y-80800000D01*
X211250000Y-80800000D02*
X212150000Y-79900000D01*
X208700000Y-78550000D02*
X208700000Y-79900000D01*
D30*
X212200000Y-78900000D02*
X211500000Y-78900000D01*
X212400000Y-78900000D02*
X212200000Y-78900000D01*
X211500000Y-78900000D02*
X211200000Y-79200000D01*
X211200000Y-79200000D02*
X211200000Y-80020598D01*
X211200000Y-80020598D02*
X210900000Y-80320598D01*
X210900000Y-80320598D02*
X209798574Y-80320598D01*
X209798574Y-80320598D02*
X209500000Y-80022024D01*
X209500000Y-80022024D02*
X209500000Y-78550000D01*
X212400000Y-78900000D02*
X212200000Y-78900000D01*
X212900000Y-79400000D02*
X212400000Y-78900000D01*
X212150000Y-81700000D02*
X212700000Y-81700000D01*
X212700000Y-81700000D02*
X212900000Y-81400000D01*
X212900000Y-81400000D02*
X212900000Y-79400000D01*
X210300000Y-77542056D02*
X209857944Y-77100000D01*
X205000000Y-76800000D02*
X205200000Y-76800000D01*
X205500000Y-77100000D02*
X209857944Y-77100000D01*
X205200000Y-76800000D02*
X205500000Y-77100000D01*
X210300000Y-78550000D02*
X210300000Y-77542056D01*
D28*
X215610000Y-86610000D02*
X214800000Y-85800000D01*
X214800000Y-85800000D02*
X214800000Y-82850000D01*
X214800000Y-82850000D02*
X213650000Y-81700000D01*
X216800000Y-86610000D02*
X215610000Y-86610000D01*
X213650000Y-79900000D02*
X213700000Y-79900000D01*
X214800000Y-81050000D02*
X213650000Y-79900000D01*
X214800000Y-81800000D02*
X214800000Y-81050000D01*
X216800000Y-83800000D02*
X214800000Y-81800000D01*
X216800000Y-84070000D02*
X216800000Y-83800000D01*
D30*
G36*
X214547000Y-74077000D02*
X214525000Y-74077000D01*
X214525000Y-74097000D01*
X214275000Y-74097000D01*
X214275000Y-74077000D01*
X213673750Y-74077000D01*
X213563769Y-74186980D01*
X213528250Y-74167453D01*
X213525346Y-74166531D01*
X213522661Y-74165092D01*
X213471488Y-74149446D01*
X213420464Y-74133261D01*
X213417434Y-74132921D01*
X213414523Y-74132031D01*
X213361341Y-74126629D01*
X213308090Y-74120656D01*
X213302127Y-74120614D01*
X213302022Y-74120604D01*
X213301923Y-74120613D01*
X213300000Y-74120600D01*
X213185000Y-74120600D01*
X213119850Y-74120600D01*
X213026250Y-74027000D01*
X212704948Y-74027000D01*
X212674551Y-74014409D01*
X212592056Y-73998000D01*
X212507944Y-73998000D01*
X210907944Y-73998000D01*
X210825449Y-74014409D01*
X210795052Y-74027000D01*
X210473750Y-74027000D01*
X210315000Y-74185750D01*
X210315000Y-74237542D01*
X210339403Y-74360223D01*
X210387270Y-74475785D01*
X210456763Y-74579789D01*
X210523000Y-74646026D01*
X210523000Y-74753974D01*
X210456763Y-74820211D01*
X210387270Y-74924215D01*
X210339403Y-75039777D01*
X210315000Y-75162458D01*
X210315000Y-75214250D01*
X210451739Y-75350989D01*
X210407735Y-75346054D01*
X210402034Y-75346014D01*
X210401934Y-75346004D01*
X210401840Y-75346012D01*
X210400000Y-75346000D01*
X206729474Y-75346000D01*
X206691737Y-75308263D01*
X206652207Y-75275793D01*
X206612992Y-75242887D01*
X206610437Y-75241482D01*
X206608188Y-75239635D01*
X206563086Y-75215451D01*
X206518244Y-75190799D01*
X206515469Y-75189919D01*
X206512900Y-75188541D01*
X206463955Y-75173577D01*
X206415183Y-75158106D01*
X206412285Y-75157781D01*
X206409502Y-75156930D01*
X206358639Y-75151763D01*
X206307735Y-75146054D01*
X206302034Y-75146014D01*
X206301934Y-75146004D01*
X206301840Y-75146012D01*
X206300000Y-75146000D01*
X205100000Y-75146000D01*
X205049131Y-75150987D01*
X204998091Y-75155453D01*
X204995288Y-75156267D01*
X204992394Y-75156551D01*
X204943404Y-75171341D01*
X204936976Y-75173209D01*
X204833791Y-75172489D01*
X204693744Y-75199204D01*
X204634543Y-75223122D01*
X204660597Y-75160223D01*
X204685000Y-75037542D01*
X204685000Y-74985750D01*
X204526250Y-74827000D01*
X204204948Y-74827000D01*
X204174551Y-74814409D01*
X204092056Y-74798000D01*
X204007944Y-74798000D01*
X202407944Y-74798000D01*
X202325449Y-74814409D01*
X202295052Y-74827000D01*
X201973750Y-74827000D01*
X201815000Y-74985750D01*
X201815000Y-75037542D01*
X201839403Y-75160223D01*
X201887270Y-75275785D01*
X201956763Y-75379789D01*
X202023000Y-75446026D01*
X202023000Y-75817056D01*
X202039409Y-75899551D01*
X202039594Y-75899999D01*
X202039409Y-75900449D01*
X202023000Y-75982944D01*
X202023000Y-76067056D01*
X202023000Y-76617056D01*
X202039409Y-76699551D01*
X202039594Y-76699999D01*
X202039409Y-76700449D01*
X202023000Y-76782944D01*
X202023000Y-76867056D01*
X202023000Y-77417056D01*
X202039409Y-77499551D01*
X202071598Y-77577261D01*
X202118328Y-77647197D01*
X202177803Y-77706673D01*
X202247740Y-77753403D01*
X202325449Y-77785591D01*
X202407944Y-77802000D01*
X202492056Y-77802000D01*
X203998000Y-77802000D01*
X203998000Y-79392056D01*
X204014409Y-79474551D01*
X204046598Y-79552261D01*
X204093328Y-79622197D01*
X204152803Y-79681673D01*
X204188824Y-79705741D01*
X204159842Y-79748070D01*
X204103677Y-79879113D01*
X204074035Y-80018570D01*
X204072044Y-80161128D01*
X204097781Y-80301358D01*
X204150265Y-80433918D01*
X204227498Y-80553760D01*
X204246000Y-80572919D01*
X204246000Y-81110334D01*
X203937331Y-81419002D01*
X203927157Y-81418931D01*
X203787110Y-81445646D01*
X203654920Y-81499054D01*
X203535621Y-81577122D01*
X203433757Y-81676874D01*
X203363278Y-81779804D01*
X201926827Y-80343353D01*
X201927032Y-80328714D01*
X201899339Y-80188857D01*
X201845009Y-80057043D01*
X201766111Y-79938291D01*
X201665650Y-79837126D01*
X201547452Y-79757401D01*
X201416020Y-79702152D01*
X201276360Y-79673484D01*
X201133791Y-79672489D01*
X200993744Y-79699204D01*
X200861554Y-79752612D01*
X200742255Y-79830680D01*
X200640391Y-79930432D01*
X200559842Y-80048070D01*
X200521350Y-80137876D01*
X200254000Y-79870526D01*
X200254000Y-77000000D01*
X200249002Y-76949036D01*
X200244546Y-76898091D01*
X200243733Y-76895293D01*
X200243449Y-76892394D01*
X200228649Y-76843376D01*
X200214381Y-76794262D01*
X200213041Y-76791678D01*
X200212199Y-76788887D01*
X200188179Y-76743712D01*
X200164624Y-76698270D01*
X200162804Y-76695990D01*
X200161438Y-76693421D01*
X200129122Y-76653797D01*
X200097168Y-76613770D01*
X200093168Y-76609714D01*
X200093102Y-76609633D01*
X200093026Y-76609570D01*
X200091737Y-76608263D01*
X198554000Y-75070526D01*
X198554000Y-74685000D01*
X198564250Y-74685000D01*
X198723000Y-74526250D01*
X198723000Y-73925000D01*
X198703000Y-73925000D01*
X198703000Y-73675000D01*
X198723000Y-73675000D01*
X198723000Y-73126250D01*
X198723000Y-73073750D01*
X198723000Y-72525000D01*
X198703000Y-72525000D01*
X198703000Y-72275000D01*
X198723000Y-72275000D01*
X198723000Y-71673750D01*
X198564250Y-71515000D01*
X198554000Y-71515000D01*
X198554000Y-70929474D01*
X199195351Y-70288122D01*
X199197781Y-70301358D01*
X199250265Y-70433918D01*
X199327498Y-70553760D01*
X199426537Y-70656317D01*
X199543610Y-70737685D01*
X199674258Y-70794764D01*
X199813504Y-70825379D01*
X199956045Y-70828365D01*
X200096451Y-70803608D01*
X200229374Y-70752050D01*
X200349752Y-70675656D01*
X200452999Y-70577336D01*
X200535182Y-70460833D01*
X200561613Y-70401466D01*
X200580500Y-70382580D01*
X200620414Y-70333986D01*
X200660862Y-70285783D01*
X200662588Y-70282642D01*
X200664860Y-70279877D01*
X200694578Y-70224452D01*
X200724891Y-70169314D01*
X200725973Y-70165901D01*
X200727666Y-70162745D01*
X200746053Y-70102603D01*
X200765079Y-70042628D01*
X200765478Y-70039067D01*
X200766525Y-70035644D01*
X200772879Y-69973082D01*
X200779894Y-69910548D01*
X200779942Y-69903549D01*
X200779956Y-69903417D01*
X200779944Y-69903293D01*
X200779960Y-69901040D01*
X200779960Y-68523729D01*
X200799999Y-68503689D01*
X200828793Y-68532483D01*
X200898730Y-68579213D01*
X200976439Y-68611401D01*
X201058934Y-68627810D01*
X201143046Y-68627810D01*
X201943146Y-68627810D01*
X202025641Y-68611401D01*
X202100006Y-68580597D01*
X200990302Y-69690302D01*
X200956320Y-69731672D01*
X200921929Y-69772658D01*
X200920460Y-69775329D01*
X200918528Y-69777682D01*
X200893244Y-69824835D01*
X200867453Y-69871750D01*
X200866531Y-69874653D01*
X200865092Y-69877339D01*
X200849446Y-69928511D01*
X200833261Y-69979536D01*
X200832921Y-69982565D01*
X200832031Y-69985477D01*
X200826629Y-70038658D01*
X200820656Y-70091910D01*
X200820614Y-70097872D01*
X200820604Y-70097978D01*
X200820613Y-70098076D01*
X200820600Y-70100000D01*
X200820600Y-70560004D01*
X199657604Y-71723000D01*
X199621026Y-71723000D01*
X199554789Y-71656763D01*
X199450785Y-71587270D01*
X199335223Y-71539403D01*
X199212542Y-71515000D01*
X199135750Y-71515000D01*
X198977000Y-71673750D01*
X198977000Y-72275000D01*
X198997000Y-72275000D01*
X198997000Y-72525000D01*
X198977000Y-72525000D01*
X198977000Y-73073750D01*
X198977000Y-73126250D01*
X198977000Y-73675000D01*
X198997000Y-73675000D01*
X198997000Y-73925000D01*
X198977000Y-73925000D01*
X198977000Y-74526250D01*
X199135750Y-74685000D01*
X199212542Y-74685000D01*
X199335223Y-74660597D01*
X199450785Y-74612730D01*
X199554789Y-74543237D01*
X199621026Y-74477000D01*
X199692056Y-74477000D01*
X200292056Y-74477000D01*
X200374551Y-74460591D01*
X200452261Y-74428402D01*
X200522197Y-74381672D01*
X200524469Y-74379400D01*
X201815000Y-74379400D01*
X201815000Y-74414250D01*
X201973750Y-74573000D01*
X202295051Y-74573000D01*
X202325449Y-74585591D01*
X202407944Y-74602000D01*
X202492056Y-74602000D01*
X204092056Y-74602000D01*
X204174551Y-74585591D01*
X204204947Y-74573000D01*
X204526250Y-74573000D01*
X204685000Y-74414250D01*
X204685000Y-74362458D01*
X204660597Y-74239777D01*
X204612730Y-74124215D01*
X204543237Y-74020211D01*
X204477000Y-73953974D01*
X204477000Y-73582944D01*
X204460591Y-73500449D01*
X204460405Y-73500000D01*
X204460591Y-73499551D01*
X204477000Y-73417056D01*
X204477000Y-73332944D01*
X204477000Y-72782944D01*
X204460591Y-72700449D01*
X204460405Y-72700000D01*
X204460591Y-72699551D01*
X204477000Y-72617056D01*
X204477000Y-72532944D01*
X204477000Y-72079400D01*
X204660004Y-72079400D01*
X204678857Y-72098253D01*
X204697781Y-72201358D01*
X204750265Y-72333918D01*
X204827498Y-72453760D01*
X204926537Y-72556317D01*
X205043610Y-72637685D01*
X205174258Y-72694764D01*
X205313504Y-72725379D01*
X205456045Y-72728365D01*
X205596451Y-72703608D01*
X205729374Y-72652050D01*
X205849752Y-72575656D01*
X205952999Y-72477336D01*
X206026308Y-72373411D01*
X206050265Y-72433918D01*
X206127498Y-72553760D01*
X206226537Y-72656317D01*
X206343610Y-72737685D01*
X206474258Y-72794764D01*
X206613504Y-72825379D01*
X206756045Y-72828365D01*
X206896451Y-72803608D01*
X207029374Y-72752050D01*
X207149752Y-72675656D01*
X207252999Y-72577336D01*
X207335182Y-72460833D01*
X207393171Y-72330587D01*
X207424758Y-72191558D01*
X207427032Y-72028714D01*
X207399339Y-71888857D01*
X207345009Y-71757043D01*
X207266111Y-71638291D01*
X207165650Y-71537126D01*
X207047452Y-71457401D01*
X206916020Y-71402152D01*
X206797146Y-71377750D01*
X206683232Y-71263836D01*
X206699551Y-71260591D01*
X206699999Y-71260405D01*
X206700449Y-71260591D01*
X206782944Y-71277000D01*
X206867056Y-71277000D01*
X207417056Y-71277000D01*
X207499551Y-71260591D01*
X207499999Y-71260405D01*
X207500449Y-71260591D01*
X207582944Y-71277000D01*
X207667056Y-71277000D01*
X208217056Y-71277000D01*
X208299551Y-71260591D01*
X208299999Y-71260405D01*
X208300449Y-71260591D01*
X208382944Y-71277000D01*
X208467056Y-71277000D01*
X209017056Y-71277000D01*
X209099551Y-71260591D01*
X209099999Y-71260405D01*
X209100449Y-71260591D01*
X209182944Y-71277000D01*
X209267056Y-71277000D01*
X209817056Y-71277000D01*
X209899551Y-71260591D01*
X209899999Y-71260405D01*
X209900449Y-71260591D01*
X209982944Y-71277000D01*
X210067056Y-71277000D01*
X210523000Y-71277000D01*
X210523000Y-71817056D01*
X210539409Y-71899551D01*
X210539594Y-71899999D01*
X210539409Y-71900449D01*
X210523000Y-71982944D01*
X210523000Y-72067056D01*
X210523000Y-72617056D01*
X210539409Y-72699551D01*
X210539594Y-72699999D01*
X210539409Y-72700449D01*
X210523000Y-72782944D01*
X210523000Y-72867056D01*
X210523000Y-73153974D01*
X210456763Y-73220211D01*
X210387270Y-73324215D01*
X210339403Y-73439777D01*
X210315000Y-73562458D01*
X210315000Y-73614250D01*
X210473750Y-73773000D01*
X210795051Y-73773000D01*
X210825449Y-73785591D01*
X210907944Y-73802000D01*
X210992056Y-73802000D01*
X212592056Y-73802000D01*
X212674551Y-73785591D01*
X212704947Y-73773000D01*
X213026250Y-73773000D01*
X213122007Y-73677242D01*
X213153242Y-73674179D01*
X213185000Y-73671401D01*
X213206581Y-73669513D01*
X213209510Y-73668661D01*
X213212539Y-73668365D01*
X213263736Y-73652907D01*
X213315170Y-73637965D01*
X213317875Y-73636562D01*
X213320792Y-73635682D01*
X213368044Y-73610557D01*
X213415564Y-73585926D01*
X213417945Y-73584025D01*
X213420635Y-73582595D01*
X213462058Y-73548810D01*
X213503938Y-73515379D01*
X213508185Y-73511190D01*
X213508265Y-73511125D01*
X213508326Y-73511050D01*
X213509698Y-73509698D01*
X213535624Y-73483771D01*
X213515000Y-73587458D01*
X213515000Y-73664250D01*
X213673750Y-73823000D01*
X214275000Y-73823000D01*
X214275000Y-73803000D01*
X214525000Y-73803000D01*
X214525000Y-73823000D01*
X214547000Y-73823000D01*
X214547000Y-74077000D01*
X214547000Y-74077000D01*
G37*
X214547000Y-74077000D02*
X214525000Y-74077000D01*
X214525000Y-74097000D01*
X214275000Y-74097000D01*
X214275000Y-74077000D01*
X213673750Y-74077000D01*
X213563769Y-74186980D01*
X213528250Y-74167453D01*
X213525346Y-74166531D01*
X213522661Y-74165092D01*
X213471488Y-74149446D01*
X213420464Y-74133261D01*
X213417434Y-74132921D01*
X213414523Y-74132031D01*
X213361341Y-74126629D01*
X213308090Y-74120656D01*
X213302127Y-74120614D01*
X213302022Y-74120604D01*
X213301923Y-74120613D01*
X213300000Y-74120600D01*
X213185000Y-74120600D01*
X213119850Y-74120600D01*
X213026250Y-74027000D01*
X212704948Y-74027000D01*
X212674551Y-74014409D01*
X212592056Y-73998000D01*
X212507944Y-73998000D01*
X210907944Y-73998000D01*
X210825449Y-74014409D01*
X210795052Y-74027000D01*
X210473750Y-74027000D01*
X210315000Y-74185750D01*
X210315000Y-74237542D01*
X210339403Y-74360223D01*
X210387270Y-74475785D01*
X210456763Y-74579789D01*
X210523000Y-74646026D01*
X210523000Y-74753974D01*
X210456763Y-74820211D01*
X210387270Y-74924215D01*
X210339403Y-75039777D01*
X210315000Y-75162458D01*
X210315000Y-75214250D01*
X210451739Y-75350989D01*
X210407735Y-75346054D01*
X210402034Y-75346014D01*
X210401934Y-75346004D01*
X210401840Y-75346012D01*
X210400000Y-75346000D01*
X206729474Y-75346000D01*
X206691737Y-75308263D01*
X206652207Y-75275793D01*
X206612992Y-75242887D01*
X206610437Y-75241482D01*
X206608188Y-75239635D01*
X206563086Y-75215451D01*
X206518244Y-75190799D01*
X206515469Y-75189919D01*
X206512900Y-75188541D01*
X206463955Y-75173577D01*
X206415183Y-75158106D01*
X206412285Y-75157781D01*
X206409502Y-75156930D01*
X206358639Y-75151763D01*
X206307735Y-75146054D01*
X206302034Y-75146014D01*
X206301934Y-75146004D01*
X206301840Y-75146012D01*
X206300000Y-75146000D01*
X205100000Y-75146000D01*
X205049131Y-75150987D01*
X204998091Y-75155453D01*
X204995288Y-75156267D01*
X204992394Y-75156551D01*
X204943404Y-75171341D01*
X204936976Y-75173209D01*
X204833791Y-75172489D01*
X204693744Y-75199204D01*
X204634543Y-75223122D01*
X204660597Y-75160223D01*
X204685000Y-75037542D01*
X204685000Y-74985750D01*
X204526250Y-74827000D01*
X204204948Y-74827000D01*
X204174551Y-74814409D01*
X204092056Y-74798000D01*
X204007944Y-74798000D01*
X202407944Y-74798000D01*
X202325449Y-74814409D01*
X202295052Y-74827000D01*
X201973750Y-74827000D01*
X201815000Y-74985750D01*
X201815000Y-75037542D01*
X201839403Y-75160223D01*
X201887270Y-75275785D01*
X201956763Y-75379789D01*
X202023000Y-75446026D01*
X202023000Y-75817056D01*
X202039409Y-75899551D01*
X202039594Y-75899999D01*
X202039409Y-75900449D01*
X202023000Y-75982944D01*
X202023000Y-76067056D01*
X202023000Y-76617056D01*
X202039409Y-76699551D01*
X202039594Y-76699999D01*
X202039409Y-76700449D01*
X202023000Y-76782944D01*
X202023000Y-76867056D01*
X202023000Y-77417056D01*
X202039409Y-77499551D01*
X202071598Y-77577261D01*
X202118328Y-77647197D01*
X202177803Y-77706673D01*
X202247740Y-77753403D01*
X202325449Y-77785591D01*
X202407944Y-77802000D01*
X202492056Y-77802000D01*
X203998000Y-77802000D01*
X203998000Y-79392056D01*
X204014409Y-79474551D01*
X204046598Y-79552261D01*
X204093328Y-79622197D01*
X204152803Y-79681673D01*
X204188824Y-79705741D01*
X204159842Y-79748070D01*
X204103677Y-79879113D01*
X204074035Y-80018570D01*
X204072044Y-80161128D01*
X204097781Y-80301358D01*
X204150265Y-80433918D01*
X204227498Y-80553760D01*
X204246000Y-80572919D01*
X204246000Y-81110334D01*
X203937331Y-81419002D01*
X203927157Y-81418931D01*
X203787110Y-81445646D01*
X203654920Y-81499054D01*
X203535621Y-81577122D01*
X203433757Y-81676874D01*
X203363278Y-81779804D01*
X201926827Y-80343353D01*
X201927032Y-80328714D01*
X201899339Y-80188857D01*
X201845009Y-80057043D01*
X201766111Y-79938291D01*
X201665650Y-79837126D01*
X201547452Y-79757401D01*
X201416020Y-79702152D01*
X201276360Y-79673484D01*
X201133791Y-79672489D01*
X200993744Y-79699204D01*
X200861554Y-79752612D01*
X200742255Y-79830680D01*
X200640391Y-79930432D01*
X200559842Y-80048070D01*
X200521350Y-80137876D01*
X200254000Y-79870526D01*
X200254000Y-77000000D01*
X200249002Y-76949036D01*
X200244546Y-76898091D01*
X200243733Y-76895293D01*
X200243449Y-76892394D01*
X200228649Y-76843376D01*
X200214381Y-76794262D01*
X200213041Y-76791678D01*
X200212199Y-76788887D01*
X200188179Y-76743712D01*
X200164624Y-76698270D01*
X200162804Y-76695990D01*
X200161438Y-76693421D01*
X200129122Y-76653797D01*
X200097168Y-76613770D01*
X200093168Y-76609714D01*
X200093102Y-76609633D01*
X200093026Y-76609570D01*
X200091737Y-76608263D01*
X198554000Y-75070526D01*
X198554000Y-74685000D01*
X198564250Y-74685000D01*
X198723000Y-74526250D01*
X198723000Y-73925000D01*
X198703000Y-73925000D01*
X198703000Y-73675000D01*
X198723000Y-73675000D01*
X198723000Y-73126250D01*
X198723000Y-73073750D01*
X198723000Y-72525000D01*
X198703000Y-72525000D01*
X198703000Y-72275000D01*
X198723000Y-72275000D01*
X198723000Y-71673750D01*
X198564250Y-71515000D01*
X198554000Y-71515000D01*
X198554000Y-70929474D01*
X199195351Y-70288122D01*
X199197781Y-70301358D01*
X199250265Y-70433918D01*
X199327498Y-70553760D01*
X199426537Y-70656317D01*
X199543610Y-70737685D01*
X199674258Y-70794764D01*
X199813504Y-70825379D01*
X199956045Y-70828365D01*
X200096451Y-70803608D01*
X200229374Y-70752050D01*
X200349752Y-70675656D01*
X200452999Y-70577336D01*
X200535182Y-70460833D01*
X200561613Y-70401466D01*
X200580500Y-70382580D01*
X200620414Y-70333986D01*
X200660862Y-70285783D01*
X200662588Y-70282642D01*
X200664860Y-70279877D01*
X200694578Y-70224452D01*
X200724891Y-70169314D01*
X200725973Y-70165901D01*
X200727666Y-70162745D01*
X200746053Y-70102603D01*
X200765079Y-70042628D01*
X200765478Y-70039067D01*
X200766525Y-70035644D01*
X200772879Y-69973082D01*
X200779894Y-69910548D01*
X200779942Y-69903549D01*
X200779956Y-69903417D01*
X200779944Y-69903293D01*
X200779960Y-69901040D01*
X200779960Y-68523729D01*
X200799999Y-68503689D01*
X200828793Y-68532483D01*
X200898730Y-68579213D01*
X200976439Y-68611401D01*
X201058934Y-68627810D01*
X201143046Y-68627810D01*
X201943146Y-68627810D01*
X202025641Y-68611401D01*
X202100006Y-68580597D01*
X200990302Y-69690302D01*
X200956320Y-69731672D01*
X200921929Y-69772658D01*
X200920460Y-69775329D01*
X200918528Y-69777682D01*
X200893244Y-69824835D01*
X200867453Y-69871750D01*
X200866531Y-69874653D01*
X200865092Y-69877339D01*
X200849446Y-69928511D01*
X200833261Y-69979536D01*
X200832921Y-69982565D01*
X200832031Y-69985477D01*
X200826629Y-70038658D01*
X200820656Y-70091910D01*
X200820614Y-70097872D01*
X200820604Y-70097978D01*
X200820613Y-70098076D01*
X200820600Y-70100000D01*
X200820600Y-70560004D01*
X199657604Y-71723000D01*
X199621026Y-71723000D01*
X199554789Y-71656763D01*
X199450785Y-71587270D01*
X199335223Y-71539403D01*
X199212542Y-71515000D01*
X199135750Y-71515000D01*
X198977000Y-71673750D01*
X198977000Y-72275000D01*
X198997000Y-72275000D01*
X198997000Y-72525000D01*
X198977000Y-72525000D01*
X198977000Y-73073750D01*
X198977000Y-73126250D01*
X198977000Y-73675000D01*
X198997000Y-73675000D01*
X198997000Y-73925000D01*
X198977000Y-73925000D01*
X198977000Y-74526250D01*
X199135750Y-74685000D01*
X199212542Y-74685000D01*
X199335223Y-74660597D01*
X199450785Y-74612730D01*
X199554789Y-74543237D01*
X199621026Y-74477000D01*
X199692056Y-74477000D01*
X200292056Y-74477000D01*
X200374551Y-74460591D01*
X200452261Y-74428402D01*
X200522197Y-74381672D01*
X200524469Y-74379400D01*
X201815000Y-74379400D01*
X201815000Y-74414250D01*
X201973750Y-74573000D01*
X202295051Y-74573000D01*
X202325449Y-74585591D01*
X202407944Y-74602000D01*
X202492056Y-74602000D01*
X204092056Y-74602000D01*
X204174551Y-74585591D01*
X204204947Y-74573000D01*
X204526250Y-74573000D01*
X204685000Y-74414250D01*
X204685000Y-74362458D01*
X204660597Y-74239777D01*
X204612730Y-74124215D01*
X204543237Y-74020211D01*
X204477000Y-73953974D01*
X204477000Y-73582944D01*
X204460591Y-73500449D01*
X204460405Y-73500000D01*
X204460591Y-73499551D01*
X204477000Y-73417056D01*
X204477000Y-73332944D01*
X204477000Y-72782944D01*
X204460591Y-72700449D01*
X204460405Y-72700000D01*
X204460591Y-72699551D01*
X204477000Y-72617056D01*
X204477000Y-72532944D01*
X204477000Y-72079400D01*
X204660004Y-72079400D01*
X204678857Y-72098253D01*
X204697781Y-72201358D01*
X204750265Y-72333918D01*
X204827498Y-72453760D01*
X204926537Y-72556317D01*
X205043610Y-72637685D01*
X205174258Y-72694764D01*
X205313504Y-72725379D01*
X205456045Y-72728365D01*
X205596451Y-72703608D01*
X205729374Y-72652050D01*
X205849752Y-72575656D01*
X205952999Y-72477336D01*
X206026308Y-72373411D01*
X206050265Y-72433918D01*
X206127498Y-72553760D01*
X206226537Y-72656317D01*
X206343610Y-72737685D01*
X206474258Y-72794764D01*
X206613504Y-72825379D01*
X206756045Y-72828365D01*
X206896451Y-72803608D01*
X207029374Y-72752050D01*
X207149752Y-72675656D01*
X207252999Y-72577336D01*
X207335182Y-72460833D01*
X207393171Y-72330587D01*
X207424758Y-72191558D01*
X207427032Y-72028714D01*
X207399339Y-71888857D01*
X207345009Y-71757043D01*
X207266111Y-71638291D01*
X207165650Y-71537126D01*
X207047452Y-71457401D01*
X206916020Y-71402152D01*
X206797146Y-71377750D01*
X206683232Y-71263836D01*
X206699551Y-71260591D01*
X206699999Y-71260405D01*
X206700449Y-71260591D01*
X206782944Y-71277000D01*
X206867056Y-71277000D01*
X207417056Y-71277000D01*
X207499551Y-71260591D01*
X207499999Y-71260405D01*
X207500449Y-71260591D01*
X207582944Y-71277000D01*
X207667056Y-71277000D01*
X208217056Y-71277000D01*
X208299551Y-71260591D01*
X208299999Y-71260405D01*
X208300449Y-71260591D01*
X208382944Y-71277000D01*
X208467056Y-71277000D01*
X209017056Y-71277000D01*
X209099551Y-71260591D01*
X209099999Y-71260405D01*
X209100449Y-71260591D01*
X209182944Y-71277000D01*
X209267056Y-71277000D01*
X209817056Y-71277000D01*
X209899551Y-71260591D01*
X209899999Y-71260405D01*
X209900449Y-71260591D01*
X209982944Y-71277000D01*
X210067056Y-71277000D01*
X210523000Y-71277000D01*
X210523000Y-71817056D01*
X210539409Y-71899551D01*
X210539594Y-71899999D01*
X210539409Y-71900449D01*
X210523000Y-71982944D01*
X210523000Y-72067056D01*
X210523000Y-72617056D01*
X210539409Y-72699551D01*
X210539594Y-72699999D01*
X210539409Y-72700449D01*
X210523000Y-72782944D01*
X210523000Y-72867056D01*
X210523000Y-73153974D01*
X210456763Y-73220211D01*
X210387270Y-73324215D01*
X210339403Y-73439777D01*
X210315000Y-73562458D01*
X210315000Y-73614250D01*
X210473750Y-73773000D01*
X210795051Y-73773000D01*
X210825449Y-73785591D01*
X210907944Y-73802000D01*
X210992056Y-73802000D01*
X212592056Y-73802000D01*
X212674551Y-73785591D01*
X212704947Y-73773000D01*
X213026250Y-73773000D01*
X213122007Y-73677242D01*
X213153242Y-73674179D01*
X213185000Y-73671401D01*
X213206581Y-73669513D01*
X213209510Y-73668661D01*
X213212539Y-73668365D01*
X213263736Y-73652907D01*
X213315170Y-73637965D01*
X213317875Y-73636562D01*
X213320792Y-73635682D01*
X213368044Y-73610557D01*
X213415564Y-73585926D01*
X213417945Y-73584025D01*
X213420635Y-73582595D01*
X213462058Y-73548810D01*
X213503938Y-73515379D01*
X213508185Y-73511190D01*
X213508265Y-73511125D01*
X213508326Y-73511050D01*
X213509698Y-73509698D01*
X213535624Y-73483771D01*
X213515000Y-73587458D01*
X213515000Y-73664250D01*
X213673750Y-73823000D01*
X214275000Y-73823000D01*
X214275000Y-73803000D01*
X214525000Y-73803000D01*
X214525000Y-73823000D01*
X214547000Y-73823000D01*
X214547000Y-74077000D01*
G36*
X216047000Y-72977000D02*
X216025000Y-72977000D01*
X216025000Y-72997000D01*
X215775000Y-72997000D01*
X215775000Y-72977000D01*
X215753000Y-72977000D01*
X215753000Y-72723000D01*
X215775000Y-72723000D01*
X215775000Y-72703000D01*
X216025000Y-72703000D01*
X216025000Y-72723000D01*
X216047000Y-72723000D01*
X216047000Y-72977000D01*
X216047000Y-72977000D01*
G37*
X216047000Y-72977000D02*
X216025000Y-72977000D01*
X216025000Y-72997000D01*
X215775000Y-72997000D01*
X215775000Y-72977000D01*
X215753000Y-72977000D01*
X215753000Y-72723000D01*
X215775000Y-72723000D01*
X215775000Y-72703000D01*
X216025000Y-72703000D01*
X216025000Y-72723000D01*
X216047000Y-72723000D01*
X216047000Y-72977000D01*
G36*
X218023000Y-75409033D02*
X217951729Y-75331514D01*
X217714321Y-75158046D01*
X217447633Y-75034227D01*
X217161914Y-74964815D01*
X216927000Y-75109075D01*
X216927000Y-76323000D01*
X216947000Y-76323000D01*
X216947000Y-76577000D01*
X216927000Y-76577000D01*
X216927000Y-77649075D01*
X216927000Y-77790925D01*
X216927000Y-78863000D01*
X216947000Y-78863000D01*
X216947000Y-79117000D01*
X216927000Y-79117000D01*
X216927000Y-79137000D01*
X216673000Y-79137000D01*
X216673000Y-79117000D01*
X216673000Y-78863000D01*
X216673000Y-77790925D01*
X216673000Y-77649075D01*
X216673000Y-76577000D01*
X216673000Y-76323000D01*
X216673000Y-75109075D01*
X216438086Y-74964815D01*
X216152367Y-75034227D01*
X215885679Y-75158046D01*
X215648271Y-75331514D01*
X215449267Y-75547965D01*
X215296314Y-75799081D01*
X215195291Y-76075211D01*
X215192642Y-76090974D01*
X215313783Y-76323000D01*
X216673000Y-76323000D01*
X216673000Y-76577000D01*
X215313783Y-76577000D01*
X215192642Y-76809026D01*
X215195291Y-76824789D01*
X215296314Y-77100919D01*
X215449267Y-77352035D01*
X215648271Y-77568486D01*
X215855632Y-77720000D01*
X215648271Y-77871514D01*
X215449267Y-78087965D01*
X215296314Y-78339081D01*
X215195291Y-78615211D01*
X215192642Y-78630974D01*
X215313783Y-78863000D01*
X216673000Y-78863000D01*
X216673000Y-79117000D01*
X215313783Y-79117000D01*
X215192642Y-79349026D01*
X215195291Y-79364789D01*
X215296314Y-79640919D01*
X215449267Y-79892035D01*
X215648271Y-80108486D01*
X215885679Y-80281954D01*
X216081198Y-80372730D01*
X215926411Y-80455032D01*
X215731217Y-80614228D01*
X215570662Y-80808306D01*
X215450861Y-81029872D01*
X215379400Y-81260726D01*
X215379400Y-81050000D01*
X215374179Y-80996757D01*
X215369513Y-80943419D01*
X215368661Y-80940489D01*
X215368365Y-80937461D01*
X215352907Y-80886263D01*
X215337965Y-80834830D01*
X215336562Y-80832124D01*
X215335682Y-80829208D01*
X215310557Y-80781955D01*
X215285926Y-80734436D01*
X215284025Y-80732055D01*
X215282595Y-80729365D01*
X215248790Y-80687916D01*
X215215379Y-80646063D01*
X215211194Y-80641820D01*
X215211125Y-80641735D01*
X215211045Y-80641669D01*
X215209698Y-80640303D01*
X214327000Y-79757604D01*
X214327000Y-79407944D01*
X214310591Y-79325449D01*
X214278402Y-79247739D01*
X214231672Y-79177803D01*
X214172197Y-79118327D01*
X214102260Y-79071597D01*
X214024551Y-79039409D01*
X213942056Y-79023000D01*
X213857944Y-79023000D01*
X213357944Y-79023000D01*
X213311854Y-79032167D01*
X213297169Y-79013771D01*
X213293168Y-79009714D01*
X213293102Y-79009633D01*
X213293026Y-79009570D01*
X213291737Y-79008263D01*
X212791737Y-78508263D01*
X212752207Y-78475793D01*
X212712992Y-78442887D01*
X212710437Y-78441482D01*
X212708188Y-78439635D01*
X212663086Y-78415451D01*
X212618244Y-78390799D01*
X212615469Y-78389919D01*
X212612900Y-78388541D01*
X212563955Y-78373577D01*
X212515183Y-78358106D01*
X212512285Y-78357781D01*
X212509502Y-78356930D01*
X212458639Y-78351763D01*
X212407735Y-78346054D01*
X212402034Y-78346014D01*
X212401934Y-78346004D01*
X212401840Y-78346012D01*
X212400000Y-78346000D01*
X212200000Y-78346000D01*
X211500000Y-78346000D01*
X211449036Y-78350997D01*
X211398091Y-78355454D01*
X211395293Y-78356266D01*
X211392394Y-78356551D01*
X211343376Y-78371350D01*
X211294262Y-78385619D01*
X211291678Y-78386958D01*
X211288887Y-78387801D01*
X211243712Y-78411820D01*
X211198270Y-78435376D01*
X211195990Y-78437195D01*
X211193421Y-78438562D01*
X211153797Y-78470877D01*
X211113770Y-78502832D01*
X211109714Y-78506831D01*
X211109633Y-78506898D01*
X211109570Y-78506973D01*
X211108263Y-78508263D01*
X211002000Y-78614526D01*
X211002000Y-77802000D01*
X212592056Y-77802000D01*
X212674551Y-77785591D01*
X212752261Y-77753402D01*
X212822197Y-77706672D01*
X212881673Y-77647197D01*
X212928403Y-77577260D01*
X212960591Y-77499551D01*
X212977000Y-77417056D01*
X212977000Y-77332944D01*
X212977000Y-76782944D01*
X212960591Y-76700449D01*
X212960405Y-76700000D01*
X212960591Y-76699551D01*
X212977000Y-76617056D01*
X212977000Y-76532944D01*
X212977000Y-76246026D01*
X213043237Y-76179789D01*
X213112730Y-76075785D01*
X213160597Y-75960223D01*
X213185000Y-75837542D01*
X213185000Y-75785750D01*
X213026250Y-75627000D01*
X212704948Y-75627000D01*
X212674551Y-75614409D01*
X212592056Y-75598000D01*
X212507944Y-75598000D01*
X211603000Y-75598000D01*
X211603000Y-75402000D01*
X212592056Y-75402000D01*
X212674551Y-75385591D01*
X212704947Y-75373000D01*
X213026250Y-75373000D01*
X213089927Y-75309322D01*
X213440302Y-75659697D01*
X213481642Y-75693654D01*
X213522658Y-75728071D01*
X213525329Y-75729539D01*
X213527682Y-75731472D01*
X213574835Y-75756755D01*
X213621750Y-75782547D01*
X213624653Y-75783468D01*
X213627339Y-75784908D01*
X213678511Y-75800553D01*
X213729536Y-75816739D01*
X213732565Y-75817078D01*
X213735477Y-75817969D01*
X213788662Y-75823371D01*
X213841910Y-75829344D01*
X213847871Y-75829385D01*
X213847977Y-75829396D01*
X213848075Y-75829386D01*
X213850000Y-75829400D01*
X214600000Y-75829400D01*
X214653242Y-75824179D01*
X214706581Y-75819513D01*
X214709510Y-75818661D01*
X214712539Y-75818365D01*
X214763736Y-75802907D01*
X214815170Y-75787965D01*
X214817875Y-75786562D01*
X214820792Y-75785682D01*
X214868044Y-75760557D01*
X214915564Y-75735926D01*
X214917945Y-75734025D01*
X214920635Y-75732595D01*
X214962058Y-75698810D01*
X215003938Y-75665379D01*
X215008185Y-75661190D01*
X215008265Y-75661125D01*
X215008326Y-75661050D01*
X215009698Y-75659698D01*
X215992395Y-74677000D01*
X216192056Y-74677000D01*
X216274551Y-74660591D01*
X216352261Y-74628402D01*
X216422197Y-74581672D01*
X216474469Y-74529400D01*
X216750000Y-74529400D01*
X216803242Y-74524179D01*
X216856581Y-74519513D01*
X216859510Y-74518661D01*
X216862539Y-74518365D01*
X216913736Y-74502907D01*
X216965170Y-74487965D01*
X216967875Y-74486562D01*
X216970792Y-74485682D01*
X217018044Y-74460557D01*
X217065564Y-74435926D01*
X217067945Y-74434025D01*
X217070635Y-74432595D01*
X217112058Y-74398810D01*
X217153938Y-74365379D01*
X217158185Y-74361190D01*
X217158265Y-74361125D01*
X217158326Y-74361050D01*
X217159698Y-74359698D01*
X217409697Y-74109698D01*
X217443654Y-74068357D01*
X217478071Y-74027342D01*
X217479539Y-74024670D01*
X217481472Y-74022318D01*
X217506755Y-73975164D01*
X217532547Y-73928250D01*
X217533468Y-73925346D01*
X217534908Y-73922661D01*
X217550553Y-73871488D01*
X217566739Y-73820464D01*
X217567078Y-73817434D01*
X217567969Y-73814523D01*
X217573371Y-73761337D01*
X217579344Y-73708090D01*
X217579385Y-73702128D01*
X217579396Y-73702023D01*
X217579386Y-73701924D01*
X217579400Y-73700000D01*
X217579400Y-72200000D01*
X217574179Y-72146757D01*
X217569513Y-72093419D01*
X217568661Y-72090489D01*
X217568365Y-72087461D01*
X217552907Y-72036263D01*
X217537965Y-71984830D01*
X217536562Y-71982124D01*
X217535682Y-71979208D01*
X217510557Y-71931955D01*
X217485926Y-71884436D01*
X217484025Y-71882055D01*
X217482595Y-71879365D01*
X217448790Y-71837916D01*
X217415379Y-71796063D01*
X217411191Y-71791816D01*
X217411125Y-71791735D01*
X217411049Y-71791672D01*
X217409698Y-71790302D01*
X216909698Y-71290302D01*
X216868327Y-71256320D01*
X216827342Y-71221929D01*
X216824670Y-71220460D01*
X216822318Y-71218528D01*
X216775164Y-71193244D01*
X216728250Y-71167453D01*
X216725346Y-71166531D01*
X216722661Y-71165092D01*
X216671488Y-71149446D01*
X216620464Y-71133261D01*
X216617434Y-71132921D01*
X216614523Y-71132031D01*
X216561341Y-71126629D01*
X216508090Y-71120656D01*
X216502127Y-71120614D01*
X216502022Y-71120604D01*
X216501923Y-71120613D01*
X216500000Y-71120600D01*
X216295440Y-71120600D01*
X216324758Y-70991558D01*
X216327032Y-70828714D01*
X216299339Y-70688857D01*
X216245009Y-70557043D01*
X216166111Y-70438291D01*
X216065650Y-70337126D01*
X215947452Y-70257401D01*
X215816020Y-70202152D01*
X215676360Y-70173484D01*
X215533791Y-70172489D01*
X215393744Y-70199204D01*
X215261554Y-70252612D01*
X215229400Y-70273653D01*
X215229400Y-68100000D01*
X215227000Y-68075523D01*
X215227000Y-67057944D01*
X215210591Y-66975449D01*
X215178402Y-66897739D01*
X215131672Y-66827803D01*
X215072197Y-66768327D01*
X215002260Y-66721597D01*
X214924551Y-66689409D01*
X214842056Y-66673000D01*
X214757944Y-66673000D01*
X214457944Y-66673000D01*
X214375449Y-66689409D01*
X214347183Y-66701117D01*
X214343237Y-66695211D01*
X214254789Y-66606763D01*
X214150785Y-66537270D01*
X214035223Y-66489403D01*
X213930231Y-66468518D01*
X213775000Y-66623750D01*
X213775000Y-67973000D01*
X213847000Y-67973000D01*
X213847000Y-68227000D01*
X213775000Y-68227000D01*
X213775000Y-69576250D01*
X213930231Y-69731481D01*
X214035223Y-69710597D01*
X214070600Y-69695943D01*
X214070600Y-70510004D01*
X212977000Y-71603604D01*
X212977000Y-71182944D01*
X212961977Y-71107418D01*
X213159698Y-70909697D01*
X213193640Y-70868374D01*
X213228071Y-70827342D01*
X213229541Y-70824667D01*
X213231472Y-70822317D01*
X213256744Y-70775185D01*
X213282547Y-70728250D01*
X213283468Y-70725346D01*
X213284908Y-70722661D01*
X213300566Y-70671446D01*
X213316739Y-70620464D01*
X213317078Y-70617439D01*
X213317970Y-70614523D01*
X213323381Y-70561247D01*
X213329344Y-70508090D01*
X213329385Y-70502138D01*
X213329397Y-70502022D01*
X213329386Y-70501913D01*
X213329400Y-70500000D01*
X213329400Y-69695943D01*
X213364777Y-69710597D01*
X213469768Y-69731481D01*
X213625000Y-69576250D01*
X213625000Y-68227000D01*
X213553000Y-68227000D01*
X213553000Y-67973000D01*
X213625000Y-67973000D01*
X213625000Y-66623750D01*
X213469768Y-66468518D01*
X213364777Y-66489403D01*
X213249215Y-66537270D01*
X213145211Y-66606763D01*
X213056763Y-66695211D01*
X213052816Y-66701117D01*
X213024551Y-66689409D01*
X212942056Y-66673000D01*
X212857944Y-66673000D01*
X212557944Y-66673000D01*
X212475449Y-66689409D01*
X212397739Y-66721598D01*
X212327803Y-66768328D01*
X212268327Y-66827803D01*
X212221597Y-66897740D01*
X212189409Y-66975449D01*
X212173000Y-67057944D01*
X212173000Y-67142056D01*
X212173000Y-68071013D01*
X212170656Y-68091910D01*
X212170600Y-68100000D01*
X212170600Y-70260004D01*
X211632604Y-70798000D01*
X211002000Y-70798000D01*
X211002000Y-69207944D01*
X210985591Y-69125449D01*
X210953402Y-69047739D01*
X210906672Y-68977803D01*
X210879400Y-68950530D01*
X210879400Y-68539995D01*
X211709698Y-67709697D01*
X211743640Y-67668374D01*
X211778071Y-67627342D01*
X211779541Y-67624667D01*
X211781472Y-67622317D01*
X211806744Y-67575185D01*
X211832547Y-67528250D01*
X211833468Y-67525346D01*
X211834908Y-67522661D01*
X211850566Y-67471446D01*
X211866739Y-67420464D01*
X211867078Y-67417439D01*
X211867970Y-67414523D01*
X211873381Y-67361247D01*
X211879344Y-67308090D01*
X211879385Y-67302138D01*
X211879397Y-67302022D01*
X211879386Y-67301913D01*
X211879400Y-67300000D01*
X211879400Y-67235446D01*
X211901041Y-67226482D01*
X211970977Y-67179752D01*
X212030453Y-67120277D01*
X212077183Y-67050340D01*
X212109371Y-66972631D01*
X212125780Y-66890136D01*
X212125780Y-66806024D01*
X212125780Y-66008464D01*
X212109371Y-65925969D01*
X212077182Y-65848259D01*
X212030452Y-65778323D01*
X211970977Y-65718847D01*
X211942769Y-65699999D01*
X211970977Y-65681152D01*
X212030453Y-65621677D01*
X212077183Y-65551740D01*
X212109371Y-65474031D01*
X212125780Y-65391536D01*
X212125780Y-65307424D01*
X212125780Y-64509864D01*
X212109371Y-64427369D01*
X212077182Y-64349659D01*
X212030452Y-64279723D01*
X211970977Y-64220247D01*
X211901040Y-64173517D01*
X211879400Y-64164553D01*
X211879400Y-63927000D01*
X212092056Y-63927000D01*
X212174551Y-63910591D01*
X212252261Y-63878402D01*
X212322197Y-63831672D01*
X212381673Y-63772197D01*
X212428403Y-63702260D01*
X212460591Y-63624551D01*
X212477000Y-63542056D01*
X212477000Y-63457944D01*
X212477000Y-62957944D01*
X212460591Y-62875449D01*
X212428402Y-62797739D01*
X212381672Y-62727803D01*
X212322197Y-62668327D01*
X212252260Y-62621597D01*
X212228791Y-62611876D01*
X212235223Y-62610597D01*
X212350785Y-62562730D01*
X212454789Y-62493237D01*
X212543237Y-62404789D01*
X212612730Y-62300785D01*
X212660597Y-62185223D01*
X212685000Y-62062542D01*
X212685000Y-62033750D01*
X212685000Y-61466250D01*
X212685000Y-61437458D01*
X212660597Y-61314777D01*
X212612730Y-61199215D01*
X212543237Y-61095211D01*
X212454789Y-61006763D01*
X212350785Y-60937270D01*
X212235223Y-60889403D01*
X212112542Y-60865000D01*
X211987458Y-60865000D01*
X211885750Y-60865000D01*
X211727000Y-61023750D01*
X211727000Y-61625000D01*
X212526250Y-61625000D01*
X212685000Y-61466250D01*
X212685000Y-62033750D01*
X212526250Y-61875000D01*
X211727000Y-61875000D01*
X211727000Y-61897000D01*
X211473000Y-61897000D01*
X211473000Y-61875000D01*
X211473000Y-61625000D01*
X211473000Y-61023750D01*
X211314250Y-60865000D01*
X211212542Y-60865000D01*
X211087458Y-60865000D01*
X210964777Y-60889403D01*
X210849215Y-60937270D01*
X210745211Y-61006763D01*
X210656763Y-61095211D01*
X210587270Y-61199215D01*
X210550000Y-61289193D01*
X210512730Y-61199215D01*
X210443237Y-61095211D01*
X210354789Y-61006763D01*
X210250785Y-60937270D01*
X210135223Y-60889403D01*
X210012542Y-60865000D01*
X209887458Y-60865000D01*
X209785750Y-60865000D01*
X209627000Y-61023750D01*
X209627000Y-61625000D01*
X210426250Y-61625000D01*
X210550000Y-61501250D01*
X210673750Y-61625000D01*
X211473000Y-61625000D01*
X211473000Y-61875000D01*
X210673750Y-61875000D01*
X210550000Y-61998750D01*
X210426250Y-61875000D01*
X209627000Y-61875000D01*
X209627000Y-61897000D01*
X209373000Y-61897000D01*
X209373000Y-61875000D01*
X209373000Y-61625000D01*
X209373000Y-61023750D01*
X209214250Y-60865000D01*
X209112542Y-60865000D01*
X208987458Y-60865000D01*
X208864777Y-60889403D01*
X208749215Y-60937270D01*
X208645211Y-61006763D01*
X208556763Y-61095211D01*
X208487270Y-61199215D01*
X208439403Y-61314777D01*
X208415000Y-61437458D01*
X208415000Y-61466250D01*
X208573750Y-61625000D01*
X209373000Y-61625000D01*
X209373000Y-61875000D01*
X208573750Y-61875000D01*
X208415000Y-62033750D01*
X208415000Y-62062542D01*
X208439403Y-62185223D01*
X208487270Y-62300785D01*
X208556763Y-62404789D01*
X208645211Y-62493237D01*
X208749215Y-62562730D01*
X208864777Y-62610597D01*
X208871208Y-62611876D01*
X208847739Y-62621598D01*
X208777803Y-62668328D01*
X208718327Y-62727803D01*
X208671597Y-62797740D01*
X208639409Y-62875449D01*
X208623000Y-62957944D01*
X208623000Y-63042056D01*
X208623000Y-63542056D01*
X208639409Y-63624551D01*
X208671598Y-63702261D01*
X208718328Y-63772197D01*
X208777803Y-63831673D01*
X208847740Y-63878403D01*
X208920600Y-63908582D01*
X208920600Y-64164553D01*
X208898959Y-64173518D01*
X208829023Y-64220248D01*
X208769547Y-64279723D01*
X208722817Y-64349660D01*
X208690629Y-64427369D01*
X208674220Y-64509864D01*
X208674220Y-64593976D01*
X208674220Y-65391536D01*
X208690629Y-65474031D01*
X208722818Y-65551741D01*
X208769548Y-65621677D01*
X208829023Y-65681153D01*
X208857230Y-65700000D01*
X208829023Y-65718848D01*
X208769547Y-65778323D01*
X208722817Y-65848260D01*
X208690629Y-65925969D01*
X208674220Y-66008464D01*
X208674220Y-66092576D01*
X208674220Y-66890136D01*
X208690629Y-66972631D01*
X208693448Y-66979437D01*
X208666111Y-66938291D01*
X208565650Y-66837126D01*
X208447452Y-66757401D01*
X208400921Y-66737841D01*
X208281000Y-66617920D01*
X208281000Y-63850000D01*
X208277000Y-63809206D01*
X208277000Y-63521026D01*
X208343237Y-63454789D01*
X208412730Y-63350785D01*
X208460597Y-63235223D01*
X208485000Y-63112542D01*
X208485000Y-63035750D01*
X208485000Y-62464250D01*
X208485000Y-62387458D01*
X208460597Y-62264777D01*
X208412730Y-62149215D01*
X208343237Y-62045211D01*
X208254789Y-61956763D01*
X208150785Y-61887270D01*
X208035223Y-61839403D01*
X207912542Y-61815000D01*
X207883750Y-61815000D01*
X207725000Y-61973750D01*
X207725000Y-62623000D01*
X208326250Y-62623000D01*
X208485000Y-62464250D01*
X208485000Y-63035750D01*
X208326250Y-62877000D01*
X207725000Y-62877000D01*
X207725000Y-62897000D01*
X207475000Y-62897000D01*
X207475000Y-62877000D01*
X207475000Y-62623000D01*
X207475000Y-61973750D01*
X207316250Y-61815000D01*
X207287458Y-61815000D01*
X207164777Y-61839403D01*
X207049215Y-61887270D01*
X206945211Y-61956763D01*
X206856763Y-62045211D01*
X206787270Y-62149215D01*
X206739403Y-62264777D01*
X206715000Y-62387458D01*
X206715000Y-62464250D01*
X206873750Y-62623000D01*
X207475000Y-62623000D01*
X207475000Y-62877000D01*
X206873750Y-62877000D01*
X206715000Y-63035750D01*
X206715000Y-63112542D01*
X206725733Y-63166500D01*
X206451000Y-63166500D01*
X206451000Y-62524635D01*
X206502261Y-62503402D01*
X206572197Y-62456672D01*
X206631673Y-62397197D01*
X206678403Y-62327260D01*
X206710591Y-62249551D01*
X206727000Y-62167056D01*
X206727000Y-62082944D01*
X206727000Y-60832944D01*
X206710591Y-60750449D01*
X206678402Y-60672739D01*
X206631672Y-60602803D01*
X206572197Y-60543327D01*
X206502260Y-60496597D01*
X206424551Y-60464409D01*
X206342056Y-60448000D01*
X206257944Y-60448000D01*
X205257944Y-60448000D01*
X205175449Y-60464409D01*
X205097739Y-60496598D01*
X205027803Y-60543328D01*
X204968327Y-60602803D01*
X204921597Y-60672740D01*
X204911876Y-60696208D01*
X204910597Y-60689777D01*
X204862730Y-60574215D01*
X204793237Y-60470211D01*
X204704789Y-60381763D01*
X204600785Y-60312270D01*
X204485223Y-60264403D01*
X204362542Y-60240000D01*
X204085750Y-60240000D01*
X203927000Y-60398750D01*
X203927000Y-61373000D01*
X203947000Y-61373000D01*
X203947000Y-61627000D01*
X203927000Y-61627000D01*
X203927000Y-62601250D01*
X204085750Y-62760000D01*
X204362542Y-62760000D01*
X204485223Y-62735597D01*
X204600785Y-62687730D01*
X204704789Y-62618237D01*
X204793237Y-62529789D01*
X204862730Y-62425785D01*
X204910597Y-62310223D01*
X204911876Y-62303791D01*
X204921598Y-62327261D01*
X204968328Y-62397197D01*
X205027803Y-62456673D01*
X205089000Y-62497563D01*
X205089000Y-63289630D01*
X205057327Y-63321303D01*
X205010597Y-63391240D01*
X204978409Y-63468949D01*
X204962000Y-63551444D01*
X204962000Y-63635556D01*
X204962000Y-64143556D01*
X204978409Y-64226051D01*
X205010598Y-64303761D01*
X205057328Y-64373697D01*
X205116803Y-64433173D01*
X205186740Y-64479903D01*
X205264449Y-64512091D01*
X205346944Y-64528500D01*
X205431056Y-64528500D01*
X205770000Y-64528500D01*
X206193056Y-64528500D01*
X206919000Y-64528500D01*
X206919000Y-66861604D01*
X205960004Y-67820600D01*
X205941516Y-67820600D01*
X205960591Y-67774551D01*
X205977000Y-67692056D01*
X205977000Y-67607944D01*
X205977000Y-67492396D01*
X206179698Y-67289698D01*
X206213679Y-67248327D01*
X206248071Y-67207342D01*
X206249539Y-67204670D01*
X206251472Y-67202318D01*
X206276755Y-67155164D01*
X206302547Y-67108250D01*
X206303468Y-67105346D01*
X206304908Y-67102661D01*
X206320553Y-67051488D01*
X206336739Y-67000464D01*
X206337078Y-66997434D01*
X206337969Y-66994523D01*
X206343370Y-66941341D01*
X206349344Y-66888090D01*
X206349385Y-66882127D01*
X206349396Y-66882022D01*
X206349386Y-66881923D01*
X206349400Y-66880000D01*
X206349400Y-66386501D01*
X206353261Y-66384902D01*
X206423197Y-66338172D01*
X206482673Y-66278697D01*
X206529403Y-66208760D01*
X206561591Y-66131051D01*
X206578000Y-66048556D01*
X206578000Y-65964444D01*
X206578000Y-65456444D01*
X206561591Y-65373949D01*
X206529402Y-65296239D01*
X206482672Y-65226303D01*
X206423197Y-65166827D01*
X206353260Y-65120097D01*
X206275551Y-65087909D01*
X206193056Y-65071500D01*
X206108944Y-65071500D01*
X205346944Y-65071500D01*
X205264449Y-65087909D01*
X205186739Y-65120098D01*
X205116803Y-65166828D01*
X205057327Y-65226303D01*
X205010597Y-65296240D01*
X204978409Y-65373949D01*
X204962000Y-65456444D01*
X204962000Y-65540556D01*
X204962000Y-66048556D01*
X204978409Y-66131051D01*
X205010598Y-66208761D01*
X205057328Y-66278697D01*
X205116803Y-66338173D01*
X205186740Y-66384903D01*
X205190600Y-66386501D01*
X205190600Y-66640004D01*
X205107604Y-66723000D01*
X204921026Y-66723000D01*
X204854789Y-66656763D01*
X204750785Y-66587270D01*
X204635223Y-66539403D01*
X204512542Y-66515000D01*
X204435750Y-66515000D01*
X204277000Y-66673750D01*
X204277000Y-67275000D01*
X204297000Y-67275000D01*
X204297000Y-67525000D01*
X204277000Y-67525000D01*
X204277000Y-67547000D01*
X204246000Y-67547000D01*
X204246000Y-65116542D01*
X204246000Y-65085750D01*
X204087250Y-64927000D01*
X203357000Y-64927000D01*
X203357000Y-64947000D01*
X203103000Y-64947000D01*
X203103000Y-64927000D01*
X203083000Y-64927000D01*
X203083000Y-64673000D01*
X203103000Y-64673000D01*
X203103000Y-64653000D01*
X203357000Y-64653000D01*
X203357000Y-64673000D01*
X204087250Y-64673000D01*
X204246000Y-64514250D01*
X204246000Y-64483458D01*
X204221597Y-64360777D01*
X204173730Y-64245215D01*
X204104237Y-64141211D01*
X204038000Y-64074974D01*
X204038000Y-64059444D01*
X204038000Y-63551444D01*
X204021591Y-63468949D01*
X203989402Y-63391239D01*
X203942672Y-63321303D01*
X203883197Y-63261827D01*
X203813260Y-63215097D01*
X203735551Y-63182909D01*
X203673000Y-63170467D01*
X203673000Y-62601250D01*
X203673000Y-61627000D01*
X203673000Y-61373000D01*
X203673000Y-60398750D01*
X203514250Y-60240000D01*
X203237458Y-60240000D01*
X203114777Y-60264403D01*
X202999215Y-60312270D01*
X202895211Y-60381763D01*
X202806763Y-60470211D01*
X202737270Y-60574215D01*
X202689403Y-60689777D01*
X202665000Y-60812458D01*
X202665000Y-60937542D01*
X202665000Y-61214250D01*
X202823750Y-61373000D01*
X203673000Y-61373000D01*
X203673000Y-61627000D01*
X202823750Y-61627000D01*
X202665000Y-61785750D01*
X202665000Y-62062458D01*
X202665000Y-62187542D01*
X202689403Y-62310223D01*
X202737270Y-62425785D01*
X202806763Y-62529789D01*
X202895211Y-62618237D01*
X202999215Y-62687730D01*
X203114777Y-62735597D01*
X203237458Y-62760000D01*
X203514250Y-62760000D01*
X203673000Y-62601250D01*
X203673000Y-63170467D01*
X203653056Y-63166500D01*
X203568944Y-63166500D01*
X203511653Y-63166500D01*
X203465446Y-63128545D01*
X203417243Y-63088098D01*
X203414102Y-63086371D01*
X203411337Y-63084100D01*
X203355912Y-63054381D01*
X203300774Y-63024069D01*
X203297361Y-63022986D01*
X203294205Y-63021294D01*
X203234063Y-63002906D01*
X203174088Y-62983881D01*
X203170527Y-62983481D01*
X203167104Y-62982435D01*
X203104542Y-62976080D01*
X203042008Y-62969066D01*
X203035009Y-62969017D01*
X203034877Y-62969004D01*
X203034753Y-62969015D01*
X203032500Y-62969000D01*
X202573769Y-62969000D01*
X202585000Y-62912542D01*
X202585000Y-62835750D01*
X202585000Y-62264250D01*
X202585000Y-62187458D01*
X202560597Y-62064777D01*
X202512730Y-61949215D01*
X202443237Y-61845211D01*
X202354789Y-61756763D01*
X202250785Y-61687270D01*
X202135223Y-61639403D01*
X202012542Y-61615000D01*
X201983750Y-61615000D01*
X201825000Y-61773750D01*
X201825000Y-62423000D01*
X202426250Y-62423000D01*
X202585000Y-62264250D01*
X202585000Y-62835750D01*
X202426250Y-62677000D01*
X201825000Y-62677000D01*
X201825000Y-62697000D01*
X201575000Y-62697000D01*
X201575000Y-62677000D01*
X201575000Y-62423000D01*
X201575000Y-61773750D01*
X201416250Y-61615000D01*
X201387458Y-61615000D01*
X201264777Y-61639403D01*
X201149215Y-61687270D01*
X201045211Y-61756763D01*
X200956763Y-61845211D01*
X200935000Y-61877781D01*
X200935000Y-61162542D01*
X200935000Y-60885750D01*
X200935000Y-60314250D01*
X200935000Y-60037458D01*
X200910597Y-59914777D01*
X200862730Y-59799215D01*
X200793237Y-59695211D01*
X200704789Y-59606763D01*
X200600785Y-59537270D01*
X200485223Y-59489403D01*
X200362542Y-59465000D01*
X200237458Y-59465000D01*
X199785750Y-59465000D01*
X199627000Y-59623750D01*
X199627000Y-60473000D01*
X200776250Y-60473000D01*
X200935000Y-60314250D01*
X200935000Y-60885750D01*
X200776250Y-60727000D01*
X199627000Y-60727000D01*
X199627000Y-61576250D01*
X199785750Y-61735000D01*
X200237458Y-61735000D01*
X200362542Y-61735000D01*
X200485223Y-61710597D01*
X200600785Y-61662730D01*
X200704789Y-61593237D01*
X200793237Y-61504789D01*
X200862730Y-61400785D01*
X200910597Y-61285223D01*
X200935000Y-61162542D01*
X200935000Y-61877781D01*
X200887270Y-61949215D01*
X200839403Y-62064777D01*
X200815000Y-62187458D01*
X200815000Y-62264250D01*
X200973750Y-62423000D01*
X201575000Y-62423000D01*
X201575000Y-62677000D01*
X200973750Y-62677000D01*
X200815000Y-62835750D01*
X200815000Y-62912542D01*
X200816284Y-62919000D01*
X200687208Y-62919000D01*
X200678402Y-62897739D01*
X200631672Y-62827803D01*
X200572197Y-62768327D01*
X200502260Y-62721597D01*
X200424551Y-62689409D01*
X200342056Y-62673000D01*
X200257944Y-62673000D01*
X199373000Y-62673000D01*
X199373000Y-61576250D01*
X199373000Y-60727000D01*
X199373000Y-60473000D01*
X199373000Y-59623750D01*
X199214250Y-59465000D01*
X198762542Y-59465000D01*
X198637458Y-59465000D01*
X198514777Y-59489403D01*
X198399215Y-59537270D01*
X198295211Y-59606763D01*
X198206763Y-59695211D01*
X198137270Y-59799215D01*
X198089403Y-59914777D01*
X198065000Y-60037458D01*
X198065000Y-60314250D01*
X198223750Y-60473000D01*
X199373000Y-60473000D01*
X199373000Y-60727000D01*
X198223750Y-60727000D01*
X198065000Y-60885750D01*
X198065000Y-61162542D01*
X198089403Y-61285223D01*
X198137270Y-61400785D01*
X198206763Y-61504789D01*
X198295211Y-61593237D01*
X198399215Y-61662730D01*
X198514777Y-61710597D01*
X198637458Y-61735000D01*
X198762542Y-61735000D01*
X199214250Y-61735000D01*
X199373000Y-61576250D01*
X199373000Y-62673000D01*
X198657944Y-62673000D01*
X198575449Y-62689409D01*
X198497739Y-62721598D01*
X198427803Y-62768328D01*
X198368327Y-62827803D01*
X198321597Y-62897740D01*
X198289409Y-62975449D01*
X198273000Y-63057944D01*
X198273000Y-63142056D01*
X198273000Y-64142056D01*
X198289409Y-64224551D01*
X198321598Y-64302261D01*
X198368328Y-64372197D01*
X198427803Y-64431673D01*
X198497740Y-64478403D01*
X198575449Y-64510591D01*
X198657944Y-64527000D01*
X198742056Y-64527000D01*
X200342056Y-64527000D01*
X200424551Y-64510591D01*
X200502261Y-64478402D01*
X200572197Y-64431672D01*
X200631673Y-64372197D01*
X200678403Y-64302260D01*
X200687209Y-64281000D01*
X201177130Y-64281000D01*
X201177803Y-64281673D01*
X201247740Y-64328403D01*
X201325449Y-64360591D01*
X201407944Y-64377000D01*
X201492056Y-64377000D01*
X201519000Y-64377000D01*
X201519000Y-65116810D01*
X201472247Y-65070057D01*
X201402310Y-65023327D01*
X201324601Y-64991139D01*
X201242106Y-64974730D01*
X201157994Y-64974730D01*
X200357894Y-64974730D01*
X200275399Y-64991139D01*
X200197689Y-65023328D01*
X200127753Y-65070058D01*
X200068277Y-65129533D01*
X200021547Y-65199470D01*
X199989359Y-65277179D01*
X199972950Y-65359674D01*
X199972950Y-65443786D01*
X199972950Y-65541244D01*
X199934689Y-65664846D01*
X199920797Y-65797026D01*
X199932842Y-65929387D01*
X199970368Y-66056887D01*
X199972950Y-66061825D01*
X199972950Y-66243886D01*
X199989359Y-66326381D01*
X200021548Y-66404091D01*
X200068278Y-66474027D01*
X200127753Y-66533503D01*
X200197690Y-66580233D01*
X200275399Y-66612421D01*
X200357894Y-66628830D01*
X200442006Y-66628830D01*
X201242106Y-66628830D01*
X201324601Y-66612421D01*
X201402311Y-66580232D01*
X201472247Y-66533502D01*
X201522969Y-66482780D01*
X203180720Y-66482780D01*
X203243292Y-66476644D01*
X203305990Y-66471159D01*
X203309430Y-66470159D01*
X203312994Y-66469810D01*
X203373247Y-66451618D01*
X203433622Y-66434078D01*
X203434737Y-66433500D01*
X203653056Y-66433500D01*
X203735551Y-66417091D01*
X203813261Y-66384902D01*
X203883197Y-66338172D01*
X203942673Y-66278697D01*
X203989403Y-66208760D01*
X204021591Y-66131051D01*
X204038000Y-66048556D01*
X204038000Y-65964444D01*
X204038000Y-65525026D01*
X204104237Y-65458789D01*
X204173730Y-65354785D01*
X204221597Y-65239223D01*
X204246000Y-65116542D01*
X204246000Y-67547000D01*
X204023000Y-67547000D01*
X204023000Y-67525000D01*
X204023000Y-67275000D01*
X204023000Y-66673750D01*
X203864250Y-66515000D01*
X203787458Y-66515000D01*
X203664777Y-66539403D01*
X203549215Y-66587270D01*
X203445211Y-66656763D01*
X203356763Y-66745211D01*
X203287270Y-66849215D01*
X203239403Y-66964777D01*
X203215000Y-67087458D01*
X203215000Y-67116250D01*
X203373750Y-67275000D01*
X204023000Y-67275000D01*
X204023000Y-67525000D01*
X203373750Y-67525000D01*
X203215000Y-67683750D01*
X203215000Y-67712542D01*
X203236494Y-67820600D01*
X203100000Y-67820600D01*
X203046762Y-67825820D01*
X202993418Y-67830487D01*
X202990488Y-67831338D01*
X202987461Y-67831635D01*
X202936288Y-67847084D01*
X202884829Y-67862035D01*
X202882121Y-67863438D01*
X202879208Y-67864318D01*
X202831974Y-67889432D01*
X202784436Y-67914074D01*
X202782054Y-67915974D01*
X202779365Y-67917405D01*
X202737941Y-67951189D01*
X202696062Y-67984621D01*
X202691814Y-67988809D01*
X202691735Y-67988875D01*
X202691673Y-67988949D01*
X202690302Y-67990302D01*
X202280878Y-68399725D01*
X202311681Y-68325361D01*
X202328090Y-68242866D01*
X202328090Y-68158754D01*
X202328090Y-67358654D01*
X202311681Y-67276159D01*
X202279492Y-67198449D01*
X202232762Y-67128513D01*
X202173287Y-67069037D01*
X202103350Y-67022307D01*
X202025641Y-66990119D01*
X201943146Y-66973710D01*
X201859034Y-66973710D01*
X201058934Y-66973710D01*
X200976439Y-66990119D01*
X200898729Y-67022308D01*
X200828793Y-67069038D01*
X200800000Y-67097830D01*
X200771207Y-67069037D01*
X200701270Y-67022307D01*
X200623561Y-66990119D01*
X200541066Y-66973710D01*
X200456954Y-66973710D01*
X199656854Y-66973710D01*
X199574359Y-66990119D01*
X199496649Y-67022308D01*
X199454000Y-67050805D01*
X199454000Y-66975916D01*
X199535182Y-66860833D01*
X199593171Y-66730587D01*
X199624758Y-66591558D01*
X199627032Y-66428714D01*
X199599339Y-66288857D01*
X199545009Y-66157043D01*
X199466111Y-66038291D01*
X199365650Y-65937126D01*
X199247452Y-65857401D01*
X199116020Y-65802152D01*
X198976360Y-65773484D01*
X198833791Y-65772489D01*
X198693744Y-65799204D01*
X198561554Y-65852612D01*
X198442255Y-65930680D01*
X198340391Y-66030432D01*
X198259842Y-66148070D01*
X198203677Y-66279113D01*
X198174035Y-66418570D01*
X198172044Y-66561128D01*
X198197781Y-66701358D01*
X198250265Y-66833918D01*
X198327498Y-66953760D01*
X198346000Y-66972919D01*
X198346000Y-69570526D01*
X197608263Y-70308263D01*
X197575793Y-70347792D01*
X197542887Y-70387008D01*
X197541482Y-70389562D01*
X197539635Y-70391812D01*
X197515451Y-70436913D01*
X197490799Y-70481756D01*
X197489919Y-70484530D01*
X197488541Y-70487100D01*
X197477000Y-70524850D01*
X197477000Y-51477000D01*
X218023000Y-51477000D01*
X218023000Y-75409033D01*
X218023000Y-75409033D01*
G37*
X218023000Y-75409033D02*
X217951729Y-75331514D01*
X217714321Y-75158046D01*
X217447633Y-75034227D01*
X217161914Y-74964815D01*
X216927000Y-75109075D01*
X216927000Y-76323000D01*
X216947000Y-76323000D01*
X216947000Y-76577000D01*
X216927000Y-76577000D01*
X216927000Y-77649075D01*
X216927000Y-77790925D01*
X216927000Y-78863000D01*
X216947000Y-78863000D01*
X216947000Y-79117000D01*
X216927000Y-79117000D01*
X216927000Y-79137000D01*
X216673000Y-79137000D01*
X216673000Y-79117000D01*
X216673000Y-78863000D01*
X216673000Y-77790925D01*
X216673000Y-77649075D01*
X216673000Y-76577000D01*
X216673000Y-76323000D01*
X216673000Y-75109075D01*
X216438086Y-74964815D01*
X216152367Y-75034227D01*
X215885679Y-75158046D01*
X215648271Y-75331514D01*
X215449267Y-75547965D01*
X215296314Y-75799081D01*
X215195291Y-76075211D01*
X215192642Y-76090974D01*
X215313783Y-76323000D01*
X216673000Y-76323000D01*
X216673000Y-76577000D01*
X215313783Y-76577000D01*
X215192642Y-76809026D01*
X215195291Y-76824789D01*
X215296314Y-77100919D01*
X215449267Y-77352035D01*
X215648271Y-77568486D01*
X215855632Y-77720000D01*
X215648271Y-77871514D01*
X215449267Y-78087965D01*
X215296314Y-78339081D01*
X215195291Y-78615211D01*
X215192642Y-78630974D01*
X215313783Y-78863000D01*
X216673000Y-78863000D01*
X216673000Y-79117000D01*
X215313783Y-79117000D01*
X215192642Y-79349026D01*
X215195291Y-79364789D01*
X215296314Y-79640919D01*
X215449267Y-79892035D01*
X215648271Y-80108486D01*
X215885679Y-80281954D01*
X216081198Y-80372730D01*
X215926411Y-80455032D01*
X215731217Y-80614228D01*
X215570662Y-80808306D01*
X215450861Y-81029872D01*
X215379400Y-81260726D01*
X215379400Y-81050000D01*
X215374179Y-80996757D01*
X215369513Y-80943419D01*
X215368661Y-80940489D01*
X215368365Y-80937461D01*
X215352907Y-80886263D01*
X215337965Y-80834830D01*
X215336562Y-80832124D01*
X215335682Y-80829208D01*
X215310557Y-80781955D01*
X215285926Y-80734436D01*
X215284025Y-80732055D01*
X215282595Y-80729365D01*
X215248790Y-80687916D01*
X215215379Y-80646063D01*
X215211194Y-80641820D01*
X215211125Y-80641735D01*
X215211045Y-80641669D01*
X215209698Y-80640303D01*
X214327000Y-79757604D01*
X214327000Y-79407944D01*
X214310591Y-79325449D01*
X214278402Y-79247739D01*
X214231672Y-79177803D01*
X214172197Y-79118327D01*
X214102260Y-79071597D01*
X214024551Y-79039409D01*
X213942056Y-79023000D01*
X213857944Y-79023000D01*
X213357944Y-79023000D01*
X213311854Y-79032167D01*
X213297169Y-79013771D01*
X213293168Y-79009714D01*
X213293102Y-79009633D01*
X213293026Y-79009570D01*
X213291737Y-79008263D01*
X212791737Y-78508263D01*
X212752207Y-78475793D01*
X212712992Y-78442887D01*
X212710437Y-78441482D01*
X212708188Y-78439635D01*
X212663086Y-78415451D01*
X212618244Y-78390799D01*
X212615469Y-78389919D01*
X212612900Y-78388541D01*
X212563955Y-78373577D01*
X212515183Y-78358106D01*
X212512285Y-78357781D01*
X212509502Y-78356930D01*
X212458639Y-78351763D01*
X212407735Y-78346054D01*
X212402034Y-78346014D01*
X212401934Y-78346004D01*
X212401840Y-78346012D01*
X212400000Y-78346000D01*
X212200000Y-78346000D01*
X211500000Y-78346000D01*
X211449036Y-78350997D01*
X211398091Y-78355454D01*
X211395293Y-78356266D01*
X211392394Y-78356551D01*
X211343376Y-78371350D01*
X211294262Y-78385619D01*
X211291678Y-78386958D01*
X211288887Y-78387801D01*
X211243712Y-78411820D01*
X211198270Y-78435376D01*
X211195990Y-78437195D01*
X211193421Y-78438562D01*
X211153797Y-78470877D01*
X211113770Y-78502832D01*
X211109714Y-78506831D01*
X211109633Y-78506898D01*
X211109570Y-78506973D01*
X211108263Y-78508263D01*
X211002000Y-78614526D01*
X211002000Y-77802000D01*
X212592056Y-77802000D01*
X212674551Y-77785591D01*
X212752261Y-77753402D01*
X212822197Y-77706672D01*
X212881673Y-77647197D01*
X212928403Y-77577260D01*
X212960591Y-77499551D01*
X212977000Y-77417056D01*
X212977000Y-77332944D01*
X212977000Y-76782944D01*
X212960591Y-76700449D01*
X212960405Y-76700000D01*
X212960591Y-76699551D01*
X212977000Y-76617056D01*
X212977000Y-76532944D01*
X212977000Y-76246026D01*
X213043237Y-76179789D01*
X213112730Y-76075785D01*
X213160597Y-75960223D01*
X213185000Y-75837542D01*
X213185000Y-75785750D01*
X213026250Y-75627000D01*
X212704948Y-75627000D01*
X212674551Y-75614409D01*
X212592056Y-75598000D01*
X212507944Y-75598000D01*
X211603000Y-75598000D01*
X211603000Y-75402000D01*
X212592056Y-75402000D01*
X212674551Y-75385591D01*
X212704947Y-75373000D01*
X213026250Y-75373000D01*
X213089927Y-75309322D01*
X213440302Y-75659697D01*
X213481642Y-75693654D01*
X213522658Y-75728071D01*
X213525329Y-75729539D01*
X213527682Y-75731472D01*
X213574835Y-75756755D01*
X213621750Y-75782547D01*
X213624653Y-75783468D01*
X213627339Y-75784908D01*
X213678511Y-75800553D01*
X213729536Y-75816739D01*
X213732565Y-75817078D01*
X213735477Y-75817969D01*
X213788662Y-75823371D01*
X213841910Y-75829344D01*
X213847871Y-75829385D01*
X213847977Y-75829396D01*
X213848075Y-75829386D01*
X213850000Y-75829400D01*
X214600000Y-75829400D01*
X214653242Y-75824179D01*
X214706581Y-75819513D01*
X214709510Y-75818661D01*
X214712539Y-75818365D01*
X214763736Y-75802907D01*
X214815170Y-75787965D01*
X214817875Y-75786562D01*
X214820792Y-75785682D01*
X214868044Y-75760557D01*
X214915564Y-75735926D01*
X214917945Y-75734025D01*
X214920635Y-75732595D01*
X214962058Y-75698810D01*
X215003938Y-75665379D01*
X215008185Y-75661190D01*
X215008265Y-75661125D01*
X215008326Y-75661050D01*
X215009698Y-75659698D01*
X215992395Y-74677000D01*
X216192056Y-74677000D01*
X216274551Y-74660591D01*
X216352261Y-74628402D01*
X216422197Y-74581672D01*
X216474469Y-74529400D01*
X216750000Y-74529400D01*
X216803242Y-74524179D01*
X216856581Y-74519513D01*
X216859510Y-74518661D01*
X216862539Y-74518365D01*
X216913736Y-74502907D01*
X216965170Y-74487965D01*
X216967875Y-74486562D01*
X216970792Y-74485682D01*
X217018044Y-74460557D01*
X217065564Y-74435926D01*
X217067945Y-74434025D01*
X217070635Y-74432595D01*
X217112058Y-74398810D01*
X217153938Y-74365379D01*
X217158185Y-74361190D01*
X217158265Y-74361125D01*
X217158326Y-74361050D01*
X217159698Y-74359698D01*
X217409697Y-74109698D01*
X217443654Y-74068357D01*
X217478071Y-74027342D01*
X217479539Y-74024670D01*
X217481472Y-74022318D01*
X217506755Y-73975164D01*
X217532547Y-73928250D01*
X217533468Y-73925346D01*
X217534908Y-73922661D01*
X217550553Y-73871488D01*
X217566739Y-73820464D01*
X217567078Y-73817434D01*
X217567969Y-73814523D01*
X217573371Y-73761337D01*
X217579344Y-73708090D01*
X217579385Y-73702128D01*
X217579396Y-73702023D01*
X217579386Y-73701924D01*
X217579400Y-73700000D01*
X217579400Y-72200000D01*
X217574179Y-72146757D01*
X217569513Y-72093419D01*
X217568661Y-72090489D01*
X217568365Y-72087461D01*
X217552907Y-72036263D01*
X217537965Y-71984830D01*
X217536562Y-71982124D01*
X217535682Y-71979208D01*
X217510557Y-71931955D01*
X217485926Y-71884436D01*
X217484025Y-71882055D01*
X217482595Y-71879365D01*
X217448790Y-71837916D01*
X217415379Y-71796063D01*
X217411191Y-71791816D01*
X217411125Y-71791735D01*
X217411049Y-71791672D01*
X217409698Y-71790302D01*
X216909698Y-71290302D01*
X216868327Y-71256320D01*
X216827342Y-71221929D01*
X216824670Y-71220460D01*
X216822318Y-71218528D01*
X216775164Y-71193244D01*
X216728250Y-71167453D01*
X216725346Y-71166531D01*
X216722661Y-71165092D01*
X216671488Y-71149446D01*
X216620464Y-71133261D01*
X216617434Y-71132921D01*
X216614523Y-71132031D01*
X216561341Y-71126629D01*
X216508090Y-71120656D01*
X216502127Y-71120614D01*
X216502022Y-71120604D01*
X216501923Y-71120613D01*
X216500000Y-71120600D01*
X216295440Y-71120600D01*
X216324758Y-70991558D01*
X216327032Y-70828714D01*
X216299339Y-70688857D01*
X216245009Y-70557043D01*
X216166111Y-70438291D01*
X216065650Y-70337126D01*
X215947452Y-70257401D01*
X215816020Y-70202152D01*
X215676360Y-70173484D01*
X215533791Y-70172489D01*
X215393744Y-70199204D01*
X215261554Y-70252612D01*
X215229400Y-70273653D01*
X215229400Y-68100000D01*
X215227000Y-68075523D01*
X215227000Y-67057944D01*
X215210591Y-66975449D01*
X215178402Y-66897739D01*
X215131672Y-66827803D01*
X215072197Y-66768327D01*
X215002260Y-66721597D01*
X214924551Y-66689409D01*
X214842056Y-66673000D01*
X214757944Y-66673000D01*
X214457944Y-66673000D01*
X214375449Y-66689409D01*
X214347183Y-66701117D01*
X214343237Y-66695211D01*
X214254789Y-66606763D01*
X214150785Y-66537270D01*
X214035223Y-66489403D01*
X213930231Y-66468518D01*
X213775000Y-66623750D01*
X213775000Y-67973000D01*
X213847000Y-67973000D01*
X213847000Y-68227000D01*
X213775000Y-68227000D01*
X213775000Y-69576250D01*
X213930231Y-69731481D01*
X214035223Y-69710597D01*
X214070600Y-69695943D01*
X214070600Y-70510004D01*
X212977000Y-71603604D01*
X212977000Y-71182944D01*
X212961977Y-71107418D01*
X213159698Y-70909697D01*
X213193640Y-70868374D01*
X213228071Y-70827342D01*
X213229541Y-70824667D01*
X213231472Y-70822317D01*
X213256744Y-70775185D01*
X213282547Y-70728250D01*
X213283468Y-70725346D01*
X213284908Y-70722661D01*
X213300566Y-70671446D01*
X213316739Y-70620464D01*
X213317078Y-70617439D01*
X213317970Y-70614523D01*
X213323381Y-70561247D01*
X213329344Y-70508090D01*
X213329385Y-70502138D01*
X213329397Y-70502022D01*
X213329386Y-70501913D01*
X213329400Y-70500000D01*
X213329400Y-69695943D01*
X213364777Y-69710597D01*
X213469768Y-69731481D01*
X213625000Y-69576250D01*
X213625000Y-68227000D01*
X213553000Y-68227000D01*
X213553000Y-67973000D01*
X213625000Y-67973000D01*
X213625000Y-66623750D01*
X213469768Y-66468518D01*
X213364777Y-66489403D01*
X213249215Y-66537270D01*
X213145211Y-66606763D01*
X213056763Y-66695211D01*
X213052816Y-66701117D01*
X213024551Y-66689409D01*
X212942056Y-66673000D01*
X212857944Y-66673000D01*
X212557944Y-66673000D01*
X212475449Y-66689409D01*
X212397739Y-66721598D01*
X212327803Y-66768328D01*
X212268327Y-66827803D01*
X212221597Y-66897740D01*
X212189409Y-66975449D01*
X212173000Y-67057944D01*
X212173000Y-67142056D01*
X212173000Y-68071013D01*
X212170656Y-68091910D01*
X212170600Y-68100000D01*
X212170600Y-70260004D01*
X211632604Y-70798000D01*
X211002000Y-70798000D01*
X211002000Y-69207944D01*
X210985591Y-69125449D01*
X210953402Y-69047739D01*
X210906672Y-68977803D01*
X210879400Y-68950530D01*
X210879400Y-68539995D01*
X211709698Y-67709697D01*
X211743640Y-67668374D01*
X211778071Y-67627342D01*
X211779541Y-67624667D01*
X211781472Y-67622317D01*
X211806744Y-67575185D01*
X211832547Y-67528250D01*
X211833468Y-67525346D01*
X211834908Y-67522661D01*
X211850566Y-67471446D01*
X211866739Y-67420464D01*
X211867078Y-67417439D01*
X211867970Y-67414523D01*
X211873381Y-67361247D01*
X211879344Y-67308090D01*
X211879385Y-67302138D01*
X211879397Y-67302022D01*
X211879386Y-67301913D01*
X211879400Y-67300000D01*
X211879400Y-67235446D01*
X211901041Y-67226482D01*
X211970977Y-67179752D01*
X212030453Y-67120277D01*
X212077183Y-67050340D01*
X212109371Y-66972631D01*
X212125780Y-66890136D01*
X212125780Y-66806024D01*
X212125780Y-66008464D01*
X212109371Y-65925969D01*
X212077182Y-65848259D01*
X212030452Y-65778323D01*
X211970977Y-65718847D01*
X211942769Y-65699999D01*
X211970977Y-65681152D01*
X212030453Y-65621677D01*
X212077183Y-65551740D01*
X212109371Y-65474031D01*
X212125780Y-65391536D01*
X212125780Y-65307424D01*
X212125780Y-64509864D01*
X212109371Y-64427369D01*
X212077182Y-64349659D01*
X212030452Y-64279723D01*
X211970977Y-64220247D01*
X211901040Y-64173517D01*
X211879400Y-64164553D01*
X211879400Y-63927000D01*
X212092056Y-63927000D01*
X212174551Y-63910591D01*
X212252261Y-63878402D01*
X212322197Y-63831672D01*
X212381673Y-63772197D01*
X212428403Y-63702260D01*
X212460591Y-63624551D01*
X212477000Y-63542056D01*
X212477000Y-63457944D01*
X212477000Y-62957944D01*
X212460591Y-62875449D01*
X212428402Y-62797739D01*
X212381672Y-62727803D01*
X212322197Y-62668327D01*
X212252260Y-62621597D01*
X212228791Y-62611876D01*
X212235223Y-62610597D01*
X212350785Y-62562730D01*
X212454789Y-62493237D01*
X212543237Y-62404789D01*
X212612730Y-62300785D01*
X212660597Y-62185223D01*
X212685000Y-62062542D01*
X212685000Y-62033750D01*
X212685000Y-61466250D01*
X212685000Y-61437458D01*
X212660597Y-61314777D01*
X212612730Y-61199215D01*
X212543237Y-61095211D01*
X212454789Y-61006763D01*
X212350785Y-60937270D01*
X212235223Y-60889403D01*
X212112542Y-60865000D01*
X211987458Y-60865000D01*
X211885750Y-60865000D01*
X211727000Y-61023750D01*
X211727000Y-61625000D01*
X212526250Y-61625000D01*
X212685000Y-61466250D01*
X212685000Y-62033750D01*
X212526250Y-61875000D01*
X211727000Y-61875000D01*
X211727000Y-61897000D01*
X211473000Y-61897000D01*
X211473000Y-61875000D01*
X211473000Y-61625000D01*
X211473000Y-61023750D01*
X211314250Y-60865000D01*
X211212542Y-60865000D01*
X211087458Y-60865000D01*
X210964777Y-60889403D01*
X210849215Y-60937270D01*
X210745211Y-61006763D01*
X210656763Y-61095211D01*
X210587270Y-61199215D01*
X210550000Y-61289193D01*
X210512730Y-61199215D01*
X210443237Y-61095211D01*
X210354789Y-61006763D01*
X210250785Y-60937270D01*
X210135223Y-60889403D01*
X210012542Y-60865000D01*
X209887458Y-60865000D01*
X209785750Y-60865000D01*
X209627000Y-61023750D01*
X209627000Y-61625000D01*
X210426250Y-61625000D01*
X210550000Y-61501250D01*
X210673750Y-61625000D01*
X211473000Y-61625000D01*
X211473000Y-61875000D01*
X210673750Y-61875000D01*
X210550000Y-61998750D01*
X210426250Y-61875000D01*
X209627000Y-61875000D01*
X209627000Y-61897000D01*
X209373000Y-61897000D01*
X209373000Y-61875000D01*
X209373000Y-61625000D01*
X209373000Y-61023750D01*
X209214250Y-60865000D01*
X209112542Y-60865000D01*
X208987458Y-60865000D01*
X208864777Y-60889403D01*
X208749215Y-60937270D01*
X208645211Y-61006763D01*
X208556763Y-61095211D01*
X208487270Y-61199215D01*
X208439403Y-61314777D01*
X208415000Y-61437458D01*
X208415000Y-61466250D01*
X208573750Y-61625000D01*
X209373000Y-61625000D01*
X209373000Y-61875000D01*
X208573750Y-61875000D01*
X208415000Y-62033750D01*
X208415000Y-62062542D01*
X208439403Y-62185223D01*
X208487270Y-62300785D01*
X208556763Y-62404789D01*
X208645211Y-62493237D01*
X208749215Y-62562730D01*
X208864777Y-62610597D01*
X208871208Y-62611876D01*
X208847739Y-62621598D01*
X208777803Y-62668328D01*
X208718327Y-62727803D01*
X208671597Y-62797740D01*
X208639409Y-62875449D01*
X208623000Y-62957944D01*
X208623000Y-63042056D01*
X208623000Y-63542056D01*
X208639409Y-63624551D01*
X208671598Y-63702261D01*
X208718328Y-63772197D01*
X208777803Y-63831673D01*
X208847740Y-63878403D01*
X208920600Y-63908582D01*
X208920600Y-64164553D01*
X208898959Y-64173518D01*
X208829023Y-64220248D01*
X208769547Y-64279723D01*
X208722817Y-64349660D01*
X208690629Y-64427369D01*
X208674220Y-64509864D01*
X208674220Y-64593976D01*
X208674220Y-65391536D01*
X208690629Y-65474031D01*
X208722818Y-65551741D01*
X208769548Y-65621677D01*
X208829023Y-65681153D01*
X208857230Y-65700000D01*
X208829023Y-65718848D01*
X208769547Y-65778323D01*
X208722817Y-65848260D01*
X208690629Y-65925969D01*
X208674220Y-66008464D01*
X208674220Y-66092576D01*
X208674220Y-66890136D01*
X208690629Y-66972631D01*
X208693448Y-66979437D01*
X208666111Y-66938291D01*
X208565650Y-66837126D01*
X208447452Y-66757401D01*
X208400921Y-66737841D01*
X208281000Y-66617920D01*
X208281000Y-63850000D01*
X208277000Y-63809206D01*
X208277000Y-63521026D01*
X208343237Y-63454789D01*
X208412730Y-63350785D01*
X208460597Y-63235223D01*
X208485000Y-63112542D01*
X208485000Y-63035750D01*
X208485000Y-62464250D01*
X208485000Y-62387458D01*
X208460597Y-62264777D01*
X208412730Y-62149215D01*
X208343237Y-62045211D01*
X208254789Y-61956763D01*
X208150785Y-61887270D01*
X208035223Y-61839403D01*
X207912542Y-61815000D01*
X207883750Y-61815000D01*
X207725000Y-61973750D01*
X207725000Y-62623000D01*
X208326250Y-62623000D01*
X208485000Y-62464250D01*
X208485000Y-63035750D01*
X208326250Y-62877000D01*
X207725000Y-62877000D01*
X207725000Y-62897000D01*
X207475000Y-62897000D01*
X207475000Y-62877000D01*
X207475000Y-62623000D01*
X207475000Y-61973750D01*
X207316250Y-61815000D01*
X207287458Y-61815000D01*
X207164777Y-61839403D01*
X207049215Y-61887270D01*
X206945211Y-61956763D01*
X206856763Y-62045211D01*
X206787270Y-62149215D01*
X206739403Y-62264777D01*
X206715000Y-62387458D01*
X206715000Y-62464250D01*
X206873750Y-62623000D01*
X207475000Y-62623000D01*
X207475000Y-62877000D01*
X206873750Y-62877000D01*
X206715000Y-63035750D01*
X206715000Y-63112542D01*
X206725733Y-63166500D01*
X206451000Y-63166500D01*
X206451000Y-62524635D01*
X206502261Y-62503402D01*
X206572197Y-62456672D01*
X206631673Y-62397197D01*
X206678403Y-62327260D01*
X206710591Y-62249551D01*
X206727000Y-62167056D01*
X206727000Y-62082944D01*
X206727000Y-60832944D01*
X206710591Y-60750449D01*
X206678402Y-60672739D01*
X206631672Y-60602803D01*
X206572197Y-60543327D01*
X206502260Y-60496597D01*
X206424551Y-60464409D01*
X206342056Y-60448000D01*
X206257944Y-60448000D01*
X205257944Y-60448000D01*
X205175449Y-60464409D01*
X205097739Y-60496598D01*
X205027803Y-60543328D01*
X204968327Y-60602803D01*
X204921597Y-60672740D01*
X204911876Y-60696208D01*
X204910597Y-60689777D01*
X204862730Y-60574215D01*
X204793237Y-60470211D01*
X204704789Y-60381763D01*
X204600785Y-60312270D01*
X204485223Y-60264403D01*
X204362542Y-60240000D01*
X204085750Y-60240000D01*
X203927000Y-60398750D01*
X203927000Y-61373000D01*
X203947000Y-61373000D01*
X203947000Y-61627000D01*
X203927000Y-61627000D01*
X203927000Y-62601250D01*
X204085750Y-62760000D01*
X204362542Y-62760000D01*
X204485223Y-62735597D01*
X204600785Y-62687730D01*
X204704789Y-62618237D01*
X204793237Y-62529789D01*
X204862730Y-62425785D01*
X204910597Y-62310223D01*
X204911876Y-62303791D01*
X204921598Y-62327261D01*
X204968328Y-62397197D01*
X205027803Y-62456673D01*
X205089000Y-62497563D01*
X205089000Y-63289630D01*
X205057327Y-63321303D01*
X205010597Y-63391240D01*
X204978409Y-63468949D01*
X204962000Y-63551444D01*
X204962000Y-63635556D01*
X204962000Y-64143556D01*
X204978409Y-64226051D01*
X205010598Y-64303761D01*
X205057328Y-64373697D01*
X205116803Y-64433173D01*
X205186740Y-64479903D01*
X205264449Y-64512091D01*
X205346944Y-64528500D01*
X205431056Y-64528500D01*
X205770000Y-64528500D01*
X206193056Y-64528500D01*
X206919000Y-64528500D01*
X206919000Y-66861604D01*
X205960004Y-67820600D01*
X205941516Y-67820600D01*
X205960591Y-67774551D01*
X205977000Y-67692056D01*
X205977000Y-67607944D01*
X205977000Y-67492396D01*
X206179698Y-67289698D01*
X206213679Y-67248327D01*
X206248071Y-67207342D01*
X206249539Y-67204670D01*
X206251472Y-67202318D01*
X206276755Y-67155164D01*
X206302547Y-67108250D01*
X206303468Y-67105346D01*
X206304908Y-67102661D01*
X206320553Y-67051488D01*
X206336739Y-67000464D01*
X206337078Y-66997434D01*
X206337969Y-66994523D01*
X206343370Y-66941341D01*
X206349344Y-66888090D01*
X206349385Y-66882127D01*
X206349396Y-66882022D01*
X206349386Y-66881923D01*
X206349400Y-66880000D01*
X206349400Y-66386501D01*
X206353261Y-66384902D01*
X206423197Y-66338172D01*
X206482673Y-66278697D01*
X206529403Y-66208760D01*
X206561591Y-66131051D01*
X206578000Y-66048556D01*
X206578000Y-65964444D01*
X206578000Y-65456444D01*
X206561591Y-65373949D01*
X206529402Y-65296239D01*
X206482672Y-65226303D01*
X206423197Y-65166827D01*
X206353260Y-65120097D01*
X206275551Y-65087909D01*
X206193056Y-65071500D01*
X206108944Y-65071500D01*
X205346944Y-65071500D01*
X205264449Y-65087909D01*
X205186739Y-65120098D01*
X205116803Y-65166828D01*
X205057327Y-65226303D01*
X205010597Y-65296240D01*
X204978409Y-65373949D01*
X204962000Y-65456444D01*
X204962000Y-65540556D01*
X204962000Y-66048556D01*
X204978409Y-66131051D01*
X205010598Y-66208761D01*
X205057328Y-66278697D01*
X205116803Y-66338173D01*
X205186740Y-66384903D01*
X205190600Y-66386501D01*
X205190600Y-66640004D01*
X205107604Y-66723000D01*
X204921026Y-66723000D01*
X204854789Y-66656763D01*
X204750785Y-66587270D01*
X204635223Y-66539403D01*
X204512542Y-66515000D01*
X204435750Y-66515000D01*
X204277000Y-66673750D01*
X204277000Y-67275000D01*
X204297000Y-67275000D01*
X204297000Y-67525000D01*
X204277000Y-67525000D01*
X204277000Y-67547000D01*
X204246000Y-67547000D01*
X204246000Y-65116542D01*
X204246000Y-65085750D01*
X204087250Y-64927000D01*
X203357000Y-64927000D01*
X203357000Y-64947000D01*
X203103000Y-64947000D01*
X203103000Y-64927000D01*
X203083000Y-64927000D01*
X203083000Y-64673000D01*
X203103000Y-64673000D01*
X203103000Y-64653000D01*
X203357000Y-64653000D01*
X203357000Y-64673000D01*
X204087250Y-64673000D01*
X204246000Y-64514250D01*
X204246000Y-64483458D01*
X204221597Y-64360777D01*
X204173730Y-64245215D01*
X204104237Y-64141211D01*
X204038000Y-64074974D01*
X204038000Y-64059444D01*
X204038000Y-63551444D01*
X204021591Y-63468949D01*
X203989402Y-63391239D01*
X203942672Y-63321303D01*
X203883197Y-63261827D01*
X203813260Y-63215097D01*
X203735551Y-63182909D01*
X203673000Y-63170467D01*
X203673000Y-62601250D01*
X203673000Y-61627000D01*
X203673000Y-61373000D01*
X203673000Y-60398750D01*
X203514250Y-60240000D01*
X203237458Y-60240000D01*
X203114777Y-60264403D01*
X202999215Y-60312270D01*
X202895211Y-60381763D01*
X202806763Y-60470211D01*
X202737270Y-60574215D01*
X202689403Y-60689777D01*
X202665000Y-60812458D01*
X202665000Y-60937542D01*
X202665000Y-61214250D01*
X202823750Y-61373000D01*
X203673000Y-61373000D01*
X203673000Y-61627000D01*
X202823750Y-61627000D01*
X202665000Y-61785750D01*
X202665000Y-62062458D01*
X202665000Y-62187542D01*
X202689403Y-62310223D01*
X202737270Y-62425785D01*
X202806763Y-62529789D01*
X202895211Y-62618237D01*
X202999215Y-62687730D01*
X203114777Y-62735597D01*
X203237458Y-62760000D01*
X203514250Y-62760000D01*
X203673000Y-62601250D01*
X203673000Y-63170467D01*
X203653056Y-63166500D01*
X203568944Y-63166500D01*
X203511653Y-63166500D01*
X203465446Y-63128545D01*
X203417243Y-63088098D01*
X203414102Y-63086371D01*
X203411337Y-63084100D01*
X203355912Y-63054381D01*
X203300774Y-63024069D01*
X203297361Y-63022986D01*
X203294205Y-63021294D01*
X203234063Y-63002906D01*
X203174088Y-62983881D01*
X203170527Y-62983481D01*
X203167104Y-62982435D01*
X203104542Y-62976080D01*
X203042008Y-62969066D01*
X203035009Y-62969017D01*
X203034877Y-62969004D01*
X203034753Y-62969015D01*
X203032500Y-62969000D01*
X202573769Y-62969000D01*
X202585000Y-62912542D01*
X202585000Y-62835750D01*
X202585000Y-62264250D01*
X202585000Y-62187458D01*
X202560597Y-62064777D01*
X202512730Y-61949215D01*
X202443237Y-61845211D01*
X202354789Y-61756763D01*
X202250785Y-61687270D01*
X202135223Y-61639403D01*
X202012542Y-61615000D01*
X201983750Y-61615000D01*
X201825000Y-61773750D01*
X201825000Y-62423000D01*
X202426250Y-62423000D01*
X202585000Y-62264250D01*
X202585000Y-62835750D01*
X202426250Y-62677000D01*
X201825000Y-62677000D01*
X201825000Y-62697000D01*
X201575000Y-62697000D01*
X201575000Y-62677000D01*
X201575000Y-62423000D01*
X201575000Y-61773750D01*
X201416250Y-61615000D01*
X201387458Y-61615000D01*
X201264777Y-61639403D01*
X201149215Y-61687270D01*
X201045211Y-61756763D01*
X200956763Y-61845211D01*
X200935000Y-61877781D01*
X200935000Y-61162542D01*
X200935000Y-60885750D01*
X200935000Y-60314250D01*
X200935000Y-60037458D01*
X200910597Y-59914777D01*
X200862730Y-59799215D01*
X200793237Y-59695211D01*
X200704789Y-59606763D01*
X200600785Y-59537270D01*
X200485223Y-59489403D01*
X200362542Y-59465000D01*
X200237458Y-59465000D01*
X199785750Y-59465000D01*
X199627000Y-59623750D01*
X199627000Y-60473000D01*
X200776250Y-60473000D01*
X200935000Y-60314250D01*
X200935000Y-60885750D01*
X200776250Y-60727000D01*
X199627000Y-60727000D01*
X199627000Y-61576250D01*
X199785750Y-61735000D01*
X200237458Y-61735000D01*
X200362542Y-61735000D01*
X200485223Y-61710597D01*
X200600785Y-61662730D01*
X200704789Y-61593237D01*
X200793237Y-61504789D01*
X200862730Y-61400785D01*
X200910597Y-61285223D01*
X200935000Y-61162542D01*
X200935000Y-61877781D01*
X200887270Y-61949215D01*
X200839403Y-62064777D01*
X200815000Y-62187458D01*
X200815000Y-62264250D01*
X200973750Y-62423000D01*
X201575000Y-62423000D01*
X201575000Y-62677000D01*
X200973750Y-62677000D01*
X200815000Y-62835750D01*
X200815000Y-62912542D01*
X200816284Y-62919000D01*
X200687208Y-62919000D01*
X200678402Y-62897739D01*
X200631672Y-62827803D01*
X200572197Y-62768327D01*
X200502260Y-62721597D01*
X200424551Y-62689409D01*
X200342056Y-62673000D01*
X200257944Y-62673000D01*
X199373000Y-62673000D01*
X199373000Y-61576250D01*
X199373000Y-60727000D01*
X199373000Y-60473000D01*
X199373000Y-59623750D01*
X199214250Y-59465000D01*
X198762542Y-59465000D01*
X198637458Y-59465000D01*
X198514777Y-59489403D01*
X198399215Y-59537270D01*
X198295211Y-59606763D01*
X198206763Y-59695211D01*
X198137270Y-59799215D01*
X198089403Y-59914777D01*
X198065000Y-60037458D01*
X198065000Y-60314250D01*
X198223750Y-60473000D01*
X199373000Y-60473000D01*
X199373000Y-60727000D01*
X198223750Y-60727000D01*
X198065000Y-60885750D01*
X198065000Y-61162542D01*
X198089403Y-61285223D01*
X198137270Y-61400785D01*
X198206763Y-61504789D01*
X198295211Y-61593237D01*
X198399215Y-61662730D01*
X198514777Y-61710597D01*
X198637458Y-61735000D01*
X198762542Y-61735000D01*
X199214250Y-61735000D01*
X199373000Y-61576250D01*
X199373000Y-62673000D01*
X198657944Y-62673000D01*
X198575449Y-62689409D01*
X198497739Y-62721598D01*
X198427803Y-62768328D01*
X198368327Y-62827803D01*
X198321597Y-62897740D01*
X198289409Y-62975449D01*
X198273000Y-63057944D01*
X198273000Y-63142056D01*
X198273000Y-64142056D01*
X198289409Y-64224551D01*
X198321598Y-64302261D01*
X198368328Y-64372197D01*
X198427803Y-64431673D01*
X198497740Y-64478403D01*
X198575449Y-64510591D01*
X198657944Y-64527000D01*
X198742056Y-64527000D01*
X200342056Y-64527000D01*
X200424551Y-64510591D01*
X200502261Y-64478402D01*
X200572197Y-64431672D01*
X200631673Y-64372197D01*
X200678403Y-64302260D01*
X200687209Y-64281000D01*
X201177130Y-64281000D01*
X201177803Y-64281673D01*
X201247740Y-64328403D01*
X201325449Y-64360591D01*
X201407944Y-64377000D01*
X201492056Y-64377000D01*
X201519000Y-64377000D01*
X201519000Y-65116810D01*
X201472247Y-65070057D01*
X201402310Y-65023327D01*
X201324601Y-64991139D01*
X201242106Y-64974730D01*
X201157994Y-64974730D01*
X200357894Y-64974730D01*
X200275399Y-64991139D01*
X200197689Y-65023328D01*
X200127753Y-65070058D01*
X200068277Y-65129533D01*
X200021547Y-65199470D01*
X199989359Y-65277179D01*
X199972950Y-65359674D01*
X199972950Y-65443786D01*
X199972950Y-65541244D01*
X199934689Y-65664846D01*
X199920797Y-65797026D01*
X199932842Y-65929387D01*
X199970368Y-66056887D01*
X199972950Y-66061825D01*
X199972950Y-66243886D01*
X199989359Y-66326381D01*
X200021548Y-66404091D01*
X200068278Y-66474027D01*
X200127753Y-66533503D01*
X200197690Y-66580233D01*
X200275399Y-66612421D01*
X200357894Y-66628830D01*
X200442006Y-66628830D01*
X201242106Y-66628830D01*
X201324601Y-66612421D01*
X201402311Y-66580232D01*
X201472247Y-66533502D01*
X201522969Y-66482780D01*
X203180720Y-66482780D01*
X203243292Y-66476644D01*
X203305990Y-66471159D01*
X203309430Y-66470159D01*
X203312994Y-66469810D01*
X203373247Y-66451618D01*
X203433622Y-66434078D01*
X203434737Y-66433500D01*
X203653056Y-66433500D01*
X203735551Y-66417091D01*
X203813261Y-66384902D01*
X203883197Y-66338172D01*
X203942673Y-66278697D01*
X203989403Y-66208760D01*
X204021591Y-66131051D01*
X204038000Y-66048556D01*
X204038000Y-65964444D01*
X204038000Y-65525026D01*
X204104237Y-65458789D01*
X204173730Y-65354785D01*
X204221597Y-65239223D01*
X204246000Y-65116542D01*
X204246000Y-67547000D01*
X204023000Y-67547000D01*
X204023000Y-67525000D01*
X204023000Y-67275000D01*
X204023000Y-66673750D01*
X203864250Y-66515000D01*
X203787458Y-66515000D01*
X203664777Y-66539403D01*
X203549215Y-66587270D01*
X203445211Y-66656763D01*
X203356763Y-66745211D01*
X203287270Y-66849215D01*
X203239403Y-66964777D01*
X203215000Y-67087458D01*
X203215000Y-67116250D01*
X203373750Y-67275000D01*
X204023000Y-67275000D01*
X204023000Y-67525000D01*
X203373750Y-67525000D01*
X203215000Y-67683750D01*
X203215000Y-67712542D01*
X203236494Y-67820600D01*
X203100000Y-67820600D01*
X203046762Y-67825820D01*
X202993418Y-67830487D01*
X202990488Y-67831338D01*
X202987461Y-67831635D01*
X202936288Y-67847084D01*
X202884829Y-67862035D01*
X202882121Y-67863438D01*
X202879208Y-67864318D01*
X202831974Y-67889432D01*
X202784436Y-67914074D01*
X202782054Y-67915974D01*
X202779365Y-67917405D01*
X202737941Y-67951189D01*
X202696062Y-67984621D01*
X202691814Y-67988809D01*
X202691735Y-67988875D01*
X202691673Y-67988949D01*
X202690302Y-67990302D01*
X202280878Y-68399725D01*
X202311681Y-68325361D01*
X202328090Y-68242866D01*
X202328090Y-68158754D01*
X202328090Y-67358654D01*
X202311681Y-67276159D01*
X202279492Y-67198449D01*
X202232762Y-67128513D01*
X202173287Y-67069037D01*
X202103350Y-67022307D01*
X202025641Y-66990119D01*
X201943146Y-66973710D01*
X201859034Y-66973710D01*
X201058934Y-66973710D01*
X200976439Y-66990119D01*
X200898729Y-67022308D01*
X200828793Y-67069038D01*
X200800000Y-67097830D01*
X200771207Y-67069037D01*
X200701270Y-67022307D01*
X200623561Y-66990119D01*
X200541066Y-66973710D01*
X200456954Y-66973710D01*
X199656854Y-66973710D01*
X199574359Y-66990119D01*
X199496649Y-67022308D01*
X199454000Y-67050805D01*
X199454000Y-66975916D01*
X199535182Y-66860833D01*
X199593171Y-66730587D01*
X199624758Y-66591558D01*
X199627032Y-66428714D01*
X199599339Y-66288857D01*
X199545009Y-66157043D01*
X199466111Y-66038291D01*
X199365650Y-65937126D01*
X199247452Y-65857401D01*
X199116020Y-65802152D01*
X198976360Y-65773484D01*
X198833791Y-65772489D01*
X198693744Y-65799204D01*
X198561554Y-65852612D01*
X198442255Y-65930680D01*
X198340391Y-66030432D01*
X198259842Y-66148070D01*
X198203677Y-66279113D01*
X198174035Y-66418570D01*
X198172044Y-66561128D01*
X198197781Y-66701358D01*
X198250265Y-66833918D01*
X198327498Y-66953760D01*
X198346000Y-66972919D01*
X198346000Y-69570526D01*
X197608263Y-70308263D01*
X197575793Y-70347792D01*
X197542887Y-70387008D01*
X197541482Y-70389562D01*
X197539635Y-70391812D01*
X197515451Y-70436913D01*
X197490799Y-70481756D01*
X197489919Y-70484530D01*
X197488541Y-70487100D01*
X197477000Y-70524850D01*
X197477000Y-51477000D01*
X218023000Y-51477000D01*
X218023000Y-75409033D01*
G36*
X218023000Y-91023000D02*
X207243000Y-91023000D01*
X207243000Y-90404464D01*
X207243000Y-89197000D01*
X207243000Y-88943000D01*
X207243000Y-87864464D01*
X207243000Y-87735536D01*
X207243000Y-86657000D01*
X206163817Y-86657000D01*
X206036183Y-86657000D01*
X204957000Y-86657000D01*
X204957000Y-87735536D01*
X204957000Y-87864464D01*
X204957000Y-88943000D01*
X206036183Y-88943000D01*
X206163817Y-88943000D01*
X207243000Y-88943000D01*
X207243000Y-89197000D01*
X206163817Y-89197000D01*
X206036183Y-89197000D01*
X204957000Y-89197000D01*
X204957000Y-90404464D01*
X205189027Y-90524963D01*
X205465978Y-90426964D01*
X205718488Y-90276817D01*
X205936854Y-90080293D01*
X206100000Y-89861921D01*
X206263146Y-90080293D01*
X206481512Y-90276817D01*
X206734022Y-90426964D01*
X207010973Y-90524963D01*
X207243000Y-90404464D01*
X207243000Y-91023000D01*
X197477000Y-91023000D01*
X197477000Y-91000000D01*
X197477000Y-90800000D01*
X197477000Y-75476071D01*
X197485619Y-75505738D01*
X197486958Y-75508321D01*
X197487801Y-75511113D01*
X197511820Y-75556287D01*
X197535376Y-75601730D01*
X197537195Y-75604009D01*
X197538562Y-75606579D01*
X197570877Y-75646202D01*
X197602832Y-75686230D01*
X197606831Y-75690285D01*
X197606898Y-75690367D01*
X197606973Y-75690429D01*
X197608263Y-75691737D01*
X199146000Y-77229474D01*
X199146000Y-79823872D01*
X199047452Y-79757401D01*
X198916020Y-79702152D01*
X198776360Y-79673484D01*
X198633791Y-79672489D01*
X198493744Y-79699204D01*
X198361554Y-79752612D01*
X198242255Y-79830680D01*
X198140391Y-79930432D01*
X198059842Y-80048070D01*
X198003677Y-80179113D01*
X197974035Y-80318570D01*
X197972044Y-80461128D01*
X197997781Y-80601358D01*
X198019000Y-80654951D01*
X198019000Y-82500000D01*
X198025135Y-82562572D01*
X198030621Y-82625270D01*
X198031620Y-82628710D01*
X198031970Y-82632274D01*
X198050161Y-82692527D01*
X198067702Y-82752902D01*
X198069347Y-82756077D01*
X198070384Y-82759509D01*
X198099922Y-82815063D01*
X198128865Y-82870899D01*
X198131100Y-82873699D01*
X198132781Y-82876860D01*
X198172533Y-82925601D01*
X198211784Y-82974770D01*
X198216698Y-82979754D01*
X198216782Y-82979856D01*
X198216876Y-82979934D01*
X198218460Y-82981540D01*
X201154639Y-85917718D01*
X201093998Y-86029872D01*
X201019515Y-86270489D01*
X201019322Y-86272323D01*
X200952868Y-86046533D01*
X200836173Y-85823315D01*
X200678343Y-85627014D01*
X200485391Y-85465109D01*
X200264666Y-85343764D01*
X200024576Y-85267603D01*
X199774265Y-85239526D01*
X199756245Y-85239400D01*
X199743755Y-85239400D01*
X199493076Y-85263979D01*
X199251946Y-85336781D01*
X199029548Y-85455032D01*
X198834354Y-85614228D01*
X198673799Y-85808306D01*
X198553998Y-86029872D01*
X198479515Y-86270489D01*
X198453186Y-86520990D01*
X198476015Y-86771834D01*
X198547132Y-87013467D01*
X198663827Y-87236685D01*
X198821657Y-87432986D01*
X199014609Y-87594891D01*
X199235334Y-87716236D01*
X199475424Y-87792397D01*
X199538752Y-87799500D01*
X199493076Y-87803979D01*
X199251946Y-87876781D01*
X199029548Y-87995032D01*
X198834354Y-88154228D01*
X198673799Y-88348306D01*
X198553998Y-88569872D01*
X198479515Y-88810489D01*
X198453186Y-89060990D01*
X198476015Y-89311834D01*
X198547132Y-89553467D01*
X198663827Y-89776685D01*
X198821657Y-89972986D01*
X199014609Y-90134891D01*
X199235334Y-90256236D01*
X199475424Y-90332397D01*
X199725735Y-90360474D01*
X199743755Y-90360600D01*
X199756245Y-90360600D01*
X200006924Y-90336021D01*
X200248054Y-90263219D01*
X200470452Y-90144968D01*
X200665646Y-89985772D01*
X200826201Y-89791694D01*
X200946002Y-89570128D01*
X201020485Y-89329511D01*
X201020677Y-89327676D01*
X201087132Y-89553467D01*
X201203827Y-89776685D01*
X201361657Y-89972986D01*
X201554609Y-90134891D01*
X201775334Y-90256236D01*
X202015424Y-90332397D01*
X202265735Y-90360474D01*
X202283755Y-90360600D01*
X202296245Y-90360600D01*
X202546924Y-90336021D01*
X202788054Y-90263219D01*
X203010452Y-90144968D01*
X203205646Y-89985772D01*
X203366201Y-89791694D01*
X203448902Y-89638741D01*
X203547316Y-89844944D01*
X203723146Y-90080293D01*
X203941512Y-90276817D01*
X204194022Y-90426964D01*
X204470973Y-90524963D01*
X204703000Y-90404464D01*
X204703000Y-89197000D01*
X204683000Y-89197000D01*
X204683000Y-88943000D01*
X204703000Y-88943000D01*
X204703000Y-87864464D01*
X204703000Y-87735536D01*
X204703000Y-86657000D01*
X204683000Y-86657000D01*
X204683000Y-86403000D01*
X204703000Y-86403000D01*
X204703000Y-86383000D01*
X204957000Y-86383000D01*
X204957000Y-86403000D01*
X206036183Y-86403000D01*
X206163817Y-86403000D01*
X207243000Y-86403000D01*
X207243000Y-86383000D01*
X207497000Y-86383000D01*
X207497000Y-86403000D01*
X207517000Y-86403000D01*
X207517000Y-86657000D01*
X207497000Y-86657000D01*
X207497000Y-87735536D01*
X207497000Y-87864464D01*
X207497000Y-88943000D01*
X207517000Y-88943000D01*
X207517000Y-89197000D01*
X207497000Y-89197000D01*
X207497000Y-90404464D01*
X207729027Y-90524963D01*
X208005978Y-90426964D01*
X208258488Y-90276817D01*
X208476854Y-90080293D01*
X208652684Y-89844944D01*
X208751391Y-89638127D01*
X208823827Y-89776685D01*
X208981657Y-89972986D01*
X209174609Y-90134891D01*
X209395334Y-90256236D01*
X209635424Y-90332397D01*
X209885735Y-90360474D01*
X209903755Y-90360600D01*
X209916245Y-90360600D01*
X210166924Y-90336021D01*
X210408054Y-90263219D01*
X210630452Y-90144968D01*
X210825646Y-89985772D01*
X210986201Y-89791694D01*
X211106002Y-89570128D01*
X211180485Y-89329511D01*
X211180677Y-89327676D01*
X211247132Y-89553467D01*
X211363827Y-89776685D01*
X211521657Y-89972986D01*
X211714609Y-90134891D01*
X211935334Y-90256236D01*
X212175424Y-90332397D01*
X212425735Y-90360474D01*
X212443755Y-90360600D01*
X212456245Y-90360600D01*
X212706924Y-90336021D01*
X212948054Y-90263219D01*
X213170452Y-90144968D01*
X213365646Y-89985772D01*
X213526201Y-89791694D01*
X213646002Y-89570128D01*
X213720485Y-89329511D01*
X213746814Y-89079010D01*
X213723985Y-88828166D01*
X213652868Y-88586533D01*
X213536173Y-88363315D01*
X213378343Y-88167014D01*
X213185391Y-88005109D01*
X212964666Y-87883764D01*
X212765547Y-87820600D01*
X213355656Y-87820600D01*
X213438151Y-87804191D01*
X213515861Y-87772002D01*
X213585797Y-87725272D01*
X213620600Y-87690469D01*
X213620600Y-88400000D01*
X213625820Y-88453242D01*
X213630487Y-88506581D01*
X213631338Y-88509510D01*
X213631635Y-88512539D01*
X213647092Y-88563736D01*
X213662035Y-88615170D01*
X213663437Y-88617875D01*
X213664318Y-88620792D01*
X213689442Y-88668044D01*
X213714074Y-88715564D01*
X213715974Y-88717945D01*
X213717405Y-88720635D01*
X213751189Y-88762058D01*
X213784621Y-88803938D01*
X213788809Y-88808185D01*
X213788875Y-88808265D01*
X213788949Y-88808326D01*
X213790302Y-88809698D01*
X214540302Y-89559698D01*
X214581672Y-89593679D01*
X214622658Y-89628071D01*
X214625329Y-89629539D01*
X214627682Y-89631472D01*
X214674835Y-89656755D01*
X214721750Y-89682547D01*
X214724653Y-89683468D01*
X214727339Y-89684908D01*
X214778511Y-89700553D01*
X214829536Y-89716739D01*
X214832565Y-89717078D01*
X214835477Y-89717969D01*
X214888658Y-89723370D01*
X214941910Y-89729344D01*
X214947872Y-89729385D01*
X214947978Y-89729396D01*
X214948076Y-89729386D01*
X214950000Y-89729400D01*
X215357000Y-89729400D01*
X215357000Y-90055656D01*
X215373409Y-90138151D01*
X215405598Y-90215861D01*
X215452328Y-90285797D01*
X215511803Y-90345273D01*
X215581740Y-90392003D01*
X215659449Y-90424191D01*
X215741944Y-90440600D01*
X215826056Y-90440600D01*
X217858056Y-90440600D01*
X217940551Y-90424191D01*
X218018261Y-90392002D01*
X218023000Y-90388835D01*
X218023000Y-90800000D01*
X218023000Y-91000000D01*
X218023000Y-91023000D01*
X218023000Y-91023000D01*
G37*
X218023000Y-91023000D02*
X207243000Y-91023000D01*
X207243000Y-90404464D01*
X207243000Y-89197000D01*
X207243000Y-88943000D01*
X207243000Y-87864464D01*
X207243000Y-87735536D01*
X207243000Y-86657000D01*
X206163817Y-86657000D01*
X206036183Y-86657000D01*
X204957000Y-86657000D01*
X204957000Y-87735536D01*
X204957000Y-87864464D01*
X204957000Y-88943000D01*
X206036183Y-88943000D01*
X206163817Y-88943000D01*
X207243000Y-88943000D01*
X207243000Y-89197000D01*
X206163817Y-89197000D01*
X206036183Y-89197000D01*
X204957000Y-89197000D01*
X204957000Y-90404464D01*
X205189027Y-90524963D01*
X205465978Y-90426964D01*
X205718488Y-90276817D01*
X205936854Y-90080293D01*
X206100000Y-89861921D01*
X206263146Y-90080293D01*
X206481512Y-90276817D01*
X206734022Y-90426964D01*
X207010973Y-90524963D01*
X207243000Y-90404464D01*
X207243000Y-91023000D01*
X197477000Y-91023000D01*
X197477000Y-91000000D01*
X197477000Y-90800000D01*
X197477000Y-75476071D01*
X197485619Y-75505738D01*
X197486958Y-75508321D01*
X197487801Y-75511113D01*
X197511820Y-75556287D01*
X197535376Y-75601730D01*
X197537195Y-75604009D01*
X197538562Y-75606579D01*
X197570877Y-75646202D01*
X197602832Y-75686230D01*
X197606831Y-75690285D01*
X197606898Y-75690367D01*
X197606973Y-75690429D01*
X197608263Y-75691737D01*
X199146000Y-77229474D01*
X199146000Y-79823872D01*
X199047452Y-79757401D01*
X198916020Y-79702152D01*
X198776360Y-79673484D01*
X198633791Y-79672489D01*
X198493744Y-79699204D01*
X198361554Y-79752612D01*
X198242255Y-79830680D01*
X198140391Y-79930432D01*
X198059842Y-80048070D01*
X198003677Y-80179113D01*
X197974035Y-80318570D01*
X197972044Y-80461128D01*
X197997781Y-80601358D01*
X198019000Y-80654951D01*
X198019000Y-82500000D01*
X198025135Y-82562572D01*
X198030621Y-82625270D01*
X198031620Y-82628710D01*
X198031970Y-82632274D01*
X198050161Y-82692527D01*
X198067702Y-82752902D01*
X198069347Y-82756077D01*
X198070384Y-82759509D01*
X198099922Y-82815063D01*
X198128865Y-82870899D01*
X198131100Y-82873699D01*
X198132781Y-82876860D01*
X198172533Y-82925601D01*
X198211784Y-82974770D01*
X198216698Y-82979754D01*
X198216782Y-82979856D01*
X198216876Y-82979934D01*
X198218460Y-82981540D01*
X201154639Y-85917718D01*
X201093998Y-86029872D01*
X201019515Y-86270489D01*
X201019322Y-86272323D01*
X200952868Y-86046533D01*
X200836173Y-85823315D01*
X200678343Y-85627014D01*
X200485391Y-85465109D01*
X200264666Y-85343764D01*
X200024576Y-85267603D01*
X199774265Y-85239526D01*
X199756245Y-85239400D01*
X199743755Y-85239400D01*
X199493076Y-85263979D01*
X199251946Y-85336781D01*
X199029548Y-85455032D01*
X198834354Y-85614228D01*
X198673799Y-85808306D01*
X198553998Y-86029872D01*
X198479515Y-86270489D01*
X198453186Y-86520990D01*
X198476015Y-86771834D01*
X198547132Y-87013467D01*
X198663827Y-87236685D01*
X198821657Y-87432986D01*
X199014609Y-87594891D01*
X199235334Y-87716236D01*
X199475424Y-87792397D01*
X199538752Y-87799500D01*
X199493076Y-87803979D01*
X199251946Y-87876781D01*
X199029548Y-87995032D01*
X198834354Y-88154228D01*
X198673799Y-88348306D01*
X198553998Y-88569872D01*
X198479515Y-88810489D01*
X198453186Y-89060990D01*
X198476015Y-89311834D01*
X198547132Y-89553467D01*
X198663827Y-89776685D01*
X198821657Y-89972986D01*
X199014609Y-90134891D01*
X199235334Y-90256236D01*
X199475424Y-90332397D01*
X199725735Y-90360474D01*
X199743755Y-90360600D01*
X199756245Y-90360600D01*
X200006924Y-90336021D01*
X200248054Y-90263219D01*
X200470452Y-90144968D01*
X200665646Y-89985772D01*
X200826201Y-89791694D01*
X200946002Y-89570128D01*
X201020485Y-89329511D01*
X201020677Y-89327676D01*
X201087132Y-89553467D01*
X201203827Y-89776685D01*
X201361657Y-89972986D01*
X201554609Y-90134891D01*
X201775334Y-90256236D01*
X202015424Y-90332397D01*
X202265735Y-90360474D01*
X202283755Y-90360600D01*
X202296245Y-90360600D01*
X202546924Y-90336021D01*
X202788054Y-90263219D01*
X203010452Y-90144968D01*
X203205646Y-89985772D01*
X203366201Y-89791694D01*
X203448902Y-89638741D01*
X203547316Y-89844944D01*
X203723146Y-90080293D01*
X203941512Y-90276817D01*
X204194022Y-90426964D01*
X204470973Y-90524963D01*
X204703000Y-90404464D01*
X204703000Y-89197000D01*
X204683000Y-89197000D01*
X204683000Y-88943000D01*
X204703000Y-88943000D01*
X204703000Y-87864464D01*
X204703000Y-87735536D01*
X204703000Y-86657000D01*
X204683000Y-86657000D01*
X204683000Y-86403000D01*
X204703000Y-86403000D01*
X204703000Y-86383000D01*
X204957000Y-86383000D01*
X204957000Y-86403000D01*
X206036183Y-86403000D01*
X206163817Y-86403000D01*
X207243000Y-86403000D01*
X207243000Y-86383000D01*
X207497000Y-86383000D01*
X207497000Y-86403000D01*
X207517000Y-86403000D01*
X207517000Y-86657000D01*
X207497000Y-86657000D01*
X207497000Y-87735536D01*
X207497000Y-87864464D01*
X207497000Y-88943000D01*
X207517000Y-88943000D01*
X207517000Y-89197000D01*
X207497000Y-89197000D01*
X207497000Y-90404464D01*
X207729027Y-90524963D01*
X208005978Y-90426964D01*
X208258488Y-90276817D01*
X208476854Y-90080293D01*
X208652684Y-89844944D01*
X208751391Y-89638127D01*
X208823827Y-89776685D01*
X208981657Y-89972986D01*
X209174609Y-90134891D01*
X209395334Y-90256236D01*
X209635424Y-90332397D01*
X209885735Y-90360474D01*
X209903755Y-90360600D01*
X209916245Y-90360600D01*
X210166924Y-90336021D01*
X210408054Y-90263219D01*
X210630452Y-90144968D01*
X210825646Y-89985772D01*
X210986201Y-89791694D01*
X211106002Y-89570128D01*
X211180485Y-89329511D01*
X211180677Y-89327676D01*
X211247132Y-89553467D01*
X211363827Y-89776685D01*
X211521657Y-89972986D01*
X211714609Y-90134891D01*
X211935334Y-90256236D01*
X212175424Y-90332397D01*
X212425735Y-90360474D01*
X212443755Y-90360600D01*
X212456245Y-90360600D01*
X212706924Y-90336021D01*
X212948054Y-90263219D01*
X213170452Y-90144968D01*
X213365646Y-89985772D01*
X213526201Y-89791694D01*
X213646002Y-89570128D01*
X213720485Y-89329511D01*
X213746814Y-89079010D01*
X213723985Y-88828166D01*
X213652868Y-88586533D01*
X213536173Y-88363315D01*
X213378343Y-88167014D01*
X213185391Y-88005109D01*
X212964666Y-87883764D01*
X212765547Y-87820600D01*
X213355656Y-87820600D01*
X213438151Y-87804191D01*
X213515861Y-87772002D01*
X213585797Y-87725272D01*
X213620600Y-87690469D01*
X213620600Y-88400000D01*
X213625820Y-88453242D01*
X213630487Y-88506581D01*
X213631338Y-88509510D01*
X213631635Y-88512539D01*
X213647092Y-88563736D01*
X213662035Y-88615170D01*
X213663437Y-88617875D01*
X213664318Y-88620792D01*
X213689442Y-88668044D01*
X213714074Y-88715564D01*
X213715974Y-88717945D01*
X213717405Y-88720635D01*
X213751189Y-88762058D01*
X213784621Y-88803938D01*
X213788809Y-88808185D01*
X213788875Y-88808265D01*
X213788949Y-88808326D01*
X213790302Y-88809698D01*
X214540302Y-89559698D01*
X214581672Y-89593679D01*
X214622658Y-89628071D01*
X214625329Y-89629539D01*
X214627682Y-89631472D01*
X214674835Y-89656755D01*
X214721750Y-89682547D01*
X214724653Y-89683468D01*
X214727339Y-89684908D01*
X214778511Y-89700553D01*
X214829536Y-89716739D01*
X214832565Y-89717078D01*
X214835477Y-89717969D01*
X214888658Y-89723370D01*
X214941910Y-89729344D01*
X214947872Y-89729385D01*
X214947978Y-89729396D01*
X214948076Y-89729386D01*
X214950000Y-89729400D01*
X215357000Y-89729400D01*
X215357000Y-90055656D01*
X215373409Y-90138151D01*
X215405598Y-90215861D01*
X215452328Y-90285797D01*
X215511803Y-90345273D01*
X215581740Y-90392003D01*
X215659449Y-90424191D01*
X215741944Y-90440600D01*
X215826056Y-90440600D01*
X217858056Y-90440600D01*
X217940551Y-90424191D01*
X218018261Y-90392002D01*
X218023000Y-90388835D01*
X218023000Y-90800000D01*
X218023000Y-91000000D01*
X218023000Y-91023000D01*
M02*
