G04 #@! TF.FileFunction,Copper,L2,Bot,Signal*
%FSLAX46Y46*%
G04 Gerber Fmt 4.6, Leading zero omitted, Abs format (unit mm)*
G04 Created by KiCad (PCBNEW (2014-11-21 BZR 5297)-product) date Do 05 Feb 2015 11:43:21 CET*
%MOMM*%
G01*
G04 APERTURE LIST*
%ADD10C,0.100000*%
%ADD11R,1.727200X1.727200*%
%ADD12O,1.727200X1.727200*%
%ADD13R,0.800000X0.750000*%
%ADD14R,0.600000X0.500000*%
%ADD15R,0.900000X2.500000*%
%ADD16R,1.000000X1.000000*%
%ADD17R,2.200000X1.050000*%
%ADD18R,0.900000X0.500000*%
%ADD19R,0.500000X0.900000*%
%ADD20R,2.032000X1.727200*%
%ADD21O,2.032000X1.727200*%
%ADD22R,1.000000X2.500000*%
%ADD23C,0.800000*%
%ADD24C,1.057585*%
%ADD25C,0.508000*%
%ADD26C,0.254000*%
%ADD27C,0.304800*%
G04 APERTURE END LIST*
D10*
D11*
X212450000Y-86530000D03*
D12*
X212450000Y-89070000D03*
X209910000Y-86530000D03*
X209910000Y-89070000D03*
X207370000Y-86530000D03*
X207370000Y-89070000D03*
X204830000Y-86530000D03*
X204830000Y-89070000D03*
X202290000Y-86530000D03*
X202290000Y-89070000D03*
X199750000Y-86530000D03*
X199750000Y-89070000D03*
D13*
X204150000Y-83200000D03*
X205650000Y-83200000D03*
D14*
X209550000Y-76300000D03*
X210650000Y-76300000D03*
D15*
X214285000Y-74040000D03*
X213015000Y-74040000D03*
X211745000Y-74040000D03*
X210475000Y-74040000D03*
X209205000Y-74040000D03*
X207935000Y-74040000D03*
X206665000Y-74040000D03*
X205395000Y-74040000D03*
X204125000Y-74040000D03*
X202855000Y-74040000D03*
X201585000Y-74040000D03*
X200315000Y-74040000D03*
X214285000Y-58560000D03*
X213015000Y-58560000D03*
D16*
X208400000Y-54800000D03*
X205400000Y-54800000D03*
D17*
X206900000Y-53325000D03*
X206900000Y-56275000D03*
D18*
X210000000Y-83250000D03*
X210000000Y-81750000D03*
X202600000Y-83250000D03*
X202600000Y-81750000D03*
X212200000Y-81750000D03*
X212200000Y-83250000D03*
X200400000Y-81750000D03*
X200400000Y-83250000D03*
D19*
X202150000Y-77400000D03*
X203650000Y-77400000D03*
D20*
X216800000Y-89150000D03*
D21*
X216800000Y-86610000D03*
X216800000Y-84070000D03*
X216800000Y-81530000D03*
X216800000Y-78990000D03*
X216800000Y-76450000D03*
D22*
X209700000Y-78500000D03*
X212700000Y-78500000D03*
D23*
X203000000Y-67400000D03*
X213700000Y-65800000D03*
X200300000Y-76400000D03*
X206900000Y-51800000D03*
X208200000Y-51800000D03*
X209100000Y-52800000D03*
X210300000Y-53300000D03*
X211600000Y-53300000D03*
X212900000Y-53300000D03*
X214200000Y-53300000D03*
X215200000Y-54300000D03*
X215800000Y-55600000D03*
X215800000Y-56900000D03*
X215800000Y-58200000D03*
X215800000Y-59500000D03*
X215200000Y-60700000D03*
X213900000Y-60900000D03*
X206900000Y-57700000D03*
X209200000Y-56300000D03*
X210500000Y-56300000D03*
X211800000Y-56300000D03*
X205300000Y-51800000D03*
X204400000Y-52700000D03*
X208600000Y-57700000D03*
X217500000Y-67000000D03*
X217500000Y-57000000D03*
X217500000Y-52000000D03*
X217500000Y-62000000D03*
X197700000Y-76600000D03*
X198000000Y-52000000D03*
X197800000Y-69500000D03*
X204200000Y-57700000D03*
X207500000Y-60900000D03*
X207700000Y-80900000D03*
X207600000Y-66400000D03*
X215600000Y-70900000D03*
X199900000Y-70100000D03*
X198700000Y-80400000D03*
X201800000Y-80900000D03*
X203500000Y-79100000D03*
X207900000Y-76200000D03*
X206500000Y-76300000D03*
X198900000Y-66500000D03*
X207400000Y-67800000D03*
X207200000Y-83300000D03*
X206600000Y-71800000D03*
X203100000Y-69900000D03*
X205200000Y-71900000D03*
X205900000Y-81200000D03*
X200700000Y-80400000D03*
X205600000Y-76800000D03*
D24*
X204830000Y-89070000D02*
X204830000Y-86530000D01*
X204830000Y-86530000D02*
X207370000Y-86530000D01*
X207370000Y-86530000D02*
X207370000Y-89070000D01*
X207370000Y-89070000D02*
X204830000Y-89070000D01*
D25*
X205650000Y-83200000D02*
X205650000Y-85410000D01*
X205650000Y-85410000D02*
X204830000Y-86230000D01*
X204830000Y-86230000D02*
X204830000Y-86530000D01*
X205650000Y-83200000D02*
X205650000Y-82317000D01*
X205650000Y-82317000D02*
X204733000Y-81400000D01*
X204733000Y-81400000D02*
X203800000Y-81400000D01*
X203800000Y-81400000D02*
X200300000Y-77900000D01*
D26*
X205650000Y-83200000D02*
X205650000Y-82571000D01*
D25*
X200315000Y-74040000D02*
X200315000Y-76085000D01*
X200315000Y-76085000D02*
X200300000Y-76100000D01*
D27*
X216800000Y-76450000D02*
X216800000Y-67500000D01*
X214400000Y-65800000D02*
X213700000Y-65800000D01*
X215100000Y-65800000D02*
X214400000Y-65800000D01*
X216800000Y-67500000D02*
X215100000Y-65800000D01*
X205800000Y-83450000D02*
X205800000Y-85560000D01*
X205800000Y-85560000D02*
X204830000Y-86530000D01*
D25*
X214285000Y-74040000D02*
X214390000Y-74040000D01*
X214390000Y-74040000D02*
X216800000Y-76450000D01*
X210650000Y-76300000D02*
X211500000Y-76300000D01*
X211500000Y-76300000D02*
X212700000Y-77500000D01*
X212700000Y-77500000D02*
X212700000Y-78500000D01*
D27*
X211500000Y-76300000D02*
X212700000Y-77500000D01*
X212700000Y-78500000D02*
X212700000Y-77500000D01*
X214285000Y-75915000D02*
X214285000Y-74040000D01*
X212700000Y-77500000D02*
X214285000Y-75915000D01*
X201585000Y-74040000D02*
X200315000Y-74040000D01*
D25*
X203000000Y-67400000D02*
X202800000Y-67600000D01*
X202800000Y-67600000D02*
X202800000Y-68000000D01*
X201585000Y-69215000D02*
X202800000Y-68000000D01*
X201585000Y-74040000D02*
X201585000Y-69215000D01*
D26*
X213700000Y-65800000D02*
X214400000Y-65800000D01*
D25*
X200300000Y-76100000D02*
X200300000Y-76400000D01*
X200300000Y-77900000D02*
X200300000Y-76100000D01*
D26*
X206900000Y-52000000D02*
X206900000Y-51800000D01*
X208200000Y-51800000D02*
X209100000Y-52700000D01*
X209100000Y-52700000D02*
X209100000Y-52800000D01*
X210300000Y-53300000D02*
X211600000Y-53300000D01*
X212900000Y-53300000D02*
X214200000Y-53300000D01*
X215200000Y-54300000D02*
X215800000Y-54900000D01*
X215800000Y-54900000D02*
X215800000Y-55600000D01*
X215800000Y-56900000D02*
X215800000Y-58200000D01*
X215800000Y-59500000D02*
X215200000Y-60100000D01*
X215200000Y-60100000D02*
X215200000Y-60700000D01*
X206900000Y-53325000D02*
X206900000Y-52000000D01*
X209200000Y-56300000D02*
X210500000Y-56300000D01*
X211800000Y-56300000D02*
X213000000Y-56300000D01*
X206900000Y-56275000D02*
X206900000Y-57700000D01*
X205300000Y-51800000D02*
X204400000Y-52700000D01*
X217500000Y-62000000D02*
X217500000Y-57000000D01*
X217300000Y-51800000D02*
X208200000Y-51800000D01*
X217300000Y-51800000D02*
X217500000Y-52000000D01*
X197800000Y-76500000D02*
X197700000Y-76600000D01*
X198000000Y-52000000D02*
X198000000Y-69300000D01*
X198000000Y-69300000D02*
X197800000Y-69500000D01*
X197800000Y-69500000D02*
X197800000Y-76500000D01*
D24*
X204200000Y-57700000D02*
X204300000Y-57700000D01*
X204300000Y-57700000D02*
X207500000Y-60900000D01*
D26*
X208500000Y-79700000D02*
X208500000Y-80100000D01*
X208500000Y-80100000D02*
X207700000Y-80900000D01*
X208500000Y-79700000D02*
X209700000Y-78500000D01*
D25*
X215600000Y-70900000D02*
X208900000Y-70900000D01*
D26*
X203900000Y-80600000D02*
X204900000Y-80600000D01*
X202150000Y-78850000D02*
X203900000Y-80600000D01*
X205800000Y-79700000D02*
X208500000Y-79700000D01*
X204900000Y-80600000D02*
X205800000Y-79700000D01*
X202150000Y-77400000D02*
X202150000Y-78850000D01*
D25*
X209550000Y-76300000D02*
X209550000Y-78350000D01*
X209550000Y-78350000D02*
X209700000Y-78500000D01*
X209205000Y-74040000D02*
X209205000Y-75955000D01*
X209205000Y-75955000D02*
X209550000Y-76300000D01*
X208500000Y-70500000D02*
X209205000Y-71205000D01*
X209205000Y-71205000D02*
X209205000Y-74040000D01*
D27*
X209700000Y-78500000D02*
X209700000Y-76450000D01*
X209700000Y-76450000D02*
X209550000Y-76300000D01*
X209550000Y-76300000D02*
X209550000Y-76250000D01*
X209550000Y-76250000D02*
X209205000Y-75905000D01*
X209205000Y-75905000D02*
X209205000Y-74040000D01*
X209205000Y-74040000D02*
X209205000Y-71205000D01*
X209205000Y-71205000D02*
X208900000Y-70900000D01*
X208500000Y-70500000D02*
X208900000Y-70900000D01*
D25*
X208500000Y-67300000D02*
X207600000Y-66400000D01*
X208500000Y-70500000D02*
X208500000Y-67300000D01*
D27*
X209910000Y-86530000D02*
X209910000Y-85310000D01*
X209910000Y-85310000D02*
X209000000Y-84400000D01*
X209000000Y-84400000D02*
X209000000Y-82900000D01*
X209000000Y-82900000D02*
X209400000Y-82500000D01*
D25*
X199500000Y-70500000D02*
X199900000Y-70100000D01*
X198800000Y-71200000D02*
X199500000Y-70500000D01*
X198800000Y-80300000D02*
X198800000Y-71200000D01*
X198700000Y-80400000D02*
X198800000Y-80300000D01*
D27*
X216800000Y-81530000D02*
X214470000Y-81530000D01*
X213500000Y-82500000D02*
X209400000Y-82500000D01*
X214470000Y-81530000D02*
X213500000Y-82500000D01*
D26*
X199900000Y-70100000D02*
X199500000Y-70500000D01*
X202600000Y-81750000D02*
X202600000Y-81700000D01*
X202600000Y-81700000D02*
X201800000Y-80900000D01*
X203500000Y-79100000D02*
X203700000Y-79300000D01*
X203700000Y-79300000D02*
X204800000Y-79300000D01*
X207900000Y-76200000D02*
X204800000Y-79300000D01*
D27*
X204125000Y-76575000D02*
X204125000Y-74040000D01*
D26*
X204900000Y-75900000D02*
X206100000Y-75900000D01*
X204125000Y-75125000D02*
X204900000Y-75900000D01*
X206100000Y-75900000D02*
X206500000Y-76300000D01*
X204125000Y-75125000D02*
X204125000Y-74040000D01*
D27*
X203650000Y-77400000D02*
X203650000Y-77050000D01*
X203650000Y-77050000D02*
X204125000Y-76575000D01*
D26*
X210000000Y-81750000D02*
X208750000Y-81750000D01*
X208750000Y-81750000D02*
X207200000Y-83300000D01*
X206100000Y-66500000D02*
X207400000Y-67800000D01*
X198900000Y-66500000D02*
X206100000Y-66500000D01*
D27*
X206665000Y-71865000D02*
X206600000Y-71800000D01*
X206665000Y-74040000D02*
X206665000Y-71865000D01*
X207935000Y-74040000D02*
X207935000Y-71935000D01*
X203300000Y-70100000D02*
X203100000Y-69900000D01*
X203200000Y-70000000D02*
X203300000Y-70100000D01*
X206000000Y-70000000D02*
X203200000Y-70000000D01*
X207935000Y-71935000D02*
X206000000Y-70000000D01*
X203100000Y-69900000D02*
X203300000Y-70100000D01*
X205395000Y-72095000D02*
X205200000Y-71900000D01*
X205395000Y-74040000D02*
X205395000Y-72095000D01*
D26*
X206400000Y-82000000D02*
X207700000Y-82000000D01*
X207700000Y-82000000D02*
X208800000Y-80900000D01*
X212200000Y-81700000D02*
X211400000Y-80900000D01*
X211400000Y-80900000D02*
X208800000Y-80900000D01*
X206400000Y-82000000D02*
X205900000Y-81500000D01*
X205900000Y-81500000D02*
X205900000Y-81200000D01*
X212200000Y-81750000D02*
X212200000Y-81700000D01*
X200400000Y-80700000D02*
X200400000Y-81750000D01*
X200700000Y-80400000D02*
X200400000Y-80700000D01*
X200400000Y-81750000D02*
X200750000Y-81750000D01*
X204300000Y-78300000D02*
X203100000Y-78300000D01*
X205000000Y-76800000D02*
X204500000Y-77300000D01*
X204500000Y-77300000D02*
X204500000Y-78100000D01*
X204500000Y-78100000D02*
X204300000Y-78300000D01*
X202855000Y-76155000D02*
X202855000Y-74040000D01*
X202900000Y-76200000D02*
X202855000Y-76155000D01*
X202900000Y-78100000D02*
X202900000Y-76200000D01*
X203100000Y-78300000D02*
X202900000Y-78100000D01*
X205600000Y-76800000D02*
X205000000Y-76800000D01*
D24*
X208400000Y-54800000D02*
X213500000Y-54800000D01*
X214285000Y-55585000D02*
X214285000Y-58560000D01*
X213500000Y-54800000D02*
X214285000Y-55585000D01*
D27*
X210000000Y-83250000D02*
X210000000Y-84080000D01*
X210000000Y-84080000D02*
X212450000Y-86530000D01*
D26*
X212450000Y-89070000D02*
X212830000Y-89070000D01*
X212830000Y-89070000D02*
X213800000Y-88100000D01*
X213800000Y-88100000D02*
X213800000Y-85100000D01*
X213800000Y-85100000D02*
X212200000Y-83500000D01*
X212200000Y-83500000D02*
X212200000Y-83250000D01*
D27*
X212200000Y-83250000D02*
X212250000Y-83250000D01*
D26*
X202600000Y-83250000D02*
X203850000Y-83250000D01*
D27*
X199750000Y-86530000D02*
X199750000Y-86100000D01*
X199750000Y-86100000D02*
X202600000Y-83250000D01*
D26*
X199750000Y-89070000D02*
X199750000Y-88850000D01*
X199750000Y-88850000D02*
X198500000Y-87600000D01*
X198500000Y-87600000D02*
X198500000Y-85600000D01*
X198500000Y-85600000D02*
X200400000Y-83700000D01*
X200400000Y-83700000D02*
X200400000Y-83250000D01*
D27*
X200400000Y-83700000D02*
X200400000Y-83250000D01*
D26*
G36*
X218023000Y-91023000D02*
X207243000Y-91023000D01*
X207243000Y-90404464D01*
X207243000Y-89197000D01*
X207243000Y-88943000D01*
X207243000Y-87864464D01*
X207243000Y-87735536D01*
X207243000Y-86657000D01*
X207243000Y-86403000D01*
X207243000Y-85195536D01*
X207010973Y-85075037D01*
X206734022Y-85173036D01*
X206481512Y-85323183D01*
X206263146Y-85519707D01*
X206100000Y-85738078D01*
X205936854Y-85519707D01*
X205718488Y-85323183D01*
X205523000Y-85206942D01*
X205523000Y-84051250D01*
X205523000Y-83327000D01*
X205503000Y-83327000D01*
X205503000Y-83073000D01*
X205523000Y-83073000D01*
X205523000Y-82348750D01*
X205364250Y-82190000D01*
X205187458Y-82190000D01*
X205064777Y-82214403D01*
X204949215Y-82262270D01*
X204845211Y-82331763D01*
X204756763Y-82420211D01*
X204741978Y-82442338D01*
X204674551Y-82414409D01*
X204592056Y-82398000D01*
X204507944Y-82398000D01*
X203707944Y-82398000D01*
X203625449Y-82414409D01*
X203547739Y-82446598D01*
X203477803Y-82493328D01*
X203477000Y-82494130D01*
X203477000Y-82042056D01*
X203477000Y-81957944D01*
X203477000Y-81457944D01*
X203460591Y-81375449D01*
X203428402Y-81297739D01*
X203381672Y-81227803D01*
X203322197Y-81168327D01*
X203252260Y-81121597D01*
X203174551Y-81089409D01*
X203092056Y-81073000D01*
X203007944Y-81073000D01*
X202756474Y-81073000D01*
X202625318Y-80941844D01*
X202627035Y-80818909D01*
X202595533Y-80659814D01*
X202533730Y-80509869D01*
X202443980Y-80374783D01*
X202329700Y-80259703D01*
X202195244Y-80169011D01*
X202045734Y-80106163D01*
X201886863Y-80073551D01*
X201724684Y-80072419D01*
X201565374Y-80102809D01*
X201485361Y-80135136D01*
X201458000Y-80068752D01*
X201458000Y-75766250D01*
X201458000Y-74167000D01*
X201458000Y-73913000D01*
X201458000Y-72313750D01*
X201299250Y-72155000D01*
X201197542Y-72155000D01*
X201072458Y-72155000D01*
X200950000Y-72179358D01*
X200827542Y-72155000D01*
X200727035Y-72155000D01*
X200727035Y-70018909D01*
X200695533Y-69859814D01*
X200633730Y-69709869D01*
X200543980Y-69574783D01*
X200429700Y-69459703D01*
X200295244Y-69369011D01*
X200145734Y-69306163D01*
X199986863Y-69273551D01*
X199824684Y-69272419D01*
X199665374Y-69302809D01*
X199515001Y-69363564D01*
X199379292Y-69452369D01*
X199263416Y-69565843D01*
X199171788Y-69699662D01*
X199107898Y-69848730D01*
X199086224Y-69950695D01*
X199018460Y-70018460D01*
X199018455Y-70018465D01*
X198318460Y-70718460D01*
X198278545Y-70767053D01*
X198238098Y-70815257D01*
X198236371Y-70818397D01*
X198234100Y-70821163D01*
X198204381Y-70876587D01*
X198174069Y-70931726D01*
X198172986Y-70935138D01*
X198171294Y-70938295D01*
X198152906Y-70998436D01*
X198133881Y-71058412D01*
X198133481Y-71061972D01*
X198132435Y-71065396D01*
X198126080Y-71127957D01*
X198119066Y-71190492D01*
X198119017Y-71197490D01*
X198119004Y-71197623D01*
X198119015Y-71197746D01*
X198119000Y-71200000D01*
X198119000Y-79811411D01*
X198063416Y-79865843D01*
X197971788Y-79999662D01*
X197907898Y-80148730D01*
X197874178Y-80307369D01*
X197871913Y-80469536D01*
X197901191Y-80629055D01*
X197960894Y-80779849D01*
X198048750Y-80916174D01*
X198161412Y-81032839D01*
X198294588Y-81125399D01*
X198443207Y-81190329D01*
X198601606Y-81225155D01*
X198763754Y-81228552D01*
X198923473Y-81200389D01*
X199074680Y-81141740D01*
X199211615Y-81054838D01*
X199329064Y-80942993D01*
X199422551Y-80810466D01*
X199488517Y-80662305D01*
X199524448Y-80504152D01*
X199527035Y-80318909D01*
X199495533Y-80159814D01*
X199481000Y-80124554D01*
X199481000Y-75797127D01*
X199564215Y-75852730D01*
X199679777Y-75900597D01*
X199802458Y-75925000D01*
X199927542Y-75925000D01*
X200029250Y-75925000D01*
X200188000Y-75766250D01*
X200188000Y-74167000D01*
X200168000Y-74167000D01*
X200168000Y-73913000D01*
X200188000Y-73913000D01*
X200188000Y-72313750D01*
X200029250Y-72155000D01*
X199927542Y-72155000D01*
X199802458Y-72155000D01*
X199679777Y-72179403D01*
X199564215Y-72227270D01*
X199481000Y-72282872D01*
X199481000Y-71482079D01*
X199981467Y-70981611D01*
X199981539Y-70981540D01*
X199981540Y-70981540D01*
X200049678Y-70913401D01*
X200123473Y-70900389D01*
X200274680Y-70841740D01*
X200411615Y-70754838D01*
X200529064Y-70642993D01*
X200622551Y-70510466D01*
X200688517Y-70362305D01*
X200724448Y-70204152D01*
X200727035Y-70018909D01*
X200727035Y-72155000D01*
X200702458Y-72155000D01*
X200600750Y-72155000D01*
X200442000Y-72313750D01*
X200442000Y-73913000D01*
X200658750Y-73913000D01*
X201241250Y-73913000D01*
X201458000Y-73913000D01*
X201458000Y-74167000D01*
X201241250Y-74167000D01*
X200658750Y-74167000D01*
X200442000Y-74167000D01*
X200442000Y-75766250D01*
X200600750Y-75925000D01*
X200702458Y-75925000D01*
X200827542Y-75925000D01*
X200950000Y-75900641D01*
X201072458Y-75925000D01*
X201197542Y-75925000D01*
X201299250Y-75925000D01*
X201458000Y-75766250D01*
X201458000Y-80068752D01*
X201433730Y-80009869D01*
X201343980Y-79874783D01*
X201229700Y-79759703D01*
X201095244Y-79669011D01*
X200945734Y-79606163D01*
X200786863Y-79573551D01*
X200624684Y-79572419D01*
X200465374Y-79602809D01*
X200315001Y-79663564D01*
X200179292Y-79752369D01*
X200063416Y-79865843D01*
X199971788Y-79999662D01*
X199907898Y-80148730D01*
X199874178Y-80307369D01*
X199871913Y-80469536D01*
X199880165Y-80514497D01*
X199873577Y-80536044D01*
X199858106Y-80584817D01*
X199857781Y-80587714D01*
X199856930Y-80590498D01*
X199851763Y-80641360D01*
X199846054Y-80692265D01*
X199846014Y-80697965D01*
X199846004Y-80698066D01*
X199846012Y-80698159D01*
X199846000Y-80700000D01*
X199846000Y-81085321D01*
X199825449Y-81089409D01*
X199747739Y-81121598D01*
X199677803Y-81168328D01*
X199618327Y-81227803D01*
X199571597Y-81297740D01*
X199539409Y-81375449D01*
X199523000Y-81457944D01*
X199523000Y-81542056D01*
X199523000Y-82042056D01*
X199539409Y-82124551D01*
X199571598Y-82202261D01*
X199618328Y-82272197D01*
X199677803Y-82331673D01*
X199747740Y-82378403D01*
X199825449Y-82410591D01*
X199907944Y-82427000D01*
X199992056Y-82427000D01*
X200892056Y-82427000D01*
X200974551Y-82410591D01*
X201052261Y-82378402D01*
X201122197Y-82331672D01*
X201181673Y-82272197D01*
X201228403Y-82202260D01*
X201260591Y-82124551D01*
X201277000Y-82042056D01*
X201277000Y-81957944D01*
X201277000Y-81912066D01*
X201292685Y-81861397D01*
X201303986Y-81753868D01*
X201294187Y-81646191D01*
X201277000Y-81587793D01*
X201277000Y-81543672D01*
X201394588Y-81625399D01*
X201543207Y-81690329D01*
X201701606Y-81725155D01*
X201723000Y-81725603D01*
X201723000Y-82042056D01*
X201739409Y-82124551D01*
X201771598Y-82202261D01*
X201818328Y-82272197D01*
X201877803Y-82331673D01*
X201947740Y-82378403D01*
X202025449Y-82410591D01*
X202107944Y-82427000D01*
X202192056Y-82427000D01*
X203092056Y-82427000D01*
X203174551Y-82410591D01*
X203252261Y-82378402D01*
X203322197Y-82331672D01*
X203381673Y-82272197D01*
X203428403Y-82202260D01*
X203460591Y-82124551D01*
X203477000Y-82042056D01*
X203477000Y-82494130D01*
X203418327Y-82552803D01*
X203371597Y-82622740D01*
X203343775Y-82689906D01*
X203322197Y-82668327D01*
X203252260Y-82621597D01*
X203174551Y-82589409D01*
X203092056Y-82573000D01*
X203007944Y-82573000D01*
X202107944Y-82573000D01*
X202025449Y-82589409D01*
X201947739Y-82621598D01*
X201877803Y-82668328D01*
X201818327Y-82727803D01*
X201771597Y-82797740D01*
X201739409Y-82875449D01*
X201723000Y-82957944D01*
X201723000Y-83042056D01*
X201723000Y-83307604D01*
X199789382Y-85241221D01*
X199774265Y-85239526D01*
X199756245Y-85239400D01*
X199743755Y-85239400D01*
X199633237Y-85250236D01*
X200678271Y-84205202D01*
X200717258Y-84184821D01*
X200805385Y-84113965D01*
X200878071Y-84027342D01*
X200932547Y-83928250D01*
X200935697Y-83918319D01*
X200974551Y-83910591D01*
X201052261Y-83878402D01*
X201122197Y-83831672D01*
X201181673Y-83772197D01*
X201228403Y-83702260D01*
X201260591Y-83624551D01*
X201277000Y-83542056D01*
X201277000Y-83457944D01*
X201277000Y-82957944D01*
X201260591Y-82875449D01*
X201228402Y-82797739D01*
X201181672Y-82727803D01*
X201122197Y-82668327D01*
X201052260Y-82621597D01*
X200974551Y-82589409D01*
X200892056Y-82573000D01*
X200807944Y-82573000D01*
X199907944Y-82573000D01*
X199825449Y-82589409D01*
X199747739Y-82621598D01*
X199677803Y-82668328D01*
X199618327Y-82727803D01*
X199571597Y-82797740D01*
X199539409Y-82875449D01*
X199523000Y-82957944D01*
X199523000Y-83042056D01*
X199523000Y-83542056D01*
X199539409Y-83624551D01*
X199571598Y-83702261D01*
X199588688Y-83727837D01*
X198108263Y-85208263D01*
X198075793Y-85247792D01*
X198042887Y-85287008D01*
X198041482Y-85289562D01*
X198039635Y-85291812D01*
X198015451Y-85336913D01*
X197990799Y-85381756D01*
X197989919Y-85384530D01*
X197988541Y-85387100D01*
X197973577Y-85436044D01*
X197958106Y-85484817D01*
X197957781Y-85487714D01*
X197956930Y-85490498D01*
X197951763Y-85541360D01*
X197946054Y-85592265D01*
X197946014Y-85597965D01*
X197946004Y-85598066D01*
X197946012Y-85598159D01*
X197946000Y-85600000D01*
X197946000Y-87600000D01*
X197950997Y-87650963D01*
X197955454Y-87701909D01*
X197956266Y-87704706D01*
X197956551Y-87707606D01*
X197971350Y-87756623D01*
X197985619Y-87805738D01*
X197986958Y-87808321D01*
X197987801Y-87811113D01*
X198011820Y-87856287D01*
X198035376Y-87901730D01*
X198037195Y-87904009D01*
X198038562Y-87906579D01*
X198070877Y-87946202D01*
X198102832Y-87986230D01*
X198106831Y-87990285D01*
X198106898Y-87990367D01*
X198106973Y-87990429D01*
X198108263Y-87991737D01*
X198600463Y-88483937D01*
X198553998Y-88569872D01*
X198479515Y-88810489D01*
X198453186Y-89060990D01*
X198476015Y-89311834D01*
X198547132Y-89553467D01*
X198663827Y-89776685D01*
X198821657Y-89972986D01*
X199014609Y-90134891D01*
X199235334Y-90256236D01*
X199475424Y-90332397D01*
X199725735Y-90360474D01*
X199743755Y-90360600D01*
X199756245Y-90360600D01*
X200006924Y-90336021D01*
X200248054Y-90263219D01*
X200470452Y-90144968D01*
X200665646Y-89985772D01*
X200826201Y-89791694D01*
X200946002Y-89570128D01*
X201020485Y-89329511D01*
X201020677Y-89327676D01*
X201087132Y-89553467D01*
X201203827Y-89776685D01*
X201361657Y-89972986D01*
X201554609Y-90134891D01*
X201775334Y-90256236D01*
X202015424Y-90332397D01*
X202265735Y-90360474D01*
X202283755Y-90360600D01*
X202296245Y-90360600D01*
X202546924Y-90336021D01*
X202788054Y-90263219D01*
X203010452Y-90144968D01*
X203205646Y-89985772D01*
X203366201Y-89791694D01*
X203448902Y-89638741D01*
X203547316Y-89844944D01*
X203723146Y-90080293D01*
X203941512Y-90276817D01*
X204194022Y-90426964D01*
X204470973Y-90524963D01*
X204703000Y-90404464D01*
X204703000Y-89197000D01*
X204683000Y-89197000D01*
X204683000Y-88943000D01*
X204703000Y-88943000D01*
X204703000Y-87864464D01*
X204703000Y-87735536D01*
X204703000Y-86657000D01*
X204683000Y-86657000D01*
X204683000Y-86403000D01*
X204703000Y-86403000D01*
X204703000Y-85195536D01*
X204470973Y-85075037D01*
X204194022Y-85173036D01*
X203941512Y-85323183D01*
X203723146Y-85519707D01*
X203547316Y-85755056D01*
X203448608Y-85961872D01*
X203376173Y-85823315D01*
X203218343Y-85627014D01*
X203025391Y-85465109D01*
X202804666Y-85343764D01*
X202564576Y-85267603D01*
X202314265Y-85239526D01*
X202296245Y-85239400D01*
X202283755Y-85239400D01*
X202033076Y-85263979D01*
X201791946Y-85336781D01*
X201569548Y-85455032D01*
X201374354Y-85614228D01*
X201213799Y-85808306D01*
X201093998Y-86029872D01*
X201019515Y-86270489D01*
X201019322Y-86272323D01*
X200952868Y-86046533D01*
X200839574Y-85829821D01*
X202742395Y-83927000D01*
X203092056Y-83927000D01*
X203174551Y-83910591D01*
X203252261Y-83878402D01*
X203322197Y-83831672D01*
X203349869Y-83804000D01*
X203389464Y-83804000D01*
X203418328Y-83847197D01*
X203477803Y-83906673D01*
X203547740Y-83953403D01*
X203625449Y-83985591D01*
X203707944Y-84002000D01*
X203792056Y-84002000D01*
X204592056Y-84002000D01*
X204674551Y-83985591D01*
X204741977Y-83957661D01*
X204756763Y-83979789D01*
X204845211Y-84068237D01*
X204949215Y-84137730D01*
X205064777Y-84185597D01*
X205187458Y-84210000D01*
X205364250Y-84210000D01*
X205523000Y-84051250D01*
X205523000Y-85206942D01*
X205465978Y-85173036D01*
X205189027Y-85075037D01*
X204957000Y-85195536D01*
X204957000Y-86403000D01*
X206036183Y-86403000D01*
X206163817Y-86403000D01*
X207243000Y-86403000D01*
X207243000Y-86657000D01*
X206163817Y-86657000D01*
X206036183Y-86657000D01*
X204957000Y-86657000D01*
X204957000Y-87735536D01*
X204957000Y-87864464D01*
X204957000Y-88943000D01*
X206036183Y-88943000D01*
X206163817Y-88943000D01*
X207243000Y-88943000D01*
X207243000Y-89197000D01*
X206163817Y-89197000D01*
X206036183Y-89197000D01*
X204957000Y-89197000D01*
X204957000Y-90404464D01*
X205189027Y-90524963D01*
X205465978Y-90426964D01*
X205718488Y-90276817D01*
X205936854Y-90080293D01*
X206100000Y-89861921D01*
X206263146Y-90080293D01*
X206481512Y-90276817D01*
X206734022Y-90426964D01*
X207010973Y-90524963D01*
X207243000Y-90404464D01*
X207243000Y-91023000D01*
X197477000Y-91023000D01*
X197477000Y-91000000D01*
X197477000Y-90800000D01*
X197477000Y-51477000D01*
X218023000Y-51477000D01*
X218023000Y-75409033D01*
X217951729Y-75331514D01*
X217714321Y-75158046D01*
X217447633Y-75034227D01*
X217161914Y-74964815D01*
X216927000Y-75109075D01*
X216927000Y-76323000D01*
X216947000Y-76323000D01*
X216947000Y-76577000D01*
X216927000Y-76577000D01*
X216927000Y-77649075D01*
X216927000Y-77790925D01*
X216927000Y-78863000D01*
X216947000Y-78863000D01*
X216947000Y-79117000D01*
X216927000Y-79117000D01*
X216927000Y-79137000D01*
X216673000Y-79137000D01*
X216673000Y-79117000D01*
X216673000Y-78863000D01*
X216673000Y-77790925D01*
X216673000Y-77649075D01*
X216673000Y-76577000D01*
X216673000Y-76323000D01*
X216673000Y-75109075D01*
X216438086Y-74964815D01*
X216152367Y-75034227D01*
X215885679Y-75158046D01*
X215648271Y-75331514D01*
X215449267Y-75547965D01*
X215370000Y-75678104D01*
X215370000Y-75352542D01*
X215370000Y-74325750D01*
X215370000Y-73754250D01*
X215370000Y-72727458D01*
X215345597Y-72604777D01*
X215297730Y-72489215D01*
X215228237Y-72385211D01*
X215139789Y-72296763D01*
X215035785Y-72227270D01*
X214920223Y-72179403D01*
X214797542Y-72155000D01*
X214672458Y-72155000D01*
X214570750Y-72155000D01*
X214412000Y-72313750D01*
X214412000Y-73913000D01*
X215211250Y-73913000D01*
X215370000Y-73754250D01*
X215370000Y-74325750D01*
X215211250Y-74167000D01*
X214412000Y-74167000D01*
X214412000Y-75766250D01*
X214570750Y-75925000D01*
X214672458Y-75925000D01*
X214797542Y-75925000D01*
X214920223Y-75900597D01*
X215035785Y-75852730D01*
X215139789Y-75783237D01*
X215228237Y-75694789D01*
X215297730Y-75590785D01*
X215345597Y-75475223D01*
X215370000Y-75352542D01*
X215370000Y-75678104D01*
X215296314Y-75799081D01*
X215195291Y-76075211D01*
X215192642Y-76090974D01*
X215313783Y-76323000D01*
X216673000Y-76323000D01*
X216673000Y-76577000D01*
X215313783Y-76577000D01*
X215192642Y-76809026D01*
X215195291Y-76824789D01*
X215296314Y-77100919D01*
X215449267Y-77352035D01*
X215648271Y-77568486D01*
X215855632Y-77720000D01*
X215648271Y-77871514D01*
X215449267Y-78087965D01*
X215296314Y-78339081D01*
X215195291Y-78615211D01*
X215192642Y-78630974D01*
X215313783Y-78863000D01*
X216673000Y-78863000D01*
X216673000Y-79117000D01*
X215313783Y-79117000D01*
X215192642Y-79349026D01*
X215195291Y-79364789D01*
X215296314Y-79640919D01*
X215449267Y-79892035D01*
X215648271Y-80108486D01*
X215885679Y-80281954D01*
X216081198Y-80372730D01*
X215926411Y-80455032D01*
X215731217Y-80614228D01*
X215570662Y-80808306D01*
X215493723Y-80950600D01*
X214470000Y-80950600D01*
X214416762Y-80955820D01*
X214363418Y-80960487D01*
X214360488Y-80961338D01*
X214357461Y-80961635D01*
X214306288Y-80977084D01*
X214254829Y-80992035D01*
X214252121Y-80993438D01*
X214249208Y-80994318D01*
X214201974Y-81019432D01*
X214154436Y-81044074D01*
X214152055Y-81045974D01*
X214149365Y-81047405D01*
X214107910Y-81081214D01*
X214066062Y-81114622D01*
X214061816Y-81118808D01*
X214061735Y-81118875D01*
X214061672Y-81118950D01*
X214060302Y-81120302D01*
X213835000Y-81345604D01*
X213835000Y-79812542D01*
X213835000Y-79687458D01*
X213835000Y-78785750D01*
X213835000Y-78214250D01*
X213835000Y-77312542D01*
X213835000Y-77187458D01*
X213810597Y-77064777D01*
X213762730Y-76949215D01*
X213693237Y-76845211D01*
X213604789Y-76756763D01*
X213500785Y-76687270D01*
X213385223Y-76639403D01*
X213262542Y-76615000D01*
X212985750Y-76615000D01*
X212827000Y-76773750D01*
X212827000Y-78373000D01*
X213676250Y-78373000D01*
X213835000Y-78214250D01*
X213835000Y-78785750D01*
X213676250Y-78627000D01*
X212827000Y-78627000D01*
X212827000Y-80226250D01*
X212985750Y-80385000D01*
X213262542Y-80385000D01*
X213385223Y-80360597D01*
X213500785Y-80312730D01*
X213604789Y-80243237D01*
X213693237Y-80154789D01*
X213762730Y-80050785D01*
X213810597Y-79935223D01*
X213835000Y-79812542D01*
X213835000Y-81345604D01*
X213260004Y-81920600D01*
X213077000Y-81920600D01*
X213077000Y-81457944D01*
X213060591Y-81375449D01*
X213028402Y-81297739D01*
X212981672Y-81227803D01*
X212922197Y-81168327D01*
X212852260Y-81121597D01*
X212774551Y-81089409D01*
X212692056Y-81073000D01*
X212607944Y-81073000D01*
X212573000Y-81073000D01*
X212573000Y-80226250D01*
X212573000Y-78627000D01*
X212573000Y-78373000D01*
X212573000Y-76773750D01*
X212414250Y-76615000D01*
X212137458Y-76615000D01*
X212014777Y-76639403D01*
X211899215Y-76687270D01*
X211795211Y-76756763D01*
X211706763Y-76845211D01*
X211637270Y-76949215D01*
X211589403Y-77064777D01*
X211585000Y-77086912D01*
X211585000Y-76612542D01*
X211585000Y-76583750D01*
X211426250Y-76425000D01*
X210777000Y-76425000D01*
X210777000Y-77026250D01*
X210935750Y-77185000D01*
X211012542Y-77185000D01*
X211135223Y-77160597D01*
X211250785Y-77112730D01*
X211354789Y-77043237D01*
X211443237Y-76954789D01*
X211512730Y-76850785D01*
X211560597Y-76735223D01*
X211585000Y-76612542D01*
X211585000Y-77086912D01*
X211565000Y-77187458D01*
X211565000Y-77312542D01*
X211565000Y-78214250D01*
X211723750Y-78373000D01*
X212573000Y-78373000D01*
X212573000Y-78627000D01*
X211723750Y-78627000D01*
X211565000Y-78785750D01*
X211565000Y-79687458D01*
X211565000Y-79812542D01*
X211589403Y-79935223D01*
X211637270Y-80050785D01*
X211706763Y-80154789D01*
X211795211Y-80243237D01*
X211899215Y-80312730D01*
X212014777Y-80360597D01*
X212137458Y-80385000D01*
X212414250Y-80385000D01*
X212573000Y-80226250D01*
X212573000Y-81073000D01*
X212356474Y-81073000D01*
X211791737Y-80508263D01*
X211752207Y-80475793D01*
X211712992Y-80442887D01*
X211710437Y-80441482D01*
X211708188Y-80439635D01*
X211663086Y-80415451D01*
X211618244Y-80390799D01*
X211615469Y-80389919D01*
X211612900Y-80388541D01*
X211563955Y-80373577D01*
X211515183Y-80358106D01*
X211512285Y-80357781D01*
X211509502Y-80356930D01*
X211458639Y-80351763D01*
X211407735Y-80346054D01*
X211402034Y-80346014D01*
X211401934Y-80346004D01*
X211401840Y-80346012D01*
X211400000Y-80346000D01*
X208993942Y-80346000D01*
X209009201Y-80318244D01*
X209010080Y-80315469D01*
X209011459Y-80312900D01*
X209026422Y-80263955D01*
X209041894Y-80215183D01*
X209042218Y-80212285D01*
X209043070Y-80209502D01*
X209048236Y-80158639D01*
X209049235Y-80149732D01*
X209075449Y-80160591D01*
X209157944Y-80177000D01*
X209242056Y-80177000D01*
X210242056Y-80177000D01*
X210324551Y-80160591D01*
X210402261Y-80128402D01*
X210472197Y-80081672D01*
X210531673Y-80022197D01*
X210578403Y-79952260D01*
X210610591Y-79874551D01*
X210627000Y-79792056D01*
X210627000Y-79707944D01*
X210627000Y-77207944D01*
X210610591Y-77125449D01*
X210578402Y-77047739D01*
X210531672Y-76977803D01*
X210523000Y-76969130D01*
X210523000Y-76425000D01*
X210503000Y-76425000D01*
X210503000Y-76175000D01*
X210523000Y-76175000D01*
X210523000Y-76153000D01*
X210777000Y-76153000D01*
X210777000Y-76175000D01*
X211426250Y-76175000D01*
X211585000Y-76016250D01*
X211585000Y-75987458D01*
X211560597Y-75864777D01*
X211512730Y-75749215D01*
X211491204Y-75717000D01*
X212237056Y-75717000D01*
X212319551Y-75700591D01*
X212379999Y-75675552D01*
X212440449Y-75700591D01*
X212522944Y-75717000D01*
X212607056Y-75717000D01*
X213363974Y-75717000D01*
X213430211Y-75783237D01*
X213534215Y-75852730D01*
X213649777Y-75900597D01*
X213772458Y-75925000D01*
X213897542Y-75925000D01*
X213999250Y-75925000D01*
X214158000Y-75766250D01*
X214158000Y-74167000D01*
X214138000Y-74167000D01*
X214138000Y-73913000D01*
X214158000Y-73913000D01*
X214158000Y-72313750D01*
X213999250Y-72155000D01*
X213897542Y-72155000D01*
X213772458Y-72155000D01*
X213649777Y-72179403D01*
X213534215Y-72227270D01*
X213430211Y-72296763D01*
X213363974Y-72363000D01*
X212522944Y-72363000D01*
X212440449Y-72379409D01*
X212380000Y-72404447D01*
X212319551Y-72379409D01*
X212237056Y-72363000D01*
X212152944Y-72363000D01*
X211252944Y-72363000D01*
X211170449Y-72379409D01*
X211110000Y-72404447D01*
X211049551Y-72379409D01*
X210967056Y-72363000D01*
X210882944Y-72363000D01*
X209982944Y-72363000D01*
X209900449Y-72379409D01*
X209886000Y-72385394D01*
X209886000Y-71581000D01*
X215130706Y-71581000D01*
X215194588Y-71625399D01*
X215343207Y-71690329D01*
X215501606Y-71725155D01*
X215663754Y-71728552D01*
X215823473Y-71700389D01*
X215974680Y-71641740D01*
X216111615Y-71554838D01*
X216229064Y-71442993D01*
X216322551Y-71310466D01*
X216388517Y-71162305D01*
X216424448Y-71004152D01*
X216427035Y-70818909D01*
X216395533Y-70659814D01*
X216333730Y-70509869D01*
X216243980Y-70374783D01*
X216129700Y-70259703D01*
X215995244Y-70169011D01*
X215845734Y-70106163D01*
X215686863Y-70073551D01*
X215524684Y-70072419D01*
X215365374Y-70102809D01*
X215240792Y-70153143D01*
X215240792Y-58560000D01*
X215240792Y-55585000D01*
X215232179Y-55497164D01*
X215224482Y-55409181D01*
X215223079Y-55404353D01*
X215222589Y-55399352D01*
X215197077Y-55314852D01*
X215172440Y-55230050D01*
X215170126Y-55225586D01*
X215168674Y-55220776D01*
X215127250Y-55142869D01*
X215086595Y-55064438D01*
X215083456Y-55060505D01*
X215081099Y-55056073D01*
X215025343Y-54987708D01*
X214970218Y-54918655D01*
X214963319Y-54911660D01*
X214963202Y-54911516D01*
X214963068Y-54911405D01*
X214960847Y-54909153D01*
X214175847Y-54124153D01*
X214107638Y-54068126D01*
X214039991Y-54011363D01*
X214035585Y-54008940D01*
X214031703Y-54005752D01*
X213953898Y-53964033D01*
X213876527Y-53921498D01*
X213871737Y-53919978D01*
X213867307Y-53917603D01*
X213782891Y-53891794D01*
X213698720Y-53865094D01*
X213693721Y-53864533D01*
X213688919Y-53863065D01*
X213601133Y-53854148D01*
X213513345Y-53844301D01*
X213503518Y-53844232D01*
X213503336Y-53844214D01*
X213503166Y-53844230D01*
X213500000Y-53844208D01*
X208800000Y-53844208D01*
X208800000Y-53450000D01*
X208635000Y-53450000D01*
X208635000Y-53039250D01*
X208635000Y-52737458D01*
X208610597Y-52614777D01*
X208562730Y-52499215D01*
X208493237Y-52395211D01*
X208404789Y-52306763D01*
X208300785Y-52237270D01*
X208185223Y-52189403D01*
X208062542Y-52165000D01*
X207937458Y-52165000D01*
X207185750Y-52165000D01*
X207027000Y-52323750D01*
X207027000Y-53198000D01*
X208476250Y-53198000D01*
X208635000Y-53039250D01*
X208635000Y-53450000D01*
X206773000Y-53450000D01*
X206773000Y-53198000D01*
X206773000Y-52323750D01*
X206614250Y-52165000D01*
X205862542Y-52165000D01*
X205737458Y-52165000D01*
X205614777Y-52189403D01*
X205499215Y-52237270D01*
X205395211Y-52306763D01*
X205306763Y-52395211D01*
X205237270Y-52499215D01*
X205189403Y-52614777D01*
X205165000Y-52737458D01*
X205165000Y-53039250D01*
X205323750Y-53198000D01*
X206773000Y-53198000D01*
X206773000Y-53450000D01*
X205450000Y-53450000D01*
X205450000Y-53452000D01*
X205323750Y-53452000D01*
X205165000Y-53610750D01*
X205165000Y-53715750D01*
X205114250Y-53665000D01*
X204962542Y-53665000D01*
X204837458Y-53665000D01*
X204714777Y-53689403D01*
X204599215Y-53737270D01*
X204495211Y-53806763D01*
X204406763Y-53895211D01*
X204337270Y-53999215D01*
X204289403Y-54114777D01*
X204265000Y-54237458D01*
X204265000Y-54514250D01*
X204423750Y-54673000D01*
X205273000Y-54673000D01*
X205273000Y-54653000D01*
X205450000Y-54653000D01*
X205450000Y-54947000D01*
X205273000Y-54947000D01*
X205273000Y-54927000D01*
X204423750Y-54927000D01*
X204265000Y-55085750D01*
X204265000Y-55362542D01*
X204289403Y-55485223D01*
X204337270Y-55600785D01*
X204406763Y-55704789D01*
X204495211Y-55793237D01*
X204599215Y-55862730D01*
X204714777Y-55910597D01*
X204837458Y-55935000D01*
X204962542Y-55935000D01*
X205114250Y-55935000D01*
X205165000Y-55884250D01*
X205165000Y-55989250D01*
X205323750Y-56148000D01*
X206773000Y-56148000D01*
X206773000Y-56128000D01*
X207027000Y-56128000D01*
X207027000Y-56148000D01*
X208476250Y-56148000D01*
X208574250Y-56050000D01*
X208800000Y-56050000D01*
X208800000Y-55755792D01*
X213104098Y-55755792D01*
X213329208Y-55980902D01*
X213329208Y-56675000D01*
X213300750Y-56675000D01*
X213142000Y-56833750D01*
X213142000Y-58433000D01*
X213162000Y-58433000D01*
X213162000Y-58687000D01*
X213142000Y-58687000D01*
X213142000Y-60286250D01*
X213300750Y-60445000D01*
X213402458Y-60445000D01*
X213527542Y-60445000D01*
X213650223Y-60420597D01*
X213765785Y-60372730D01*
X213869789Y-60303237D01*
X213936026Y-60237000D01*
X214777056Y-60237000D01*
X214859551Y-60220591D01*
X214937261Y-60188402D01*
X215007197Y-60141672D01*
X215066673Y-60082197D01*
X215113403Y-60012260D01*
X215145591Y-59934551D01*
X215162000Y-59852056D01*
X215162000Y-59767944D01*
X215162000Y-58939259D01*
X215163502Y-58936527D01*
X215219906Y-58758720D01*
X215240699Y-58573345D01*
X215240792Y-58560000D01*
X215240792Y-70153143D01*
X215215001Y-70163564D01*
X215130285Y-70219000D01*
X212888000Y-70219000D01*
X212888000Y-60286250D01*
X212888000Y-58687000D01*
X212888000Y-58433000D01*
X212888000Y-56833750D01*
X212729250Y-56675000D01*
X212627542Y-56675000D01*
X212502458Y-56675000D01*
X212379777Y-56699403D01*
X212264215Y-56747270D01*
X212160211Y-56816763D01*
X212071763Y-56905211D01*
X212002270Y-57009215D01*
X211954403Y-57124777D01*
X211930000Y-57247458D01*
X211930000Y-58274250D01*
X212088750Y-58433000D01*
X212888000Y-58433000D01*
X212888000Y-58687000D01*
X212088750Y-58687000D01*
X211930000Y-58845750D01*
X211930000Y-59872542D01*
X211954403Y-59995223D01*
X212002270Y-60110785D01*
X212071763Y-60214789D01*
X212160211Y-60303237D01*
X212264215Y-60372730D01*
X212379777Y-60420597D01*
X212502458Y-60445000D01*
X212627542Y-60445000D01*
X212729250Y-60445000D01*
X212888000Y-60286250D01*
X212888000Y-70219000D01*
X209182079Y-70219000D01*
X209181000Y-70217920D01*
X209181000Y-67300000D01*
X209174864Y-67237427D01*
X209169379Y-67174730D01*
X209168379Y-67171289D01*
X209168030Y-67167726D01*
X209149838Y-67107472D01*
X209132298Y-67047098D01*
X209130652Y-67043922D01*
X209129616Y-67040491D01*
X209100087Y-66984957D01*
X209071135Y-66929100D01*
X209068898Y-66926297D01*
X209067219Y-66923140D01*
X209027484Y-66874420D01*
X208988216Y-66825230D01*
X208983301Y-66820245D01*
X208983218Y-66820144D01*
X208983123Y-66820065D01*
X208981540Y-66818460D01*
X208635000Y-66471920D01*
X208635000Y-56862542D01*
X208635000Y-56560750D01*
X208476250Y-56402000D01*
X207027000Y-56402000D01*
X207027000Y-57276250D01*
X207185750Y-57435000D01*
X207937458Y-57435000D01*
X208062542Y-57435000D01*
X208185223Y-57410597D01*
X208300785Y-57362730D01*
X208404789Y-57293237D01*
X208493237Y-57204789D01*
X208562730Y-57100785D01*
X208610597Y-56985223D01*
X208635000Y-56862542D01*
X208635000Y-66471920D01*
X208455739Y-66292659D01*
X208455739Y-60910008D01*
X208439482Y-60724180D01*
X208387439Y-60545050D01*
X208301594Y-60379438D01*
X208185217Y-60233655D01*
X208175847Y-60224153D01*
X206773000Y-58821306D01*
X206773000Y-57276250D01*
X206773000Y-56402000D01*
X205323750Y-56402000D01*
X205165000Y-56560750D01*
X205165000Y-56862542D01*
X205189403Y-56985223D01*
X205237270Y-57100785D01*
X205306763Y-57204789D01*
X205395211Y-57293237D01*
X205499215Y-57362730D01*
X205614777Y-57410597D01*
X205737458Y-57435000D01*
X205862542Y-57435000D01*
X206614250Y-57435000D01*
X206773000Y-57276250D01*
X206773000Y-58821306D01*
X204975847Y-57024153D01*
X204907638Y-56968126D01*
X204839991Y-56911363D01*
X204835585Y-56908940D01*
X204831703Y-56905752D01*
X204753898Y-56864033D01*
X204676527Y-56821498D01*
X204671737Y-56819978D01*
X204667307Y-56817603D01*
X204582891Y-56791794D01*
X204498720Y-56765094D01*
X204493721Y-56764533D01*
X204488919Y-56763065D01*
X204401133Y-56754148D01*
X204313345Y-56744301D01*
X204303518Y-56744232D01*
X204303336Y-56744214D01*
X204303166Y-56744230D01*
X204300000Y-56744208D01*
X204200000Y-56744208D01*
X204014352Y-56762411D01*
X203835776Y-56816326D01*
X203671073Y-56903901D01*
X203526516Y-57021798D01*
X203407613Y-57165528D01*
X203318891Y-57329616D01*
X203263730Y-57507811D01*
X203244231Y-57693327D01*
X203261138Y-57879098D01*
X203313805Y-58058046D01*
X203400227Y-58223357D01*
X203517113Y-58368733D01*
X203660009Y-58488637D01*
X203823473Y-58578502D01*
X203828357Y-58580051D01*
X206824153Y-61575847D01*
X206968297Y-61694248D01*
X207132693Y-61782397D01*
X207311081Y-61836935D01*
X207496664Y-61855786D01*
X207682373Y-61838231D01*
X207861137Y-61784939D01*
X208026144Y-61697941D01*
X208171112Y-61580549D01*
X208290517Y-61437234D01*
X208379811Y-61273457D01*
X208435594Y-61095455D01*
X208455739Y-60910008D01*
X208455739Y-66292659D01*
X208413467Y-66250387D01*
X208395533Y-66159814D01*
X208333730Y-66009869D01*
X208243980Y-65874783D01*
X208129700Y-65759703D01*
X207995244Y-65669011D01*
X207845734Y-65606163D01*
X207686863Y-65573551D01*
X207524684Y-65572419D01*
X207365374Y-65602809D01*
X207215001Y-65663564D01*
X207079292Y-65752369D01*
X206963416Y-65865843D01*
X206871788Y-65999662D01*
X206807898Y-66148730D01*
X206774178Y-66307369D01*
X206773030Y-66389556D01*
X206491737Y-66108263D01*
X206452207Y-66075793D01*
X206412992Y-66042887D01*
X206410437Y-66041482D01*
X206408188Y-66039635D01*
X206363086Y-66015451D01*
X206318244Y-65990799D01*
X206315469Y-65989919D01*
X206312900Y-65988541D01*
X206263955Y-65973577D01*
X206215183Y-65958106D01*
X206212285Y-65957781D01*
X206209502Y-65956930D01*
X206158639Y-65951763D01*
X206107735Y-65946054D01*
X206102034Y-65946014D01*
X206101934Y-65946004D01*
X206101840Y-65946012D01*
X206100000Y-65946000D01*
X199515397Y-65946000D01*
X199429700Y-65859703D01*
X199295244Y-65769011D01*
X199145734Y-65706163D01*
X198986863Y-65673551D01*
X198824684Y-65672419D01*
X198665374Y-65702809D01*
X198515001Y-65763564D01*
X198379292Y-65852369D01*
X198263416Y-65965843D01*
X198171788Y-66099662D01*
X198107898Y-66248730D01*
X198074178Y-66407369D01*
X198071913Y-66569536D01*
X198101191Y-66729055D01*
X198160894Y-66879849D01*
X198248750Y-67016174D01*
X198361412Y-67132839D01*
X198494588Y-67225399D01*
X198643207Y-67290329D01*
X198801606Y-67325155D01*
X198963754Y-67328552D01*
X199123473Y-67300389D01*
X199274680Y-67241740D01*
X199411615Y-67154838D01*
X199517505Y-67054000D01*
X205870526Y-67054000D01*
X206573485Y-67756959D01*
X206571913Y-67869536D01*
X206601191Y-68029055D01*
X206660894Y-68179849D01*
X206748750Y-68316174D01*
X206861412Y-68432839D01*
X206994588Y-68525399D01*
X207143207Y-68590329D01*
X207301606Y-68625155D01*
X207463754Y-68628552D01*
X207623473Y-68600389D01*
X207774680Y-68541740D01*
X207819000Y-68513613D01*
X207819000Y-70500000D01*
X207825135Y-70562572D01*
X207830621Y-70625270D01*
X207831620Y-70628710D01*
X207831970Y-70632274D01*
X207850161Y-70692527D01*
X207867702Y-70752902D01*
X207869347Y-70756077D01*
X207870384Y-70759509D01*
X207899922Y-70815063D01*
X207928865Y-70870899D01*
X207931100Y-70873699D01*
X207932781Y-70876860D01*
X207972533Y-70925601D01*
X208011784Y-70974770D01*
X208016698Y-70979754D01*
X208016782Y-70979856D01*
X208016876Y-70979934D01*
X208018460Y-70981540D01*
X208524000Y-71487079D01*
X208524000Y-72385393D01*
X208514400Y-72381417D01*
X208514400Y-71935000D01*
X208509179Y-71881762D01*
X208504513Y-71828418D01*
X208503661Y-71825488D01*
X208503365Y-71822461D01*
X208487915Y-71771288D01*
X208472965Y-71719829D01*
X208471561Y-71717121D01*
X208470682Y-71714208D01*
X208445567Y-71666974D01*
X208420926Y-71619436D01*
X208419025Y-71617055D01*
X208417595Y-71614365D01*
X208383785Y-71572910D01*
X208350378Y-71531062D01*
X208346195Y-71526820D01*
X208346125Y-71526735D01*
X208346045Y-71526669D01*
X208344697Y-71525302D01*
X206409698Y-69590302D01*
X206368327Y-69556320D01*
X206327342Y-69521929D01*
X206324670Y-69520460D01*
X206322318Y-69518528D01*
X206275164Y-69493244D01*
X206228250Y-69467453D01*
X206225346Y-69466531D01*
X206222661Y-69465092D01*
X206171488Y-69449446D01*
X206120464Y-69433261D01*
X206117434Y-69432921D01*
X206114523Y-69432031D01*
X206061341Y-69426629D01*
X206008090Y-69420656D01*
X206002127Y-69420614D01*
X206002022Y-69420604D01*
X206001923Y-69420613D01*
X206000000Y-69420600D01*
X203774420Y-69420600D01*
X203743980Y-69374783D01*
X203629700Y-69259703D01*
X203495244Y-69169011D01*
X203345734Y-69106163D01*
X203186863Y-69073551D01*
X203024684Y-69072419D01*
X202865374Y-69102809D01*
X202715001Y-69163564D01*
X202579292Y-69252369D01*
X202463416Y-69365843D01*
X202371788Y-69499662D01*
X202307898Y-69648730D01*
X202274178Y-69807369D01*
X202271913Y-69969536D01*
X202301191Y-70129055D01*
X202360894Y-70279849D01*
X202448750Y-70416174D01*
X202561412Y-70532839D01*
X202694588Y-70625399D01*
X202843207Y-70690329D01*
X203001606Y-70725155D01*
X203163754Y-70728552D01*
X203323473Y-70700389D01*
X203403253Y-70669444D01*
X203403254Y-70669444D01*
X203410554Y-70668754D01*
X203410555Y-70668754D01*
X203518921Y-70636450D01*
X203618948Y-70583711D01*
X203624271Y-70579400D01*
X205760004Y-70579400D01*
X206235775Y-71055170D01*
X206215001Y-71063564D01*
X206079292Y-71152369D01*
X205963416Y-71265843D01*
X205871788Y-71399662D01*
X205867365Y-71409981D01*
X205843980Y-71374783D01*
X205729700Y-71259703D01*
X205595244Y-71169011D01*
X205445734Y-71106163D01*
X205286863Y-71073551D01*
X205124684Y-71072419D01*
X204965374Y-71102809D01*
X204815001Y-71163564D01*
X204679292Y-71252369D01*
X204563416Y-71365843D01*
X204471788Y-71499662D01*
X204407898Y-71648730D01*
X204374178Y-71807369D01*
X204371913Y-71969536D01*
X204401191Y-72129055D01*
X204460894Y-72279849D01*
X204514481Y-72363000D01*
X203632944Y-72363000D01*
X203550449Y-72379409D01*
X203490000Y-72404447D01*
X203429551Y-72379409D01*
X203347056Y-72363000D01*
X203262944Y-72363000D01*
X202506026Y-72363000D01*
X202439789Y-72296763D01*
X202335785Y-72227270D01*
X202220223Y-72179403D01*
X202097542Y-72155000D01*
X201972458Y-72155000D01*
X201870750Y-72155000D01*
X201712000Y-72313750D01*
X201712000Y-73913000D01*
X201732000Y-73913000D01*
X201732000Y-74167000D01*
X201712000Y-74167000D01*
X201712000Y-75766250D01*
X201870750Y-75925000D01*
X201972458Y-75925000D01*
X202097542Y-75925000D01*
X202220223Y-75900597D01*
X202301000Y-75867138D01*
X202301000Y-76155000D01*
X202305997Y-76205963D01*
X202310454Y-76256909D01*
X202311266Y-76259706D01*
X202311551Y-76262606D01*
X202326350Y-76311623D01*
X202340619Y-76360738D01*
X202341958Y-76363321D01*
X202342801Y-76366113D01*
X202346000Y-76372129D01*
X202346000Y-76523000D01*
X201857944Y-76523000D01*
X201775449Y-76539409D01*
X201697739Y-76571598D01*
X201627803Y-76618328D01*
X201568327Y-76677803D01*
X201521597Y-76747740D01*
X201489409Y-76825449D01*
X201473000Y-76907944D01*
X201473000Y-76992056D01*
X201473000Y-77892056D01*
X201489409Y-77974551D01*
X201521598Y-78052261D01*
X201568328Y-78122197D01*
X201596000Y-78149869D01*
X201596000Y-78850000D01*
X201600997Y-78900963D01*
X201605454Y-78951909D01*
X201606266Y-78954706D01*
X201606551Y-78957606D01*
X201621350Y-79006623D01*
X201635619Y-79055738D01*
X201636958Y-79058321D01*
X201637801Y-79061113D01*
X201661820Y-79106287D01*
X201685376Y-79151730D01*
X201687195Y-79154009D01*
X201688562Y-79156579D01*
X201720877Y-79196202D01*
X201752832Y-79236230D01*
X201756831Y-79240285D01*
X201756898Y-79240367D01*
X201756973Y-79240429D01*
X201758263Y-79241737D01*
X203508263Y-80991737D01*
X203547796Y-81024210D01*
X203587008Y-81057113D01*
X203589562Y-81058517D01*
X203591813Y-81060366D01*
X203636931Y-81084558D01*
X203681756Y-81109201D01*
X203684530Y-81110080D01*
X203687100Y-81111459D01*
X203736044Y-81126422D01*
X203784817Y-81141894D01*
X203787714Y-81142218D01*
X203790498Y-81143070D01*
X203841360Y-81148236D01*
X203892265Y-81153946D01*
X203897965Y-81153985D01*
X203898066Y-81153996D01*
X203898159Y-81153987D01*
X203900000Y-81154000D01*
X204900000Y-81154000D01*
X204950963Y-81149002D01*
X205001909Y-81144546D01*
X205004706Y-81143733D01*
X205007606Y-81143449D01*
X205056623Y-81128649D01*
X205073951Y-81123615D01*
X205071913Y-81269536D01*
X205101191Y-81429055D01*
X205160894Y-81579849D01*
X205248750Y-81716174D01*
X205361412Y-81832839D01*
X205494588Y-81925399D01*
X205578651Y-81962125D01*
X205871138Y-82254612D01*
X205777000Y-82348750D01*
X205777000Y-83073000D01*
X205797000Y-83073000D01*
X205797000Y-83327000D01*
X205777000Y-83327000D01*
X205777000Y-84051250D01*
X205935750Y-84210000D01*
X206112542Y-84210000D01*
X206235223Y-84185597D01*
X206350785Y-84137730D01*
X206454789Y-84068237D01*
X206543237Y-83979789D01*
X206610106Y-83879710D01*
X206661412Y-83932839D01*
X206794588Y-84025399D01*
X206943207Y-84090329D01*
X207101606Y-84125155D01*
X207263754Y-84128552D01*
X207423473Y-84100389D01*
X207574680Y-84041740D01*
X207711615Y-83954838D01*
X207829064Y-83842993D01*
X207922551Y-83710466D01*
X207988517Y-83562305D01*
X208024448Y-83404152D01*
X208026503Y-83256970D01*
X208424331Y-82859142D01*
X208420656Y-82891910D01*
X208420614Y-82897872D01*
X208420604Y-82897978D01*
X208420613Y-82898076D01*
X208420600Y-82900000D01*
X208420600Y-84400000D01*
X208425820Y-84453242D01*
X208430487Y-84506581D01*
X208431338Y-84509510D01*
X208431635Y-84512539D01*
X208447092Y-84563736D01*
X208462035Y-84615170D01*
X208463437Y-84617875D01*
X208464318Y-84620792D01*
X208489442Y-84668044D01*
X208514074Y-84715564D01*
X208515974Y-84717945D01*
X208517405Y-84720635D01*
X208551189Y-84762058D01*
X208584621Y-84803938D01*
X208588809Y-84808185D01*
X208588875Y-84808265D01*
X208588949Y-84808326D01*
X208590302Y-84809698D01*
X209219637Y-85439033D01*
X209189548Y-85455032D01*
X208994354Y-85614228D01*
X208833799Y-85808306D01*
X208751097Y-85961258D01*
X208652684Y-85755056D01*
X208476854Y-85519707D01*
X208258488Y-85323183D01*
X208005978Y-85173036D01*
X207729027Y-85075037D01*
X207497000Y-85195536D01*
X207497000Y-86403000D01*
X207517000Y-86403000D01*
X207517000Y-86657000D01*
X207497000Y-86657000D01*
X207497000Y-87735536D01*
X207497000Y-87864464D01*
X207497000Y-88943000D01*
X207517000Y-88943000D01*
X207517000Y-89197000D01*
X207497000Y-89197000D01*
X207497000Y-90404464D01*
X207729027Y-90524963D01*
X208005978Y-90426964D01*
X208258488Y-90276817D01*
X208476854Y-90080293D01*
X208652684Y-89844944D01*
X208751391Y-89638127D01*
X208823827Y-89776685D01*
X208981657Y-89972986D01*
X209174609Y-90134891D01*
X209395334Y-90256236D01*
X209635424Y-90332397D01*
X209885735Y-90360474D01*
X209903755Y-90360600D01*
X209916245Y-90360600D01*
X210166924Y-90336021D01*
X210408054Y-90263219D01*
X210630452Y-90144968D01*
X210825646Y-89985772D01*
X210986201Y-89791694D01*
X211106002Y-89570128D01*
X211180485Y-89329511D01*
X211180677Y-89327676D01*
X211247132Y-89553467D01*
X211363827Y-89776685D01*
X211521657Y-89972986D01*
X211714609Y-90134891D01*
X211935334Y-90256236D01*
X212175424Y-90332397D01*
X212425735Y-90360474D01*
X212443755Y-90360600D01*
X212456245Y-90360600D01*
X212706924Y-90336021D01*
X212948054Y-90263219D01*
X213170452Y-90144968D01*
X213365646Y-89985772D01*
X213526201Y-89791694D01*
X213646002Y-89570128D01*
X213720485Y-89329511D01*
X213746814Y-89079010D01*
X213734939Y-88948534D01*
X214191737Y-88491737D01*
X214224206Y-88452207D01*
X214257113Y-88412992D01*
X214258517Y-88410437D01*
X214260365Y-88408188D01*
X214284548Y-88363086D01*
X214309201Y-88318244D01*
X214310080Y-88315469D01*
X214311459Y-88312900D01*
X214326422Y-88263955D01*
X214341894Y-88215183D01*
X214342218Y-88212285D01*
X214343070Y-88209502D01*
X214348236Y-88158639D01*
X214353946Y-88107735D01*
X214353985Y-88102034D01*
X214353996Y-88101934D01*
X214353987Y-88101840D01*
X214354000Y-88100000D01*
X214354000Y-85100000D01*
X214349012Y-85049131D01*
X214344547Y-84998091D01*
X214343732Y-84995288D01*
X214343449Y-84992394D01*
X214328672Y-84943450D01*
X214314382Y-84894263D01*
X214313041Y-84891676D01*
X214312199Y-84888887D01*
X214288188Y-84843729D01*
X214264624Y-84798270D01*
X214262804Y-84795990D01*
X214261438Y-84793421D01*
X214229127Y-84753804D01*
X214197169Y-84713771D01*
X214193168Y-84709714D01*
X214193102Y-84709633D01*
X214193026Y-84709570D01*
X214191737Y-84708263D01*
X213068460Y-83584986D01*
X213077000Y-83542056D01*
X213077000Y-83457944D01*
X213077000Y-83079400D01*
X213500000Y-83079400D01*
X213553242Y-83074179D01*
X213606581Y-83069513D01*
X213609510Y-83068661D01*
X213612539Y-83068365D01*
X213663736Y-83052907D01*
X213715170Y-83037965D01*
X213717875Y-83036562D01*
X213720792Y-83035682D01*
X213768044Y-83010557D01*
X213815564Y-82985926D01*
X213817945Y-82984025D01*
X213820635Y-82982595D01*
X213862058Y-82948810D01*
X213903938Y-82915379D01*
X213908185Y-82911190D01*
X213908265Y-82911125D01*
X213908326Y-82911050D01*
X213909698Y-82909698D01*
X214709996Y-82109400D01*
X215494147Y-82109400D01*
X215560690Y-82236685D01*
X215718520Y-82432986D01*
X215911472Y-82594891D01*
X216132197Y-82716236D01*
X216372287Y-82792397D01*
X216435615Y-82799500D01*
X216389939Y-82803979D01*
X216148809Y-82876781D01*
X215926411Y-82995032D01*
X215731217Y-83154228D01*
X215570662Y-83348306D01*
X215450861Y-83569872D01*
X215376378Y-83810489D01*
X215350049Y-84060990D01*
X215372878Y-84311834D01*
X215443995Y-84553467D01*
X215560690Y-84776685D01*
X215718520Y-84972986D01*
X215911472Y-85134891D01*
X216132197Y-85256236D01*
X216372287Y-85332397D01*
X216435615Y-85339500D01*
X216389939Y-85343979D01*
X216148809Y-85416781D01*
X215926411Y-85535032D01*
X215731217Y-85694228D01*
X215570662Y-85888306D01*
X215450861Y-86109872D01*
X215376378Y-86350489D01*
X215350049Y-86600990D01*
X215372878Y-86851834D01*
X215443995Y-87093467D01*
X215560690Y-87316685D01*
X215718520Y-87512986D01*
X215911472Y-87674891D01*
X216132197Y-87796236D01*
X216331315Y-87859400D01*
X215741944Y-87859400D01*
X215659449Y-87875809D01*
X215581739Y-87907998D01*
X215511803Y-87954728D01*
X215452327Y-88014203D01*
X215405597Y-88084140D01*
X215373409Y-88161849D01*
X215357000Y-88244344D01*
X215357000Y-88328456D01*
X215357000Y-90055656D01*
X215373409Y-90138151D01*
X215405598Y-90215861D01*
X215452328Y-90285797D01*
X215511803Y-90345273D01*
X215581740Y-90392003D01*
X215659449Y-90424191D01*
X215741944Y-90440600D01*
X215826056Y-90440600D01*
X217858056Y-90440600D01*
X217940551Y-90424191D01*
X218018261Y-90392002D01*
X218023000Y-90388835D01*
X218023000Y-90800000D01*
X218023000Y-91000000D01*
X218023000Y-91023000D01*
X218023000Y-91023000D01*
G37*
X218023000Y-91023000D02*
X207243000Y-91023000D01*
X207243000Y-90404464D01*
X207243000Y-89197000D01*
X207243000Y-88943000D01*
X207243000Y-87864464D01*
X207243000Y-87735536D01*
X207243000Y-86657000D01*
X207243000Y-86403000D01*
X207243000Y-85195536D01*
X207010973Y-85075037D01*
X206734022Y-85173036D01*
X206481512Y-85323183D01*
X206263146Y-85519707D01*
X206100000Y-85738078D01*
X205936854Y-85519707D01*
X205718488Y-85323183D01*
X205523000Y-85206942D01*
X205523000Y-84051250D01*
X205523000Y-83327000D01*
X205503000Y-83327000D01*
X205503000Y-83073000D01*
X205523000Y-83073000D01*
X205523000Y-82348750D01*
X205364250Y-82190000D01*
X205187458Y-82190000D01*
X205064777Y-82214403D01*
X204949215Y-82262270D01*
X204845211Y-82331763D01*
X204756763Y-82420211D01*
X204741978Y-82442338D01*
X204674551Y-82414409D01*
X204592056Y-82398000D01*
X204507944Y-82398000D01*
X203707944Y-82398000D01*
X203625449Y-82414409D01*
X203547739Y-82446598D01*
X203477803Y-82493328D01*
X203477000Y-82494130D01*
X203477000Y-82042056D01*
X203477000Y-81957944D01*
X203477000Y-81457944D01*
X203460591Y-81375449D01*
X203428402Y-81297739D01*
X203381672Y-81227803D01*
X203322197Y-81168327D01*
X203252260Y-81121597D01*
X203174551Y-81089409D01*
X203092056Y-81073000D01*
X203007944Y-81073000D01*
X202756474Y-81073000D01*
X202625318Y-80941844D01*
X202627035Y-80818909D01*
X202595533Y-80659814D01*
X202533730Y-80509869D01*
X202443980Y-80374783D01*
X202329700Y-80259703D01*
X202195244Y-80169011D01*
X202045734Y-80106163D01*
X201886863Y-80073551D01*
X201724684Y-80072419D01*
X201565374Y-80102809D01*
X201485361Y-80135136D01*
X201458000Y-80068752D01*
X201458000Y-75766250D01*
X201458000Y-74167000D01*
X201458000Y-73913000D01*
X201458000Y-72313750D01*
X201299250Y-72155000D01*
X201197542Y-72155000D01*
X201072458Y-72155000D01*
X200950000Y-72179358D01*
X200827542Y-72155000D01*
X200727035Y-72155000D01*
X200727035Y-70018909D01*
X200695533Y-69859814D01*
X200633730Y-69709869D01*
X200543980Y-69574783D01*
X200429700Y-69459703D01*
X200295244Y-69369011D01*
X200145734Y-69306163D01*
X199986863Y-69273551D01*
X199824684Y-69272419D01*
X199665374Y-69302809D01*
X199515001Y-69363564D01*
X199379292Y-69452369D01*
X199263416Y-69565843D01*
X199171788Y-69699662D01*
X199107898Y-69848730D01*
X199086224Y-69950695D01*
X199018460Y-70018460D01*
X199018455Y-70018465D01*
X198318460Y-70718460D01*
X198278545Y-70767053D01*
X198238098Y-70815257D01*
X198236371Y-70818397D01*
X198234100Y-70821163D01*
X198204381Y-70876587D01*
X198174069Y-70931726D01*
X198172986Y-70935138D01*
X198171294Y-70938295D01*
X198152906Y-70998436D01*
X198133881Y-71058412D01*
X198133481Y-71061972D01*
X198132435Y-71065396D01*
X198126080Y-71127957D01*
X198119066Y-71190492D01*
X198119017Y-71197490D01*
X198119004Y-71197623D01*
X198119015Y-71197746D01*
X198119000Y-71200000D01*
X198119000Y-79811411D01*
X198063416Y-79865843D01*
X197971788Y-79999662D01*
X197907898Y-80148730D01*
X197874178Y-80307369D01*
X197871913Y-80469536D01*
X197901191Y-80629055D01*
X197960894Y-80779849D01*
X198048750Y-80916174D01*
X198161412Y-81032839D01*
X198294588Y-81125399D01*
X198443207Y-81190329D01*
X198601606Y-81225155D01*
X198763754Y-81228552D01*
X198923473Y-81200389D01*
X199074680Y-81141740D01*
X199211615Y-81054838D01*
X199329064Y-80942993D01*
X199422551Y-80810466D01*
X199488517Y-80662305D01*
X199524448Y-80504152D01*
X199527035Y-80318909D01*
X199495533Y-80159814D01*
X199481000Y-80124554D01*
X199481000Y-75797127D01*
X199564215Y-75852730D01*
X199679777Y-75900597D01*
X199802458Y-75925000D01*
X199927542Y-75925000D01*
X200029250Y-75925000D01*
X200188000Y-75766250D01*
X200188000Y-74167000D01*
X200168000Y-74167000D01*
X200168000Y-73913000D01*
X200188000Y-73913000D01*
X200188000Y-72313750D01*
X200029250Y-72155000D01*
X199927542Y-72155000D01*
X199802458Y-72155000D01*
X199679777Y-72179403D01*
X199564215Y-72227270D01*
X199481000Y-72282872D01*
X199481000Y-71482079D01*
X199981467Y-70981611D01*
X199981539Y-70981540D01*
X199981540Y-70981540D01*
X200049678Y-70913401D01*
X200123473Y-70900389D01*
X200274680Y-70841740D01*
X200411615Y-70754838D01*
X200529064Y-70642993D01*
X200622551Y-70510466D01*
X200688517Y-70362305D01*
X200724448Y-70204152D01*
X200727035Y-70018909D01*
X200727035Y-72155000D01*
X200702458Y-72155000D01*
X200600750Y-72155000D01*
X200442000Y-72313750D01*
X200442000Y-73913000D01*
X200658750Y-73913000D01*
X201241250Y-73913000D01*
X201458000Y-73913000D01*
X201458000Y-74167000D01*
X201241250Y-74167000D01*
X200658750Y-74167000D01*
X200442000Y-74167000D01*
X200442000Y-75766250D01*
X200600750Y-75925000D01*
X200702458Y-75925000D01*
X200827542Y-75925000D01*
X200950000Y-75900641D01*
X201072458Y-75925000D01*
X201197542Y-75925000D01*
X201299250Y-75925000D01*
X201458000Y-75766250D01*
X201458000Y-80068752D01*
X201433730Y-80009869D01*
X201343980Y-79874783D01*
X201229700Y-79759703D01*
X201095244Y-79669011D01*
X200945734Y-79606163D01*
X200786863Y-79573551D01*
X200624684Y-79572419D01*
X200465374Y-79602809D01*
X200315001Y-79663564D01*
X200179292Y-79752369D01*
X200063416Y-79865843D01*
X199971788Y-79999662D01*
X199907898Y-80148730D01*
X199874178Y-80307369D01*
X199871913Y-80469536D01*
X199880165Y-80514497D01*
X199873577Y-80536044D01*
X199858106Y-80584817D01*
X199857781Y-80587714D01*
X199856930Y-80590498D01*
X199851763Y-80641360D01*
X199846054Y-80692265D01*
X199846014Y-80697965D01*
X199846004Y-80698066D01*
X199846012Y-80698159D01*
X199846000Y-80700000D01*
X199846000Y-81085321D01*
X199825449Y-81089409D01*
X199747739Y-81121598D01*
X199677803Y-81168328D01*
X199618327Y-81227803D01*
X199571597Y-81297740D01*
X199539409Y-81375449D01*
X199523000Y-81457944D01*
X199523000Y-81542056D01*
X199523000Y-82042056D01*
X199539409Y-82124551D01*
X199571598Y-82202261D01*
X199618328Y-82272197D01*
X199677803Y-82331673D01*
X199747740Y-82378403D01*
X199825449Y-82410591D01*
X199907944Y-82427000D01*
X199992056Y-82427000D01*
X200892056Y-82427000D01*
X200974551Y-82410591D01*
X201052261Y-82378402D01*
X201122197Y-82331672D01*
X201181673Y-82272197D01*
X201228403Y-82202260D01*
X201260591Y-82124551D01*
X201277000Y-82042056D01*
X201277000Y-81957944D01*
X201277000Y-81912066D01*
X201292685Y-81861397D01*
X201303986Y-81753868D01*
X201294187Y-81646191D01*
X201277000Y-81587793D01*
X201277000Y-81543672D01*
X201394588Y-81625399D01*
X201543207Y-81690329D01*
X201701606Y-81725155D01*
X201723000Y-81725603D01*
X201723000Y-82042056D01*
X201739409Y-82124551D01*
X201771598Y-82202261D01*
X201818328Y-82272197D01*
X201877803Y-82331673D01*
X201947740Y-82378403D01*
X202025449Y-82410591D01*
X202107944Y-82427000D01*
X202192056Y-82427000D01*
X203092056Y-82427000D01*
X203174551Y-82410591D01*
X203252261Y-82378402D01*
X203322197Y-82331672D01*
X203381673Y-82272197D01*
X203428403Y-82202260D01*
X203460591Y-82124551D01*
X203477000Y-82042056D01*
X203477000Y-82494130D01*
X203418327Y-82552803D01*
X203371597Y-82622740D01*
X203343775Y-82689906D01*
X203322197Y-82668327D01*
X203252260Y-82621597D01*
X203174551Y-82589409D01*
X203092056Y-82573000D01*
X203007944Y-82573000D01*
X202107944Y-82573000D01*
X202025449Y-82589409D01*
X201947739Y-82621598D01*
X201877803Y-82668328D01*
X201818327Y-82727803D01*
X201771597Y-82797740D01*
X201739409Y-82875449D01*
X201723000Y-82957944D01*
X201723000Y-83042056D01*
X201723000Y-83307604D01*
X199789382Y-85241221D01*
X199774265Y-85239526D01*
X199756245Y-85239400D01*
X199743755Y-85239400D01*
X199633237Y-85250236D01*
X200678271Y-84205202D01*
X200717258Y-84184821D01*
X200805385Y-84113965D01*
X200878071Y-84027342D01*
X200932547Y-83928250D01*
X200935697Y-83918319D01*
X200974551Y-83910591D01*
X201052261Y-83878402D01*
X201122197Y-83831672D01*
X201181673Y-83772197D01*
X201228403Y-83702260D01*
X201260591Y-83624551D01*
X201277000Y-83542056D01*
X201277000Y-83457944D01*
X201277000Y-82957944D01*
X201260591Y-82875449D01*
X201228402Y-82797739D01*
X201181672Y-82727803D01*
X201122197Y-82668327D01*
X201052260Y-82621597D01*
X200974551Y-82589409D01*
X200892056Y-82573000D01*
X200807944Y-82573000D01*
X199907944Y-82573000D01*
X199825449Y-82589409D01*
X199747739Y-82621598D01*
X199677803Y-82668328D01*
X199618327Y-82727803D01*
X199571597Y-82797740D01*
X199539409Y-82875449D01*
X199523000Y-82957944D01*
X199523000Y-83042056D01*
X199523000Y-83542056D01*
X199539409Y-83624551D01*
X199571598Y-83702261D01*
X199588688Y-83727837D01*
X198108263Y-85208263D01*
X198075793Y-85247792D01*
X198042887Y-85287008D01*
X198041482Y-85289562D01*
X198039635Y-85291812D01*
X198015451Y-85336913D01*
X197990799Y-85381756D01*
X197989919Y-85384530D01*
X197988541Y-85387100D01*
X197973577Y-85436044D01*
X197958106Y-85484817D01*
X197957781Y-85487714D01*
X197956930Y-85490498D01*
X197951763Y-85541360D01*
X197946054Y-85592265D01*
X197946014Y-85597965D01*
X197946004Y-85598066D01*
X197946012Y-85598159D01*
X197946000Y-85600000D01*
X197946000Y-87600000D01*
X197950997Y-87650963D01*
X197955454Y-87701909D01*
X197956266Y-87704706D01*
X197956551Y-87707606D01*
X197971350Y-87756623D01*
X197985619Y-87805738D01*
X197986958Y-87808321D01*
X197987801Y-87811113D01*
X198011820Y-87856287D01*
X198035376Y-87901730D01*
X198037195Y-87904009D01*
X198038562Y-87906579D01*
X198070877Y-87946202D01*
X198102832Y-87986230D01*
X198106831Y-87990285D01*
X198106898Y-87990367D01*
X198106973Y-87990429D01*
X198108263Y-87991737D01*
X198600463Y-88483937D01*
X198553998Y-88569872D01*
X198479515Y-88810489D01*
X198453186Y-89060990D01*
X198476015Y-89311834D01*
X198547132Y-89553467D01*
X198663827Y-89776685D01*
X198821657Y-89972986D01*
X199014609Y-90134891D01*
X199235334Y-90256236D01*
X199475424Y-90332397D01*
X199725735Y-90360474D01*
X199743755Y-90360600D01*
X199756245Y-90360600D01*
X200006924Y-90336021D01*
X200248054Y-90263219D01*
X200470452Y-90144968D01*
X200665646Y-89985772D01*
X200826201Y-89791694D01*
X200946002Y-89570128D01*
X201020485Y-89329511D01*
X201020677Y-89327676D01*
X201087132Y-89553467D01*
X201203827Y-89776685D01*
X201361657Y-89972986D01*
X201554609Y-90134891D01*
X201775334Y-90256236D01*
X202015424Y-90332397D01*
X202265735Y-90360474D01*
X202283755Y-90360600D01*
X202296245Y-90360600D01*
X202546924Y-90336021D01*
X202788054Y-90263219D01*
X203010452Y-90144968D01*
X203205646Y-89985772D01*
X203366201Y-89791694D01*
X203448902Y-89638741D01*
X203547316Y-89844944D01*
X203723146Y-90080293D01*
X203941512Y-90276817D01*
X204194022Y-90426964D01*
X204470973Y-90524963D01*
X204703000Y-90404464D01*
X204703000Y-89197000D01*
X204683000Y-89197000D01*
X204683000Y-88943000D01*
X204703000Y-88943000D01*
X204703000Y-87864464D01*
X204703000Y-87735536D01*
X204703000Y-86657000D01*
X204683000Y-86657000D01*
X204683000Y-86403000D01*
X204703000Y-86403000D01*
X204703000Y-85195536D01*
X204470973Y-85075037D01*
X204194022Y-85173036D01*
X203941512Y-85323183D01*
X203723146Y-85519707D01*
X203547316Y-85755056D01*
X203448608Y-85961872D01*
X203376173Y-85823315D01*
X203218343Y-85627014D01*
X203025391Y-85465109D01*
X202804666Y-85343764D01*
X202564576Y-85267603D01*
X202314265Y-85239526D01*
X202296245Y-85239400D01*
X202283755Y-85239400D01*
X202033076Y-85263979D01*
X201791946Y-85336781D01*
X201569548Y-85455032D01*
X201374354Y-85614228D01*
X201213799Y-85808306D01*
X201093998Y-86029872D01*
X201019515Y-86270489D01*
X201019322Y-86272323D01*
X200952868Y-86046533D01*
X200839574Y-85829821D01*
X202742395Y-83927000D01*
X203092056Y-83927000D01*
X203174551Y-83910591D01*
X203252261Y-83878402D01*
X203322197Y-83831672D01*
X203349869Y-83804000D01*
X203389464Y-83804000D01*
X203418328Y-83847197D01*
X203477803Y-83906673D01*
X203547740Y-83953403D01*
X203625449Y-83985591D01*
X203707944Y-84002000D01*
X203792056Y-84002000D01*
X204592056Y-84002000D01*
X204674551Y-83985591D01*
X204741977Y-83957661D01*
X204756763Y-83979789D01*
X204845211Y-84068237D01*
X204949215Y-84137730D01*
X205064777Y-84185597D01*
X205187458Y-84210000D01*
X205364250Y-84210000D01*
X205523000Y-84051250D01*
X205523000Y-85206942D01*
X205465978Y-85173036D01*
X205189027Y-85075037D01*
X204957000Y-85195536D01*
X204957000Y-86403000D01*
X206036183Y-86403000D01*
X206163817Y-86403000D01*
X207243000Y-86403000D01*
X207243000Y-86657000D01*
X206163817Y-86657000D01*
X206036183Y-86657000D01*
X204957000Y-86657000D01*
X204957000Y-87735536D01*
X204957000Y-87864464D01*
X204957000Y-88943000D01*
X206036183Y-88943000D01*
X206163817Y-88943000D01*
X207243000Y-88943000D01*
X207243000Y-89197000D01*
X206163817Y-89197000D01*
X206036183Y-89197000D01*
X204957000Y-89197000D01*
X204957000Y-90404464D01*
X205189027Y-90524963D01*
X205465978Y-90426964D01*
X205718488Y-90276817D01*
X205936854Y-90080293D01*
X206100000Y-89861921D01*
X206263146Y-90080293D01*
X206481512Y-90276817D01*
X206734022Y-90426964D01*
X207010973Y-90524963D01*
X207243000Y-90404464D01*
X207243000Y-91023000D01*
X197477000Y-91023000D01*
X197477000Y-91000000D01*
X197477000Y-90800000D01*
X197477000Y-51477000D01*
X218023000Y-51477000D01*
X218023000Y-75409033D01*
X217951729Y-75331514D01*
X217714321Y-75158046D01*
X217447633Y-75034227D01*
X217161914Y-74964815D01*
X216927000Y-75109075D01*
X216927000Y-76323000D01*
X216947000Y-76323000D01*
X216947000Y-76577000D01*
X216927000Y-76577000D01*
X216927000Y-77649075D01*
X216927000Y-77790925D01*
X216927000Y-78863000D01*
X216947000Y-78863000D01*
X216947000Y-79117000D01*
X216927000Y-79117000D01*
X216927000Y-79137000D01*
X216673000Y-79137000D01*
X216673000Y-79117000D01*
X216673000Y-78863000D01*
X216673000Y-77790925D01*
X216673000Y-77649075D01*
X216673000Y-76577000D01*
X216673000Y-76323000D01*
X216673000Y-75109075D01*
X216438086Y-74964815D01*
X216152367Y-75034227D01*
X215885679Y-75158046D01*
X215648271Y-75331514D01*
X215449267Y-75547965D01*
X215370000Y-75678104D01*
X215370000Y-75352542D01*
X215370000Y-74325750D01*
X215370000Y-73754250D01*
X215370000Y-72727458D01*
X215345597Y-72604777D01*
X215297730Y-72489215D01*
X215228237Y-72385211D01*
X215139789Y-72296763D01*
X215035785Y-72227270D01*
X214920223Y-72179403D01*
X214797542Y-72155000D01*
X214672458Y-72155000D01*
X214570750Y-72155000D01*
X214412000Y-72313750D01*
X214412000Y-73913000D01*
X215211250Y-73913000D01*
X215370000Y-73754250D01*
X215370000Y-74325750D01*
X215211250Y-74167000D01*
X214412000Y-74167000D01*
X214412000Y-75766250D01*
X214570750Y-75925000D01*
X214672458Y-75925000D01*
X214797542Y-75925000D01*
X214920223Y-75900597D01*
X215035785Y-75852730D01*
X215139789Y-75783237D01*
X215228237Y-75694789D01*
X215297730Y-75590785D01*
X215345597Y-75475223D01*
X215370000Y-75352542D01*
X215370000Y-75678104D01*
X215296314Y-75799081D01*
X215195291Y-76075211D01*
X215192642Y-76090974D01*
X215313783Y-76323000D01*
X216673000Y-76323000D01*
X216673000Y-76577000D01*
X215313783Y-76577000D01*
X215192642Y-76809026D01*
X215195291Y-76824789D01*
X215296314Y-77100919D01*
X215449267Y-77352035D01*
X215648271Y-77568486D01*
X215855632Y-77720000D01*
X215648271Y-77871514D01*
X215449267Y-78087965D01*
X215296314Y-78339081D01*
X215195291Y-78615211D01*
X215192642Y-78630974D01*
X215313783Y-78863000D01*
X216673000Y-78863000D01*
X216673000Y-79117000D01*
X215313783Y-79117000D01*
X215192642Y-79349026D01*
X215195291Y-79364789D01*
X215296314Y-79640919D01*
X215449267Y-79892035D01*
X215648271Y-80108486D01*
X215885679Y-80281954D01*
X216081198Y-80372730D01*
X215926411Y-80455032D01*
X215731217Y-80614228D01*
X215570662Y-80808306D01*
X215493723Y-80950600D01*
X214470000Y-80950600D01*
X214416762Y-80955820D01*
X214363418Y-80960487D01*
X214360488Y-80961338D01*
X214357461Y-80961635D01*
X214306288Y-80977084D01*
X214254829Y-80992035D01*
X214252121Y-80993438D01*
X214249208Y-80994318D01*
X214201974Y-81019432D01*
X214154436Y-81044074D01*
X214152055Y-81045974D01*
X214149365Y-81047405D01*
X214107910Y-81081214D01*
X214066062Y-81114622D01*
X214061816Y-81118808D01*
X214061735Y-81118875D01*
X214061672Y-81118950D01*
X214060302Y-81120302D01*
X213835000Y-81345604D01*
X213835000Y-79812542D01*
X213835000Y-79687458D01*
X213835000Y-78785750D01*
X213835000Y-78214250D01*
X213835000Y-77312542D01*
X213835000Y-77187458D01*
X213810597Y-77064777D01*
X213762730Y-76949215D01*
X213693237Y-76845211D01*
X213604789Y-76756763D01*
X213500785Y-76687270D01*
X213385223Y-76639403D01*
X213262542Y-76615000D01*
X212985750Y-76615000D01*
X212827000Y-76773750D01*
X212827000Y-78373000D01*
X213676250Y-78373000D01*
X213835000Y-78214250D01*
X213835000Y-78785750D01*
X213676250Y-78627000D01*
X212827000Y-78627000D01*
X212827000Y-80226250D01*
X212985750Y-80385000D01*
X213262542Y-80385000D01*
X213385223Y-80360597D01*
X213500785Y-80312730D01*
X213604789Y-80243237D01*
X213693237Y-80154789D01*
X213762730Y-80050785D01*
X213810597Y-79935223D01*
X213835000Y-79812542D01*
X213835000Y-81345604D01*
X213260004Y-81920600D01*
X213077000Y-81920600D01*
X213077000Y-81457944D01*
X213060591Y-81375449D01*
X213028402Y-81297739D01*
X212981672Y-81227803D01*
X212922197Y-81168327D01*
X212852260Y-81121597D01*
X212774551Y-81089409D01*
X212692056Y-81073000D01*
X212607944Y-81073000D01*
X212573000Y-81073000D01*
X212573000Y-80226250D01*
X212573000Y-78627000D01*
X212573000Y-78373000D01*
X212573000Y-76773750D01*
X212414250Y-76615000D01*
X212137458Y-76615000D01*
X212014777Y-76639403D01*
X211899215Y-76687270D01*
X211795211Y-76756763D01*
X211706763Y-76845211D01*
X211637270Y-76949215D01*
X211589403Y-77064777D01*
X211585000Y-77086912D01*
X211585000Y-76612542D01*
X211585000Y-76583750D01*
X211426250Y-76425000D01*
X210777000Y-76425000D01*
X210777000Y-77026250D01*
X210935750Y-77185000D01*
X211012542Y-77185000D01*
X211135223Y-77160597D01*
X211250785Y-77112730D01*
X211354789Y-77043237D01*
X211443237Y-76954789D01*
X211512730Y-76850785D01*
X211560597Y-76735223D01*
X211585000Y-76612542D01*
X211585000Y-77086912D01*
X211565000Y-77187458D01*
X211565000Y-77312542D01*
X211565000Y-78214250D01*
X211723750Y-78373000D01*
X212573000Y-78373000D01*
X212573000Y-78627000D01*
X211723750Y-78627000D01*
X211565000Y-78785750D01*
X211565000Y-79687458D01*
X211565000Y-79812542D01*
X211589403Y-79935223D01*
X211637270Y-80050785D01*
X211706763Y-80154789D01*
X211795211Y-80243237D01*
X211899215Y-80312730D01*
X212014777Y-80360597D01*
X212137458Y-80385000D01*
X212414250Y-80385000D01*
X212573000Y-80226250D01*
X212573000Y-81073000D01*
X212356474Y-81073000D01*
X211791737Y-80508263D01*
X211752207Y-80475793D01*
X211712992Y-80442887D01*
X211710437Y-80441482D01*
X211708188Y-80439635D01*
X211663086Y-80415451D01*
X211618244Y-80390799D01*
X211615469Y-80389919D01*
X211612900Y-80388541D01*
X211563955Y-80373577D01*
X211515183Y-80358106D01*
X211512285Y-80357781D01*
X211509502Y-80356930D01*
X211458639Y-80351763D01*
X211407735Y-80346054D01*
X211402034Y-80346014D01*
X211401934Y-80346004D01*
X211401840Y-80346012D01*
X211400000Y-80346000D01*
X208993942Y-80346000D01*
X209009201Y-80318244D01*
X209010080Y-80315469D01*
X209011459Y-80312900D01*
X209026422Y-80263955D01*
X209041894Y-80215183D01*
X209042218Y-80212285D01*
X209043070Y-80209502D01*
X209048236Y-80158639D01*
X209049235Y-80149732D01*
X209075449Y-80160591D01*
X209157944Y-80177000D01*
X209242056Y-80177000D01*
X210242056Y-80177000D01*
X210324551Y-80160591D01*
X210402261Y-80128402D01*
X210472197Y-80081672D01*
X210531673Y-80022197D01*
X210578403Y-79952260D01*
X210610591Y-79874551D01*
X210627000Y-79792056D01*
X210627000Y-79707944D01*
X210627000Y-77207944D01*
X210610591Y-77125449D01*
X210578402Y-77047739D01*
X210531672Y-76977803D01*
X210523000Y-76969130D01*
X210523000Y-76425000D01*
X210503000Y-76425000D01*
X210503000Y-76175000D01*
X210523000Y-76175000D01*
X210523000Y-76153000D01*
X210777000Y-76153000D01*
X210777000Y-76175000D01*
X211426250Y-76175000D01*
X211585000Y-76016250D01*
X211585000Y-75987458D01*
X211560597Y-75864777D01*
X211512730Y-75749215D01*
X211491204Y-75717000D01*
X212237056Y-75717000D01*
X212319551Y-75700591D01*
X212379999Y-75675552D01*
X212440449Y-75700591D01*
X212522944Y-75717000D01*
X212607056Y-75717000D01*
X213363974Y-75717000D01*
X213430211Y-75783237D01*
X213534215Y-75852730D01*
X213649777Y-75900597D01*
X213772458Y-75925000D01*
X213897542Y-75925000D01*
X213999250Y-75925000D01*
X214158000Y-75766250D01*
X214158000Y-74167000D01*
X214138000Y-74167000D01*
X214138000Y-73913000D01*
X214158000Y-73913000D01*
X214158000Y-72313750D01*
X213999250Y-72155000D01*
X213897542Y-72155000D01*
X213772458Y-72155000D01*
X213649777Y-72179403D01*
X213534215Y-72227270D01*
X213430211Y-72296763D01*
X213363974Y-72363000D01*
X212522944Y-72363000D01*
X212440449Y-72379409D01*
X212380000Y-72404447D01*
X212319551Y-72379409D01*
X212237056Y-72363000D01*
X212152944Y-72363000D01*
X211252944Y-72363000D01*
X211170449Y-72379409D01*
X211110000Y-72404447D01*
X211049551Y-72379409D01*
X210967056Y-72363000D01*
X210882944Y-72363000D01*
X209982944Y-72363000D01*
X209900449Y-72379409D01*
X209886000Y-72385394D01*
X209886000Y-71581000D01*
X215130706Y-71581000D01*
X215194588Y-71625399D01*
X215343207Y-71690329D01*
X215501606Y-71725155D01*
X215663754Y-71728552D01*
X215823473Y-71700389D01*
X215974680Y-71641740D01*
X216111615Y-71554838D01*
X216229064Y-71442993D01*
X216322551Y-71310466D01*
X216388517Y-71162305D01*
X216424448Y-71004152D01*
X216427035Y-70818909D01*
X216395533Y-70659814D01*
X216333730Y-70509869D01*
X216243980Y-70374783D01*
X216129700Y-70259703D01*
X215995244Y-70169011D01*
X215845734Y-70106163D01*
X215686863Y-70073551D01*
X215524684Y-70072419D01*
X215365374Y-70102809D01*
X215240792Y-70153143D01*
X215240792Y-58560000D01*
X215240792Y-55585000D01*
X215232179Y-55497164D01*
X215224482Y-55409181D01*
X215223079Y-55404353D01*
X215222589Y-55399352D01*
X215197077Y-55314852D01*
X215172440Y-55230050D01*
X215170126Y-55225586D01*
X215168674Y-55220776D01*
X215127250Y-55142869D01*
X215086595Y-55064438D01*
X215083456Y-55060505D01*
X215081099Y-55056073D01*
X215025343Y-54987708D01*
X214970218Y-54918655D01*
X214963319Y-54911660D01*
X214963202Y-54911516D01*
X214963068Y-54911405D01*
X214960847Y-54909153D01*
X214175847Y-54124153D01*
X214107638Y-54068126D01*
X214039991Y-54011363D01*
X214035585Y-54008940D01*
X214031703Y-54005752D01*
X213953898Y-53964033D01*
X213876527Y-53921498D01*
X213871737Y-53919978D01*
X213867307Y-53917603D01*
X213782891Y-53891794D01*
X213698720Y-53865094D01*
X213693721Y-53864533D01*
X213688919Y-53863065D01*
X213601133Y-53854148D01*
X213513345Y-53844301D01*
X213503518Y-53844232D01*
X213503336Y-53844214D01*
X213503166Y-53844230D01*
X213500000Y-53844208D01*
X208800000Y-53844208D01*
X208800000Y-53450000D01*
X208635000Y-53450000D01*
X208635000Y-53039250D01*
X208635000Y-52737458D01*
X208610597Y-52614777D01*
X208562730Y-52499215D01*
X208493237Y-52395211D01*
X208404789Y-52306763D01*
X208300785Y-52237270D01*
X208185223Y-52189403D01*
X208062542Y-52165000D01*
X207937458Y-52165000D01*
X207185750Y-52165000D01*
X207027000Y-52323750D01*
X207027000Y-53198000D01*
X208476250Y-53198000D01*
X208635000Y-53039250D01*
X208635000Y-53450000D01*
X206773000Y-53450000D01*
X206773000Y-53198000D01*
X206773000Y-52323750D01*
X206614250Y-52165000D01*
X205862542Y-52165000D01*
X205737458Y-52165000D01*
X205614777Y-52189403D01*
X205499215Y-52237270D01*
X205395211Y-52306763D01*
X205306763Y-52395211D01*
X205237270Y-52499215D01*
X205189403Y-52614777D01*
X205165000Y-52737458D01*
X205165000Y-53039250D01*
X205323750Y-53198000D01*
X206773000Y-53198000D01*
X206773000Y-53450000D01*
X205450000Y-53450000D01*
X205450000Y-53452000D01*
X205323750Y-53452000D01*
X205165000Y-53610750D01*
X205165000Y-53715750D01*
X205114250Y-53665000D01*
X204962542Y-53665000D01*
X204837458Y-53665000D01*
X204714777Y-53689403D01*
X204599215Y-53737270D01*
X204495211Y-53806763D01*
X204406763Y-53895211D01*
X204337270Y-53999215D01*
X204289403Y-54114777D01*
X204265000Y-54237458D01*
X204265000Y-54514250D01*
X204423750Y-54673000D01*
X205273000Y-54673000D01*
X205273000Y-54653000D01*
X205450000Y-54653000D01*
X205450000Y-54947000D01*
X205273000Y-54947000D01*
X205273000Y-54927000D01*
X204423750Y-54927000D01*
X204265000Y-55085750D01*
X204265000Y-55362542D01*
X204289403Y-55485223D01*
X204337270Y-55600785D01*
X204406763Y-55704789D01*
X204495211Y-55793237D01*
X204599215Y-55862730D01*
X204714777Y-55910597D01*
X204837458Y-55935000D01*
X204962542Y-55935000D01*
X205114250Y-55935000D01*
X205165000Y-55884250D01*
X205165000Y-55989250D01*
X205323750Y-56148000D01*
X206773000Y-56148000D01*
X206773000Y-56128000D01*
X207027000Y-56128000D01*
X207027000Y-56148000D01*
X208476250Y-56148000D01*
X208574250Y-56050000D01*
X208800000Y-56050000D01*
X208800000Y-55755792D01*
X213104098Y-55755792D01*
X213329208Y-55980902D01*
X213329208Y-56675000D01*
X213300750Y-56675000D01*
X213142000Y-56833750D01*
X213142000Y-58433000D01*
X213162000Y-58433000D01*
X213162000Y-58687000D01*
X213142000Y-58687000D01*
X213142000Y-60286250D01*
X213300750Y-60445000D01*
X213402458Y-60445000D01*
X213527542Y-60445000D01*
X213650223Y-60420597D01*
X213765785Y-60372730D01*
X213869789Y-60303237D01*
X213936026Y-60237000D01*
X214777056Y-60237000D01*
X214859551Y-60220591D01*
X214937261Y-60188402D01*
X215007197Y-60141672D01*
X215066673Y-60082197D01*
X215113403Y-60012260D01*
X215145591Y-59934551D01*
X215162000Y-59852056D01*
X215162000Y-59767944D01*
X215162000Y-58939259D01*
X215163502Y-58936527D01*
X215219906Y-58758720D01*
X215240699Y-58573345D01*
X215240792Y-58560000D01*
X215240792Y-70153143D01*
X215215001Y-70163564D01*
X215130285Y-70219000D01*
X212888000Y-70219000D01*
X212888000Y-60286250D01*
X212888000Y-58687000D01*
X212888000Y-58433000D01*
X212888000Y-56833750D01*
X212729250Y-56675000D01*
X212627542Y-56675000D01*
X212502458Y-56675000D01*
X212379777Y-56699403D01*
X212264215Y-56747270D01*
X212160211Y-56816763D01*
X212071763Y-56905211D01*
X212002270Y-57009215D01*
X211954403Y-57124777D01*
X211930000Y-57247458D01*
X211930000Y-58274250D01*
X212088750Y-58433000D01*
X212888000Y-58433000D01*
X212888000Y-58687000D01*
X212088750Y-58687000D01*
X211930000Y-58845750D01*
X211930000Y-59872542D01*
X211954403Y-59995223D01*
X212002270Y-60110785D01*
X212071763Y-60214789D01*
X212160211Y-60303237D01*
X212264215Y-60372730D01*
X212379777Y-60420597D01*
X212502458Y-60445000D01*
X212627542Y-60445000D01*
X212729250Y-60445000D01*
X212888000Y-60286250D01*
X212888000Y-70219000D01*
X209182079Y-70219000D01*
X209181000Y-70217920D01*
X209181000Y-67300000D01*
X209174864Y-67237427D01*
X209169379Y-67174730D01*
X209168379Y-67171289D01*
X209168030Y-67167726D01*
X209149838Y-67107472D01*
X209132298Y-67047098D01*
X209130652Y-67043922D01*
X209129616Y-67040491D01*
X209100087Y-66984957D01*
X209071135Y-66929100D01*
X209068898Y-66926297D01*
X209067219Y-66923140D01*
X209027484Y-66874420D01*
X208988216Y-66825230D01*
X208983301Y-66820245D01*
X208983218Y-66820144D01*
X208983123Y-66820065D01*
X208981540Y-66818460D01*
X208635000Y-66471920D01*
X208635000Y-56862542D01*
X208635000Y-56560750D01*
X208476250Y-56402000D01*
X207027000Y-56402000D01*
X207027000Y-57276250D01*
X207185750Y-57435000D01*
X207937458Y-57435000D01*
X208062542Y-57435000D01*
X208185223Y-57410597D01*
X208300785Y-57362730D01*
X208404789Y-57293237D01*
X208493237Y-57204789D01*
X208562730Y-57100785D01*
X208610597Y-56985223D01*
X208635000Y-56862542D01*
X208635000Y-66471920D01*
X208455739Y-66292659D01*
X208455739Y-60910008D01*
X208439482Y-60724180D01*
X208387439Y-60545050D01*
X208301594Y-60379438D01*
X208185217Y-60233655D01*
X208175847Y-60224153D01*
X206773000Y-58821306D01*
X206773000Y-57276250D01*
X206773000Y-56402000D01*
X205323750Y-56402000D01*
X205165000Y-56560750D01*
X205165000Y-56862542D01*
X205189403Y-56985223D01*
X205237270Y-57100785D01*
X205306763Y-57204789D01*
X205395211Y-57293237D01*
X205499215Y-57362730D01*
X205614777Y-57410597D01*
X205737458Y-57435000D01*
X205862542Y-57435000D01*
X206614250Y-57435000D01*
X206773000Y-57276250D01*
X206773000Y-58821306D01*
X204975847Y-57024153D01*
X204907638Y-56968126D01*
X204839991Y-56911363D01*
X204835585Y-56908940D01*
X204831703Y-56905752D01*
X204753898Y-56864033D01*
X204676527Y-56821498D01*
X204671737Y-56819978D01*
X204667307Y-56817603D01*
X204582891Y-56791794D01*
X204498720Y-56765094D01*
X204493721Y-56764533D01*
X204488919Y-56763065D01*
X204401133Y-56754148D01*
X204313345Y-56744301D01*
X204303518Y-56744232D01*
X204303336Y-56744214D01*
X204303166Y-56744230D01*
X204300000Y-56744208D01*
X204200000Y-56744208D01*
X204014352Y-56762411D01*
X203835776Y-56816326D01*
X203671073Y-56903901D01*
X203526516Y-57021798D01*
X203407613Y-57165528D01*
X203318891Y-57329616D01*
X203263730Y-57507811D01*
X203244231Y-57693327D01*
X203261138Y-57879098D01*
X203313805Y-58058046D01*
X203400227Y-58223357D01*
X203517113Y-58368733D01*
X203660009Y-58488637D01*
X203823473Y-58578502D01*
X203828357Y-58580051D01*
X206824153Y-61575847D01*
X206968297Y-61694248D01*
X207132693Y-61782397D01*
X207311081Y-61836935D01*
X207496664Y-61855786D01*
X207682373Y-61838231D01*
X207861137Y-61784939D01*
X208026144Y-61697941D01*
X208171112Y-61580549D01*
X208290517Y-61437234D01*
X208379811Y-61273457D01*
X208435594Y-61095455D01*
X208455739Y-60910008D01*
X208455739Y-66292659D01*
X208413467Y-66250387D01*
X208395533Y-66159814D01*
X208333730Y-66009869D01*
X208243980Y-65874783D01*
X208129700Y-65759703D01*
X207995244Y-65669011D01*
X207845734Y-65606163D01*
X207686863Y-65573551D01*
X207524684Y-65572419D01*
X207365374Y-65602809D01*
X207215001Y-65663564D01*
X207079292Y-65752369D01*
X206963416Y-65865843D01*
X206871788Y-65999662D01*
X206807898Y-66148730D01*
X206774178Y-66307369D01*
X206773030Y-66389556D01*
X206491737Y-66108263D01*
X206452207Y-66075793D01*
X206412992Y-66042887D01*
X206410437Y-66041482D01*
X206408188Y-66039635D01*
X206363086Y-66015451D01*
X206318244Y-65990799D01*
X206315469Y-65989919D01*
X206312900Y-65988541D01*
X206263955Y-65973577D01*
X206215183Y-65958106D01*
X206212285Y-65957781D01*
X206209502Y-65956930D01*
X206158639Y-65951763D01*
X206107735Y-65946054D01*
X206102034Y-65946014D01*
X206101934Y-65946004D01*
X206101840Y-65946012D01*
X206100000Y-65946000D01*
X199515397Y-65946000D01*
X199429700Y-65859703D01*
X199295244Y-65769011D01*
X199145734Y-65706163D01*
X198986863Y-65673551D01*
X198824684Y-65672419D01*
X198665374Y-65702809D01*
X198515001Y-65763564D01*
X198379292Y-65852369D01*
X198263416Y-65965843D01*
X198171788Y-66099662D01*
X198107898Y-66248730D01*
X198074178Y-66407369D01*
X198071913Y-66569536D01*
X198101191Y-66729055D01*
X198160894Y-66879849D01*
X198248750Y-67016174D01*
X198361412Y-67132839D01*
X198494588Y-67225399D01*
X198643207Y-67290329D01*
X198801606Y-67325155D01*
X198963754Y-67328552D01*
X199123473Y-67300389D01*
X199274680Y-67241740D01*
X199411615Y-67154838D01*
X199517505Y-67054000D01*
X205870526Y-67054000D01*
X206573485Y-67756959D01*
X206571913Y-67869536D01*
X206601191Y-68029055D01*
X206660894Y-68179849D01*
X206748750Y-68316174D01*
X206861412Y-68432839D01*
X206994588Y-68525399D01*
X207143207Y-68590329D01*
X207301606Y-68625155D01*
X207463754Y-68628552D01*
X207623473Y-68600389D01*
X207774680Y-68541740D01*
X207819000Y-68513613D01*
X207819000Y-70500000D01*
X207825135Y-70562572D01*
X207830621Y-70625270D01*
X207831620Y-70628710D01*
X207831970Y-70632274D01*
X207850161Y-70692527D01*
X207867702Y-70752902D01*
X207869347Y-70756077D01*
X207870384Y-70759509D01*
X207899922Y-70815063D01*
X207928865Y-70870899D01*
X207931100Y-70873699D01*
X207932781Y-70876860D01*
X207972533Y-70925601D01*
X208011784Y-70974770D01*
X208016698Y-70979754D01*
X208016782Y-70979856D01*
X208016876Y-70979934D01*
X208018460Y-70981540D01*
X208524000Y-71487079D01*
X208524000Y-72385393D01*
X208514400Y-72381417D01*
X208514400Y-71935000D01*
X208509179Y-71881762D01*
X208504513Y-71828418D01*
X208503661Y-71825488D01*
X208503365Y-71822461D01*
X208487915Y-71771288D01*
X208472965Y-71719829D01*
X208471561Y-71717121D01*
X208470682Y-71714208D01*
X208445567Y-71666974D01*
X208420926Y-71619436D01*
X208419025Y-71617055D01*
X208417595Y-71614365D01*
X208383785Y-71572910D01*
X208350378Y-71531062D01*
X208346195Y-71526820D01*
X208346125Y-71526735D01*
X208346045Y-71526669D01*
X208344697Y-71525302D01*
X206409698Y-69590302D01*
X206368327Y-69556320D01*
X206327342Y-69521929D01*
X206324670Y-69520460D01*
X206322318Y-69518528D01*
X206275164Y-69493244D01*
X206228250Y-69467453D01*
X206225346Y-69466531D01*
X206222661Y-69465092D01*
X206171488Y-69449446D01*
X206120464Y-69433261D01*
X206117434Y-69432921D01*
X206114523Y-69432031D01*
X206061341Y-69426629D01*
X206008090Y-69420656D01*
X206002127Y-69420614D01*
X206002022Y-69420604D01*
X206001923Y-69420613D01*
X206000000Y-69420600D01*
X203774420Y-69420600D01*
X203743980Y-69374783D01*
X203629700Y-69259703D01*
X203495244Y-69169011D01*
X203345734Y-69106163D01*
X203186863Y-69073551D01*
X203024684Y-69072419D01*
X202865374Y-69102809D01*
X202715001Y-69163564D01*
X202579292Y-69252369D01*
X202463416Y-69365843D01*
X202371788Y-69499662D01*
X202307898Y-69648730D01*
X202274178Y-69807369D01*
X202271913Y-69969536D01*
X202301191Y-70129055D01*
X202360894Y-70279849D01*
X202448750Y-70416174D01*
X202561412Y-70532839D01*
X202694588Y-70625399D01*
X202843207Y-70690329D01*
X203001606Y-70725155D01*
X203163754Y-70728552D01*
X203323473Y-70700389D01*
X203403253Y-70669444D01*
X203403254Y-70669444D01*
X203410554Y-70668754D01*
X203410555Y-70668754D01*
X203518921Y-70636450D01*
X203618948Y-70583711D01*
X203624271Y-70579400D01*
X205760004Y-70579400D01*
X206235775Y-71055170D01*
X206215001Y-71063564D01*
X206079292Y-71152369D01*
X205963416Y-71265843D01*
X205871788Y-71399662D01*
X205867365Y-71409981D01*
X205843980Y-71374783D01*
X205729700Y-71259703D01*
X205595244Y-71169011D01*
X205445734Y-71106163D01*
X205286863Y-71073551D01*
X205124684Y-71072419D01*
X204965374Y-71102809D01*
X204815001Y-71163564D01*
X204679292Y-71252369D01*
X204563416Y-71365843D01*
X204471788Y-71499662D01*
X204407898Y-71648730D01*
X204374178Y-71807369D01*
X204371913Y-71969536D01*
X204401191Y-72129055D01*
X204460894Y-72279849D01*
X204514481Y-72363000D01*
X203632944Y-72363000D01*
X203550449Y-72379409D01*
X203490000Y-72404447D01*
X203429551Y-72379409D01*
X203347056Y-72363000D01*
X203262944Y-72363000D01*
X202506026Y-72363000D01*
X202439789Y-72296763D01*
X202335785Y-72227270D01*
X202220223Y-72179403D01*
X202097542Y-72155000D01*
X201972458Y-72155000D01*
X201870750Y-72155000D01*
X201712000Y-72313750D01*
X201712000Y-73913000D01*
X201732000Y-73913000D01*
X201732000Y-74167000D01*
X201712000Y-74167000D01*
X201712000Y-75766250D01*
X201870750Y-75925000D01*
X201972458Y-75925000D01*
X202097542Y-75925000D01*
X202220223Y-75900597D01*
X202301000Y-75867138D01*
X202301000Y-76155000D01*
X202305997Y-76205963D01*
X202310454Y-76256909D01*
X202311266Y-76259706D01*
X202311551Y-76262606D01*
X202326350Y-76311623D01*
X202340619Y-76360738D01*
X202341958Y-76363321D01*
X202342801Y-76366113D01*
X202346000Y-76372129D01*
X202346000Y-76523000D01*
X201857944Y-76523000D01*
X201775449Y-76539409D01*
X201697739Y-76571598D01*
X201627803Y-76618328D01*
X201568327Y-76677803D01*
X201521597Y-76747740D01*
X201489409Y-76825449D01*
X201473000Y-76907944D01*
X201473000Y-76992056D01*
X201473000Y-77892056D01*
X201489409Y-77974551D01*
X201521598Y-78052261D01*
X201568328Y-78122197D01*
X201596000Y-78149869D01*
X201596000Y-78850000D01*
X201600997Y-78900963D01*
X201605454Y-78951909D01*
X201606266Y-78954706D01*
X201606551Y-78957606D01*
X201621350Y-79006623D01*
X201635619Y-79055738D01*
X201636958Y-79058321D01*
X201637801Y-79061113D01*
X201661820Y-79106287D01*
X201685376Y-79151730D01*
X201687195Y-79154009D01*
X201688562Y-79156579D01*
X201720877Y-79196202D01*
X201752832Y-79236230D01*
X201756831Y-79240285D01*
X201756898Y-79240367D01*
X201756973Y-79240429D01*
X201758263Y-79241737D01*
X203508263Y-80991737D01*
X203547796Y-81024210D01*
X203587008Y-81057113D01*
X203589562Y-81058517D01*
X203591813Y-81060366D01*
X203636931Y-81084558D01*
X203681756Y-81109201D01*
X203684530Y-81110080D01*
X203687100Y-81111459D01*
X203736044Y-81126422D01*
X203784817Y-81141894D01*
X203787714Y-81142218D01*
X203790498Y-81143070D01*
X203841360Y-81148236D01*
X203892265Y-81153946D01*
X203897965Y-81153985D01*
X203898066Y-81153996D01*
X203898159Y-81153987D01*
X203900000Y-81154000D01*
X204900000Y-81154000D01*
X204950963Y-81149002D01*
X205001909Y-81144546D01*
X205004706Y-81143733D01*
X205007606Y-81143449D01*
X205056623Y-81128649D01*
X205073951Y-81123615D01*
X205071913Y-81269536D01*
X205101191Y-81429055D01*
X205160894Y-81579849D01*
X205248750Y-81716174D01*
X205361412Y-81832839D01*
X205494588Y-81925399D01*
X205578651Y-81962125D01*
X205871138Y-82254612D01*
X205777000Y-82348750D01*
X205777000Y-83073000D01*
X205797000Y-83073000D01*
X205797000Y-83327000D01*
X205777000Y-83327000D01*
X205777000Y-84051250D01*
X205935750Y-84210000D01*
X206112542Y-84210000D01*
X206235223Y-84185597D01*
X206350785Y-84137730D01*
X206454789Y-84068237D01*
X206543237Y-83979789D01*
X206610106Y-83879710D01*
X206661412Y-83932839D01*
X206794588Y-84025399D01*
X206943207Y-84090329D01*
X207101606Y-84125155D01*
X207263754Y-84128552D01*
X207423473Y-84100389D01*
X207574680Y-84041740D01*
X207711615Y-83954838D01*
X207829064Y-83842993D01*
X207922551Y-83710466D01*
X207988517Y-83562305D01*
X208024448Y-83404152D01*
X208026503Y-83256970D01*
X208424331Y-82859142D01*
X208420656Y-82891910D01*
X208420614Y-82897872D01*
X208420604Y-82897978D01*
X208420613Y-82898076D01*
X208420600Y-82900000D01*
X208420600Y-84400000D01*
X208425820Y-84453242D01*
X208430487Y-84506581D01*
X208431338Y-84509510D01*
X208431635Y-84512539D01*
X208447092Y-84563736D01*
X208462035Y-84615170D01*
X208463437Y-84617875D01*
X208464318Y-84620792D01*
X208489442Y-84668044D01*
X208514074Y-84715564D01*
X208515974Y-84717945D01*
X208517405Y-84720635D01*
X208551189Y-84762058D01*
X208584621Y-84803938D01*
X208588809Y-84808185D01*
X208588875Y-84808265D01*
X208588949Y-84808326D01*
X208590302Y-84809698D01*
X209219637Y-85439033D01*
X209189548Y-85455032D01*
X208994354Y-85614228D01*
X208833799Y-85808306D01*
X208751097Y-85961258D01*
X208652684Y-85755056D01*
X208476854Y-85519707D01*
X208258488Y-85323183D01*
X208005978Y-85173036D01*
X207729027Y-85075037D01*
X207497000Y-85195536D01*
X207497000Y-86403000D01*
X207517000Y-86403000D01*
X207517000Y-86657000D01*
X207497000Y-86657000D01*
X207497000Y-87735536D01*
X207497000Y-87864464D01*
X207497000Y-88943000D01*
X207517000Y-88943000D01*
X207517000Y-89197000D01*
X207497000Y-89197000D01*
X207497000Y-90404464D01*
X207729027Y-90524963D01*
X208005978Y-90426964D01*
X208258488Y-90276817D01*
X208476854Y-90080293D01*
X208652684Y-89844944D01*
X208751391Y-89638127D01*
X208823827Y-89776685D01*
X208981657Y-89972986D01*
X209174609Y-90134891D01*
X209395334Y-90256236D01*
X209635424Y-90332397D01*
X209885735Y-90360474D01*
X209903755Y-90360600D01*
X209916245Y-90360600D01*
X210166924Y-90336021D01*
X210408054Y-90263219D01*
X210630452Y-90144968D01*
X210825646Y-89985772D01*
X210986201Y-89791694D01*
X211106002Y-89570128D01*
X211180485Y-89329511D01*
X211180677Y-89327676D01*
X211247132Y-89553467D01*
X211363827Y-89776685D01*
X211521657Y-89972986D01*
X211714609Y-90134891D01*
X211935334Y-90256236D01*
X212175424Y-90332397D01*
X212425735Y-90360474D01*
X212443755Y-90360600D01*
X212456245Y-90360600D01*
X212706924Y-90336021D01*
X212948054Y-90263219D01*
X213170452Y-90144968D01*
X213365646Y-89985772D01*
X213526201Y-89791694D01*
X213646002Y-89570128D01*
X213720485Y-89329511D01*
X213746814Y-89079010D01*
X213734939Y-88948534D01*
X214191737Y-88491737D01*
X214224206Y-88452207D01*
X214257113Y-88412992D01*
X214258517Y-88410437D01*
X214260365Y-88408188D01*
X214284548Y-88363086D01*
X214309201Y-88318244D01*
X214310080Y-88315469D01*
X214311459Y-88312900D01*
X214326422Y-88263955D01*
X214341894Y-88215183D01*
X214342218Y-88212285D01*
X214343070Y-88209502D01*
X214348236Y-88158639D01*
X214353946Y-88107735D01*
X214353985Y-88102034D01*
X214353996Y-88101934D01*
X214353987Y-88101840D01*
X214354000Y-88100000D01*
X214354000Y-85100000D01*
X214349012Y-85049131D01*
X214344547Y-84998091D01*
X214343732Y-84995288D01*
X214343449Y-84992394D01*
X214328672Y-84943450D01*
X214314382Y-84894263D01*
X214313041Y-84891676D01*
X214312199Y-84888887D01*
X214288188Y-84843729D01*
X214264624Y-84798270D01*
X214262804Y-84795990D01*
X214261438Y-84793421D01*
X214229127Y-84753804D01*
X214197169Y-84713771D01*
X214193168Y-84709714D01*
X214193102Y-84709633D01*
X214193026Y-84709570D01*
X214191737Y-84708263D01*
X213068460Y-83584986D01*
X213077000Y-83542056D01*
X213077000Y-83457944D01*
X213077000Y-83079400D01*
X213500000Y-83079400D01*
X213553242Y-83074179D01*
X213606581Y-83069513D01*
X213609510Y-83068661D01*
X213612539Y-83068365D01*
X213663736Y-83052907D01*
X213715170Y-83037965D01*
X213717875Y-83036562D01*
X213720792Y-83035682D01*
X213768044Y-83010557D01*
X213815564Y-82985926D01*
X213817945Y-82984025D01*
X213820635Y-82982595D01*
X213862058Y-82948810D01*
X213903938Y-82915379D01*
X213908185Y-82911190D01*
X213908265Y-82911125D01*
X213908326Y-82911050D01*
X213909698Y-82909698D01*
X214709996Y-82109400D01*
X215494147Y-82109400D01*
X215560690Y-82236685D01*
X215718520Y-82432986D01*
X215911472Y-82594891D01*
X216132197Y-82716236D01*
X216372287Y-82792397D01*
X216435615Y-82799500D01*
X216389939Y-82803979D01*
X216148809Y-82876781D01*
X215926411Y-82995032D01*
X215731217Y-83154228D01*
X215570662Y-83348306D01*
X215450861Y-83569872D01*
X215376378Y-83810489D01*
X215350049Y-84060990D01*
X215372878Y-84311834D01*
X215443995Y-84553467D01*
X215560690Y-84776685D01*
X215718520Y-84972986D01*
X215911472Y-85134891D01*
X216132197Y-85256236D01*
X216372287Y-85332397D01*
X216435615Y-85339500D01*
X216389939Y-85343979D01*
X216148809Y-85416781D01*
X215926411Y-85535032D01*
X215731217Y-85694228D01*
X215570662Y-85888306D01*
X215450861Y-86109872D01*
X215376378Y-86350489D01*
X215350049Y-86600990D01*
X215372878Y-86851834D01*
X215443995Y-87093467D01*
X215560690Y-87316685D01*
X215718520Y-87512986D01*
X215911472Y-87674891D01*
X216132197Y-87796236D01*
X216331315Y-87859400D01*
X215741944Y-87859400D01*
X215659449Y-87875809D01*
X215581739Y-87907998D01*
X215511803Y-87954728D01*
X215452327Y-88014203D01*
X215405597Y-88084140D01*
X215373409Y-88161849D01*
X215357000Y-88244344D01*
X215357000Y-88328456D01*
X215357000Y-90055656D01*
X215373409Y-90138151D01*
X215405598Y-90215861D01*
X215452328Y-90285797D01*
X215511803Y-90345273D01*
X215581740Y-90392003D01*
X215659449Y-90424191D01*
X215741944Y-90440600D01*
X215826056Y-90440600D01*
X217858056Y-90440600D01*
X217940551Y-90424191D01*
X218018261Y-90392002D01*
X218023000Y-90388835D01*
X218023000Y-90800000D01*
X218023000Y-91000000D01*
X218023000Y-91023000D01*
M02*
