M48
;DRILL file {kicad (2014-11-21 BZR 5297)-product} date Do 05 Feb 2015 11:43:25 CET
;FORMAT={-:-/ absolute / metric / decimal}
FMAT,2
METRIC,TZ
T1C0.300
T2C1.016
%
G90
G05
M71
T1
X197.7Y-76.6
X197.8Y-69.5
X198.Y-52.
X198.7Y-80.4
X198.9Y-66.5
X199.9Y-70.1
X200.3Y-76.4
X200.7Y-80.4
X201.8Y-80.9
X203.Y-67.4
X203.1Y-69.9
X203.5Y-79.1
X204.2Y-57.7
X204.4Y-52.7
X205.2Y-71.9
X205.3Y-51.8
X205.6Y-76.8
X205.9Y-81.2
X206.5Y-76.3
X206.6Y-71.8
X206.9Y-51.8
X206.9Y-57.7
X207.2Y-83.3
X207.4Y-67.8
X207.5Y-60.9
X207.6Y-66.4
X207.7Y-80.9
X207.9Y-76.2
X208.2Y-51.8
X208.6Y-57.7
X209.1Y-52.8
X209.2Y-56.3
X210.3Y-53.3
X210.5Y-56.3
X211.6Y-53.3
X211.8Y-56.3
X212.9Y-53.3
X213.7Y-65.8
X213.9Y-60.9
X214.2Y-53.3
X215.2Y-54.3
X215.2Y-60.7
X215.6Y-70.9
X215.8Y-55.6
X215.8Y-56.9
X215.8Y-58.2
X215.8Y-59.5
X217.5Y-52.
X217.5Y-57.
X217.5Y-62.
X217.5Y-67.
T2
X199.75Y-86.53
X199.75Y-89.07
X202.29Y-86.53
X202.29Y-89.07
X204.83Y-86.53
X204.83Y-89.07
X207.37Y-86.53
X207.37Y-89.07
X209.91Y-86.53
X209.91Y-89.07
X212.45Y-86.53
X212.45Y-89.07
X216.8Y-76.45
X216.8Y-78.99
X216.8Y-81.53
X216.8Y-84.07
X216.8Y-86.61
X216.8Y-89.15
T0
M30
