G04 #@! TF.FileFunction,Legend,Bot*
%FSLAX46Y46*%
G04 Gerber Fmt 4.6, Leading zero omitted, Abs format (unit mm)*
G04 Created by KiCad (PCBNEW (2014-11-21 BZR 5297)-product) date Do 05 Feb 2015 11:43:21 CET*
%MOMM*%
G01*
G04 APERTURE LIST*
%ADD10C,0.100000*%
%ADD11C,0.150000*%
%ADD12R,1.927200X1.927200*%
%ADD13O,1.927200X1.927200*%
%ADD14R,1.000000X0.950000*%
%ADD15R,0.800000X0.700000*%
%ADD16R,1.100000X2.700000*%
%ADD17R,1.200000X1.200000*%
%ADD18R,2.400000X1.250000*%
%ADD19R,1.100000X0.700000*%
%ADD20R,0.700000X1.100000*%
%ADD21R,2.232000X1.927200*%
%ADD22O,2.232000X1.927200*%
%ADD23R,1.200000X2.700000*%
G04 APERTURE END LIST*
D10*
D11*
X204550000Y-83800000D02*
X205250000Y-83800000D01*
X205250000Y-82600000D02*
X204550000Y-82600000D01*
X210350000Y-76775000D02*
X209850000Y-76775000D01*
X209850000Y-75825000D02*
X210350000Y-75825000D01*
X198800000Y-74600000D02*
X198800000Y-58000000D01*
X198800000Y-58000000D02*
X215800000Y-58000000D01*
X215800000Y-58000000D02*
X215800000Y-74600000D01*
X215800000Y-74600000D02*
X198800000Y-74600000D01*
X209325000Y-82000000D02*
X209325000Y-83000000D01*
X210675000Y-83000000D02*
X210675000Y-82000000D01*
X201925000Y-82000000D02*
X201925000Y-83000000D01*
X203275000Y-83000000D02*
X203275000Y-82000000D01*
X212875000Y-83000000D02*
X212875000Y-82000000D01*
X211525000Y-82000000D02*
X211525000Y-83000000D01*
X201075000Y-83000000D02*
X201075000Y-82000000D01*
X199725000Y-82000000D02*
X199725000Y-83000000D01*
X203400000Y-76725000D02*
X202400000Y-76725000D01*
X202400000Y-78075000D02*
X203400000Y-78075000D01*
X212200000Y-79975000D02*
X210200000Y-79975000D01*
X210200000Y-77025000D02*
X212200000Y-77025000D01*
X204466666Y-82257143D02*
X204514285Y-82304762D01*
X204657142Y-82352381D01*
X204752380Y-82352381D01*
X204895238Y-82304762D01*
X204990476Y-82209524D01*
X205038095Y-82114286D01*
X205085714Y-81923810D01*
X205085714Y-81780952D01*
X205038095Y-81590476D01*
X204990476Y-81495238D01*
X204895238Y-81400000D01*
X204752380Y-81352381D01*
X204657142Y-81352381D01*
X204514285Y-81400000D01*
X204466666Y-81447619D01*
X203895238Y-81780952D02*
X203990476Y-81733333D01*
X204038095Y-81685714D01*
X204085714Y-81590476D01*
X204085714Y-81542857D01*
X204038095Y-81447619D01*
X203990476Y-81400000D01*
X203895238Y-81352381D01*
X203704761Y-81352381D01*
X203609523Y-81400000D01*
X203561904Y-81447619D01*
X203514285Y-81542857D01*
X203514285Y-81590476D01*
X203561904Y-81685714D01*
X203609523Y-81733333D01*
X203704761Y-81780952D01*
X203895238Y-81780952D01*
X203990476Y-81828571D01*
X204038095Y-81876190D01*
X204085714Y-81971429D01*
X204085714Y-82161905D01*
X204038095Y-82257143D01*
X203990476Y-82304762D01*
X203895238Y-82352381D01*
X203704761Y-82352381D01*
X203609523Y-82304762D01*
X203561904Y-82257143D01*
X203514285Y-82161905D01*
X203514285Y-81971429D01*
X203561904Y-81876190D01*
X203609523Y-81828571D01*
X203704761Y-81780952D01*
X208142857Y-77957143D02*
X208190476Y-78004762D01*
X208333333Y-78052381D01*
X208428571Y-78052381D01*
X208571429Y-78004762D01*
X208666667Y-77909524D01*
X208714286Y-77814286D01*
X208761905Y-77623810D01*
X208761905Y-77480952D01*
X208714286Y-77290476D01*
X208666667Y-77195238D01*
X208571429Y-77100000D01*
X208428571Y-77052381D01*
X208333333Y-77052381D01*
X208190476Y-77100000D01*
X208142857Y-77147619D01*
X207190476Y-78052381D02*
X207761905Y-78052381D01*
X207476191Y-78052381D02*
X207476191Y-77052381D01*
X207571429Y-77195238D01*
X207666667Y-77290476D01*
X207761905Y-77338095D01*
X206238095Y-78052381D02*
X206809524Y-78052381D01*
X206523810Y-78052381D02*
X206523810Y-77052381D01*
X206619048Y-77195238D01*
X206714286Y-77290476D01*
X206809524Y-77338095D01*
X208278571Y-64635715D02*
X206778571Y-64635715D01*
X208135714Y-66207144D02*
X208207143Y-66135715D01*
X208278571Y-65921429D01*
X208278571Y-65778572D01*
X208207143Y-65564287D01*
X208064286Y-65421429D01*
X207921429Y-65350001D01*
X207635714Y-65278572D01*
X207421429Y-65278572D01*
X207135714Y-65350001D01*
X206992857Y-65421429D01*
X206850000Y-65564287D01*
X206778571Y-65778572D01*
X206778571Y-65921429D01*
X206850000Y-66135715D01*
X206921429Y-66207144D01*
X206921429Y-66778572D02*
X206850000Y-66850001D01*
X206778571Y-66992858D01*
X206778571Y-67350001D01*
X206850000Y-67492858D01*
X206921429Y-67564287D01*
X207064286Y-67635715D01*
X207207143Y-67635715D01*
X207421429Y-67564287D01*
X208278571Y-66707144D01*
X208278571Y-67635715D01*
X209052381Y-83833334D02*
X208576190Y-83500000D01*
X209052381Y-83261905D02*
X208052381Y-83261905D01*
X208052381Y-83642858D01*
X208100000Y-83738096D01*
X208147619Y-83785715D01*
X208242857Y-83833334D01*
X208385714Y-83833334D01*
X208480952Y-83785715D01*
X208528571Y-83738096D01*
X208576190Y-83642858D01*
X208576190Y-83261905D01*
X209052381Y-84785715D02*
X209052381Y-84214286D01*
X209052381Y-84500000D02*
X208052381Y-84500000D01*
X208195238Y-84404762D01*
X208290476Y-84309524D01*
X208338095Y-84214286D01*
X202766666Y-85052381D02*
X203100000Y-84576190D01*
X203338095Y-85052381D02*
X203338095Y-84052381D01*
X202957142Y-84052381D01*
X202861904Y-84100000D01*
X202814285Y-84147619D01*
X202766666Y-84242857D01*
X202766666Y-84385714D01*
X202814285Y-84480952D01*
X202861904Y-84528571D01*
X202957142Y-84576190D01*
X203338095Y-84576190D01*
X202385714Y-84147619D02*
X202338095Y-84100000D01*
X202242857Y-84052381D01*
X202004761Y-84052381D01*
X201909523Y-84100000D01*
X201861904Y-84147619D01*
X201814285Y-84242857D01*
X201814285Y-84338095D01*
X201861904Y-84480952D01*
X202433333Y-85052381D01*
X201814285Y-85052381D01*
X214552381Y-82533334D02*
X214076190Y-82200000D01*
X214552381Y-81961905D02*
X213552381Y-81961905D01*
X213552381Y-82342858D01*
X213600000Y-82438096D01*
X213647619Y-82485715D01*
X213742857Y-82533334D01*
X213885714Y-82533334D01*
X213980952Y-82485715D01*
X214028571Y-82438096D01*
X214076190Y-82342858D01*
X214076190Y-81961905D01*
X213552381Y-82866667D02*
X213552381Y-83485715D01*
X213933333Y-83152381D01*
X213933333Y-83295239D01*
X213980952Y-83390477D01*
X214028571Y-83438096D01*
X214123810Y-83485715D01*
X214361905Y-83485715D01*
X214457143Y-83438096D01*
X214504762Y-83390477D01*
X214552381Y-83295239D01*
X214552381Y-83009524D01*
X214504762Y-82914286D01*
X214457143Y-82866667D01*
X199152381Y-82233334D02*
X198676190Y-81900000D01*
X199152381Y-81661905D02*
X198152381Y-81661905D01*
X198152381Y-82042858D01*
X198200000Y-82138096D01*
X198247619Y-82185715D01*
X198342857Y-82233334D01*
X198485714Y-82233334D01*
X198580952Y-82185715D01*
X198628571Y-82138096D01*
X198676190Y-82042858D01*
X198676190Y-81661905D01*
X198485714Y-83090477D02*
X199152381Y-83090477D01*
X198104762Y-82852381D02*
X198819048Y-82614286D01*
X198819048Y-83233334D01*
X200842857Y-78452381D02*
X201176191Y-77976190D01*
X201414286Y-78452381D02*
X201414286Y-77452381D01*
X201033333Y-77452381D01*
X200938095Y-77500000D01*
X200890476Y-77547619D01*
X200842857Y-77642857D01*
X200842857Y-77785714D01*
X200890476Y-77880952D01*
X200938095Y-77928571D01*
X201033333Y-77976190D01*
X201414286Y-77976190D01*
X199890476Y-78452381D02*
X200461905Y-78452381D01*
X200176191Y-78452381D02*
X200176191Y-77452381D01*
X200271429Y-77595238D01*
X200366667Y-77690476D01*
X200461905Y-77738095D01*
X198938095Y-78452381D02*
X199509524Y-78452381D01*
X199223810Y-78452381D02*
X199223810Y-77452381D01*
X199319048Y-77595238D01*
X199414286Y-77690476D01*
X199509524Y-77738095D01*
X214857143Y-77857143D02*
X214904762Y-77809524D01*
X214952381Y-77666667D01*
X214952381Y-77571429D01*
X214904762Y-77428571D01*
X214809524Y-77333333D01*
X214714286Y-77285714D01*
X214523810Y-77238095D01*
X214380952Y-77238095D01*
X214190476Y-77285714D01*
X214095238Y-77333333D01*
X214000000Y-77428571D01*
X213952381Y-77571429D01*
X213952381Y-77666667D01*
X214000000Y-77809524D01*
X214047619Y-77857143D01*
X214952381Y-78809524D02*
X214952381Y-78238095D01*
X214952381Y-78523809D02*
X213952381Y-78523809D01*
X214095238Y-78428571D01*
X214190476Y-78333333D01*
X214238095Y-78238095D01*
X214047619Y-79190476D02*
X214000000Y-79238095D01*
X213952381Y-79333333D01*
X213952381Y-79571429D01*
X214000000Y-79666667D01*
X214047619Y-79714286D01*
X214142857Y-79761905D01*
X214238095Y-79761905D01*
X214380952Y-79714286D01*
X214952381Y-79142857D01*
X214952381Y-79761905D01*
%LPC*%
D12*
X212450000Y-86530000D03*
D13*
X212450000Y-89070000D03*
X209910000Y-86530000D03*
X209910000Y-89070000D03*
X207370000Y-86530000D03*
X207370000Y-89070000D03*
X204830000Y-86530000D03*
X204830000Y-89070000D03*
X202290000Y-86530000D03*
X202290000Y-89070000D03*
X199750000Y-86530000D03*
X199750000Y-89070000D03*
D14*
X204150000Y-83200000D03*
X205650000Y-83200000D03*
D15*
X209550000Y-76300000D03*
X210650000Y-76300000D03*
D16*
X214285000Y-74040000D03*
X213015000Y-74040000D03*
X211745000Y-74040000D03*
X210475000Y-74040000D03*
X209205000Y-74040000D03*
X207935000Y-74040000D03*
X206665000Y-74040000D03*
X205395000Y-74040000D03*
X204125000Y-74040000D03*
X202855000Y-74040000D03*
X201585000Y-74040000D03*
X200315000Y-74040000D03*
X214285000Y-58560000D03*
X213015000Y-58560000D03*
D17*
X208400000Y-54800000D03*
X205400000Y-54800000D03*
D18*
X206900000Y-53325000D03*
X206900000Y-56275000D03*
D19*
X210000000Y-83250000D03*
X210000000Y-81750000D03*
X202600000Y-83250000D03*
X202600000Y-81750000D03*
X212200000Y-81750000D03*
X212200000Y-83250000D03*
X200400000Y-81750000D03*
X200400000Y-83250000D03*
D20*
X202150000Y-77400000D03*
X203650000Y-77400000D03*
D21*
X216800000Y-89150000D03*
D22*
X216800000Y-86610000D03*
X216800000Y-84070000D03*
X216800000Y-81530000D03*
X216800000Y-78990000D03*
X216800000Y-76450000D03*
D23*
X209700000Y-78500000D03*
X212700000Y-78500000D03*
M02*
