G04 #@! TF.FileFunction,Legend,Top*
%FSLAX46Y46*%
G04 Gerber Fmt 4.6, Leading zero omitted, Abs format (unit mm)*
G04 Created by KiCad (PCBNEW (2014-11-21 BZR 5297)-product) date Do 05 Feb 2015 11:43:21 CET*
%MOMM*%
G01*
G04 APERTURE LIST*
%ADD10C,0.100000*%
%ADD11C,0.300000*%
%ADD12C,0.150000*%
%ADD13R,1.927200X1.927200*%
%ADD14O,1.927200X1.927200*%
%ADD15R,0.700000X0.800000*%
%ADD16R,1.800000X1.200000*%
%ADD17R,0.800000X0.700000*%
%ADD18R,1.200000X1.450000*%
%ADD19R,1.000100X1.000100*%
%ADD20R,0.997560X0.997560*%
%ADD21R,1.800000X0.750000*%
%ADD22R,0.750000X1.800000*%
%ADD23R,0.700000X1.100000*%
%ADD24R,1.100000X0.700000*%
%ADD25R,0.962000X0.708000*%
%ADD26R,0.500000X2.200000*%
%ADD27R,2.232000X1.927200*%
%ADD28O,2.232000X1.927200*%
%ADD29R,1.200000X2.700000*%
G04 APERTURE END LIST*
D10*
D11*
X216750000Y-73814285D02*
X216678571Y-73928571D01*
X216678571Y-74100000D01*
X216750000Y-74271428D01*
X216892857Y-74385714D01*
X217035714Y-74442857D01*
X217321429Y-74500000D01*
X217535714Y-74500000D01*
X217821429Y-74442857D01*
X217964286Y-74385714D01*
X218107143Y-74271428D01*
X218178571Y-74100000D01*
X218178571Y-73985714D01*
X218107143Y-73814285D01*
X218035714Y-73757142D01*
X217535714Y-73757142D01*
X217535714Y-73985714D01*
X218178571Y-73242857D02*
X216678571Y-73242857D01*
X218178571Y-72557142D01*
X216678571Y-72557142D01*
X218178571Y-71985714D02*
X216678571Y-71985714D01*
X216678571Y-71699999D01*
X216750000Y-71528571D01*
X216892857Y-71414285D01*
X217035714Y-71357142D01*
X217321429Y-71299999D01*
X217535714Y-71299999D01*
X217821429Y-71357142D01*
X217964286Y-71414285D01*
X218107143Y-71528571D01*
X218178571Y-71699999D01*
X218178571Y-71985714D01*
X214785715Y-84578571D02*
X214785715Y-85578571D01*
X214428572Y-84007143D02*
X214071429Y-85078571D01*
X215000001Y-85078571D01*
X214100001Y-89278571D02*
X215028572Y-89278571D01*
X214528572Y-89850000D01*
X214742858Y-89850000D01*
X214885715Y-89921429D01*
X214957144Y-89992857D01*
X215028572Y-90135714D01*
X215028572Y-90492857D01*
X214957144Y-90635714D01*
X214885715Y-90707143D01*
X214742858Y-90778571D01*
X214314286Y-90778571D01*
X214171429Y-90707143D01*
X214100001Y-90635714D01*
X197571429Y-84221429D02*
X197642858Y-84150000D01*
X197785715Y-84078571D01*
X198142858Y-84078571D01*
X198285715Y-84150000D01*
X198357144Y-84221429D01*
X198428572Y-84364286D01*
X198428572Y-84507143D01*
X198357144Y-84721429D01*
X197500001Y-85578571D01*
X198428572Y-85578571D01*
X198328572Y-90778571D02*
X197471429Y-90778571D01*
X197900001Y-90778571D02*
X197900001Y-89278571D01*
X197757144Y-89492857D01*
X197614286Y-89635714D01*
X197471429Y-89707143D01*
X198028571Y-53478571D02*
X198314285Y-53478571D01*
X198457143Y-53550000D01*
X198600000Y-53692857D01*
X198671428Y-53978571D01*
X198671428Y-54478571D01*
X198600000Y-54764286D01*
X198457143Y-54907143D01*
X198314285Y-54978571D01*
X198028571Y-54978571D01*
X197885714Y-54907143D01*
X197742857Y-54764286D01*
X197671428Y-54478571D01*
X197671428Y-53978571D01*
X197742857Y-53692857D01*
X197885714Y-53550000D01*
X198028571Y-53478571D01*
X199314286Y-53978571D02*
X199314286Y-55478571D01*
X199314286Y-54050000D02*
X199457143Y-53978571D01*
X199742857Y-53978571D01*
X199885714Y-54050000D01*
X199957143Y-54121429D01*
X200028572Y-54264286D01*
X200028572Y-54692857D01*
X199957143Y-54835714D01*
X199885714Y-54907143D01*
X199742857Y-54978571D01*
X199457143Y-54978571D01*
X199314286Y-54907143D01*
X201242857Y-54907143D02*
X201100000Y-54978571D01*
X200814286Y-54978571D01*
X200671429Y-54907143D01*
X200600000Y-54764286D01*
X200600000Y-54192857D01*
X200671429Y-54050000D01*
X200814286Y-53978571D01*
X201100000Y-53978571D01*
X201242857Y-54050000D01*
X201314286Y-54192857D01*
X201314286Y-54335714D01*
X200600000Y-54478571D01*
X201957143Y-53978571D02*
X201957143Y-54978571D01*
X201957143Y-54121429D02*
X202028571Y-54050000D01*
X202171429Y-53978571D01*
X202385714Y-53978571D01*
X202528571Y-54050000D01*
X202600000Y-54192857D01*
X202600000Y-54978571D01*
X204028572Y-54978571D02*
X203314286Y-54978571D01*
X203314286Y-53478571D01*
X205385715Y-54978571D02*
X204885715Y-54264286D01*
X204528572Y-54978571D02*
X204528572Y-53478571D01*
X205100000Y-53478571D01*
X205242858Y-53550000D01*
X205314286Y-53621429D01*
X205385715Y-53764286D01*
X205385715Y-53978571D01*
X205314286Y-54121429D01*
X205242858Y-54192857D01*
X205100000Y-54264286D01*
X204528572Y-54264286D01*
X205957143Y-54907143D02*
X206171429Y-54978571D01*
X206528572Y-54978571D01*
X206671429Y-54907143D01*
X206742858Y-54835714D01*
X206814286Y-54692857D01*
X206814286Y-54550000D01*
X206742858Y-54407143D01*
X206671429Y-54335714D01*
X206528572Y-54264286D01*
X206242858Y-54192857D01*
X206100000Y-54121429D01*
X206028572Y-54050000D01*
X205957143Y-53907143D01*
X205957143Y-53764286D01*
X206028572Y-53621429D01*
X206100000Y-53550000D01*
X206242858Y-53478571D01*
X206600000Y-53478571D01*
X206814286Y-53550000D01*
X207457143Y-53978571D02*
X207457143Y-54978571D01*
X207457143Y-54121429D02*
X207528571Y-54050000D01*
X207671429Y-53978571D01*
X207885714Y-53978571D01*
X208028571Y-54050000D01*
X208100000Y-54192857D01*
X208100000Y-54978571D01*
X209457143Y-53978571D02*
X209457143Y-55192857D01*
X209385714Y-55335714D01*
X209314286Y-55407143D01*
X209171429Y-55478571D01*
X208957143Y-55478571D01*
X208814286Y-55407143D01*
X209457143Y-54907143D02*
X209314286Y-54978571D01*
X209028572Y-54978571D01*
X208885714Y-54907143D01*
X208814286Y-54835714D01*
X208742857Y-54692857D01*
X208742857Y-54264286D01*
X208814286Y-54121429D01*
X208885714Y-54050000D01*
X209028572Y-53978571D01*
X209314286Y-53978571D01*
X209457143Y-54050000D01*
D12*
X201225000Y-62850000D02*
X201225000Y-63350000D01*
X202175000Y-63350000D02*
X202175000Y-62850000D01*
X198475000Y-61100000D02*
X198475000Y-63100000D01*
X200525000Y-63100000D02*
X200525000Y-61100000D01*
X204450000Y-67875000D02*
X204950000Y-67875000D01*
X204950000Y-66925000D02*
X204450000Y-66925000D01*
X204300000Y-62350000D02*
X205300000Y-62350000D01*
X205300000Y-60650000D02*
X204300000Y-60650000D01*
X199150000Y-74275000D02*
X199650000Y-74275000D01*
X199650000Y-73325000D02*
X199150000Y-73325000D01*
X207125000Y-63050000D02*
X207125000Y-63550000D01*
X208075000Y-63550000D02*
X208075000Y-63050000D01*
X214875000Y-73650000D02*
X214875000Y-73150000D01*
X213925000Y-73150000D02*
X213925000Y-73650000D01*
X215425000Y-73150000D02*
X215425000Y-73650000D01*
X216375000Y-73650000D02*
X216375000Y-73150000D01*
X199150000Y-72875000D02*
X199650000Y-72875000D01*
X199650000Y-71925000D02*
X199150000Y-71925000D01*
X213250000Y-82925000D02*
X212750000Y-82925000D01*
X212750000Y-83875000D02*
X213250000Y-83875000D01*
X201699160Y-66149760D02*
X201650900Y-66149760D01*
X199700180Y-66850800D02*
X199700180Y-66149760D01*
X199700180Y-66149760D02*
X199949100Y-66149760D01*
X201699160Y-66149760D02*
X201899820Y-66149760D01*
X201899820Y-66149760D02*
X201899820Y-66850800D01*
X210850420Y-65250420D02*
X211749580Y-65250420D01*
X211749580Y-65250420D02*
X211749580Y-64851640D01*
X210850420Y-64851640D02*
X211749580Y-64851640D01*
X210850420Y-65250420D02*
X210850420Y-64851640D01*
X210850420Y-66548360D02*
X211749580Y-66548360D01*
X211749580Y-66548360D02*
X211749580Y-66149580D01*
X210850420Y-66149580D02*
X211749580Y-66149580D01*
X210850420Y-66548360D02*
X210850420Y-66149580D01*
X210850420Y-65700000D02*
X211000280Y-65700000D01*
X211000280Y-65700000D02*
X211000280Y-65400280D01*
X210850420Y-65400280D02*
X211000280Y-65400280D01*
X210850420Y-65700000D02*
X210850420Y-65400280D01*
X211599720Y-65700000D02*
X211749580Y-65700000D01*
X211749580Y-65700000D02*
X211749580Y-65400280D01*
X211599720Y-65400280D02*
X211749580Y-65400280D01*
X211599720Y-65700000D02*
X211599720Y-65400280D01*
X211150140Y-65700000D02*
X211449860Y-65700000D01*
X211449860Y-65700000D02*
X211449860Y-65400280D01*
X211150140Y-65400280D02*
X211449860Y-65400280D01*
X211150140Y-65700000D02*
X211150140Y-65400280D01*
X210901220Y-65250420D02*
X210901220Y-66149580D01*
X211698780Y-65250420D02*
X211698780Y-66149580D01*
X209050420Y-65250420D02*
X209949580Y-65250420D01*
X209949580Y-65250420D02*
X209949580Y-64851640D01*
X209050420Y-64851640D02*
X209949580Y-64851640D01*
X209050420Y-65250420D02*
X209050420Y-64851640D01*
X209050420Y-66548360D02*
X209949580Y-66548360D01*
X209949580Y-66548360D02*
X209949580Y-66149580D01*
X209050420Y-66149580D02*
X209949580Y-66149580D01*
X209050420Y-66548360D02*
X209050420Y-66149580D01*
X209050420Y-65700000D02*
X209200280Y-65700000D01*
X209200280Y-65700000D02*
X209200280Y-65400280D01*
X209050420Y-65400280D02*
X209200280Y-65400280D01*
X209050420Y-65700000D02*
X209050420Y-65400280D01*
X209799720Y-65700000D02*
X209949580Y-65700000D01*
X209949580Y-65700000D02*
X209949580Y-65400280D01*
X209799720Y-65400280D02*
X209949580Y-65400280D01*
X209799720Y-65700000D02*
X209799720Y-65400280D01*
X209350140Y-65700000D02*
X209649860Y-65700000D01*
X209649860Y-65700000D02*
X209649860Y-65400280D01*
X209350140Y-65400280D02*
X209649860Y-65400280D01*
X209350140Y-65700000D02*
X209350140Y-65400280D01*
X209101220Y-65250420D02*
X209101220Y-66149580D01*
X209898780Y-65250420D02*
X209898780Y-66149580D01*
X211125000Y-77925000D02*
X211125000Y-77600000D01*
X203875000Y-77925000D02*
X203875000Y-77600000D01*
X203875000Y-70675000D02*
X203875000Y-71000000D01*
X211125000Y-70675000D02*
X211125000Y-71000000D01*
X211125000Y-77925000D02*
X210800000Y-77925000D01*
X211125000Y-70675000D02*
X210800000Y-70675000D01*
X203875000Y-70675000D02*
X204200000Y-70675000D01*
X203875000Y-77925000D02*
X204200000Y-77925000D01*
X211125000Y-77600000D02*
X212550000Y-77600000D01*
X213400000Y-82375000D02*
X212400000Y-82375000D01*
X212400000Y-81025000D02*
X213400000Y-81025000D01*
X213400000Y-80575000D02*
X212400000Y-80575000D01*
X212400000Y-79225000D02*
X213400000Y-79225000D01*
X209200000Y-82675000D02*
X208200000Y-82675000D01*
X208200000Y-81325000D02*
X209200000Y-81325000D01*
X210925000Y-63000000D02*
X210925000Y-62000000D01*
X212275000Y-62000000D02*
X212275000Y-63000000D01*
X208825000Y-63000000D02*
X208825000Y-62000000D01*
X210175000Y-62000000D02*
X210175000Y-63000000D01*
X205389000Y-66324000D02*
X203611000Y-66324000D01*
X203611000Y-66324000D02*
X203611000Y-63276000D01*
X203611000Y-63276000D02*
X205389000Y-63276000D01*
X205389000Y-63276000D02*
X205389000Y-66324000D01*
X212100000Y-68750000D02*
X215300000Y-68750000D01*
X215300000Y-68750000D02*
X215300000Y-67450000D01*
X215300000Y-67450000D02*
X212100000Y-67450000D01*
X212100000Y-67450000D02*
X212100000Y-68750000D01*
X215530000Y-87880000D02*
X215530000Y-75180000D01*
X215530000Y-75180000D02*
X218070000Y-75180000D01*
X218070000Y-75180000D02*
X218070000Y-87880000D01*
X215530000Y-90420000D02*
X215530000Y-87880000D01*
X215530000Y-87880000D02*
X218070000Y-87880000D01*
X215530000Y-90420000D02*
X218070000Y-90420000D01*
X218070000Y-90420000D02*
X218070000Y-87880000D01*
X199700000Y-59075000D02*
X201700000Y-59075000D01*
X201700000Y-56125000D02*
X199700000Y-56125000D01*
X202157143Y-61066666D02*
X202204762Y-61114285D01*
X202252381Y-61257142D01*
X202252381Y-61352380D01*
X202204762Y-61495238D01*
X202109524Y-61590476D01*
X202014286Y-61638095D01*
X201823810Y-61685714D01*
X201680952Y-61685714D01*
X201490476Y-61638095D01*
X201395238Y-61590476D01*
X201300000Y-61495238D01*
X201252381Y-61352380D01*
X201252381Y-61257142D01*
X201300000Y-61114285D01*
X201347619Y-61066666D01*
X202252381Y-60114285D02*
X202252381Y-60685714D01*
X202252381Y-60400000D02*
X201252381Y-60400000D01*
X201395238Y-60495238D01*
X201490476Y-60590476D01*
X201538095Y-60685714D01*
X198533334Y-65457143D02*
X198485715Y-65504762D01*
X198342858Y-65552381D01*
X198247620Y-65552381D01*
X198104762Y-65504762D01*
X198009524Y-65409524D01*
X197961905Y-65314286D01*
X197914286Y-65123810D01*
X197914286Y-64980952D01*
X197961905Y-64790476D01*
X198009524Y-64695238D01*
X198104762Y-64600000D01*
X198247620Y-64552381D01*
X198342858Y-64552381D01*
X198485715Y-64600000D01*
X198533334Y-64647619D01*
X198914286Y-64647619D02*
X198961905Y-64600000D01*
X199057143Y-64552381D01*
X199295239Y-64552381D01*
X199390477Y-64600000D01*
X199438096Y-64647619D01*
X199485715Y-64742857D01*
X199485715Y-64838095D01*
X199438096Y-64980952D01*
X198866667Y-65552381D01*
X199485715Y-65552381D01*
X203133334Y-69057143D02*
X203085715Y-69104762D01*
X202942858Y-69152381D01*
X202847620Y-69152381D01*
X202704762Y-69104762D01*
X202609524Y-69009524D01*
X202561905Y-68914286D01*
X202514286Y-68723810D01*
X202514286Y-68580952D01*
X202561905Y-68390476D01*
X202609524Y-68295238D01*
X202704762Y-68200000D01*
X202847620Y-68152381D01*
X202942858Y-68152381D01*
X203085715Y-68200000D01*
X203133334Y-68247619D01*
X203466667Y-68152381D02*
X204085715Y-68152381D01*
X203752381Y-68533333D01*
X203895239Y-68533333D01*
X203990477Y-68580952D01*
X204038096Y-68628571D01*
X204085715Y-68723810D01*
X204085715Y-68961905D01*
X204038096Y-69057143D01*
X203990477Y-69104762D01*
X203895239Y-69152381D01*
X203609524Y-69152381D01*
X203514286Y-69104762D01*
X203466667Y-69057143D01*
X204733334Y-59957143D02*
X204685715Y-60004762D01*
X204542858Y-60052381D01*
X204447620Y-60052381D01*
X204304762Y-60004762D01*
X204209524Y-59909524D01*
X204161905Y-59814286D01*
X204114286Y-59623810D01*
X204114286Y-59480952D01*
X204161905Y-59290476D01*
X204209524Y-59195238D01*
X204304762Y-59100000D01*
X204447620Y-59052381D01*
X204542858Y-59052381D01*
X204685715Y-59100000D01*
X204733334Y-59147619D01*
X205590477Y-59385714D02*
X205590477Y-60052381D01*
X205352381Y-59004762D02*
X205114286Y-59719048D01*
X205733334Y-59719048D01*
X198433334Y-75557143D02*
X198385715Y-75604762D01*
X198242858Y-75652381D01*
X198147620Y-75652381D01*
X198004762Y-75604762D01*
X197909524Y-75509524D01*
X197861905Y-75414286D01*
X197814286Y-75223810D01*
X197814286Y-75080952D01*
X197861905Y-74890476D01*
X197909524Y-74795238D01*
X198004762Y-74700000D01*
X198147620Y-74652381D01*
X198242858Y-74652381D01*
X198385715Y-74700000D01*
X198433334Y-74747619D01*
X199338096Y-74652381D02*
X198861905Y-74652381D01*
X198814286Y-75128571D01*
X198861905Y-75080952D01*
X198957143Y-75033333D01*
X199195239Y-75033333D01*
X199290477Y-75080952D01*
X199338096Y-75128571D01*
X199385715Y-75223810D01*
X199385715Y-75461905D01*
X199338096Y-75557143D01*
X199290477Y-75604762D01*
X199195239Y-75652381D01*
X198957143Y-75652381D01*
X198861905Y-75604762D01*
X198814286Y-75557143D01*
X207857143Y-58966666D02*
X207904762Y-59014285D01*
X207952381Y-59157142D01*
X207952381Y-59252380D01*
X207904762Y-59395238D01*
X207809524Y-59490476D01*
X207714286Y-59538095D01*
X207523810Y-59585714D01*
X207380952Y-59585714D01*
X207190476Y-59538095D01*
X207095238Y-59490476D01*
X207000000Y-59395238D01*
X206952381Y-59252380D01*
X206952381Y-59157142D01*
X207000000Y-59014285D01*
X207047619Y-58966666D01*
X206952381Y-58109523D02*
X206952381Y-58300000D01*
X207000000Y-58395238D01*
X207047619Y-58442857D01*
X207190476Y-58538095D01*
X207380952Y-58585714D01*
X207761905Y-58585714D01*
X207857143Y-58538095D01*
X207904762Y-58490476D01*
X207952381Y-58395238D01*
X207952381Y-58204761D01*
X207904762Y-58109523D01*
X207857143Y-58061904D01*
X207761905Y-58014285D01*
X207523810Y-58014285D01*
X207428571Y-58061904D01*
X207380952Y-58109523D01*
X207333333Y-58204761D01*
X207333333Y-58395238D01*
X207380952Y-58490476D01*
X207428571Y-58538095D01*
X207523810Y-58585714D01*
X217157143Y-70166666D02*
X217204762Y-70214285D01*
X217252381Y-70357142D01*
X217252381Y-70452380D01*
X217204762Y-70595238D01*
X217109524Y-70690476D01*
X217014286Y-70738095D01*
X216823810Y-70785714D01*
X216680952Y-70785714D01*
X216490476Y-70738095D01*
X216395238Y-70690476D01*
X216300000Y-70595238D01*
X216252381Y-70452380D01*
X216252381Y-70357142D01*
X216300000Y-70214285D01*
X216347619Y-70166666D01*
X216252381Y-69833333D02*
X216252381Y-69166666D01*
X217252381Y-69595238D01*
X214257143Y-71166666D02*
X214304762Y-71214285D01*
X214352381Y-71357142D01*
X214352381Y-71452380D01*
X214304762Y-71595238D01*
X214209524Y-71690476D01*
X214114286Y-71738095D01*
X213923810Y-71785714D01*
X213780952Y-71785714D01*
X213590476Y-71738095D01*
X213495238Y-71690476D01*
X213400000Y-71595238D01*
X213352381Y-71452380D01*
X213352381Y-71357142D01*
X213400000Y-71214285D01*
X213447619Y-71166666D01*
X214352381Y-70690476D02*
X214352381Y-70500000D01*
X214304762Y-70404761D01*
X214257143Y-70357142D01*
X214114286Y-70261904D01*
X213923810Y-70214285D01*
X213542857Y-70214285D01*
X213447619Y-70261904D01*
X213400000Y-70309523D01*
X213352381Y-70404761D01*
X213352381Y-70595238D01*
X213400000Y-70690476D01*
X213447619Y-70738095D01*
X213542857Y-70785714D01*
X213780952Y-70785714D01*
X213876190Y-70738095D01*
X213923810Y-70690476D01*
X213971429Y-70595238D01*
X213971429Y-70404761D01*
X213923810Y-70309523D01*
X213876190Y-70261904D01*
X213780952Y-70214285D01*
X198557143Y-71142857D02*
X198604762Y-71190476D01*
X198652381Y-71333333D01*
X198652381Y-71428571D01*
X198604762Y-71571429D01*
X198509524Y-71666667D01*
X198414286Y-71714286D01*
X198223810Y-71761905D01*
X198080952Y-71761905D01*
X197890476Y-71714286D01*
X197795238Y-71666667D01*
X197700000Y-71571429D01*
X197652381Y-71428571D01*
X197652381Y-71333333D01*
X197700000Y-71190476D01*
X197747619Y-71142857D01*
X198652381Y-70190476D02*
X198652381Y-70761905D01*
X198652381Y-70476191D02*
X197652381Y-70476191D01*
X197795238Y-70571429D01*
X197890476Y-70666667D01*
X197938095Y-70761905D01*
X197652381Y-69571429D02*
X197652381Y-69476190D01*
X197700000Y-69380952D01*
X197747619Y-69333333D01*
X197842857Y-69285714D01*
X198033333Y-69238095D01*
X198271429Y-69238095D01*
X198461905Y-69285714D01*
X198557143Y-69333333D01*
X198604762Y-69380952D01*
X198652381Y-69476190D01*
X198652381Y-69571429D01*
X198604762Y-69666667D01*
X198557143Y-69714286D01*
X198461905Y-69761905D01*
X198271429Y-69809524D01*
X198033333Y-69809524D01*
X197842857Y-69761905D01*
X197747619Y-69714286D01*
X197700000Y-69666667D01*
X197652381Y-69571429D01*
X210357143Y-84957143D02*
X210309524Y-85004762D01*
X210166667Y-85052381D01*
X210071429Y-85052381D01*
X209928571Y-85004762D01*
X209833333Y-84909524D01*
X209785714Y-84814286D01*
X209738095Y-84623810D01*
X209738095Y-84480952D01*
X209785714Y-84290476D01*
X209833333Y-84195238D01*
X209928571Y-84100000D01*
X210071429Y-84052381D01*
X210166667Y-84052381D01*
X210309524Y-84100000D01*
X210357143Y-84147619D01*
X211309524Y-85052381D02*
X210738095Y-85052381D01*
X211023809Y-85052381D02*
X211023809Y-84052381D01*
X210928571Y-84195238D01*
X210833333Y-84290476D01*
X210738095Y-84338095D01*
X211642857Y-84052381D02*
X212261905Y-84052381D01*
X211928571Y-84433333D01*
X212071429Y-84433333D01*
X212166667Y-84480952D01*
X212214286Y-84528571D01*
X212261905Y-84623810D01*
X212261905Y-84861905D01*
X212214286Y-84957143D01*
X212166667Y-85004762D01*
X212071429Y-85052381D01*
X211785714Y-85052381D01*
X211690476Y-85004762D01*
X211642857Y-84957143D01*
X199252381Y-68738095D02*
X198252381Y-68738095D01*
X198252381Y-68500000D01*
X198300000Y-68357142D01*
X198395238Y-68261904D01*
X198490476Y-68214285D01*
X198680952Y-68166666D01*
X198823810Y-68166666D01*
X199014286Y-68214285D01*
X199109524Y-68261904D01*
X199204762Y-68357142D01*
X199252381Y-68500000D01*
X199252381Y-68738095D01*
X199252381Y-67214285D02*
X199252381Y-67785714D01*
X199252381Y-67500000D02*
X198252381Y-67500000D01*
X198395238Y-67595238D01*
X198490476Y-67690476D01*
X198538095Y-67785714D01*
X213052381Y-66138095D02*
X212052381Y-66138095D01*
X212052381Y-65900000D01*
X212100000Y-65757142D01*
X212195238Y-65661904D01*
X212290476Y-65614285D01*
X212480952Y-65566666D01*
X212623810Y-65566666D01*
X212814286Y-65614285D01*
X212909524Y-65661904D01*
X213004762Y-65757142D01*
X213052381Y-65900000D01*
X213052381Y-66138095D01*
X212147619Y-65185714D02*
X212100000Y-65138095D01*
X212052381Y-65042857D01*
X212052381Y-64804761D01*
X212100000Y-64709523D01*
X212147619Y-64661904D01*
X212242857Y-64614285D01*
X212338095Y-64614285D01*
X212480952Y-64661904D01*
X213052381Y-65233333D01*
X213052381Y-64614285D01*
X208761905Y-68552381D02*
X208761905Y-67552381D01*
X209000000Y-67552381D01*
X209142858Y-67600000D01*
X209238096Y-67695238D01*
X209285715Y-67790476D01*
X209333334Y-67980952D01*
X209333334Y-68123810D01*
X209285715Y-68314286D01*
X209238096Y-68409524D01*
X209142858Y-68504762D01*
X209000000Y-68552381D01*
X208761905Y-68552381D01*
X209666667Y-67552381D02*
X210285715Y-67552381D01*
X209952381Y-67933333D01*
X210095239Y-67933333D01*
X210190477Y-67980952D01*
X210238096Y-68028571D01*
X210285715Y-68123810D01*
X210285715Y-68361905D01*
X210238096Y-68457143D01*
X210190477Y-68504762D01*
X210095239Y-68552381D01*
X209809524Y-68552381D01*
X209714286Y-68504762D01*
X209666667Y-68457143D01*
X206623810Y-76052381D02*
X206623810Y-75052381D01*
X207671429Y-75957143D02*
X207623810Y-76004762D01*
X207480953Y-76052381D01*
X207385715Y-76052381D01*
X207242857Y-76004762D01*
X207147619Y-75909524D01*
X207100000Y-75814286D01*
X207052381Y-75623810D01*
X207052381Y-75480952D01*
X207100000Y-75290476D01*
X207147619Y-75195238D01*
X207242857Y-75100000D01*
X207385715Y-75052381D01*
X207480953Y-75052381D01*
X207623810Y-75100000D01*
X207671429Y-75147619D01*
X208623810Y-76052381D02*
X208052381Y-76052381D01*
X208338095Y-76052381D02*
X208338095Y-75052381D01*
X208242857Y-75195238D01*
X208147619Y-75290476D01*
X208052381Y-75338095D01*
X211452381Y-81966666D02*
X210976190Y-82300000D01*
X211452381Y-82538095D02*
X210452381Y-82538095D01*
X210452381Y-82157142D01*
X210500000Y-82061904D01*
X210547619Y-82014285D01*
X210642857Y-81966666D01*
X210785714Y-81966666D01*
X210880952Y-82014285D01*
X210928571Y-82061904D01*
X210976190Y-82157142D01*
X210976190Y-82538095D01*
X210452381Y-81061904D02*
X210452381Y-81538095D01*
X210928571Y-81585714D01*
X210880952Y-81538095D01*
X210833333Y-81442857D01*
X210833333Y-81204761D01*
X210880952Y-81109523D01*
X210928571Y-81061904D01*
X211023810Y-81014285D01*
X211261905Y-81014285D01*
X211357143Y-81061904D01*
X211404762Y-81109523D01*
X211452381Y-81204761D01*
X211452381Y-81442857D01*
X211404762Y-81538095D01*
X211357143Y-81585714D01*
X214033334Y-78852381D02*
X213700000Y-78376190D01*
X213461905Y-78852381D02*
X213461905Y-77852381D01*
X213842858Y-77852381D01*
X213938096Y-77900000D01*
X213985715Y-77947619D01*
X214033334Y-78042857D01*
X214033334Y-78185714D01*
X213985715Y-78280952D01*
X213938096Y-78328571D01*
X213842858Y-78376190D01*
X213461905Y-78376190D01*
X214890477Y-77852381D02*
X214700000Y-77852381D01*
X214604762Y-77900000D01*
X214557143Y-77947619D01*
X214461905Y-78090476D01*
X214414286Y-78280952D01*
X214414286Y-78661905D01*
X214461905Y-78757143D01*
X214509524Y-78804762D01*
X214604762Y-78852381D01*
X214795239Y-78852381D01*
X214890477Y-78804762D01*
X214938096Y-78757143D01*
X214985715Y-78661905D01*
X214985715Y-78423810D01*
X214938096Y-78328571D01*
X214890477Y-78280952D01*
X214795239Y-78233333D01*
X214604762Y-78233333D01*
X214509524Y-78280952D01*
X214461905Y-78328571D01*
X214414286Y-78423810D01*
X208733334Y-83852381D02*
X208400000Y-83376190D01*
X208161905Y-83852381D02*
X208161905Y-82852381D01*
X208542858Y-82852381D01*
X208638096Y-82900000D01*
X208685715Y-82947619D01*
X208733334Y-83042857D01*
X208733334Y-83185714D01*
X208685715Y-83280952D01*
X208638096Y-83328571D01*
X208542858Y-83376190D01*
X208161905Y-83376190D01*
X209304762Y-83280952D02*
X209209524Y-83233333D01*
X209161905Y-83185714D01*
X209114286Y-83090476D01*
X209114286Y-83042857D01*
X209161905Y-82947619D01*
X209209524Y-82900000D01*
X209304762Y-82852381D01*
X209495239Y-82852381D01*
X209590477Y-82900000D01*
X209638096Y-82947619D01*
X209685715Y-83042857D01*
X209685715Y-83090476D01*
X209638096Y-83185714D01*
X209590477Y-83233333D01*
X209495239Y-83280952D01*
X209304762Y-83280952D01*
X209209524Y-83328571D01*
X209161905Y-83376190D01*
X209114286Y-83471429D01*
X209114286Y-83661905D01*
X209161905Y-83757143D01*
X209209524Y-83804762D01*
X209304762Y-83852381D01*
X209495239Y-83852381D01*
X209590477Y-83804762D01*
X209638096Y-83757143D01*
X209685715Y-83661905D01*
X209685715Y-83471429D01*
X209638096Y-83376190D01*
X209590477Y-83328571D01*
X209495239Y-83280952D01*
X212052381Y-60266666D02*
X211576190Y-60600000D01*
X212052381Y-60838095D02*
X211052381Y-60838095D01*
X211052381Y-60457142D01*
X211100000Y-60361904D01*
X211147619Y-60314285D01*
X211242857Y-60266666D01*
X211385714Y-60266666D01*
X211480952Y-60314285D01*
X211528571Y-60361904D01*
X211576190Y-60457142D01*
X211576190Y-60838095D01*
X212052381Y-59790476D02*
X212052381Y-59600000D01*
X212004762Y-59504761D01*
X211957143Y-59457142D01*
X211814286Y-59361904D01*
X211623810Y-59314285D01*
X211242857Y-59314285D01*
X211147619Y-59361904D01*
X211100000Y-59409523D01*
X211052381Y-59504761D01*
X211052381Y-59695238D01*
X211100000Y-59790476D01*
X211147619Y-59838095D01*
X211242857Y-59885714D01*
X211480952Y-59885714D01*
X211576190Y-59838095D01*
X211623810Y-59790476D01*
X211671429Y-59695238D01*
X211671429Y-59504761D01*
X211623810Y-59409523D01*
X211576190Y-59361904D01*
X211480952Y-59314285D01*
X209952381Y-60342857D02*
X209476190Y-60676191D01*
X209952381Y-60914286D02*
X208952381Y-60914286D01*
X208952381Y-60533333D01*
X209000000Y-60438095D01*
X209047619Y-60390476D01*
X209142857Y-60342857D01*
X209285714Y-60342857D01*
X209380952Y-60390476D01*
X209428571Y-60438095D01*
X209476190Y-60533333D01*
X209476190Y-60914286D01*
X209952381Y-59390476D02*
X209952381Y-59961905D01*
X209952381Y-59676191D02*
X208952381Y-59676191D01*
X209095238Y-59771429D01*
X209190476Y-59866667D01*
X209238095Y-59961905D01*
X208952381Y-58771429D02*
X208952381Y-58676190D01*
X209000000Y-58580952D01*
X209047619Y-58533333D01*
X209142857Y-58485714D01*
X209333333Y-58438095D01*
X209571429Y-58438095D01*
X209761905Y-58485714D01*
X209857143Y-58533333D01*
X209904762Y-58580952D01*
X209952381Y-58676190D01*
X209952381Y-58771429D01*
X209904762Y-58866667D01*
X209857143Y-58914286D01*
X209761905Y-58961905D01*
X209571429Y-59009524D01*
X209333333Y-59009524D01*
X209142857Y-58961905D01*
X209047619Y-58914286D01*
X209000000Y-58866667D01*
X208952381Y-58771429D01*
X206638095Y-64652381D02*
X206638095Y-65461905D01*
X206685714Y-65557143D01*
X206733333Y-65604762D01*
X206828571Y-65652381D01*
X207019048Y-65652381D01*
X207114286Y-65604762D01*
X207161905Y-65557143D01*
X207209524Y-65461905D01*
X207209524Y-64652381D01*
X208209524Y-65652381D02*
X207638095Y-65652381D01*
X207923809Y-65652381D02*
X207923809Y-64652381D01*
X207828571Y-64795238D01*
X207733333Y-64890476D01*
X207638095Y-64938095D01*
X215123809Y-65976190D02*
X215123809Y-66452381D01*
X214790476Y-65452381D02*
X215123809Y-65976190D01*
X215457143Y-65452381D01*
X216314286Y-66452381D02*
X215742857Y-66452381D01*
X216028571Y-66452381D02*
X216028571Y-65452381D01*
X215933333Y-65595238D01*
X215838095Y-65690476D01*
X215742857Y-65738095D01*
X203957143Y-56557143D02*
X203909524Y-56604762D01*
X203766667Y-56652381D01*
X203671429Y-56652381D01*
X203528571Y-56604762D01*
X203433333Y-56509524D01*
X203385714Y-56414286D01*
X203338095Y-56223810D01*
X203338095Y-56080952D01*
X203385714Y-55890476D01*
X203433333Y-55795238D01*
X203528571Y-55700000D01*
X203671429Y-55652381D01*
X203766667Y-55652381D01*
X203909524Y-55700000D01*
X203957143Y-55747619D01*
X204909524Y-56652381D02*
X204338095Y-56652381D01*
X204623809Y-56652381D02*
X204623809Y-55652381D01*
X204528571Y-55795238D01*
X204433333Y-55890476D01*
X204338095Y-55938095D01*
X205766667Y-55985714D02*
X205766667Y-56652381D01*
X205528571Y-55604762D02*
X205290476Y-56319048D01*
X205909524Y-56319048D01*
%LPC*%
D13*
X212450000Y-86530000D03*
D14*
X212450000Y-89070000D03*
X209910000Y-86530000D03*
X209910000Y-89070000D03*
X207370000Y-86530000D03*
X207370000Y-89070000D03*
X204830000Y-86530000D03*
X204830000Y-89070000D03*
X202290000Y-86530000D03*
X202290000Y-89070000D03*
X199750000Y-86530000D03*
X199750000Y-89070000D03*
D15*
X201700000Y-63650000D03*
X201700000Y-62550000D03*
D16*
X199500000Y-63600000D03*
X199500000Y-60600000D03*
D17*
X205250000Y-67400000D03*
X204150000Y-67400000D03*
D18*
X205800000Y-61500000D03*
X203800000Y-61500000D03*
D17*
X199950000Y-73800000D03*
X198850000Y-73800000D03*
D15*
X207600000Y-63850000D03*
X207600000Y-62750000D03*
X214400000Y-72850000D03*
X214400000Y-73950000D03*
X215900000Y-73950000D03*
X215900000Y-72850000D03*
D17*
X199950000Y-72400000D03*
X198850000Y-72400000D03*
X212450000Y-83400000D03*
X213550000Y-83400000D03*
D19*
X200098960Y-67800760D03*
X201501040Y-67800760D03*
X200800000Y-65801780D03*
D20*
X211300000Y-66449300D03*
X211300000Y-64950700D03*
X209500000Y-66449300D03*
X209500000Y-64950700D03*
D21*
X211750000Y-77100000D03*
X211750000Y-76300000D03*
X211750000Y-75500000D03*
X211750000Y-74700000D03*
X211750000Y-73900000D03*
X211750000Y-73100000D03*
X211750000Y-72300000D03*
X211750000Y-71500000D03*
D22*
X210300000Y-70050000D03*
X209500000Y-70050000D03*
X208700000Y-70050000D03*
X207900000Y-70050000D03*
X207100000Y-70050000D03*
X206300000Y-70050000D03*
X205500000Y-70050000D03*
X204700000Y-70050000D03*
D21*
X203250000Y-71500000D03*
X203250000Y-72300000D03*
X203250000Y-73100000D03*
X203250000Y-73900000D03*
X203250000Y-74700000D03*
X203250000Y-75500000D03*
X203250000Y-76300000D03*
X203250000Y-77100000D03*
D22*
X204700000Y-78550000D03*
X205500000Y-78550000D03*
X206300000Y-78550000D03*
X207100000Y-78550000D03*
X207900000Y-78550000D03*
X208700000Y-78550000D03*
X209500000Y-78550000D03*
X210300000Y-78550000D03*
D23*
X212150000Y-81700000D03*
X213650000Y-81700000D03*
X212150000Y-79900000D03*
X213650000Y-79900000D03*
X207950000Y-82000000D03*
X209450000Y-82000000D03*
D24*
X211600000Y-61750000D03*
X211600000Y-63250000D03*
X209500000Y-61750000D03*
X209500000Y-63250000D03*
D25*
X203230000Y-63847500D03*
X203230000Y-65752500D03*
X205770000Y-63847500D03*
X203230000Y-64800000D03*
X205770000Y-65752500D03*
D26*
X214650000Y-68100000D03*
X213700000Y-68100000D03*
X212750000Y-68100000D03*
D27*
X216800000Y-89150000D03*
D28*
X216800000Y-86610000D03*
X216800000Y-84070000D03*
X216800000Y-81530000D03*
X216800000Y-78990000D03*
X216800000Y-76450000D03*
D29*
X202200000Y-57600000D03*
X199200000Y-57600000D03*
M02*
