G04 #@! TF.FileFunction,Soldermask,Top*
%FSLAX46Y46*%
G04 Gerber Fmt 4.6, Leading zero omitted, Abs format (unit mm)*
G04 Created by KiCad (PCBNEW (2014-11-21 BZR 5297)-product) date So 01 Feb 2015 20:06:03 CET*
%MOMM*%
G01*
G04 APERTURE LIST*
%ADD10C,0.100000*%
%ADD11R,1.927200X1.927200*%
%ADD12O,1.927200X1.927200*%
%ADD13R,0.700000X0.800000*%
%ADD14R,1.800000X1.200000*%
%ADD15R,0.800000X0.700000*%
%ADD16R,1.200000X1.450000*%
%ADD17R,1.000100X1.000100*%
%ADD18R,0.997560X0.997560*%
%ADD19R,1.800000X0.750000*%
%ADD20R,0.750000X1.800000*%
%ADD21R,0.700000X1.100000*%
%ADD22R,1.100000X0.700000*%
%ADD23R,0.962000X0.708000*%
%ADD24R,0.500000X2.200000*%
%ADD25R,2.232000X1.927200*%
%ADD26O,2.232000X1.927200*%
G04 APERTURE END LIST*
D10*
D11*
X212450000Y-86530000D03*
D12*
X212450000Y-89070000D03*
X209910000Y-86530000D03*
X209910000Y-89070000D03*
X207370000Y-86530000D03*
X207370000Y-89070000D03*
X204830000Y-86530000D03*
X204830000Y-89070000D03*
X202290000Y-86530000D03*
X202290000Y-89070000D03*
X199750000Y-86530000D03*
X199750000Y-89070000D03*
D13*
X201700000Y-63650000D03*
X201700000Y-62550000D03*
D14*
X199500000Y-63600000D03*
X199500000Y-60600000D03*
D15*
X205250000Y-67400000D03*
X204150000Y-67400000D03*
D16*
X205800000Y-61500000D03*
X203800000Y-61500000D03*
D15*
X199950000Y-73800000D03*
X198850000Y-73800000D03*
D13*
X207600000Y-63850000D03*
X207600000Y-62750000D03*
X214400000Y-72850000D03*
X214400000Y-73950000D03*
X215900000Y-73950000D03*
X215900000Y-72850000D03*
D15*
X199950000Y-72400000D03*
X198850000Y-72400000D03*
X212450000Y-83400000D03*
X213550000Y-83400000D03*
D17*
X200098960Y-67800760D03*
X201501040Y-67800760D03*
X200800000Y-65801780D03*
D18*
X211300000Y-66449300D03*
X211300000Y-64950700D03*
X209500000Y-66449300D03*
X209500000Y-64950700D03*
D19*
X211750000Y-77100000D03*
X211750000Y-76300000D03*
X211750000Y-75500000D03*
X211750000Y-74700000D03*
X211750000Y-73900000D03*
X211750000Y-73100000D03*
X211750000Y-72300000D03*
X211750000Y-71500000D03*
D20*
X210300000Y-70050000D03*
X209500000Y-70050000D03*
X208700000Y-70050000D03*
X207900000Y-70050000D03*
X207100000Y-70050000D03*
X206300000Y-70050000D03*
X205500000Y-70050000D03*
X204700000Y-70050000D03*
D19*
X203250000Y-71500000D03*
X203250000Y-72300000D03*
X203250000Y-73100000D03*
X203250000Y-73900000D03*
X203250000Y-74700000D03*
X203250000Y-75500000D03*
X203250000Y-76300000D03*
X203250000Y-77100000D03*
D20*
X204700000Y-78550000D03*
X205500000Y-78550000D03*
X206300000Y-78550000D03*
X207100000Y-78550000D03*
X207900000Y-78550000D03*
X208700000Y-78550000D03*
X209500000Y-78550000D03*
X210300000Y-78550000D03*
D21*
X212150000Y-81700000D03*
X213650000Y-81700000D03*
X212150000Y-79900000D03*
X213650000Y-79900000D03*
X207950000Y-82000000D03*
X209450000Y-82000000D03*
D22*
X211600000Y-61750000D03*
X211600000Y-63250000D03*
X209500000Y-61750000D03*
X209500000Y-63250000D03*
D23*
X203230000Y-63847500D03*
X203230000Y-65752500D03*
X205770000Y-63847500D03*
X203230000Y-64800000D03*
X205770000Y-65752500D03*
D24*
X214650000Y-68100000D03*
X213700000Y-68100000D03*
X212750000Y-68100000D03*
D25*
X216800000Y-89150000D03*
D26*
X216800000Y-86610000D03*
X216800000Y-84070000D03*
X216800000Y-81530000D03*
X216800000Y-78990000D03*
X216800000Y-76450000D03*
M02*
